<?xml version="1.0" encoding="utf-8"?>
<!-- Generator: Adobe Illustrator 26.5.0, SVG Export Plug-In . SVG Version: 6.00 Build 0)  -->
<svg version="1.0" id="Layer_1" xmlns="http://www.w3.org/2000/svg" xmlns:xlink="http://www.w3.org/1999/xlink" x="0px" y="0px"
	 width="200px" height="200px" viewBox="0 0 200 200" enable-background="new 0 0 200 200" xml:space="preserve">
<g>
	<path fill="#E83324" d="M160,29c0.1,0.1,0.2,0.2,0.3,0.3c1,1.3,2.5,0.6,3.7,0.7c1.5,0.1,2.3,0.5,2.3,2.2c0,10.6,0,21.1,0,31.7
		c0,1.5-0.4,2.2-2.2,1.9c-1.4-0.2-3.5-0.8-4.2,1.6c0,0,0.1,0.1,0.1,0.1c-1.4,0.2-1.1,1.2-1.1,2.1c0,3,0,6,0,9c0,1.7-0.9,2.8-2.7,2.3
		c-1.7-0.5-3-0.1-4.5,0.7c-3.8,2-6.6,0.4-6.8-3.9c-0.1-2.1-1.2-3.1-3.4-3.1c-15.8-0.2-31.6,0.3-47.4-0.3c-5.8-0.2-11.7,0-17.6,0.2
		c-5.5,0.2-5.7,0.1-6.5-5.2c-0.3-1.9-1-2.4-2.7-2.3c-2.4,0.1-4.8,0-7.2,0c-4.3,0-4.6-0.4-4.6-4.7c0-2.9-0.4-3.3-3.4-3.3
		c-5.3,0-10.7-0.1-16,0c-1.6,0-2.2-0.5-2.2-2.1c0.1-8.2,0.1-16.3,0-24.5c0-1.9,0.8-2.4,2.6-2.4c1.1,0,2.5,0.7,3.4-0.7l0,0.1
		c0,0-0.1-0.1-0.1-0.1c1.9-0.1,1.6-1.7,1.6-2.8c0.2-2.3,0.2-4.7,0-7c-0.1-2.5-0.1-4.7,3.4-4.3c0.7,0.1,1.5-0.2,2.2-0.3
		c0.9,0,1.5-0.3,1.4-1.3c0-1,0.6-2.1,0.4-2.9C47.8,7.5,50,8,51.9,8c31.9,0,63.9,0,95.8,0c3.2,0,3.4,0.2,3.6,3.5c0,1-0.5,2.3,1.2,2.5
		c0,0-0.1,0-0.1,0c0.7,1.7,2.1,0.9,3.2,0.9c2.3,0,3.3,0.8,3.2,3.2c-0.1,3,0,5.9,0,8.9C158.7,28,158.6,29,160,29z M77.3,38.5
		c-1.5,0.3-1,1.5-1,2.4c-0.2,8.1,0.4,16.3-0.4,24.4c-0.1,1.4,0.7,1.2,1.6,1.2c0.1,0.1,0.3,0.3,0.4,0.4c-0.9,1.9,0.6,1.6,1.5,1.6
		c3.7,0,7.5,0.1,11.2,0c2.5,0,3.6-1.3,3.6-3.7c0-0.7,0.1-1.5,0-2.2c-0.2-1.9,0.8-2.6,2.5-2.5c3,0.1,6-0.3,8.9,0.3
		c1.9,0.4,3.4-0.9,3.5-2.8c0-0.7,0.1-1.5,0-2.2c-0.2-2,0.5-3,2.7-2.8c0.8,0.1,1.9,0.5,2.3-0.8c0.3-0.2,0.6-0.5,0.9-0.7
		c0.9,0.1,1.8-0.1,1.6-1.2c-0.4-1.6,0.3-3.5-1.3-4.8c0,0-0.2,0-0.2,0.1c-0.7-0.8-1.6-0.8-2.5-0.8c-5.1-0.1-5.2-0.1-5.3-5.3
		c0-1.5-0.5-2-2-2c-2.4,0.1-4.8,0-7.2,0c-5.2,0-5.2,0-5.6-5.2c0-0.2-0.1-0.3,0-0.5c0.1-1.4-0.6-1.8-1.9-1.8c-3.7,0.1-7.3,0-11,0
		c-0.9,0-1.7,0.1-2,1c-1.7,1.1-1.7,4.7-0.1,6.1C77.6,37.2,77.6,37.8,77.3,38.5z"/>
	<path fill="#BB281C" d="M39.7,29.3c-0.9,1.3-2.3,0.7-3.4,0.7c-1.8,0-2.6,0.5-2.6,2.4c0.1,8.2,0.1,16.3,0,24.5
		c0,1.6,0.5,2.2,2.2,2.1c5.3-0.1,10.7,0,16,0c2.9,0,3.3,0.4,3.4,3.3c0,4.3,0.4,4.6,4.6,4.7c2.4,0,4.8,0.1,7.2,0
		c1.7-0.1,2.4,0.4,2.7,2.3c0.8,5.2,1,5.4,6.5,5.2c5.9-0.2,11.7-0.4,17.6-0.2c15.8,0.5,31.6,0,47.4,0.3c2.1,0,3.2,1,3.4,3.1
		c0.2,4.3,3,5.9,6.8,3.9c1.5-0.8,2.8-1.2,4.5-0.7c1.8,0.5,2.7-0.5,2.7-2.3c0-3,0-6,0-9c0-0.9-0.2-1.9,1.1-2.1
		c0,3.9-0.1,7.8,0.1,11.7c0.1,2.2-0.5,2.9-2.8,2.8c-4.7-0.1-4.8,0-4.7,4.5c0.1,2.3-0.7,2.9-2.9,2.9c-28.6-0.1-57.3,0-85.9,0
		c-4.5,0-9-0.1-13.5,0c-2,0.1-3-0.5-2.7-2.6c0.2-1.1-0.3-2.3,0.4-3.4c0.6-0.8,0.5-1.2-0.5-1.3c-1.6,0-3.2-0.2-4.7,0
		c-2.2,0.2-2.7-0.7-2.6-2.7c0.1-3.3,0-6.7,0.1-10c0.1-1.7-0.6-2.3-2.3-2.3c-5.2,0-5.2-0.1-5.2-5.2c0-9.8,0-19.6,0-29.5
		c0-1-0.2-2,0.7-2.8l0,0C35.4,28.9,37.6,29.3,39.7,29.3z"/>
	<path fill="#BB281C" d="M152.4,14.1c-1.7-0.2-1.2-1.5-1.2-2.5c-0.1-3.3-0.3-3.5-3.6-3.5c-31.9,0-63.9,0-95.8,0
		c-1.9,0-4.1-0.5-3.2,2.8c0.2,0.8-0.4,1.9-0.4,2.9c0,1-0.6,1.2-1.4,1.3c-0.7,0-1.5,0.3-2.2,0.3c-3.5-0.4-3.5,1.8-3.4,4.3
		c0.1,2.3,0.1,4.7,0,7c-0.1,1.1,0.3,2.7-1.6,2.8c1-3.8,0.3-7.8,0.5-11.7c0.2-3.9-0.4-3.4,3.5-3.4c4.3-0.1,4.3,0,3.8-4.3
		c-0.3-2.6,0.2-3.2,2.9-3.2c33.1,0,66.2,0,99.3-0.1c2.5,0,3.2,0.7,3,3.1C152.3,11.2,152.4,12.7,152.4,14.1z"/>
	<path fill="#BB281C" d="M159.8,67.3c0.7-2.4,2.8-1.8,4.2-1.6c1.9,0.3,2.2-0.4,2.2-1.9c0-10.6,0-21.1,0-31.7c0-1.7-0.7-2.1-2.3-2.2
		c-1.2,0-2.7,0.7-3.7-0.7c1.7,0.2,3.5,0.2,5.2-0.1c1.3-0.2,2,0.3,1.9,1.8c0,11.4,0,22.8,0,34.1c0,1.4-0.5,1.9-1.9,1.9
		C163.6,67,161.7,66.7,159.8,67.3z"/>
	<path fill="#BB281C" d="M160,29c-1.4,0-1.3-1-1.3-1.9c0-3-0.1-5.9,0-8.9c0.1-2.4-0.9-3.2-3.2-3.2c-1.1,0-2.5,0.8-3.2-0.9
		c1.9,0.1,3.8,0.3,5.7,0.2c1.6-0.1,2,0.5,2,2C159.9,20.5,160,24.7,160,29z"/>
	<path fill="#E83324" d="M47.4,82c1,0.1,1.2,0.6,0.5,1.3C47.2,83.1,47.4,82.5,47.4,82z"/>
	<path fill="#E83324" d="M33.3,29.5c-0.1,0-0.1,0-0.2-0.1c0,0,0-0.1,0-0.1C33.2,29.4,33.2,29.4,33.3,29.5
		C33.2,29.5,33.3,29.5,33.3,29.5z"/>
	<path fill="#FEFEFD" d="M77.5,30.5c0.4-1,1.1-1,2-1c3.7,0,7.3,0.1,11,0c1.3,0,2.1,0.3,1.9,1.8c0,0.2,0,0.3,0,0.5
		c0.4,5.2,0.4,5.2,5.6,5.2c2.4,0,4.8,0.1,7.2,0c1.5-0.1,2,0.5,2,2c0.1,5.2,0.2,5.2,5.3,5.3c0.9,0,1.8,0,2.5,0.8c-0.3,2-0.2,4-0.1,6
		c-0.3,0.2-0.6,0.5-0.9,0.7c-6.5-0.8-6.6-0.8-6.7,5.1c0,1.8-0.7,2.3-2.4,2.2c-2.2-0.1-4.5,0-6.7,0c-5.7,0-5.8,0-5.9,5.6
		c0,1.8-0.7,2.3-2.3,2.2c-4.1-0.1-8.3,0-12.4,0c-0.1-0.1-0.3-0.3-0.4-0.4c0-1,0-2,0-3c-0.1-8.3-0.1-16.7-0.2-25
		c0.3-0.6,0.3-1.3,0.1-1.9C77.9,34.5,77.8,32.5,77.5,30.5z"/>
	<path fill="#BB281C" d="M77.9,66.9c4.1,0,8.3-0.1,12.4,0c1.7,0,2.3-0.5,2.3-2.2c0.1-5.6,0.1-5.6,5.9-5.6c2.2,0,4.5-0.1,6.7,0
		c1.6,0.1,2.3-0.4,2.4-2.2c0.1-5.9,0.2-5.9,6.7-5.1c-0.4,1.3-1.5,0.8-2.3,0.8c-2.1-0.2-2.9,0.8-2.7,2.8c0.1,0.7,0,1.5,0,2.2
		c-0.1,1.9-1.6,3.3-3.5,2.8c-3-0.7-6-0.2-8.9-0.3c-1.7-0.1-2.7,0.6-2.5,2.5c0.1,0.7,0,1.5,0,2.2c0,2.4-1.1,3.6-3.6,3.7
		c-3.7,0.1-7.5,0-11.2,0C78.5,68.4,77,68.8,77.9,66.9z"/>
	<path fill="#BB281C" d="M77.3,38.5c0.1,8.3,0.1,16.7,0.2,25c0,1,0,2,0,3c-0.8,0-1.7,0.2-1.6-1.2c0.8-8.1,0.1-16.2,0.4-24.4
		C76.3,40,75.8,38.8,77.3,38.5z"/>
	<path fill="#BB281C" d="M77.5,30.5c0.4,2,0.4,4-0.1,6.1C75.7,35.2,75.8,31.6,77.5,30.5z"/>
	<path fill="#BB281C" d="M115.1,51c-0.1-2-0.2-4,0.1-6c0.1,0,0.2-0.1,0.2-0.1c1.6,1.3,0.9,3.2,1.3,4.8C116.9,50.9,116,51,115.1,51z"
		/>
</g>
<g>
	<path d="M38.8,97.8h12.3l7.2,12.1l7.2-12.1h12.2l-13.9,20.8v15H52.7v-15L38.8,97.8z"/>
	<path d="M76.9,115.7c0-5.8,1.6-10.4,4.9-13.6c3.3-3.3,7.8-4.9,13.6-4.9c6,0,10.5,1.6,13.8,4.8c3.2,3.2,4.8,7.7,4.8,13.4
		c0,4.2-0.7,7.6-2.1,10.3c-1.4,2.7-3.4,4.8-6.1,6.2c-2.7,1.5-6,2.2-9.9,2.2c-4,0-7.4-0.6-10-1.9c-2.6-1.3-4.8-3.3-6.4-6.1
		C77.7,123.4,76.9,119.9,76.9,115.7z M87.9,115.8c0,3.6,0.7,6.2,2,7.8c1.3,1.6,3.2,2.4,5.5,2.4c2.4,0,4.2-0.8,5.5-2.3
		c1.3-1.5,2-4.3,2-8.3c0-3.4-0.7-5.8-2-7.4c-1.4-1.6-3.2-2.3-5.5-2.3c-2.2,0-4,0.8-5.4,2.4C88.6,109.5,87.9,112.1,87.9,115.8z"/>
	<path d="M143.2,97.8h11v21.3c0,2.1-0.3,4.1-1,6s-1.7,3.5-3.1,4.9c-1.4,1.4-2.9,2.4-4.4,3c-2.1,0.8-4.7,1.2-7.7,1.2
		c-1.7,0-3.6-0.1-5.7-0.4s-3.8-0.7-5.2-1.5c-1.4-0.7-2.6-1.8-3.8-3.1c-1.1-1.3-1.9-2.7-2.4-4.1c-0.7-2.3-1-4.3-1-6V97.8h11v21.8
		c0,2,0.5,3.5,1.6,4.6s2.6,1.6,4.5,1.6c1.9,0,3.4-0.5,4.5-1.6s1.6-2.6,1.6-4.6V97.8z"/>
	<path d="M23.1,157.8h33.6v8.8H45.4v27H34.4v-27H23.1V157.8z"/>
	<path d="M85,157.8h11v21.3c0,2.1-0.3,4.1-1,6s-1.7,3.5-3.1,4.9c-1.4,1.4-2.9,2.4-4.4,3c-2.1,0.8-4.7,1.2-7.7,1.2
		c-1.7,0-3.6-0.1-5.7-0.4c-2.1-0.2-3.8-0.7-5.2-1.5c-1.4-0.7-2.6-1.8-3.8-3.1c-1.1-1.3-1.9-2.7-2.4-4.1c-0.7-2.3-1-4.3-1-6v-21.3h11
		v21.8c0,2,0.5,3.5,1.6,4.6c1.1,1.1,2.6,1.6,4.5,1.6c1.9,0,3.4-0.5,4.5-1.6c1.1-1.1,1.6-2.6,1.6-4.6V157.8z"/>
	<path d="M103.4,157.8h20.7c3.5,0,6.1,0.9,7.9,2.6c1.8,1.7,2.8,3.8,2.8,6.3c0,2.1-0.7,3.9-2,5.4c-0.9,1-2.2,1.8-3.9,2.4
		c2.6,0.6,4.5,1.7,5.7,3.2c1.2,1.5,1.8,3.4,1.8,5.7c0,1.9-0.4,3.5-1.3,5c-0.9,1.5-2,2.7-3.5,3.5c-0.9,0.5-2.3,0.9-4.2,1.2
		c-2.5,0.3-4.1,0.5-5,0.5h-19.1V157.8z M114.5,171.8h4.8c1.7,0,2.9-0.3,3.6-0.9c0.7-0.6,1-1.5,1-2.6c0-1-0.3-1.9-1-2.4
		c-0.7-0.6-1.9-0.9-3.5-0.9h-4.9V171.8z M114.5,185.9h5.6c1.9,0,3.2-0.3,4-1c0.8-0.7,1.2-1.6,1.2-2.7c0-1.1-0.4-1.9-1.2-2.6
		c-0.8-0.6-2.1-1-4.1-1h-5.6V185.9z"/>
	<path d="M142.2,157.8h29.6v7.6h-18.6v5.7h17.2v7.3h-17.2v7.1h19.1v8.1h-30.2V157.8z"/>
</g>
</svg>
