<?xml version="1.0" encoding="utf-8"?>
<!-- Generator: Adobe Illustrator 26.5.0, SVG Export Plug-In . SVG Version: 6.00 Build 0)  -->
<svg version="1.0" id="Layer_1" xmlns="http://www.w3.org/2000/svg" xmlns:xlink="http://www.w3.org/1999/xlink" x="0px" y="0px"
	 width="60px" height="60px" viewBox="0 0 60 60" enable-background="new 0 0 60 60" xml:space="preserve">
<rect x="34.3" y="21" fill="#FF0033" width="2.9" height="33"/>
<rect x="45.7" y="12" fill="#FF0033" width="2.9" height="39"/>
<rect x="40" y="12" fill="#FF0033" width="2.9" height="42"/>
<rect x="28.6" y="12" fill="#FF0033" width="5.7" height="9"/>
<rect x="42.9" y="9" fill="#FF0033" width="2.9" height="3"/>
<polygon fill="#FF0033" points="40,3 37.1,3 37.1,0 28.6,0 28.6,9 34.3,9 34.3,12 40,12 "/>
<rect x="25.7" y="24" fill="#CC0033" width="2.9" height="30"/>
<rect x="31.4" y="24" fill="#CC0033" width="2.9" height="30"/>
<polygon fill="#CC0033" points="20,54 22.9,54 22.9,24 25.7,24 25.7,21 22.9,21 22.9,15 20,15 "/>
<rect x="37.1" y="15" fill="#CC0033" width="2.9" height="39"/>
<rect x="25.7" y="12" fill="#CC0033" width="2.9" height="9"/>
<rect x="42.9" y="12" fill="#CC0033" width="2.9" height="42"/>
<polygon fill="#CC0033" points="17.1,12 17.1,9 14.3,9 14.3,51 17.1,51 17.1,15 20,15 20,12 "/>
<polygon fill="#CC0033" points="25.7,12 25.7,9 28.6,9 28.6,0 22.9,0 22.9,3 20,3 20,12 "/>
<rect x="45.7" y="51" fill="#660000" width="2.9" height="3"/>
<polygon fill="#660000" points="25.7,21 25.7,24 28.6,24 28.6,54 25.7,54 25.7,24 22.9,24 22.9,54 20,54 20,15 17.1,15 17.1,51 
	14.3,51 14.3,12 11.4,12 11.4,15 8.6,15 8.6,51 11.4,51 11.4,54 17.1,54 17.1,57 42.9,57 42.9,54 31.4,54 31.4,24 34.3,24 34.3,21 
	"/>
<rect x="48.6" y="15" fill="#660000" width="2.9" height="36"/>
<polygon fill="#660000" points="22.9,21 25.7,21 25.7,12 20,12 20,15 22.9,15 "/>
<polygon fill="#660000" points="34.3,12 34.3,21 37.1,21 37.1,15 40,15 40,12 "/>
<rect x="25.7" y="9" fill="#660000" width="8.6" height="3"/>
<rect x="40" y="6" fill="#660000" width="2.9" height="6"/>
<rect x="17.1" y="6" fill="#660000" width="2.9" height="6"/>
<rect x="20" y="57" fill="#CC6666" width="14.3" height="3"/>
<polygon fill="#FFCCCC" points="54.3,60 57.1,60 57.1,54 54.3,54 54.3,51 51.4,51 51.4,57 54.3,57 "/>
<rect x="34.3" y="57" fill="#FFCCCC" width="5.7" height="3"/>
<polygon fill="#FFCCCC" points="8.6,51 5.7,51 5.7,54 2.9,54 2.9,60 5.7,60 5.7,57 8.6,57 "/>
<polygon fill="#FFCCCC" points="5.7,42 5.7,39 8.6,39 8.6,36 2.9,36 2.9,39 0,39 0,42 "/>
<polygon fill="#FFCCCC" points="57.1,36 51.4,36 51.4,39 54.3,39 54.3,42 60,42 60,39 57.1,39 "/>
<polygon fill="#FFCCCC" points="5.7,27 5.7,24 8.6,24 8.6,21 2.9,21 2.9,24 0,24 0,27 "/>
<polygon fill="#FFCCCC" points="57.1,21 51.4,21 51.4,24 54.3,24 54.3,27 60,27 60,24 57.1,24 "/>
<polygon fill="#FFCCCC" points="45.7,12 54.3,12 54.3,0 51.4,0 51.4,8 45.7,8 "/>
<polygon fill="#FFCCCC" points="8.6,0 5.7,0 5.7,12 14.3,12 14.3,8 8.6,8 "/>
<g>
</g>
<g>
</g>
<g>
</g>
<g>
</g>
<g>
</g>
<g>
</g>
<g>
</g>
<g>
</g>
<g>
</g>
<g>
</g>
<g>
</g>
<g>
</g>
<g>
</g>
<g>
</g>
<g>
</g>
</svg>
