<?xml version="1.0" encoding="utf-8"?>
<!-- Generator: Adobe Illustrator 26.5.0, SVG Export Plug-In . SVG Version: 6.00 Build 0)  -->
<svg version="1.0" id="Layer_1" xmlns="http://www.w3.org/2000/svg" xmlns:xlink="http://www.w3.org/1999/xlink" x="0px" y="0px"
	 width="37.8px" height="43.1px" viewBox="0 0 37.8 43.1" enable-background="new 0 0 37.8 43.1" xml:space="preserve">
<g>
	<path fill="#214CE4" d="M0.2,0.5c12.4,0,24.9,0,37.3,0c0,0.3,0,0.5,0,0.8c0,0.1-0.1,0.3-0.1,0.4c0,0.2-0.1,0.4-0.1,0.5
		c0,0.1,0,0.3,0,0.4c0,0.4,0,0.8,0,1.2c0,0.1-0.1,0.2-0.1,0.3c-0.1,0.2-0.2,0.4,0,0.6c0,0.1,0,0.2-0.1,0.3c0,0.5,0,1-0.1,1.6
		c-0.1,0.6-0.1,1.2-0.1,1.8c0,0.1,0,0.3,0,0.4c-0.3,0-0.2,0.3-0.2,0.4c0,0.1,0,0.3,0,0.4c0,0.8,0,1.6-0.2,2.4
		c-0.1,0.6-0.1,1.3-0.1,1.9c0,0.2-0.1,0.4-0.1,0.5c0,0.4,0,0.8,0,1.2c0,0.1-0.1,0.2-0.1,0.3c-0.1,0.2-0.2,0.4,0,0.6
		c0,0.1-0.1,0.3-0.1,0.4c0,0.3,0,0.7,0,1c0,0.1-0.1,0.2-0.1,0.3c-0.1,0.2-0.2,0.4,0,0.6c0,0.1-0.1,0.3-0.1,0.4c0,0.4,0,0.8,0,1.3
		c-0.3,0-0.2,0.3-0.2,0.4c0,0.1,0,0.3,0,0.4c0,0.5,0,1,0,1.5c-0.3,0-0.2,0.3-0.2,0.4c0,0.2,0,0.3,0,0.5c0,0.4,0,0.8-0.1,1.2
		c0,0.1-0.1,0.2-0.1,0.3c-0.1,0.2-0.2,0.4,0,0.6c0,0.1,0,0.1,0,0.2c0,0.3-0.1,0.5-0.1,0.8c0,0.4,0,0.7-0.1,1.1
		c-0.1,0.4-0.1,0.8-0.1,1.2c0,0.2,0,0.5,0,0.7c0,0.1-0.1,0.2-0.1,0.3c-0.1,0.2-0.2,0.4,0,0.6c0,0.1-0.1,0.3-0.1,0.4
		c0,0.4,0,0.7,0,1.1c0,0.1,0,0.1,0,0.2c-0.3,0.3-0.1,0.7-0.2,1c-0.1,0.5,0,1-0.1,1.5c-0.1,0.3-0.1,0.6-0.1,1c0,0.5,0,0.9-0.1,1.4
		c-0.1,0.4-0.1,0.9-0.1,1.3c-0.1,0-0.2,0-0.3,0.1c-0.2,0.2-0.4,0.2-0.6,0.2c-0.1,0-0.2,0-0.3,0.1c-0.1,0.2-0.3,0.1-0.4,0.1
		c-0.1,0-0.1,0-0.2,0c-0.2,0.1-0.5,0.1-0.7,0.2c-0.1,0-0.2,0-0.2,0.1c-0.1,0.2-0.3,0.1-0.4,0.1c-0.1,0-0.1,0-0.2,0
		c-0.2,0.1-0.5,0.1-0.7,0.2c0,0-0.1,0-0.1,0c-0.2,0.3-0.4,0.2-0.6,0.2c-0.1,0-0.2,0-0.3,0.1c-0.1,0.2-0.2,0.1-0.4,0.1
		c-0.1,0-0.2,0-0.2,0c-0.2,0.1-0.5,0.2-0.7,0.2c-0.1,0-0.2,0-0.2,0.1c-0.1,0.2-0.2,0.1-0.4,0.1c-0.2,0-0.4,0-0.5,0.1
		c-0.1,0.1-0.2,0.1-0.4,0.1c-0.1,0-0.2,0-0.2,0c-0.2,0.1-0.5,0.1-0.7,0.2c-0.1,0-0.1,0-0.2,0c-0.1,0.2-0.3,0.2-0.5,0.2
		c-0.1,0-0.1,0-0.2,0c-0.2,0.1-0.5,0.2-0.7,0.2c-0.1,0-0.2,0-0.2,0c-0.2,0.3-0.4,0.2-0.6,0.2c-0.1,0-0.2,0-0.3,0.1
		c-0.1,0.1-0.2,0.1-0.3,0.1c-0.1,0-0.2,0-0.3,0C22.2,41.9,22,42,21.7,42c-0.1,0-0.1,0-0.2,0.1c-0.1,0.2-0.2,0.2-0.4,0.2
		c-0.1,0-0.1,0-0.2,0c-0.2,0.1-0.5,0.1-0.7,0.2c-0.1,0-0.2,0.1-0.2,0.2c-0.8,0-1.5,0-2.3,0c0-0.2-0.1-0.2-0.3-0.2
		c-0.1,0-0.2,0-0.3,0c-0.2-0.1-0.5-0.1-0.7-0.2c-0.1,0-0.2-0.1-0.2-0.1c-0.1,0-0.2-0.1-0.3-0.1c-0.2,0-0.5,0.1-0.6-0.2
		c0,0-0.1,0-0.2,0c-0.1,0-0.2,0-0.3,0c-0.2-0.1-0.5-0.1-0.7-0.2c-0.1,0-0.1-0.1-0.2-0.1c-0.1,0-0.2-0.1-0.3-0.1c-0.1,0-0.2,0-0.3,0
		c-0.3-0.1-0.5-0.1-0.8-0.2c0,0-0.1,0-0.1-0.1C12.3,40.9,12.1,41,12,41c-0.1,0-0.3,0-0.4-0.1c-0.1-0.1-0.3-0.2-0.4-0.1
		c-0.1,0-0.2,0-0.2-0.1c-0.3-0.2-0.8-0.1-1.1-0.4c0,0-0.1,0-0.2,0c-0.1,0-0.1,0-0.2,0c-0.2-0.1-0.5-0.1-0.7-0.2
		c-0.1,0-0.1,0-0.2-0.1c-0.1,0-0.2-0.1-0.4-0.1c-0.1,0-0.3,0-0.4,0c-0.2-0.3-0.6-0.1-0.8-0.3c-0.2-0.1-0.5,0-0.6-0.1
		c-0.3-0.3-0.6-0.1-0.9-0.3c-0.2-0.1-0.5,0-0.6-0.2c-0.2-0.2-0.4-0.2-0.7-0.2c-0.1,0-0.2,0-0.2-0.1c-0.1-0.1-0.2-0.1-0.3-0.2
		c-0.1-0.2-0.1-0.3-0.1-0.5c0-0.4-0.1-0.8-0.1-1.2c0-0.4,0-0.8-0.1-1.2c-0.1-0.4-0.1-0.9-0.1-1.4c0-0.3-0.1-0.6-0.1-0.9
		c0-0.4-0.1-0.8-0.1-1.3c0-0.4,0.1-0.9-0.1-1.3c-0.1-0.3-0.1-0.7-0.1-1c0-0.4,0-0.8-0.1-1.2c-0.1-0.4-0.1-0.8-0.1-1.3
		c0-0.3,0-0.6,0-1c0-0.2,0.1-0.4-0.1-0.5c0-0.2-0.1-0.4-0.1-0.6c0-0.4,0-0.9,0-1.3c0-0.1,0-0.3,0-0.4c0-0.2,0.1-0.4-0.1-0.5
		c0-0.1-0.1-0.2-0.1-0.3c0-0.4,0-0.9,0-1.3c0-0.1,0-0.3,0-0.4c0-0.2,0.1-0.4-0.2-0.4c0-0.5,0-1,0-1.5c0-0.1,0-0.3,0-0.4
		c0-0.2,0.1-0.4-0.2-0.4c0-0.3,0-0.5,0-0.8c0-0.3,0.1-0.6-0.1-0.8c0.2-0.1,0.2-0.4,0-0.6c0-0.1-0.1-0.2-0.1-0.4c0-0.4,0-0.8,0-1.2
		c0-0.4-0.1-0.8-0.2-1.3c-0.1-0.4,0-0.9-0.1-1.3c-0.1-0.7-0.1-1.4-0.1-2c0-0.1,0-0.2,0-0.3C1,9.2,0.9,8.8,0.9,8.4c0-0.4,0-0.7,0-1.1
		c0-0.3-0.2-0.7-0.2-1c0-0.6,0.1-1.2-0.1-1.8C0.7,4.4,0.7,4.1,0.4,4c0-0.6,0.1-1.2-0.1-1.8c0.2-0.2,0.2-0.4,0-0.6
		c0-0.1-0.1-0.2-0.1-0.3C0.2,1,0.2,0.7,0.2,0.5z M8.9,29.3c0,0.2-0.1,0.4,0.2,0.4c0,0.4,0,0.9,0,1.3c0,0.2,0,0.4,0.1,0.6
		C9.1,31.8,9.1,32,9.3,32c0.2,0.3,0.6,0.2,0.8,0.3c0.2,0.1,0.5,0,0.6,0.1c0.2,0.2,0.5,0.2,0.8,0.2c0.1,0,0.1,0.1,0.2,0.1
		c0.1,0,0.2,0.1,0.3,0.1c0.1,0,0.2,0,0.2,0c0.2,0.1,0.5,0.1,0.7,0.2c0.1,0,0.1,0,0.2,0.1c0.1,0,0.2,0.1,0.4,0.1c0.1,0,0.2,0,0.3,0
		c0.2,0.1,0.5,0.1,0.7,0.2c0.1,0,0.1,0.1,0.2,0.1c0.1,0,0.2,0.1,0.3,0.1c0.2,0,0.5,0,0.6,0.2c0,0,0.1,0,0.2,0c0.1,0,0.2,0,0.3,0
		c0.2,0.1,0.5,0.1,0.7,0.2c0.1,0,0.1,0.1,0.2,0.1c0.1,0,0.2,0.1,0.3,0.1c0.1,0,0.3,0,0.4,0.1c0.2,0.1,0.3,0.2,0.5,0.2
		c0.1,0,0.2,0.1,0.3,0.1c0.1,0,0.2,0.1,0.3,0.1c0,1.5,0,3,0,4.6c0,0.1,0,0.2,0,0.3c0.2-0.1,0.4-0.1,0.6-0.1c0.1,0,0.2,0,0.2,0
		c0.1-0.2,0.3-0.2,0.5-0.2c0.1,0,0.3,0,0.3-0.1c0.1-0.2,0.3-0.1,0.4-0.2c0.3-0.1,0.7-0.2,1-0.2c0,0,0,0,0,0c0.1-0.2,0.3-0.2,0.5-0.2
		c0.1,0,0.3,0,0.3-0.1c0.1-0.2,0.3-0.1,0.4-0.2c0.1,0,0.2,0,0.2,0c0.1-0.2,0.4-0.2,0.6-0.2c0.1,0,0.3,0,0.3,0
		c0.2-0.2,0.4-0.2,0.6-0.2c0.1,0,0.3,0,0.3-0.1c0.1-0.2,0.3-0.1,0.4-0.2c0.1,0,0.2,0,0.2,0c0.1-0.2,0.4-0.2,0.6-0.2
		c0.1,0,0.3,0,0.3-0.1c0.1-0.3,0.3-0.2,0.5-0.2c0.1,0,0.1,0,0.2-0.1c0.1-0.2,0.3-0.1,0.4-0.2c0.1,0,0.3,0,0.4,0
		c0.2-0.2,0.4-0.1,0.5-0.2c0.1,0,0.3,0,0.3-0.1c0.3-0.2,0.6-0.2,0.9-0.3c0.2-0.1,0.5,0.1,0.7-0.2c0,0,0.1,0,0.1,0
		c0.2,0,0.5,0,0.4-0.3c0,0,0-0.1,0.1-0.1c0-0.1,0.1-0.2,0.1-0.3c0-0.6,0-1.2,0-1.7c0-0.1,0-0.2,0.1-0.3c0-0.1,0.1-0.2,0.1-0.3
		c0-0.6,0-1.2,0-1.7c0-0.1,0-0.2,0.1-0.3c0-0.1,0.1-0.2,0.1-0.4c0-0.6,0-1.2,0-1.7c0-0.1,0-0.2,0.1-0.3c0-0.1,0.1-0.2,0.1-0.3
		c0-0.6,0-1.2,0-1.8c0-0.1,0-0.2,0.1-0.3c0-0.1,0.1-0.2,0.1-0.3c0-0.6,0-1.1,0-1.7c0-0.1,0-0.2,0.1-0.3c0-0.1,0.1-0.2,0.1-0.3
		c0-0.6,0-1.2,0-1.8c0-0.1,0-0.2,0.1-0.3c0-0.1,0.1-0.2,0.1-0.4c0-0.6,0-1.1,0-1.7c0-0.1,0-0.2,0.1-0.3c0-0.1,0.1-0.2,0.1-0.3
		c0-0.6,0-1.2,0-1.8c0-0.1,0.1-0.2,0.1-0.3c0-0.1,0.1-0.2,0.1-0.3c0-0.6,0-1.2,0-1.8c0-0.1,0.1-0.2,0.1-0.3c0-0.1,0.1-0.2,0.1-0.3
		c0-0.6,0-1.2,0-1.7c0-0.1,0-0.2,0.1-0.3c0-0.1,0.1-0.2,0.1-0.3c0-0.6,0-1.2,0-1.8c0-0.1,0-0.2,0.1-0.3c0-0.1,0.1-0.2,0.1-0.3
		c0-0.6,0-1.2,0-1.7c0-0.1,0-0.2,0.1-0.3c0-0.1,0.1-0.2,0.1-0.3c0-0.6,0-1.2,0-1.8c0-0.1,0-0.2,0.1-0.3c0-0.1,0.1-0.3,0.1-0.4
		c0-0.2,0-0.4,0-0.6c0-0.4,0-0.4-0.4-0.4c-4.8,0-9.7,0-14.5,0c-0.4,0-0.4,0-0.4,0.4c0,1.4,0,2.9,0,4.3l0,0c0,0-0.1,0-0.1,0
		c-3.8,0-7.6,0-11.3,0c-0.1,0-0.1,0-0.2,0c0,0.1,0,0.1,0,0.2c0,0.7,0,1.5,0.2,2.2c0.1,0.6,0.1,1.2,0.1,1.9c0,0.4,0,0.4,0.4,0.4
		c2.9,0,5.7,0,8.6,0c0.8,0,1.6,0,2.4,0l0,0c0,1.6,0,3.1,0,4.7c-0.1,0-0.2,0-0.4,0c-3.5,0-7,0-10.4,0c-0.1,0-0.2,0-0.2,0.2
		c0,0.1,0,0.2,0.2,0.2c0,0.4,0,0.7,0,1.1c0,0.2,0,0.4,0.1,0.5C8,20,8.1,20.1,8.3,20.2c0,0.5,0,1,0,1.5c0,0.2,0.1,0.4,0.1,0.5
		c0,0,0,0.1,0,0.1c0,0.3,0.2,0.2,0.3,0.2c3.2,0,6.4,0,9.6,0c0.2,0,0.4,0,0.6,0c0,2.3,0,4.6,0,7c0,0.1,0,0.2,0.1,0.4
		c0,0,0,0.1-0.1,0.1c-0.1,0-0.2,0-0.3-0.1c-0.1-0.1-0.3-0.2-0.4-0.1c-0.1,0-0.1,0-0.2,0c-0.2-0.1-0.5-0.1-0.7-0.2
		c-0.1,0-0.1-0.1-0.2-0.1c-0.1,0-0.2-0.1-0.3-0.1c-0.1,0-0.4,0-0.4,0c-0.2-0.3-0.6-0.1-0.9-0.3c-0.2-0.1-0.4-0.1-0.6-0.1
		c-0.3-0.1-0.5-0.1-0.8-0.2c-0.1,0-0.1,0-0.2-0.1c-0.1-0.1-0.2-0.1-0.3-0.2c0-0.4,0-0.9,0-1.4c0-0.2,0-0.3-0.1-0.4
		c0-0.6-0.1-1.2-0.1-1.8c0-0.2-0.1-0.2-0.2-0.2c-1.5,0-2.9,0-4.4,0c-0.1,0-0.2,0-0.2,0.2c0,0.1,0,0.2,0.2,0.2c0,0.4,0,0.9,0,1.3
		c0,0.2,0.1,0.4,0.1,0.6c-0.2,0.2-0.1,0.4,0.1,0.5c0,0.5,0,1,0,1.5C8.9,29,8.9,29.2,8.9,29.3z"/>
	<path fill="#2465F0" d="M18.9,8.3c0-1.4,0-2.9,0-4.3c0-0.4,0-0.4,0.4-0.4c4.8,0,9.7,0,14.5,0c0.4,0,0.4,0,0.4,0.4
		c0,0.2,0,0.4,0,0.6c0,0.1-0.1,0.3-0.1,0.4c0,0.1-0.1,0.2-0.1,0.3c0,0.6,0,1.2,0,1.8c0,0.1-0.1,0.2-0.1,0.3c0,0.1-0.1,0.2-0.1,0.3
		c0,0.6,0,1.2,0,1.7c0,0.1-0.1,0.2-0.1,0.3c0,0.1-0.1,0.2-0.1,0.3c0,0.6,0,1.2,0,1.8c0,0.1-0.1,0.2-0.1,0.3c0,0.1-0.1,0.2-0.1,0.3
		c0,0.6,0,1.2,0,1.7c0,0.1-0.1,0.2-0.1,0.3c0,0.1-0.1,0.2-0.1,0.3c0,0.6,0,1.2,0,1.8c0,0.1-0.1,0.2-0.1,0.3c0,0.1-0.1,0.2-0.1,0.3
		c0,0.6,0,1.2,0,1.8c0,0.1-0.1,0.2-0.1,0.3c0,0.1-0.1,0.2-0.1,0.3c0,0.6,0,1.1,0,1.7c0,0.1-0.1,0.2-0.1,0.4c0,0.1-0.1,0.2-0.1,0.3
		c0,0.6,0,1.2,0,1.8c0,0.1-0.1,0.2-0.1,0.3c0,0.1-0.1,0.2-0.1,0.3c0,0.6,0,1.1,0,1.7c0,0.1-0.1,0.2-0.1,0.3c0,0.1-0.1,0.2-0.1,0.3
		c0,0.6,0,1.2,0,1.8c0,0.1-0.1,0.2-0.1,0.3c0,0.1-0.1,0.2-0.1,0.3c0,0.6,0,1.2,0,1.7c0,0.1-0.1,0.2-0.1,0.4c0,0.1-0.1,0.2-0.1,0.3
		c0,0.6,0,1.2,0,1.7c0,0.1-0.1,0.2-0.1,0.3c0,0.1-0.1,0.2-0.1,0.3c0,0.6,0,1.2,0,1.7c0,0.1-0.1,0.2-0.1,0.3c0,0-0.1,0.1-0.1,0.1
		c0,0.3-0.2,0.4-0.4,0.3c0,0-0.1,0-0.1,0c-0.2,0.3-0.5,0.1-0.7,0.2c-0.3,0.2-0.7,0.1-0.9,0.3c-0.1,0.1-0.2,0.1-0.3,0.1
		c-0.2,0-0.4,0-0.5,0.2c-0.1,0.1-0.3,0-0.4,0c-0.2,0-0.3,0-0.4,0.2c0,0-0.1,0-0.2,0.1c-0.2,0-0.4,0-0.5,0.2c0,0-0.2,0-0.3,0.1
		c-0.2,0-0.4-0.1-0.6,0.2c0,0-0.1,0-0.2,0c-0.2,0-0.3,0-0.4,0.2c0,0.1-0.2,0-0.3,0.1c-0.2,0-0.4-0.1-0.6,0.2c0,0.1-0.2,0-0.3,0
		c-0.2,0-0.4-0.1-0.6,0.2c0,0-0.1,0-0.2,0c-0.2,0-0.3,0-0.4,0.2c0,0.1-0.2,0.1-0.3,0.1c-0.2,0-0.4-0.1-0.5,0.2c0,0,0,0,0,0
		c-0.3,0.1-0.7,0.2-1,0.2c-0.1,0-0.3,0-0.4,0.2c0,0.1-0.2,0.1-0.3,0.1c-0.2,0-0.4-0.1-0.5,0.2c0,0-0.1,0-0.2,0
		c-0.2,0-0.3,0.1-0.6,0.1c0,0,0-0.1,0-0.3c0-1.5,0-3,0-4.6c0.1,0,0.2-0.1,0.3-0.1c0.1,0,0.2-0.1,0.3-0.1c0.1,0,0.2,0,0.3,0
		c0.2-0.3,0.5-0.2,0.7-0.2c0.1,0,0.1,0,0.2-0.1c0.1-0.2,0.2-0.2,0.4-0.2c0.1,0,0.2,0,0.2,0c0.2-0.1,0.5-0.1,0.7-0.2
		c0.1,0,0.1,0,0.2,0c0.1-0.2,0.3-0.2,0.4-0.2c0.1,0,0.1,0,0.2,0c0.2-0.1,0.4-0.1,0.7-0.2c0,0,0.1,0,0.2,0c0.2-0.3,0.5-0.2,0.8-0.2
		c0.1,0,0.2,0,0.2-0.1c0.1-0.2,0.2-0.2,0.4-0.2c0.1,0,0.2,0,0.2,0c0.2-0.1,0.5-0.1,0.7-0.2c0.1,0,0.1,0,0.2,0
		c0.1-0.2,0.3-0.2,0.4-0.2c0.1,0,0.1,0,0.2,0c0.2-0.1,0.4-0.1,0.7-0.2c0.1,0,0.2,0,0.2,0c0.1-0.3,0.4-0.2,0.6-0.2
		c0.3,0,0.4-0.1,0.5-0.4c0.2-0.1,0.3-0.3,0.1-0.5c0-0.2,0.1-0.4,0.1-0.6c0-0.5,0-0.9,0.1-1.4c0.1-0.6,0.1-1.2,0.1-1.9
		c0-0.2,0-0.3,0-0.5c0-0.1,0-0.3,0-0.4c0.2-0.1,0.1-0.3,0.1-0.5c0-0.2,0-0.5,0-0.7c0-0.2,0-0.5,0-0.7c0.1-0.6,0.2-1.2,0.2-1.8
		c0-0.2,0-0.5,0.1-0.7c0.2-0.1,0.2-0.4,0-0.6c0-0.1,0.1-0.2,0.1-0.3c0-0.4,0-0.8,0-1.2c0.2-0.1,0.3-0.3,0.1-0.5
		c0-0.3,0.1-0.6,0.1-0.9c0-0.4,0-0.7,0.1-1.1c0.1-0.4,0.1-0.8,0.1-1.3c0-0.4,0-0.7,0-1.1c0.3,0,0.2-0.3,0.2-0.4c0-0.1,0-0.3,0-0.4
		c0-0.2,0-0.3,0-0.5c0-0.3,0-0.7,0-1c0-0.4,0.1-0.8,0.2-1.2c0.1-0.6,0.1-1.2,0.1-1.8c0,0,0-0.1,0-0.1c0.2-0.4,0-0.9,0.1-1.3
		c-0.1,0-0.3,0-0.4,0c-3.3,0-6.6,0-10,0C19.8,8.3,19.3,8.3,18.9,8.3z"/>
	<path fill="#FEFEFE" d="M29.9,15.1c0,0.4,0,0.7,0,1.1c0,0.4,0,0.9-0.1,1.3c-0.1,0.4,0,0.7-0.1,1.1c0,0.3-0.1,0.6-0.1,0.9
		c0,0.2-0.1,0.4-0.1,0.5c0,0.4,0,0.8,0,1.2c0,0.1-0.1,0.2-0.1,0.3c-0.1,0.2-0.2,0.4,0,0.6c0,0.2-0.1,0.5-0.1,0.7
		c0,0.6-0.1,1.2-0.2,1.8c0,0.2,0,0.5,0,0.7c0,0.2,0,0.5,0,0.7c-0.2,0.1-0.3,0.3-0.1,0.5c0,0.1,0,0.3,0,0.4c0,0.2,0,0.3,0,0.5
		c0,0.6,0,1.3-0.1,1.9c-0.1,0.5,0,0.9-0.1,1.4c0,0.2-0.1,0.4-0.1,0.6c0,0.2-0.1,0.4-0.1,0.5c0,0.3-0.1,0.4-0.5,0.4
		c-0.2,0-0.5-0.1-0.6,0.2c0,0-0.1,0-0.2,0c-0.2,0.1-0.4,0.1-0.7,0.2c-0.1,0-0.1,0-0.2,0c-0.2,0-0.3,0-0.4,0.2c0,0-0.1,0-0.2,0
		c-0.2,0.1-0.5,0.1-0.7,0.2c-0.1,0-0.2,0-0.2,0c-0.2,0-0.3,0-0.4,0.2c0,0-0.1,0-0.2,0.1c-0.3,0-0.6-0.1-0.8,0.2c0,0-0.1,0-0.2,0
		c-0.2,0.1-0.4,0.1-0.7,0.2c-0.1,0-0.1,0-0.2,0c-0.2,0-0.3,0-0.4,0.2c0,0-0.1,0-0.2,0c-0.2,0.1-0.5,0.1-0.7,0.2c-0.1,0-0.2,0-0.2,0
		c-0.2,0-0.3,0-0.4,0.2c0,0-0.1,0-0.2,0.1c-0.2,0-0.5-0.1-0.7,0.2c0,0-0.2,0-0.3,0c-0.1,0-0.2,0.1-0.3,0.1c-0.1,0-0.2-0.1-0.3-0.1
		c0-1.5,0-3.1,0-4.6c0,0,0-0.1,0.1-0.1c0.3,0,0.5-0.1,0.8-0.1c0,0,0,0,0,0c0.2-0.1,0.4-0.1,0.7-0.2c0,0,0.1,0,0.2,0
		c0.2-0.3,0.5-0.2,0.7-0.2c0.1,0,0.1,0,0.2-0.1c0.1-0.2,0.2-0.2,0.4-0.2c0.1,0,0.2,0,0.2,0c0.3-0.3,0.8-0.1,1.1-0.4c0,0,0,0,0.1,0
		c0.3,0,0.6,0,0.8-0.3c0.1-0.1,0.2-0.2,0.2-0.4c0-0.4,0-0.9,0-1.3c0.3,0,0.2-0.3,0.2-0.4c0-0.2-0.1-0.3-0.1-0.5
		c0-0.2,0.1-0.3,0.1-0.5c0-0.5,0.1-1,0.1-1.5c0.2-0.1,0.1-0.3,0.1-0.5c0-0.3,0-0.6,0-0.8c0-0.2-0.1-0.2-0.2-0.2c-1.8,0-3.7,0-5.5,0
		l0,0c0-1.5,0-2.9,0-4.4c0.1,0,0.2,0,0.3,0c1.8,0,3.7,0,5.5,0c0.1,0,0.3,0,0.3-0.2c0-0.2,0-0.4,0-0.6c0.1-0.4,0.2-0.8,0.2-1.2
		c0.1-0.6,0.1-1.3,0.1-1.9c0,0,0-0.1,0-0.1c0-0.3,0.1-0.6,0.1-0.9c-2.3,0-4.4,0-6.6,0c0,0,0,0,0,0c0-1.5,0-3.1,0-4.6c0,0,0,0,0,0
		c0.4,0,0.9,0,1.3,0c3.3,0,6.6,0,10,0c0.1,0,0.2,0,0.4,0c-0.1,0.4,0.1,0.9-0.1,1.3c0,0,0,0.1,0,0.1c0,0.6-0.1,1.2-0.1,1.8
		c0,0.4-0.1,0.8-0.2,1.2c0,0.3,0,0.6,0,1c0,0.2,0,0.3,0,0.5c-0.3,0-0.2,0.3-0.2,0.4C29.9,14.8,29.9,14.9,29.9,15.1z"/>
	<path fill="#EBEBEB" d="M18.9,29.9c0,1.5,0,3.1,0,4.6c-0.1,0-0.2,0.1-0.3,0.1c-0.1,0-0.2-0.1-0.3-0.1c-0.2,0-0.3,0-0.5-0.2
		c-0.1-0.1-0.3,0-0.4-0.1c-0.1,0-0.2-0.1-0.3-0.1c-0.1,0-0.1-0.1-0.2-0.1c-0.2-0.1-0.5-0.1-0.7-0.2c-0.1,0-0.2,0-0.3,0
		c-0.1,0-0.2,0-0.2,0c-0.2-0.2-0.4-0.2-0.6-0.2c-0.1,0-0.2-0.1-0.3-0.1c-0.1,0-0.1-0.1-0.2-0.1c-0.2-0.1-0.5-0.1-0.7-0.2
		c-0.1,0-0.2,0-0.3,0c-0.1,0-0.2-0.1-0.4-0.1c-0.1,0-0.1-0.1-0.2-0.1c-0.2-0.1-0.5-0.1-0.7-0.2c-0.1,0-0.2,0-0.2,0
		c-0.1,0-0.2-0.1-0.3-0.1c-0.1,0-0.1-0.1-0.2-0.1c-0.3,0-0.5,0-0.8-0.2c-0.1-0.1-0.4,0-0.6-0.1c-0.3-0.1-0.6,0-0.8-0.3
		c0-0.2,0.1-0.4-0.1-0.5c0-0.2-0.1-0.4-0.1-0.6c0-0.4,0-0.9,0-1.3c0-0.1,0-0.3,0-0.4c0-0.2,0.1-0.4-0.2-0.4c0-0.5,0-1,0-1.5
		c0-0.2,0.1-0.4-0.1-0.5c0-0.2-0.1-0.4-0.1-0.6c0-0.4,0-0.9,0-1.3c0-0.1,0-0.1,0-0.2c1.5,0,3.1,0,4.6,0c0,0.6,0.1,1.2,0.1,1.8
		c-0.2,0.3-0.1,0.3,0.1,0.4c0,0.5,0,1,0,1.4c0.1,0.1,0.2,0.2,0.3,0.2c0,0,0.1,0.1,0.2,0.1c0.3,0.1,0.5,0.1,0.8,0.2
		c0.2,0,0.4,0,0.6,0.1c0.3,0.1,0.6,0,0.9,0.3c0.1,0.1,0.3,0,0.4,0c0.1,0,0.2,0.1,0.3,0.1c0.1,0,0.1,0.1,0.2,0.1
		c0.2,0.1,0.5,0.1,0.7,0.2c0.1,0,0.1,0,0.2,0c0.2,0,0.3,0,0.4,0.1C18.7,29.9,18.8,29.9,18.9,29.9z"/>
	<path fill="#EBEBEB" d="M18.9,8.3c0,1.5,0,3.1,0,4.6c-0.8,0-1.6,0-2.4,0c-2.9,0-5.7,0-8.6,0c-0.4,0-0.3,0-0.4-0.4
		c0-0.6,0-1.3-0.1-1.9C7.3,10,7.2,9.3,7.2,8.5c0-0.1,0-0.1,0-0.2c0.1,0,0.1,0,0.2,0c3.8,0,7.6,0,11.3,0C18.8,8.3,18.9,8.3,18.9,8.3z
		"/>
	<path fill="#EBEBEB" d="M18.9,17.9c0,1.5,0,2.9,0,4.4c-3.5,0-7,0-10.5,0c0,0,0-0.1,0-0.1c0.2-0.2,0.2-0.5-0.1-0.5c0-0.5,0-1,0-1.5
		c0-0.2,0.1-0.4-0.1-0.5c0-0.2-0.1-0.4-0.1-0.5c0-0.4,0-0.7,0-1.1c0-0.1,0-0.1,0-0.2c1.8,0,3.5,0,5.3,0
		C15.2,17.9,17.1,17.9,18.9,17.9z"/>
	<path fill="#2465F0" d="M24.2,26.7c0,0.4,0,0.9,0,1.3c0,0.2-0.1,0.2-0.2,0.4c-0.2,0.3-0.5,0.3-0.8,0.3c0,0,0,0-0.1,0
		c-0.3,0.3-0.8,0.1-1.1,0.4c0,0-0.2,0-0.2,0c-0.2,0-0.3,0-0.4,0.2c0,0-0.1,0-0.2,0.1c-0.2,0-0.5-0.1-0.7,0.2c0,0-0.1,0-0.2,0
		c-0.2,0.1-0.4,0.1-0.7,0.2c0,0,0,0,0,0c-0.3,0-0.5,0.1-0.8,0.1c0-0.1-0.1-0.2-0.1-0.4c0-2.3,0-4.6,0-7c0,0,0,0,0,0
		c0.1,0,0.2,0,0.4,0c1.8,0,3.6,0,5.4,0c0,0.3,0,0.6,0,0.8c-0.2,0.1-0.3,0.3-0.1,0.5c0,0.5-0.1,1-0.1,1.5c0,0.2-0.1,0.3-0.1,0.5
		c0,0.2-0.1,0.4-0.1,0.5C24.2,26.4,24.2,26.6,24.2,26.7z"/>
	<path fill="#2465F0" d="M18.9,13c2.2,0,4.4,0,6.6,0c0,0.3-0.1,0.6-0.1,0.9c0,0,0,0.1,0,0.1c0,0.6-0.1,1.3-0.1,1.9
		c0,0.4-0.1,0.8-0.2,1.2c0,0.2,0,0.4,0,0.6c-2.1,0-4.1,0-6.2,0C18.9,16.1,18.9,14.5,18.9,13z"/>
	<path fill="#91A8EE" d="M18.9,17.6c2.1,0,4.1,0,6.2,0c0,0.2-0.1,0.2-0.3,0.2c-1.8,0-3.7,0-5.5,0c-0.1,0-0.2,0-0.3,0
		c-1.8,0-3.7,0-5.5,0c-1.8,0-3.5,0-5.3,0c0-0.1,0-0.1,0-0.2c3.5,0,7,0,10.4,0C18.7,17.6,18.8,17.6,18.9,17.6z"/>
	<path fill="#9BABE8" d="M8.4,22.3c3.5,0,7,0,10.5,0c0,0,0,0,0,0c0,0.1,0,0.1,0,0.2c0,0,0,0,0,0c-0.2,0-0.4,0-0.6,0
		c-3.2,0-6.4,0-9.6,0C8.6,22.5,8.4,22.6,8.4,22.3z"/>
	<path fill="#5F7CE6" d="M13.4,24.8c-1.5,0-3.1,0-4.6,0c0-0.1,0-0.1,0-0.2c1.5,0,2.9,0,4.4,0C13.3,24.6,13.4,24.6,13.4,24.8z"/>
	<path fill="#D5DEF2" d="M18.6,34.7c0.1,0,0.2-0.1,0.3-0.1c0.1,0,0.2,0.1,0.3,0.1c-0.1,0-0.2,0.1-0.3,0.1
		C18.8,34.8,18.7,34.7,18.6,34.7z"/>
	<path fill="#BBC4E9" d="M8.3,21.7c0.2,0.1,0.3,0.3,0.1,0.5C8.4,22,8.3,21.8,8.3,21.7z"/>
	<path fill="#708AE7" d="M9.2,31.6c0.2,0.1,0.1,0.3,0.1,0.5C9.1,32,9.1,31.8,9.2,31.6z"/>
	<path fill="#5F7CE6" d="M8.8,26.9C9,27,8.9,27.2,8.9,27.4C8.7,27.3,8.6,27.2,8.8,26.9z"/>
	<path fill="#708AE7" d="M8.2,19.7c0.2,0.1,0.1,0.3,0.1,0.5C8.1,20.1,8,20,8.2,19.7z"/>
	<path fill="#3D61E5" d="M8.7,24.6c0,0.1,0,0.1,0,0.2c0,0.1,0,0.1,0,0.2c-0.2,0-0.2-0.1-0.2-0.2C8.5,24.7,8.6,24.6,8.7,24.6z"/>
	<path fill="#AEBBE9" d="M8.9,28.9c0.3,0,0.2,0.3,0.2,0.4c-0.1,0-0.1,0-0.2,0C8.9,29.2,8.9,29,8.9,28.9z"/>
	<path fill="#6280EC" d="M8.9,29.3c0.1,0,0.1,0,0.2,0c0,0.1,0,0.3,0,0.4C8.8,29.7,9,29.5,8.9,29.3z"/>
	<path fill="#3D61E5" d="M8.1,17.7c0,0.1,0,0.1,0,0.2c0,0.1,0,0.1,0,0.2c-0.2,0-0.2-0.1-0.2-0.2C7.9,17.7,8,17.6,8.1,17.7z"/>
	<path fill="#BBC4E9" d="M13.6,27c-0.3,0-0.3-0.1-0.1-0.4C13.6,26.7,13.6,26.8,13.6,27z"/>
	<path fill="#8DAEF6" d="M29.3,22.1c-0.1-0.2-0.1-0.4,0-0.6C29.6,21.7,29.5,22,29.3,22.1z"/>
	<path fill="#618FF3" d="M28.5,31.8c0-0.2,0.1-0.4,0.1-0.5C28.7,31.5,28.7,31.8,28.5,31.8z"/>
	<path fill="#618FF3" d="M29.5,20c0-0.2,0.1-0.4,0.1-0.5C29.8,19.7,29.8,19.9,29.5,20z"/>
	<path fill="#C9D3F8" d="M29,26.6c-0.2-0.2-0.1-0.4,0.1-0.5C29,26.2,29.2,26.4,29,26.6z"/>
	<path fill="#C9D3F8" d="M29.9,14.6c0-0.2-0.1-0.4,0.2-0.4c0,0.1,0,0.3,0,0.4C30.1,14.6,30,14.6,29.9,14.6z"/>
	<path fill="#7AA1F5" d="M29.9,14.6c0.1,0,0.1,0,0.2,0c0,0.2,0.1,0.4-0.2,0.4C29.9,14.9,29.9,14.8,29.9,14.6z"/>
	<path fill="#A8C1F8" d="M18.9,22.5c0-0.1,0-0.1,0-0.2c1.8,0,3.7,0,5.5,0c0.2,0,0.3,0,0.2,0.2c-1.8,0-3.6,0-5.4,0
		C19.1,22.5,19,22.5,18.9,22.5z"/>
	<path fill="#7AA1F5" d="M24.2,26.3c0-0.2,0.1-0.4,0.1-0.5c0,0.2,0.1,0.3,0.1,0.5C24.4,26.3,24.3,26.3,24.2,26.3z"/>
	<path fill="#618FF3" d="M24.5,23.8c-0.2-0.2-0.1-0.4,0.1-0.5C24.6,23.5,24.7,23.7,24.5,23.8z"/>
	<path fill="#C9D3F8" d="M24.2,26.3c0.1,0,0.1,0,0.2,0c0,0.2,0.1,0.4-0.2,0.4C24.2,26.6,24.2,26.4,24.2,26.3z"/>
</g>
</svg>
