<?xml version="1.0" encoding="utf-8"?>
<!-- Generator: Adobe Illustrator 26.5.0, SVG Export Plug-In . SVG Version: 6.00 Build 0)  -->
<svg version="1.0" id="Layer_1" xmlns="http://www.w3.org/2000/svg" xmlns:xlink="http://www.w3.org/1999/xlink" x="0px" y="0px"
	 width="37.8px" height="43.1px" viewBox="0 0 37.8 43.1" enable-background="new 0 0 37.8 43.1" xml:space="preserve">
<path fill="#FE5722" d="M0,0c12.6,0,25.2,0,37.8,0c-0.2,2.7-0.5,5.3-0.7,8c-0.2,2.7-0.5,5.5-0.7,8.2c-0.2,2.7-0.5,5.3-0.7,8
	c-0.2,2.7-0.5,5.5-0.7,8.2c-0.2,2.1-0.4,4.1-0.5,6.2c0,0.3-0.1,0.4-0.4,0.4c-4.9,1.4-9.8,2.7-14.7,4.1c-0.2,0.1-0.5,0.1-0.7,0
	c-4.9-1.4-9.8-2.7-14.7-4.1c-0.3-0.1-0.4-0.2-0.4-0.5c-0.1-1.1-0.2-2.1-0.3-3.2c-0.2-2.7-0.5-5.4-0.7-8.1c-0.3-3-0.5-6-0.8-9.1
	c-0.3-3-0.5-6-0.8-9C0.5,6.1,0.3,3,0,0z M8.3,22.4c5.5,0,10.9,0,16.4,0c0,0.1,0,0.1,0,0.2c-0.2,1.9-0.3,3.8-0.5,5.7
	c0,0.1-0.2,0.3-0.3,0.3c-1.6,0.4-3.1,0.9-4.7,1.3c-0.2,0-0.3,0-0.5,0c-1.6-0.4-3.2-0.9-4.8-1.3c-0.2-0.1-0.3-0.2-0.3-0.4
	c-0.1-0.7-0.1-1.5-0.2-2.2c0-0.5-0.1-0.9-0.1-1.4c-1.6,0-3.2,0-4.7,0c0.2,2.5,0.4,5,0.7,7.4c0,0.1,0.2,0.3,0.4,0.3
	c3,0.9,6,1.7,9,2.5c0.2,0,0.4,0.1,0.6,0c3-0.8,6.1-1.7,9.1-2.5c0.3-0.1,0.4-0.2,0.4-0.4c0.4-4.3,0.8-8.6,1.1-13
	c0-0.4,0.1-0.9,0.1-1.3c-5.8,0-11.5,0-17.2,0c-0.1-1.6-0.3-3.2-0.4-4.9c0.2,0,0.4,0,0.6,0c5.6,0,11.3,0,16.9,0
	c0.6,0,0.6,0.1,0.6-0.6c0.1-0.8,0.1-1.6,0.2-2.3c0.1-0.6,0.1-1.2,0.1-1.8C22.8,8,14.9,8,7,8C7.5,12.8,7.9,17.5,8.3,22.4z"/>
<path fill="#F9F8F8" d="M8.3,22.4C7.9,17.5,7.5,12.8,7,8c7.9,0,15.8,0,23.7,0c0,0.6-0.1,1.2-0.1,1.8c-0.1,0.8-0.2,1.6-0.2,2.3
	c0,0.7,0,0.6-0.6,0.6c-5.6,0-11.3,0-16.9,0c-0.2,0-0.3,0-0.6,0c0.1,1.6,0.3,3.2,0.4,4.9c5.7,0,11.5,0,17.2,0c0,0.5-0.1,0.9-0.1,1.3
	c-0.4,4.3-0.8,8.6-1.1,13c0,0.3-0.1,0.4-0.4,0.4c-3,0.8-6.1,1.7-9.1,2.5c-0.2,0-0.4,0-0.6,0c-3-0.8-6-1.7-9-2.5
	c-0.1,0-0.4-0.2-0.4-0.3c-0.2-2.5-0.5-4.9-0.7-7.4c1.6,0,3.1,0,4.7,0c0,0.5,0.1,0.9,0.1,1.4c0.1,0.7,0.1,1.5,0.2,2.2
	c0,0.2,0.1,0.3,0.3,0.4c1.6,0.4,3.2,0.9,4.8,1.3c0.2,0,0.3,0,0.5,0c1.6-0.4,3.1-0.8,4.7-1.3c0.1,0,0.3-0.2,0.3-0.3
	c0.2-1.9,0.4-3.8,0.5-5.7c0,0,0-0.1,0-0.2C19.2,22.4,13.8,22.4,8.3,22.4z"/>
</svg>
