<?xml version="1.0" encoding="utf-8"?>
<!-- Generator: Adobe Illustrator 26.5.0, SVG Export Plug-In . SVG Version: 6.00 Build 0)  -->
<svg version="1.0" id="Layer_1" xmlns="http://www.w3.org/2000/svg" xmlns:xlink="http://www.w3.org/1999/xlink" x="0px" y="0px"
	 width="37.8px" height="43.1px" viewBox="0 0 37.8 43.1" enable-background="new 0 0 37.8 43.1" xml:space="preserve">
<g>
	<path fill="#D5B932" d="M2.7,29.5c0-0.3,0-0.5,0-0.8c-0.1-0.3-0.1-0.5-0.2-0.8c0-0.1,0-0.1,0-0.2c0.3-0.2,0.3-0.6,0-0.9
		c0-0.1,0-0.1,0-0.2c0.1-0.3,0.1-0.6,0.2-0.9c0-0.3-0.1-0.3-0.3-0.3c0-0.5,0-0.9,0-1.4c-0.1-0.3-0.1-0.6-0.2-0.9
		c0.1-0.3,0.1-0.6,0.2-0.9C2.2,22,2.6,21.6,2,21.5c0-0.4,0-0.7,0-1.1c0-0.2,0-0.5,0-0.7c0-0.2,0-0.5,0-0.7c0-0.3,0.2-0.7-0.3-0.9
		c0-0.3-0.1-0.7-0.1-1c0-0.3,0-0.6,0-0.9c-0.1-0.3-0.1-0.5-0.2-0.8c0-0.2,0-0.3,0-0.5c0.1-0.3,0.1-0.5,0.2-0.8c0,0-0.2-0.1-0.3-0.1
		c0-0.5,0-0.9,0-1.4c0-0.2,0-0.3,0-0.5c0-0.2-0.1-0.4-0.2-0.7c0-0.1,0-0.1,0-0.2c0.1-0.1,0.2-0.2,0.2-0.2c0-0.2,0-0.4,0-0.5
		c-0.1-0.2,0.3-0.7-0.3-0.7c0-0.5,0-0.9,0-1.4c0-0.2,0-0.5,0-0.7c0-0.3,0.2-0.6-0.2-0.8c0-0.1,0-0.1,0-0.2c0.1-0.1,0.2-0.2,0.2-0.2
		c0-0.2,0-0.4,0-0.6c0-0.3-0.1-0.3-0.3-0.3c0-0.5,0-0.9,0-1.4c0-0.3,0-0.5,0-0.8c0-0.2,0-0.5,0-0.7C0.4,2.5,0.8,2,0.2,2
		c0-0.2,0-0.5,0-0.7C0.1,1,0,0.8,0,0.5c0-0.1,0-0.1,0-0.2c0.1,0,0.1-0.1,0.2-0.1c0.2,0,0.4,0,0.7,0c12.1,0,24.3,0,36.4,0
		c0.2,0,0.4,0,0.6,0c0,0.5,0,1,0,1.5c0,0.2-0.1,0.3-0.2,0.5c-0.1,0.3-0.1,0.6-0.2,0.9c0,0.2,0,0.5,0,0.7c0,0.3,0,0.5,0,0.8
		c0,0.5,0,0.9,0,1.4c-0.1,0.1-0.3,0.1-0.3,0.2c0,0.2,0.1,0.4,0.2,0.6c0,0.3,0,0.5,0,0.8c-0.1,0.3-0.1,0.6-0.2,0.9c0,0.4,0,0.7,0,1.1
		c-0.2,0-0.4,0.1-0.3,0.3c0,0.2,0,0.5,0,0.7c0,0.2,0,0.5,0,0.7c0,0.2,0,0.5,0,0.7c0,0.2,0,0.5,0,0.7c0,0.2,0,0.5,0,0.7
		c-0.2,0-0.4,0.1-0.3,0.3c0,0.2,0,0.5,0,0.7c0,0.2,0,0.5,0,0.7c0,0.3,0,0.5,0,0.8c0,0.2,0,0.5,0,0.7c0,0.5,0,0.9,0,1.4
		c-0.6,0-0.2,0.5-0.3,0.7c0,0.2,0,0.5,0,0.7c0,0.2,0,0.5,0,0.7c0,0.6,0,1.2,0,1.8c-0.1,0-0.3,0-0.5,0.1c0.1,0.3,0.2,0.6,0.3,0.8
		c0,0.2,0,0.5,0,0.7c-0.1,0.3-0.1,0.6-0.2,0.9c0,0.5,0,0.9,0,1.4c-0.1,0.1-0.3,0.1-0.3,0.2c0,0.2,0.1,0.4,0.2,0.6c0,0.3,0,0.6,0,0.9
		c-0.1,0.3-0.1,0.6-0.2,0.9c0,0.4,0,0.7,0,1.1c-0.6,0-0.2,0.5-0.3,0.7c0.1,0.3,0.1,0.5,0.2,0.8c0,0.3,0,0.5,0,0.8
		C35,32,35,32.3,34.9,32.6c0,0.4,0,0.7,0,1.1c-0.6,0-0.2,0.5-0.3,0.7c0,0.2,0,0.5,0,0.7c0,0.2,0,0.5,0,0.7c0,0.2,0,0.5,0,0.7
		c0,0.5,0,0.9,0,1.4c0,0.6-0.4,1.1-1.1,1.2c-0.5,0-1,0.3-1.5,0.4c-0.3,0.1-0.7,0.2-1,0.3c-0.3,0.1-0.5,0.1-0.8,0.2
		c-0.4,0.1-0.9,0.2-1.3,0.3c-0.4,0.1-0.8,0.2-1.2,0.4c-0.4,0.1-0.8,0.2-1.2,0.3c-0.5,0.2-0.9,0.3-1.4,0.5c-0.1,0-0.2,0-0.3,0
		c-0.6,0.1-1.1,0.3-1.7,0.4c-0.3,0.1-0.7,0.2-1,0.3c-0.3,0.1-0.6,0.2-0.9,0.2c-0.6,0.2-1.2,0.3-1.8,0.5c-0.2,0-0.5,0-0.7,0
		c-0.7,0-1.3-0.3-1.9-0.5c-0.3-0.1-0.7-0.1-1-0.2c-0.5-0.1-0.9-0.3-1.4-0.4c-0.4-0.1-0.7-0.2-1.1-0.3c-0.5-0.1-1-0.3-1.5-0.4
		c-0.4-0.1-0.7-0.2-1.1-0.3c-0.2-0.1-0.4-0.1-0.6-0.2c-1-0.3-1.9-0.6-2.9-0.9c-0.5-0.1-1-0.2-1.6-0.4C5,39.2,4.4,39,3.8,38.8
		c0-0.2,0-0.4,0-0.6c0-0.3-0.1-0.3-0.3-0.3c0-0.6,0-1.2,0-1.8c0-0.2,0-0.5,0-0.7c0-0.3,0.2-0.6-0.2-0.8c0-0.1,0-0.1,0-0.2
		c0.4,0,0.2-0.3,0.3-0.5c0-0.3-0.1-0.3-0.3-0.3c0-0.4,0-0.7,0-1.1c0-0.2,0-0.5,0-0.7c0-0.2,0-0.5,0-0.7c0-0.2,0-0.5,0-0.7
		c0-0.2,0-0.4,0-0.7C3.1,29.5,2.9,29.4,2.7,29.5z M13.5,28.1c-0.5-0.1-0.9-0.2-1.4-0.3c-0.4-0.1-0.7-0.1-1.1-0.2
		c-0.4-0.1-0.8-0.2-1.2-0.3c-0.1,0-0.2-0.1-0.3-0.1c-0.2-0.1-0.4-0.2-0.7-0.2c-0.1,0-0.2,0-0.3-0.1c-0.6-0.2-1.2-0.5-1.9-0.7
		c0,0-0.1,0-0.1,0c-0.2,0-0.4,0-0.4,0.3c0,1.2,0,2.5,0,3.7c0,0.3,0.1,0.5,0.5,0.4c0.5,0.2,1.1,0.4,1.6,0.5c0.6,0.2,1.3,0.1,1.8,0.4
		c0.5,0.3,1,0.2,1.5,0.4c0.3,0.2,0.7,0.1,1,0.2c0.5,0.1,1,0.3,1.5,0.5c0.3,0.1,0.7,0.1,1,0.2c0.4,0.1,0.8,0.2,1.2,0.3
		c0.1,0,0.2,0.1,0.3,0.1c0.2,0.1,0.4,0.1,0.6,0.2c0.4,0.1,0.4-0.2,0.4-0.4c0-8.1,0-16.2,0-24.3c0-0.1,0-0.3,0-0.4
		c-0.2,0-0.3,0-0.4,0c-1.1,0-2.1,0-3.2,0c-0.4-0.1-0.4,0.2-0.4,0.4c0,6.2,0,12.4,0,18.6C13.7,27.7,13.6,27.9,13.5,28.1z M32.1,28.3
		c0.2,0,0.4-0.1,0.4-0.3c0-0.3,0-0.7,0-1c0-0.9,0-1.8,0-2.6c0.2,0,0.4-0.1,0.4-0.3c0-0.3,0-0.7,0-1c0-0.8,0-1.7,0-2.5
		c0.2,0,0.4-0.1,0.4-0.3c0-0.3,0-0.7,0-1c0-0.9,0-1.8,0-2.7c0.2,0,0.4-0.1,0.4-0.3c0-0.3,0-0.7,0-1c0-0.9,0-1.9,0-2.8
		c0.2,0,0.4-0.1,0.4-0.3c0-0.3,0-0.7,0-1c0-0.8,0-1.7,0-2.5c0.2,0,0.4-0.1,0.4-0.3c0-0.2,0-0.5,0-0.7c0-0.9,0-1.9,0-2.8
		c0.3,0,0.4-0.1,0.4-0.3c0-0.2,0-0.3,0-0.5c0-0.3-0.1-0.4-0.4-0.3c-4.9,0-9.8,0-14.7,0C19,3.4,19,3.6,19,3.9c0,11.9,0,23.7,0,35.6
		c0,0.2,0,0.3,0,0.6c0.2-0.1,0.3-0.2,0.5-0.2c0.2-0.1,0.3-0.2,0.5-0.2c0.3-0.1,0.7,0.2,0.9-0.3c0,0,0.2,0,0.2,0c0.2,0,0.5,0,0.7,0
		c0.1,0,0.2-0.1,0.3-0.1c0.1-0.1,0.3-0.2,0.4-0.2c0.2,0,0.5,0.1,0.6-0.1c0.3-0.4,0.7-0.3,1.1-0.3c0.1,0,0.3,0,0.3,0
		c0.2-0.5,0.6-0.3,0.9-0.3c0.1,0,0.3,0,0.3-0.1c0.1-0.3,0.4-0.3,0.7-0.3c0.2,0,0.5-0.1,0.7-0.1c0.2,0,0.4-0.2,0.5-0.2
		c0.3-0.1,0.7,0.2,0.8-0.3c0,0,0.2,0,0.2,0c0.4,0,0.8,0.1,1-0.3c0-0.1,0.2,0,0.3,0c0.3,0,0.7,0.2,0.9-0.3c0,0,0.2,0,0.3,0
		c0.2,0,0.4-0.1,0.4-0.3c0-0.3,0-0.7,0-1c0-0.8,0-1.7,0-2.5c0.3,0,0.4-0.1,0.4-0.3c0-0.4,0-0.7,0-1.1C32.1,30.2,32.1,29.3,32.1,28.3
		z"/>
	<path fill="#FED93E" d="M32.8,20.5c0,0.8,0,1.7,0,2.5c-0.2,0-0.4,0.1-0.4,0.3c0,0.3,0,0.7,0,1c0,0.9,0,1.8,0,2.6
		c-0.3,0-0.4,0.1-0.4,0.4c0,0.3,0,0.6,0,1c0,0.9,0,1.9,0,2.8c-0.3,0-0.4,0.1-0.4,0.3c0,0.4,0,0.7,0,1.1c0,0.8,0,1.7,0,2.5
		c-0.2,0-0.4,0.1-0.4,0.3c0,0.3,0,0.7,0,1c-0.1,0-0.2,0-0.3,0c-0.2,0.5-0.6,0.3-0.9,0.3c-0.1,0-0.3,0-0.3,0c-0.3,0.4-0.7,0.3-1,0.3
		c-0.1,0-0.2,0-0.2,0c-0.2,0.5-0.5,0.2-0.8,0.3c-0.2,0-0.4,0.2-0.5,0.2c-0.2,0.1-0.5,0.1-0.7,0.1c-0.3,0-0.6,0-0.7,0.3
		c0,0.1-0.2,0.1-0.3,0.1c-0.3,0.1-0.7-0.2-0.9,0.3c0,0-0.2,0-0.3,0c-0.4,0-0.8-0.1-1.1,0.3c-0.1,0.1-0.4,0-0.6,0.1
		c-0.2,0-0.3,0.1-0.4,0.2c-0.1,0-0.2,0.1-0.3,0.1c-0.2,0-0.5,0-0.7,0c-0.1,0-0.2,0-0.2,0c-0.2,0.5-0.6,0.3-0.9,0.3
		c-0.2,0-0.3,0.1-0.5,0.2c-0.1,0.1-0.3,0.1-0.5,0.2c0-0.3,0-0.4,0-0.6c0-11.9,0-23.7,0-35.6c0-0.4,0.1-0.5,0.5-0.5
		c4.9,0,9.8,0,14.7,0c0,0.4,0,0.8,0,1.1c0,0.9,0,1.9,0,2.8c-0.2,0-0.4,0.1-0.4,0.3c0,0.2,0,0.5,0,0.7c0,0.8,0,1.7,0,2.5
		c-0.2,0-0.4,0.1-0.4,0.3c0,0.3,0,0.7,0,1c0,0.9,0,1.9,0,2.8c-0.2,0-0.4,0.1-0.4,0.3c0,0.3,0,0.7,0,1c0,0.9,0,1.8,0,2.7
		c-0.2,0-0.4,0.1-0.4,0.3C32.8,19.8,32.8,20.2,32.8,20.5z M32.4,11.2c0-0.2,0-0.5,0-0.7c0-0.2,0-0.5,0-0.7c0-0.5,0-0.9,0-1.4
		c-0.1,0-0.1,0-0.1,0c-3.8,0-7.7,0-11.5,0c-0.3-0.1-0.4,0-0.4,0.3c0,0.5,0,1.1,0,1.6c0,4.6,0,9.3,0,13.9c0,0.2-0.1,0.5,0.4,0.4
		c0.2,0,0.4,0,0.7,0c0.7-0.2,1.4-0.4,2.1-0.5c0.8-0.1,1.5-0.2,2.2-0.4c0.6-0.1,1.2-0.1,1.8-0.2c0.3,0,0.4,0.1,0.4,0.4
		c0,0.1,0,0.2,0,0.3c0,0.5,0,0.9,0,1.4c0,0.4,0,0.8,0,1.2c0,0.2-0.2,0.4-0.4,0.4c-0.4,0.1-0.7,0.1-1.1,0.2c-0.6,0.1-1.1,0.3-1.7,0.5
		c-0.3,0.1-0.7,0.1-1.1,0.2c-0.1,0-0.1,0-0.2,0.1c-0.4,0.2-0.9,0.3-1.3,0.5c-0.5,0.1-0.9,0.2-1.4,0.4c-0.4,0-0.4,0.2-0.4,0.5
		c0,1.2,0,2.4,0,3.6c0,0.3,0.1,0.4,0.4,0.3c0.1,0,0.2,0,0.3,0c0.9-0.3,1.8-0.6,2.8-0.9c0.4-0.1,0.8-0.1,1.2-0.2
		c0.6-0.1,1.2-0.3,1.7-0.5c0.2-0.1,0.4-0.1,0.6-0.2c0.3-0.1,0.7-0.2,1-0.3c0.6-0.1,1.1-0.3,1.7-0.4c0.4-0.1,0.5-0.3,0.6-0.6
		c0-0.2,0-0.3,0-0.5C30.8,30,31,30,31,30c0-0.3-0.1-0.5-0.1-0.7c0.1-0.3,0.1-0.6,0.2-0.9c0-0.2,0-0.5,0-0.7c0-0.6,0-1.2,0-1.8
		c0.6,0,0.2-0.5,0.3-0.7c0-0.2,0-0.5,0-0.7c0-0.2,0-0.5,0-0.7c0-0.2,0-0.5,0-0.7c0-0.6,0-1.2,0-1.8c0.6,0,0.2-0.5,0.3-0.7
		c-0.1-0.3-0.1-0.6-0.2-0.9c0.1-0.1,0.1-0.3,0.2-0.4c0-0.2,0.1-0.5-0.3-0.4c-0.1,0-0.2,0-0.3,0c-0.3,0.1-0.6,0.1-0.9,0.2
		c-0.6,0.1-1.3,0.1-1.9,0.2c-0.3,0.1-0.6,0.1-0.9,0.2c-0.6,0.1-1.3,0.1-1.9,0.2c-0.3,0.1-0.6,0.1-0.9,0.2c-0.1,0-0.2,0-0.3,0
		c0-2.2,0-4.4,0-6.6c2.5,0,4.9,0,7.4,0c0.3,0,0.5,0,0.4-0.4l0,0c0.6,0,0.3-0.5,0.3-0.7C32.4,11.7,32.4,11.5,32.4,11.2z"/>
	<path fill="#EAEAEA" d="M14.1,8.4c1.1,0,2.1,0,3.2,0c0,8.4,0,16.8,0,25.1c-0.2-0.1-0.4-0.1-0.6-0.2c-0.1,0-0.2-0.1-0.3-0.1
		c-0.4-0.1-0.8-0.2-1.2-0.3c-0.3-0.1-0.7-0.1-1-0.2c-0.5-0.1-1-0.3-1.5-0.5c-0.3-0.1-0.7-0.1-1-0.2c-0.5-0.2-1-0.1-1.5-0.4
		c-0.5-0.3-1.2-0.3-1.8-0.4c-0.5-0.1-1.1-0.3-1.6-0.5c0-0.1-0.1-0.2-0.1-0.4c0-1.4,0-2.7,0-4.1c0,0,0.1,0,0.1,0
		c0.6,0.2,1.2,0.5,1.9,0.7c0.1,0,0.2,0,0.3,0.1c0.2,0.1,0.4,0.2,0.7,0.2c0.1,0,0.2,0.1,0.3,0.1c0.4,0.1,0.8,0.2,1.2,0.3
		c0.4,0.1,0.7,0.1,1.1,0.2c0.5,0.1,0.9,0.2,1.4,0.3c0.1,0.1,0.3,0.1,0.5,0.3c0-0.3,0-0.5,0-0.7C14.1,21.3,14.1,14.9,14.1,8.4z"/>
	<path fill="#E6E3D0" d="M17.2,33.6c0-8.4,0-16.8,0-25.1c0.1,0,0.2,0,0.4,0c0,0.2,0,0.3,0,0.4c0,8.1,0,16.2,0,24.3
		C17.6,33.4,17.7,33.7,17.2,33.6z"/>
	<path fill="#E3DAAF" d="M14.1,8.4c0,6.4,0,12.8,0,19.3c0,0.2,0,0.4,0,0.7c-0.2-0.1-0.4-0.2-0.5-0.3c0.1-0.2,0.2-0.4,0.2-0.6
		c0-6.2,0-12.4,0-18.6C13.7,8.6,13.6,8.3,14.1,8.4z"/>
	<path fill="#D6BB3E" d="M6.6,26.1c0,1.4,0,2.7,0,4.1c0,0.1,0.1,0.2,0.1,0.4c-0.3,0-0.5-0.1-0.5-0.4c0-1.2,0-2.5,0-3.7
		C6.2,26.2,6.3,26.1,6.6,26.1z"/>
	<path fill="#E9C937" d="M31.8,32.6c0-0.4,0-0.7,0-1.1c0-0.3,0.1-0.4,0.4-0.3c0,0.4,0,0.7,0,1.1C32.1,32.5,32,32.6,31.8,32.6z"/>
	<path fill="#E9C937" d="M31.4,36.4c0-0.3,0-0.7,0-1c0-0.3,0.1-0.4,0.4-0.3c0,0.3,0,0.7,0,1C31.8,36.4,31.6,36.5,31.4,36.4z"/>
	<path fill="#EBCB38" d="M32.1,28.3c0-0.3,0-0.6,0-1c0-0.3,0.1-0.4,0.4-0.4c0,0.3,0,0.7,0,1C32.5,28.3,32.4,28.4,32.1,28.3z"/>
	<path fill="#FEFEFE" d="M24.3,19.6c0.1,0,0.2,0,0.3,0c0.2,0.1,0.5,0.1,0.7,0.2c0,0,0.1-0.2,0.1-0.3c0.6-0.1,1.3-0.1,1.9-0.2
		c0.2,0.1,0.5,0.1,0.7,0.2c0,0,0.1-0.2,0.1-0.3c0.6-0.1,1.3-0.1,1.9-0.2c0.2,0.1,0.5,0.1,0.7,0.2c0,0,0.1-0.2,0.1-0.3
		c0.1,0,0.2,0,0.3,0c0,0.3,0.1,0.6,0.1,0.9c0,0.3-0.1,0.6-0.1,0.9c0,0.2,0,0.5,0,0.7c0,0.6,0,1.2,0,1.8c-0.6,0-0.2,0.5-0.3,0.7
		c0,0.2,0,0.5,0,0.7c0,0.2,0,0.5,0,0.7c0,0.2,0,0.5,0,0.7c0,0.6,0,1.2,0,1.8c-0.6,0-0.2,0.5-0.3,0.7c0,0.3,0.1,0.6,0.1,0.9
		c0,0.3-0.1,0.6-0.1,0.9c0,0.2,0,0.3,0,0.5c-0.1,0.3-0.2,0.5-0.6,0.6c-0.6,0.1-1.1,0.3-1.7,0.4c-0.3,0.1-0.7,0.2-1,0.3
		C27.2,31.9,27,32,26.8,32c-0.6,0.2-1.2,0.4-1.7,0.5c-0.4,0.1-0.8,0.1-1.2,0.2c-0.9,0.3-1.8,0.6-2.8,0.9c-0.1,0-0.2,0-0.3,0
		c0-1.5,0-2.9,0-4.4c0.5-0.1,0.9-0.2,1.4-0.4c0.5-0.1,0.9-0.3,1.3-0.5c0.1,0,0.1-0.1,0.2-0.1c0.4-0.1,0.7-0.1,1.1-0.2
		c0.6-0.1,1.1-0.3,1.7-0.5c0.4-0.1,0.8-0.1,1.1-0.2c0.2-0.1,0.3-0.3,0.4-0.4c0.1-0.4,0-0.8,0-1.2c0.2,0,0.4-0.1,0.3-0.3
		c0-0.4,0-0.7,0-1.1c0-0.3,0-0.7,0-1c-0.3,0.1-0.7-0.3-0.7,0.3c-0.6,0.1-1.2,0.1-1.8,0.2c-0.7,0.2-1.5,0.3-2.2,0.4
		c-0.7,0.1-1.4,0.3-2.1,0.5c-0.2,0-0.4,0-0.7,0c0-5.4,0-10.8,0-16.3c3.8,0,7.7,0,11.5,0c0,0,0.1,0,0.1,0c0,0.4,0,0.9,0,1.4
		c-0.6,0-0.2,0.5-0.3,0.7c0,0.2,0,0.5,0,0.7c0,0.2,0,0.5,0,0.7c0,0.2,0,0.5,0,0.7c0,0,0,0,0,0c-2.5,0-5,0-7.5,0
		c-0.2,0-0.4,0.1-0.5,0.2c-0.1,0.1-0.2,0.3-0.2,0.4c0,2,0,4,0,6C23.9,19.5,24,19.6,24.3,19.6z"/>
	<path fill="#FEF7DA" d="M20.8,8.4c0,5.4,0,10.8,0,16.3c-0.4,0.1-0.4-0.2-0.4-0.4c0-4.6,0-9.3,0-13.9c0-0.5,0-1.1,0-1.6
		C20.4,8.5,20.5,8.4,20.8,8.4z"/>
	<path fill="#FEEDAA" d="M24.1,12.8c0.2-0.1,0.4-0.2,0.5-0.2c2.5,0,5,0,7.5,0c0.1,0.4-0.1,0.4-0.4,0.4c-2.5,0-4.9,0-7.4,0
		C24.2,13,24.2,12.9,24.1,12.8z"/>
	<path fill="#FEF4C8" d="M24.1,12.8c0.1,0.1,0.1,0.1,0.2,0.2c0,2.2,0,4.4,0,6.6c-0.3,0-0.4-0.1-0.4-0.4c0-2,0-4,0-6
		C23.9,13.1,24,13,24.1,12.8z"/>
	<path fill="#FEF7DA" d="M20.8,29.2c0,1.5,0,2.9,0,4.4c-0.3,0.1-0.4,0-0.4-0.3c0-1.2,0-2.4,0-3.6C20.4,29.4,20.4,29.2,20.8,29.2z"/>
	<path fill="#FEFAE8" d="M28.2,24.4c0,0.4,0,0.7,0,1.1c0,0.3-0.1,0.3-0.3,0.3c0-0.5,0-0.9,0-1.4C28,24.4,28.1,24.4,28.2,24.4z"/>
	<path fill="#FEF4C8" d="M28.2,24.4c-0.1,0-0.2,0-0.3,0c0-0.1,0-0.2,0-0.3c0-0.3-0.1-0.4-0.4-0.4c0-0.6,0.4-0.3,0.7-0.3
		C28.2,23.7,28.2,24,28.2,24.4z"/>
	<path fill="#FEF7DA" d="M31,18.7c0,0.1-0.1,0.3-0.1,0.3c-0.3,0-0.5-0.1-0.7-0.2C30.5,18.8,30.8,18.8,31,18.7z"/>
	<path fill="#FEF7DA" d="M28.2,19.1c0,0.1-0.1,0.3-0.1,0.3c-0.3,0-0.5-0.1-0.7-0.2C27.6,19.2,27.9,19.1,28.2,19.1z"/>
	<path fill="#FEF7DA" d="M25.4,19.4c0,0.1-0.1,0.3-0.1,0.3c-0.3,0-0.5-0.1-0.7-0.2C24.8,19.6,25.1,19.5,25.4,19.4z"/>
	<path fill="#FEE063" d="M30.7,30.1c0-0.3,0.1-0.6,0.1-0.9c0,0,0.1,0,0.1,0c0.1,0.2,0.1,0.5,0.1,0.7C31,30,30.8,30,30.7,30.1z"/>
	<path fill="#FEE78B" d="M31.4,20.5c0-0.3,0.1-0.6,0.1-0.9c0,0,0.1,0,0.1,0c0.1,0.3,0.1,0.6,0.2,0.9C31.6,20.5,31.5,20.5,31.4,20.5z
		"/>
	<path fill="#FEF7DA" d="M31.6,19.6C31.6,19.6,31.5,19.6,31.6,19.6c-0.1-0.3-0.2-0.6-0.2-0.9c0.4-0.1,0.4,0.2,0.3,0.4
		C31.7,19.3,31.6,19.5,31.6,19.6z"/>
	<path fill="#FEF4C8" d="M30.9,29.2C30.8,29.2,30.8,29.2,30.9,29.2c-0.1-0.3-0.1-0.6-0.2-0.9c0.1,0,0.2,0,0.3,0
		C31,28.6,30.9,28.9,30.9,29.2z"/>
	<path fill="#FEF4C8" d="M31.1,24.4c0-0.2,0-0.5,0-0.7c0.1,0,0.2,0,0.3,0c0,0.2,0,0.5,0,0.7C31.3,24.4,31.2,24.4,31.1,24.4z"/>
	<path fill="#FEE063" d="M32.1,12.7c0-0.2,0-0.5,0-0.7c0.1,0,0.2,0,0.3,0C32.4,12.2,32.7,12.7,32.1,12.7z"/>
	<path fill="#FEE78B" d="M31.1,24.4c0.1,0,0.2,0,0.3,0c0,0.2,0,0.5,0,0.7c-0.1,0-0.2,0-0.3,0C31.1,24.8,31.1,24.6,31.1,24.4z"/>
	<path fill="#FEE063" d="M31.1,25.1c0.1,0,0.2,0,0.3,0c-0.1,0.2,0.3,0.7-0.3,0.7C31.1,25.5,31.1,25.3,31.1,25.1z"/>
	<path fill="#FEFAE8" d="M31.4,23.7c-0.1,0-0.2,0-0.3,0c0.1-0.2-0.3-0.7,0.3-0.7C31.4,23.2,31.4,23.4,31.4,23.7z"/>
	<path fill="#FEFAE8" d="M32.1,10.5c0.1-0.2-0.3-0.7,0.3-0.7c0,0.2,0,0.5,0,0.7C32.3,10.5,32.2,10.5,32.1,10.5z"/>
	<path fill="#FEE063" d="M31.4,20.5c0.1,0,0.2,0,0.3,0c-0.1,0.2,0.3,0.7-0.3,0.7C31.4,21,31.4,20.7,31.4,20.5z"/>
	<path fill="#FEFAE8" d="M31,28.3c-0.1,0-0.2,0-0.3,0c0.1-0.2-0.3-0.7,0.3-0.7C31,27.9,31,28.1,31,28.3z"/>
	<path fill="#FEF4C8" d="M32.1,10.5c0.1,0,0.2,0,0.3,0c0,0.2,0,0.5,0,0.7c-0.1,0-0.2,0-0.3,0C32.1,11,32.1,10.8,32.1,10.5z"/>
	<path fill="#FEE78B" d="M32.1,11.3c0.1,0,0.2,0,0.3,0c0,0.2,0,0.5,0,0.7c-0.1,0-0.2,0-0.3,0C32.1,11.7,32.1,11.5,32.1,11.3z"/>
</g>
</svg>
