<?xml version="1.0" encoding="utf-8"?>
<!-- Generator: Adobe Illustrator 26.5.0, SVG Export Plug-In . SVG Version: 6.00 Build 0)  -->
<svg version="1.0" id="Layer_1" xmlns="http://www.w3.org/2000/svg" xmlns:xlink="http://www.w3.org/1999/xlink" x="0px" y="0px"
	 width="37.8px" height="43.1px" viewBox="0 0 37.8 43.1" enable-background="new 0 0 37.8 43.1" xml:space="preserve">
<g>
	<path fill="#8AC400" d="M18.2,0.1c0.5,0,1.1,0,1.6,0c0.1,0.1,0.1,0.2,0.2,0.3c0.1,0.1,0.2,0.1,0.3,0.2c0.3,0.1,0.6,0.3,0.9,0.4
		c0.2,0.2,0.4,0.3,0.6,0.5c0.3,0.1,0.6,0.1,0.8,0.3c0.3,0.3,0.6,0.5,1,0.7c0.3,0.2,0.6,0.3,0.9,0.4c0.5,0.5,1.2,0.7,1.8,1.1
		C26.4,3.9,26.4,4,26.5,4c0.2,0.1,0.5,0.2,0.7,0.3c0.3,0.2,0.6,0.5,1,0.7c0.1,0,0.1,0,0.2,0.1c0.3,0.1,0.5,0.2,0.8,0.4
		c0.1,0.1,0.2,0.2,0.4,0.3c0.1,0.1,0.2,0.1,0.3,0.2c0.2,0.1,0.5,0.3,0.7,0.4c0.2,0.1,0.5,0.3,0.7,0.4c0.1,0.1,0.3,0.2,0.4,0.3
		c0.2,0.1,0.4,0.2,0.6,0.3c0.3,0.2,0.6,0.5,1,0.7c0.2,0.1,0.4,0.2,0.6,0.3c0.4,0.1,0.7,0.3,1,0.6C35,9,35.2,9.1,35.3,9.1
		c0.2,0.1,0.4,0.2,0.6,0.3c0.2,0.1,0.4,0.1,0.5,0.3c0.2,0.3,0.5,0.4,0.8,0.5c0.2,0.3,0.4,0.7,0.6,1.1c0,0.2-0.1,0.3-0.1,0.5
		c0,6.6,0,13.1,0,19.7c0,0.1,0,0.3,0.1,0.4c-0.1,0.3-0.2,0.6-0.3,0.8c-0.1,0.2-0.3,0.3-0.5,0.4c-0.2,0.2-0.4,0.3-0.7,0.4
		c-0.2,0.1-0.3,0.3-0.5,0.3c-0.4,0.1-0.8,0.3-1.1,0.6c-0.2,0.2-0.5,0.4-0.7,0.5c-0.4,0.1-0.8,0.3-1.1,0.6c-0.1,0.1-0.2,0.3-0.4,0.2
		c0,0-0.1,0.1-0.2,0.1C32.2,36,32.1,36,32,36.1c-0.2,0.1-0.5,0.3-0.7,0.4c-0.6,0.4-1.3,0.6-2,1.2c-0.4,0.2-1,0.5-1.5,0.9
		c-0.5,0.4-1.1,0.5-1.6,1c-0.5,0.4-1.1,0.6-1.7,0.9c0,0.1,0,0.2-0.1,0.2c-0.3,0.2-0.7,0.5-1.1,0.5c-0.5,0.1-0.6,0.7-1.1,0.6
		c-0.2,0.3-0.6,0.2-0.9,0.5c-0.1,0.1-0.1,0.4-0.4,0.3c-0.1,0-0.3,0.3-0.6,0.3c0,0,0,0.1-0.1,0.2c-0.9,0-1.8,0-2.7,0
		c-0.1-0.4-0.6-0.2-0.7-0.5c-0.5,0-0.6-0.6-1.1-0.6c-0.3,0-0.5-0.3-0.8-0.4c-0.1-0.1-0.2-0.2-0.3-0.3c-0.2-0.1-0.5-0.2-0.7-0.3
		c-0.3-0.2-0.6-0.5-1-0.7c0,0-0.1-0.1-0.1-0.1c-0.3-0.1-0.5-0.2-0.8-0.3c-0.3-0.2-0.6-0.5-1-0.7c-0.2-0.1-0.5-0.2-0.8-0.3
		c-0.2-0.1-0.4-0.3-0.7-0.4c-0.1-0.1-0.2-0.2-0.4-0.2c-0.1,0-0.2-0.1-0.2-0.1c-0.1-0.1-0.2-0.1-0.3-0.2c-0.1,0-0.1-0.1-0.2-0.1
		c-0.5,0-0.6-0.6-1.1-0.6c-0.3,0-0.5-0.4-0.7-0.4c-0.5,0-0.6-0.6-1.1-0.7c-0.3,0-0.5-0.3-0.8-0.4c-0.1-0.1-0.2-0.2-0.3-0.3
		c-0.2-0.1-0.3-0.2-0.5-0.2C4,35,3.7,34.9,3.4,34.7c-0.2-0.1-0.4-0.3-0.6-0.5c-0.1-0.1-0.2-0.1-0.4-0.2c-0.2-0.1-0.4-0.3-0.7-0.4
		C1.3,33.6,1,33.2,0.6,33C0.1,32.7,0,32.1,0,31.6C0,25,0,18.4,0,11.8c0-0.5,0.4-0.9,0.6-1.3c0.1-0.2,0.5-0.4,0.7-0.6
		c0.1-0.1,0.2-0.2,0.4-0.3c0.2,0,0.5-0.2,0.7-0.3c0.1-0.1,0.3-0.2,0.3-0.2c0.6-0.5,1.4-0.8,2-1.1c0.2-0.2,0.4-0.3,0.7-0.4
		C5.6,7.4,6,7.4,6.2,7.2c0.3-0.3,0.6-0.5,0.9-0.7c0.2-0.1,0.5-0.2,0.7-0.3C7.9,6.2,8,6.1,8.1,6.1c0,0,0,0,0,0c0.6-0.3,1.2-0.7,1.8-1
		c0,0,0-0.1,0-0.1c0.2-0.1,0.5-0.2,0.7-0.3c0.1,0,0.1-0.1,0.2-0.1c0.1-0.1,0.2-0.1,0.3-0.1c0.1,0,0.2-0.1,0.3-0.1
		c0.2-0.1,0.3-0.4,0.6-0.4c0.2,0,0.4-0.2,0.7-0.3c0.1-0.1,0.3-0.2,0.4-0.3c0.6-0.5,1.3-0.7,1.9-1.1c0.2-0.2,0.4-0.3,0.6-0.4
		c0.3-0.1,0.6-0.1,0.8-0.3c0.3-0.2,0.5-0.5,0.8-0.6c0.3-0.1,0.5-0.3,0.7-0.4c0,0,0.1,0,0.1,0C18.1,0.4,18.2,0.2,18.2,0.1z M33,22.2
		c-0.1,0-0.2-0.1-0.2-0.1c-0.1-0.2-0.2-0.2-0.4-0.1c-0.1,0.1-0.2,0.2-0.4,0.3c0,0.1,0,0.2,0,0.4c0,0.4,0.2,0.7,0.6,0.6
		c0.1,0,0.5,0,0.4-0.3c0.4,0,0.2-0.3,0.3-0.5C33.3,22.3,33.2,22.2,33,22.2z M33.5,22.2c0,0.2,0,0.4,0,0.6c0,0.2,0.1,0.3,0.3,0.3
		c0.2-0.1,0.4-0.1,0.5-0.2c0.4-0.2,0.9-0.5,1.3-0.8c0.1-0.1,0.3-0.2,0.3-0.4c0-0.3,0.1-0.6,0-0.8c-0.1-0.2-0.3-0.4-0.6-0.6
		c-0.3-0.2-0.7-0.4-1.1-0.6c-0.1-0.1-0.2-0.2-0.3-0.2c-0.4,0-0.5-0.3-0.8-0.4c-0.2-0.1-0.4-0.2-0.7-0.2c-0.2,0-0.4,0.1-0.6,0.3
		c-0.2,0.2-0.5,0.2-0.7,0.3c-0.3,0.2-0.5,0.5-0.9,0.5c0,0,0,0-0.1,0.1c-0.2,0.1-0.4,0.3-0.6,0.4c-0.1,0.1-0.1,0.2-0.2,0.3
		c-0.2,0-0.3,0.1-0.3,0.3c0,1.1,0,2.1,0,3.2c0,0.2,0.1,0.3,0.3,0.3c0,0.1,0.1,0.2,0.1,0.2c0.6,0.2,1,0.7,1.7,0.8c0,0,0,0,0.1,0
		c0.2,0.4,0.7,0.5,1.1,0.7c0.2,0.1,0.6,0.1,0.7,0c0.3-0.2,0.5-0.4,0.9-0.5c0.2,0,0.4-0.1,0.6-0.3c0.1-0.1,0.2-0.3,0.3-0.4
		c-0.2-0.1-0.4-0.2-0.5-0.3c-0.4-0.2-0.7-0.4-1.1-0.6c-0.2-0.1-0.4-0.2-0.6-0.3c-0.3-0.2-0.6-0.4-0.9-0.6c0-0.4,0-0.9,0-1.4
		c0.2-0.1,0.4-0.1,0.5-0.2c0.2-0.1,0.4-0.3,0.6-0.4c0,0,0.2,0,0.2,0.1c0.2,0.1,0.4,0.3,0.6,0.4C33.4,22,33.5,22.1,33.5,22.2z
		 M8.8,25.7C9,25.7,9,25.6,9,25.4c0-1.4,0-2.8,0-4.3C9,21,9,20.9,8.8,20.9c0-0.1,0-0.2-0.1-0.2c-0.1-0.1-0.3-0.1-0.4-0.2
		c-0.2-0.1-0.3-0.2-0.4-0.3c-0.2-0.1-0.5-0.2-0.7-0.3c-0.3-0.2-0.5-0.5-0.9-0.5c0,0-0.1-0.1-0.1-0.1c-0.2-0.1-0.4-0.3-0.6-0.4
		c0,0-0.1,0-0.2,0.1c0,0-0.1,0.1-0.1,0.1c-0.2,0.1-0.5,0.2-0.7,0.3c-0.4,0.3-0.8,0.3-1.2,0.7c-0.3,0.3-0.8,0.4-1.2,0.6
		c0,1.7,0,3.3,0,5c0.3,0,0.5,0.1,0.7-0.2c0.1-0.1,0.3-0.3,0.5-0.3c0.4,0,0.6-0.4,1-0.6c0.3,0,0.3-0.1,0.3-0.3c0-0.6,0-1.2,0-1.8
		c0-0.1-0.1-0.2-0.1-0.4c0.2-0.1,0.3-0.3,0.5-0.4c0.1-0.1,0.2-0.1,0.3-0.1c0.2,0,0.5-0.1,0.6,0c0.3,0.1,0.5,0.4,0.8,0.6
		c0.1,0.1,0.1,0.2,0.1,0.4c0,0.7,0,1.3,0,2c0,0.1,0.1,0.4,0.2,0.4c0.5,0.1,0.8,0.6,1.3,0.6c0,0,0.1,0,0.1,0
		C8.3,25.8,8.6,25.6,8.8,25.7z M20.2,20.9c-0.2,0-0.3,0.1-0.3,0.3c0,1.1,0,2.1,0,3.2c0,0.2,0.1,0.3,0.3,0.3c0,0.1,0,0.2,0.1,0.2
		c0.2,0.1,0.4,0.2,0.6,0.3c0.2,0.1,0.5,0.2,0.6,0.3c0.2,0.3,0.5,0.4,0.8,0.5c0.2,0.1,0.5,0.2,0.6,0.3c0.2,0.3,0.5,0.2,0.7,0.2
		c0.3,0,0.6-0.2,0.9-0.3c0.3-0.2,0.6-0.5,1-0.5c0,0,0,0,0.1,0c0.3-0.5,0.9-0.5,1.3-0.9c0-3,0-6.1,0-9.2c-0.5,0-0.7-0.6-1.3-0.6
		c0,0,0,0,0,0c-0.3-0.1-0.5-0.3-0.8-0.4c-0.3,0-0.3,0.2-0.3,0.4c0,1.5,0,3,0,4.5c-0.2-0.1-0.3-0.1-0.5-0.2c-0.2-0.1-0.8-0.1-1,0
		c-0.2,0.1-0.3,0.3-0.5,0.4c-0.3,0.1-0.5,0.2-0.8,0.3c-0.3,0.1-0.5,0.3-0.8,0.5c-0.1,0.1-0.2,0.2-0.3,0.3
		C20.5,20.7,20.3,20.8,20.2,20.9z M16.5,19.9c-0.2-0.2-0.4-0.3-0.6-0.4c-0.5-0.2-0.9-0.4-1.4-0.6c-0.1,0-0.3,0-0.4,0.1
		c-0.2,0-0.3,0.3-0.6,0.3c-0.2,0-0.4,0.2-0.7,0.3c-0.1,0.1-0.2,0.2-0.4,0.2c-0.4,0.4-0.9,0.5-1.4,0.8c0,1.2,0,2.5,0,3.8
		c0,0.1,0.2,0.3,0.3,0.4c0.1,0.1,0.3,0.2,0.5,0.3c0.3,0.2,0.5,0.4,0.8,0.5c0.4,0.2,0.8,0.3,1.1,0.7c0.2,0.2,0.9,0.2,1.1,0
		c0.1-0.1,0.2-0.3,0.4-0.3c0.3-0.1,0.5-0.2,0.8-0.3c0,0,0.1-0.1,0.1-0.1c0.1-0.1,0.2-0.1,0.3-0.1c0.1,0,0.2-0.1,0.3-0.1
		c0.2-0.1,0.3-0.3,0.5-0.4c0.3-0.1,0.4-0.2,0.4-0.5c0-0.8,0-1.5,0-2.3c0-0.5,0-1,0-1.4C17.3,20.4,16.8,20.3,16.5,19.9z"/>
	<path fill="#666860" d="M24.8,14.5c0.3,0.1,0.5,0.3,0.8,0.4c0,0,0,0,0,0c0.5,0,0.7,0.6,1.3,0.6c0,3.1,0,6.2,0,9.2
		c-0.4,0.4-1,0.4-1.3,0.9c0,0,0,0-0.1,0c-0.4,0-0.6,0.3-1,0.5c-0.3,0.2-0.6,0.3-0.9,0.3c-0.2,0-0.5,0.1-0.7-0.2
		c-0.1-0.2-0.4-0.3-0.6-0.3c-0.3-0.1-0.6-0.2-0.8-0.5c-0.1-0.2-0.4-0.2-0.6-0.3c-0.2-0.1-0.4-0.2-0.6-0.3c-0.1,0-0.1-0.2-0.1-0.2
		c0-1.2,0-2.5,0-3.7c0.1-0.1,0.3-0.2,0.4-0.3c0.1-0.1,0.2-0.2,0.3-0.3c0.3-0.2,0.5-0.3,0.8-0.5c0.3-0.1,0.5-0.2,0.8-0.3
		c0.2-0.1,0.4-0.3,0.5-0.4c0.2-0.1,0.8-0.1,1,0c0.1,0.1,0.3,0.1,0.5,0.2c0.1,0.2,0.2,0,0.2-0.1c0-0.1,0-0.2,0-0.3
		C24.8,17.4,24.8,15.9,24.8,14.5z M24.6,23.4c0.3-0.3,0.1-0.6,0.2-1c0-0.2-0.1-0.3-0.3-0.3c0-0.1-0.1-0.2-0.1-0.2
		c-0.3-0.1-0.5-0.2-0.7-0.5c0,0-0.1,0-0.2,0c-0.3,0.1-0.5,0.3-0.7,0.5c-0.1,0.1-0.3,0.2-0.3,0.4c0,0.4,0,0.8,0,1.2
		c0.2,0,0.4,0,0.5,0.1c0.2,0.1,0.3,0.2,0.4,0.4c0.3,0.2,0.4,0,0.5-0.2c0,0,0,0,0,0C24.2,23.9,24.3,23.5,24.6,23.4z"/>
	<path fill="#FEFEFE" d="M16.5,19.9c0.3,0.4,0.8,0.5,1.3,0.8c0,0.4,0,0.9,0,1.4c0,0.8,0,1.5,0,2.3c0,0.3-0.2,0.4-0.4,0.5
		c-0.2,0.1-0.3,0.3-0.5,0.4c-0.1,0.1-0.2,0.1-0.3,0.1c-0.1,0-0.2,0.1-0.3,0.1c0,0-0.1,0.1-0.1,0.1c-0.3,0.1-0.6,0.2-0.8,0.3
		c-0.1,0.1-0.3,0.2-0.4,0.3c-0.2,0.2-0.9,0.3-1.1,0c-0.3-0.3-0.7-0.5-1.1-0.7c-0.3-0.1-0.6-0.3-0.8-0.5c-0.2-0.1-0.3-0.2-0.5-0.3
		c-0.1-0.1-0.3-0.2-0.3-0.4c0-1.3,0-2.6,0-3.8c0.5-0.3,1-0.4,1.4-0.8c0.1-0.1,0.2-0.2,0.4-0.2c0.2-0.1,0.4-0.4,0.7-0.3
		c0.3,0,0.4-0.3,0.6-0.3c0.1,0,0.3-0.1,0.4-0.1c0.5,0.2,0.9,0.4,1.4,0.6C16.1,19.7,16.2,19.8,16.5,19.9z M15.5,23.4
		c0.1-0.1,0.2-0.2,0.2-0.3c0-0.2,0-0.5,0-0.7c0-0.1-0.1-0.3-0.2-0.4c-0.1,0-0.2-0.1-0.2-0.1c-0.2-0.1-0.4-0.2-0.6-0.3
		c-0.1,0-0.1-0.1-0.2-0.2c-0.1,0.1-0.1,0.1-0.2,0.2c-0.3,0.1-0.6,0.3-0.9,0.4c0,0,0,0,0,0c-0.2,0.4-0.1,0.8-0.1,1.3c0,0,0,0,0.1,0.1
		c0.1,0.1,0.2,0.1,0.4,0.2c0,0.2,0.5,0.5,0.8,0.5c0,0,0,0,0.1,0C14.9,23.8,15.2,23.6,15.5,23.4z"/>
	<path fill="#666860" d="M4.2,24.6c-0.3,0.2-0.5,0.5-1,0.6c-0.2,0-0.4,0.2-0.5,0.3c-0.2,0.3-0.4,0.2-0.7,0.2c0-1.7,0-3.3,0-5
		C2.5,20.5,3,20.4,3.3,20c0.3-0.4,0.8-0.4,1.2-0.7C4.7,19.2,5,19.1,5.2,19c0,0,0.1-0.1,0.1-0.1c0.1,0,0.1-0.1,0.2-0.1
		c0.2,0.1,0.4,0.3,0.6,0.4c0,0,0.1,0.1,0.1,0.1c0.4,0,0.6,0.3,0.9,0.5c0.2,0.1,0.5,0.2,0.7,0.3c0.2,0.1,0.3,0.2,0.4,0.3
		c0.1,0.1,0.3,0.1,0.4,0.2c0.1,0,0.1,0.2,0.1,0.2c0,1.6,0,3.2,0,4.8c-0.2,0-0.5,0.1-0.6-0.2c0,0,0,0-0.1,0c-0.5,0-0.8-0.5-1.3-0.6
		c-0.1,0-0.2-0.3-0.2-0.4c0-0.7,0-1.3,0-2c0-0.1,0-0.3-0.1-0.4c-0.3-0.2-0.5-0.4-0.8-0.6c-0.2-0.1-0.4,0-0.6,0
		c-0.1,0-0.2,0.1-0.3,0.1c-0.2,0.1-0.3,0.3-0.5,0.4c-0.1,0.1-0.2,0.3-0.2,0.4C4.2,23.2,4.2,23.9,4.2,24.6z"/>
	<path fill="#666860" d="M29.3,20.9c0.1-0.1,0.1-0.2,0.2-0.3c0.2-0.2,0.4-0.3,0.6-0.4c0,0,0-0.1,0.1-0.1c0.4,0,0.6-0.3,0.9-0.5
		c0.2-0.1,0.5-0.2,0.7-0.3c0.2-0.2,0.4-0.2,0.6-0.3c0.3-0.1,0.5,0.1,0.7,0.2c0.3,0.1,0.5,0.4,0.8,0.4c0.1,0,0.2,0.2,0.3,0.2
		c0.4,0.2,0.8,0.3,1.1,0.6c0.2,0.1,0.5,0.3,0.6,0.6c0.1,0.2,0.1,0.6,0,0.8c0,0.1-0.2,0.3-0.3,0.4c-0.4,0.3-0.8,0.5-1.3,0.8
		c-0.2,0.1-0.3,0.1-0.5,0.2c0-0.2,0-0.4,0-0.7c0-0.2-0.1-0.3-0.3-0.3c-0.1-0.1-0.1-0.2-0.2-0.3c-0.2-0.2-0.4-0.3-0.6-0.4
		c-0.1,0-0.2-0.1-0.2-0.1c-0.2,0.1-0.4,0.3-0.6,0.4c-0.1,0.1-0.3,0.1-0.5,0.2c0,0.5,0,1,0,1.4c0.3,0.2,0.6,0.4,0.9,0.6
		c0.2,0.1,0.4,0.2,0.6,0.3c0.4,0.2,0.7,0.4,1.1,0.6c0.1,0.1,0.3,0.2,0.5,0.3c-0.1,0.1-0.1,0.3-0.3,0.4c-0.2,0.1-0.4,0.2-0.6,0.3
		c-0.4,0.1-0.6,0.3-0.9,0.5c-0.2,0.1-0.6,0.1-0.7,0c-0.4-0.3-0.9-0.3-1.1-0.7c0,0,0,0-0.1,0c-0.6-0.1-1.1-0.6-1.7-0.8
		c-0.1,0-0.1-0.2-0.1-0.2C29.3,23.4,29.3,22.1,29.3,20.9z"/>
	<path fill="#83B213" d="M24.8,14.5c0,1.5,0,3,0,4.5c0,0.1,0,0.2,0,0.3c0,0.1-0.1,0.3-0.2,0.1c0-1.5,0-3,0-4.5
		C24.5,14.6,24.5,14.4,24.8,14.5z"/>
	<path fill="#85BA0B" d="M8.8,25.7c0-1.6,0-3.2,0-4.8C9,20.9,9,21,9,21.1c0,1.4,0,2.8,0,4.3C9,25.6,9,25.7,8.8,25.7z"/>
	<path fill="#666860" d="M33,23c0,0.4-0.3,0.3-0.4,0.3c-0.4,0.1-0.6-0.2-0.6-0.6c0-0.2,0-0.3,0-0.4c0.2-0.1,0.3-0.2,0.4-0.3
		c0.2-0.1,0.3-0.2,0.4,0.1c0,0.1,0.2,0.1,0.2,0.1C33,22.5,33,22.8,33,23z"/>
	<path fill="#86B90B" d="M20.2,20.9c0,1.2,0,2.5,0,3.7c-0.2,0-0.3-0.1-0.3-0.3c0-1.1,0-2.1,0-3.2C19.9,21,20,20.9,20.2,20.9z"/>
	<path fill="#7A992E" d="M29.3,20.9c0,1.2,0,2.5,0,3.7c-0.2,0-0.3-0.1-0.3-0.3c0-1.1,0-2.1,0-3.2C29,21,29.1,20.9,29.3,20.9z"/>
	<path fill="#758D39" d="M33.5,22.2c0.2,0,0.3,0.1,0.3,0.3c0,0.2,0,0.4,0,0.7c-0.2,0-0.3-0.1-0.3-0.3C33.5,22.6,33.5,22.4,33.5,22.2
		z"/>
	<path fill="#738A3D" d="M33,23c0-0.3,0-0.5,0-0.8c0.2,0,0.3,0.1,0.3,0.3C33.2,22.7,33.4,23,33,23z"/>
	<path fill="#8AC301" d="M24.6,23.4c-0.3,0.1-0.4,0.5-0.7,0.4c0,0,0,0,0,0c-0.1,0.2-0.2,0.4-0.5,0.2c-0.1-0.1-0.3-0.3-0.4-0.4
		c-0.1-0.1-0.3-0.1-0.5-0.1c0-0.4,0-0.8,0-1.2c0-0.1,0.2-0.3,0.3-0.4c0.2-0.2,0.5-0.3,0.7-0.5c0.1,0,0.2,0,0.2,0
		c0.2,0.3,0.4,0.4,0.7,0.5c0.1,0,0.1,0.2,0.1,0.2C24.5,22.6,24.6,23,24.6,23.4z"/>
	<path fill="#7CA026" d="M24.6,23.4c0-0.4,0-0.8-0.1-1.2c0.2,0,0.3,0.1,0.3,0.3C24.7,22.8,24.9,23.2,24.6,23.4z"/>
	<path fill="#8BC401" d="M13.4,22.1C13.4,22.1,13.4,22.1,13.4,22.1c0.3-0.2,0.6-0.3,0.9-0.4c0.1-0.1,0.1-0.1,0.2-0.2
		c0.1,0.1,0.1,0.1,0.2,0.2c0.2,0.1,0.4,0.2,0.6,0.3c0.1,0,0.2,0.1,0.2,0.1c0,0.4,0,0.9,0,1.3c-0.3,0.2-0.6,0.4-0.9,0.6
		c0,0,0,0-0.1,0c-0.2,0-0.7-0.3-0.8-0.5c-0.1-0.1-0.3-0.1-0.4-0.2C13.6,23.1,13.6,22.3,13.4,22.1z"/>
	<path fill="#94C919" d="M13.4,22.1c0.2,0.3,0.2,1,0,1.3c0,0-0.1,0-0.1-0.1C13.3,22.9,13.2,22.5,13.4,22.1z"/>
	<path fill="#96CA1D" d="M15.5,23.4c0-0.4,0-0.9,0-1.3c0.1,0.1,0.2,0.2,0.2,0.4c0,0.2,0,0.5,0,0.7C15.7,23.2,15.6,23.3,15.5,23.4z"
		/>
</g>
</svg>
