<?xml version="1.0" encoding="utf-8"?>
<!-- Generator: Adobe Illustrator 26.5.0, SVG Export Plug-In . SVG Version: 6.00 Build 0)  -->
<svg version="1.0" id="Layer_1" xmlns="http://www.w3.org/2000/svg" xmlns:xlink="http://www.w3.org/1999/xlink" x="0px" y="0px"
	 width="58.4px" height="52.5px" viewBox="0 0 58.4 52.5" enable-background="new 0 0 58.4 52.5" xml:space="preserve">
<path fill="#03D7FE" d="M1.9,26.3c0.2-0.8,0.4-1.6,0.7-2.5c0,0,0.1-0.1,0-0.1c0.7-0.8,1.3-1.5,2-2.3C4.8,21.3,4.9,21.1,5,21
	c1.5-1.1,3.2-2.1,4.9-2.8c0.8-0.3,1.7-0.6,2.5-0.9c0.4-0.1,0.7-0.2,1.1-0.3c-0.1-0.2-0.2-0.4-0.2-0.6c-0.2-0.8-0.3-1.6-0.5-2.5
	c0-0.2,0-0.3,0-0.5c0-0.1-0.1-0.2-0.1-0.2c0-0.4,0-0.8-0.1-1.2c0,0,0-0.1,0-0.1c0-0.9,0-1.9-0.1-2.8c0.1-1.7,0.5-3.4,1.3-4.9
	c0.3-0.4,0.6-0.8,1-1.2c0.8-0.4,1.7-0.8,2.5-1.2l0,0c0.6,0,1.2,0,1.8,0c0.1,0,0.2,0.1,0.3,0.1c0.8,0.2,1.6,0.5,2.5,0.7
	c0.9,0.5,1.9,1,2.8,1.4c0.1,0.1,0.2,0.1,0.3,0.2c0.7,0.5,1.4,1,2.1,1.5c0.4,0.3,0.8,0.6,1.2,1c0.3,0.3,0.6,0.6,1,0.9
	c0.1,0.1,0.3,0.1,0.5,0.1c0.3-0.3,0.7-0.6,1-1c0.4-0.3,0.8-0.7,1.3-1c0.7-0.5,1.3-1,2-1.4c0.2-0.1,0.3-0.2,0.5-0.3
	c0.8-0.4,1.6-0.9,2.4-1.3c0.6-0.2,1.1-0.3,1.7-0.5C39,2,39.3,1.9,39.7,1.8c0.6,0,1.3,0,1.9,0c0.9,0.4,1.7,0.9,2.6,1.3
	c0.3,0.4,0.6,0.7,0.8,1.1C45.4,5,45.7,5.9,46,6.7c0.5,2.4,0.4,4.9,0.1,7.3c-0.1,0.8-0.3,1.6-0.4,2.4c0,0.2-0.1,0.4-0.1,0.7
	c0.4,0.1,0.8,0.2,1.2,0.3c0.8,0.3,1.6,0.6,2.5,0.9c1.6,0.9,3.2,1.8,4.7,2.7c0.1,0.1,0.3,0.2,0.4,0.3c0.7,0.9,1.5,1.7,2.2,2.6
	c0.2,0.8,0.4,1.5,0.5,2.3c-0.1,1.7-1,3.1-2.2,4.3c-0.2,0.2-0.4,0.4-0.6,0.6c-0.1,0.1-0.2,0.1-0.3,0.2c-0.1,0.1-0.2,0.2-0.4,0.3
	c-0.2,0.1-0.4,0.3-0.6,0.4c-0.2,0.1-0.3,0.2-0.5,0.4c0,0,0,0,0,0c-0.2,0.1-0.4,0.2-0.5,0.3c0,0-0.1,0-0.1,0c-0.1,0-0.1,0.1-0.2,0.1
	c0,0,0,0,0,0c-0.1,0.1-0.2,0.2-0.3,0.3c-0.8,0.3-1.5,0.6-2.3,1c-0.8,0.3-1.6,0.6-2.4,0.9c-0.4,0.3-1.3-0.1-1,0.9
	c0.2,0.8,0.3,1.6,0.5,2.5c0,0.1,0,0.2,0,0.3c0,0.1,0.1,0.2,0.1,0.3c0,0.6,0,1.1,0.1,1.7c0,0,0,0.1,0,0.1c0,0.1,0,0.2,0,0.3
	c0,0,0,0.1,0,0.1c0,0.4,0,0.8,0,1.2c0,0,0,0.1,0,0.1c0,0.1,0,0.2,0,0.3c0,0,0,0.1,0,0.2c-0.1,1.8-0.5,3.5-1.4,5.1
	c-0.3,0.4-0.6,0.7-0.8,1.1c-0.8,0.4-1.6,0.9-2.5,1.3l0,0c-0.7,0-1.5,0-2.2,0c-0.9-0.3-1.8-0.5-2.6-0.8c-0.8-0.4-1.6-0.9-2.5-1.3
	c-0.2-0.1-0.4-0.3-0.6-0.4c-0.6-0.4-1.2-0.9-1.8-1.3c-0.7-0.7-1.4-1.4-2.5-1.6c-0.8,0.5-1.6,1.1-2.5,1.6c-0.6,0.4-1.2,0.9-1.9,1.3
	c-0.2,0.1-0.4,0.2-0.6,0.4c-0.8,0.4-1.6,0.8-2.5,1.2c-1.7,0.6-3.4,1.1-5.2,0.7c-0.7-0.4-1.4-0.8-2.1-1.1c-0.3-0.4-0.6-0.8-1-1.2
	c-0.3-0.8-0.6-1.6-1-2.5c-0.1-0.5-0.2-1-0.2-1.5c0-1.9,0.1-3.9,0.2-5.8c0.2-0.8,0.3-1.6,0.5-2.5c0-0.2,0-0.5-0.1-0.5
	c-0.2-0.1-0.6-0.2-0.8-0.3c-0.8-0.3-1.6-0.6-2.4-0.9c-1.6-1-3.3-1.9-4.9-2.9c-0.1-0.1-0.3-0.2-0.4-0.4c-0.7-0.8-1.3-1.6-2-2.4
	c0,0,0,0,0,0C2.4,27.9,2.1,27.1,1.9,26.3z M4.4,26.3C4.6,26.8,4.8,27.4,5,28c0.2,0.3,0.4,0.5,0.6,0.8c0.6,0.5,1.2,1,1.8,1.6
	c0.7,0.4,1.5,0.8,2.2,1.2c0.8,0.4,1.6,0.8,2.5,1.1c0.6,0.2,1.2,0.4,1.9,0.7c0.2-0.8,0.5-1.5,0.7-2.2c0,0,0-0.1,0-0.1
	c0.3-0.8,0.6-1.6,0.9-2.3c0.3-0.8,0.7-1.6,1-2.4c-0.3-0.8-0.7-1.6-1-2.5c-0.3-0.8-0.6-1.6-0.9-2.3c0,0,0-0.1,0-0.1
	c-0.2-0.7-0.4-1.3-0.7-2c-0.7,0.2-1.2,0.4-1.8,0.6c-0.2,0.1-0.5,0.2-0.7,0.3c0,0-0.1,0-0.1,0c-0.2,0.1-0.5,0.2-0.7,0.3
	c0,0-0.1,0-0.1,0c-0.2,0.1-0.5,0.2-0.7,0.3c0,0-0.1,0-0.1,0c0,0-0.1,0.1-0.1,0.1c-0.8,0.4-1.5,0.8-2.3,1.2c-0.6,0.5-1.3,1.1-1.9,1.6
	C5.4,24,5.2,24.3,5,24.5C4.8,25.1,4.6,25.7,4.4,26.3z M19.7,18.2L19.7,18.2c-1.1,0.2-2.1,0.3-3.3,0.5c0.3,0.8,0.6,1.5,0.9,2.2
	c0,0.2,0.1,0.3,0.1,0.5c0.2,0.7,0.5,1.3,0.8,2.2c0.4-0.8,0.8-1.5,1.2-2.2c0.1-0.3,0.3-0.5,0.4-0.8c0.3-0.6,0.7-1.1,1-1.7
	c0.2-0.3,0.4-0.6,0.7-1c-0.7,0.1-1.1,0.2-1.6,0.2C19.8,18.2,19.8,18.2,19.7,18.2z M38.2,18.9c0.4,0.6,0.8,1.2,1.1,1.9
	c0.1,0.2,0.2,0.4,0.3,0.6c0.3,0.7,0.7,1.4,1.1,2.2c0.3-0.9,0.6-1.5,0.8-2.2c0.1-0.2,0.1-0.4,0.2-0.6c0.2-0.6,0.5-1.3,0.8-2
	c-1.2-0.2-2.2-0.4-3.2-0.6c-0.6-0.1-1.1-0.2-1.8-0.3C37.8,18.3,38,18.6,38.2,18.9z M37.7,34.6c0.5-0.1,1.1-0.1,1.6-0.2
	c1.1-0.2,2.2-0.4,3.4-0.6c-0.3-0.9-0.6-1.6-0.9-2.3c0-0.1-0.1-0.2-0.1-0.3c-0.3-0.7-0.5-1.4-0.8-2.2c-0.5,0.9-0.8,1.6-1.2,2.3
	c-0.1,0.2-0.2,0.4-0.4,0.6c-0.3,0.6-0.6,1.1-1,1.7C38.2,33.8,38,34.2,37.7,34.6C37.7,34.6,37.7,34.6,37.7,34.6
	C37.7,34.7,37.7,34.7,37.7,34.6C37.7,34.6,37.7,34.6,37.7,34.6z M20.7,33.6c-0.3-0.6-0.7-1.1-1-1.7c-0.2-0.3-0.3-0.5-0.5-0.8
	c-0.3-0.7-0.7-1.3-1.1-2.1c-0.3,0.9-0.5,1.5-0.8,2.2c-0.1,0.1-0.1,0.3-0.2,0.4c-0.3,0.7-0.6,1.5-0.9,2.3c1.2,0.2,2.3,0.3,3.4,0.5
	c0.5,0.1,1.1,0.2,1.8,0.3C21.2,34.3,21,33.9,20.7,33.6z M29.6,37.6c-0.9,0-1.9,0-2.9,0c0.2,0.4,0.4,0.7,0.5,1
	c0.7,0.8,1.4,1.6,2.1,2.5c0.3,0.3,0.5,0.4,0.7,0c0.6-0.8,1.3-1.5,1.9-2.3c0.3-0.4,0.6-0.8,0.9-1.1C31.6,37.6,30.6,37.6,29.6,37.6z
	 M29.6,15c1,0,2.1,0.1,3.3,0.1c-0.4-0.5-0.7-0.8-1-1.1c-0.7-0.8-1.4-1.7-2.1-2.5c-0.2,0-0.4-0.1-0.5-0.1c-0.7,0.8-1.4,1.7-2.1,2.5
	c-0.3,0.3-0.6,0.7-1,1.2C27.5,15.1,28.5,15,29.6,15z M24.7,17.6c-0.3,0.4-0.7,0.9-1,1.3c-0.5,0.8-1,1.6-1.5,2.4
	c0,0.1-0.1,0.1-0.1,0.2c-0.4,0.8-0.9,1.5-1.3,2.3c-0.3,0.6-0.7,1.3-1,1.9c-0.1,0.2-0.1,0.5-0.1,0.8c0.4,0.7,0.7,1.4,1.1,2.1
	c0.5,0.8,0.9,1.7,1.4,2.5c0.5,0.8,1,1.6,1.5,2.4c0.3,0.4,0.7,0.9,1,1.3c0.8,0,1.6,0.1,2.5,0.1c0.8,0,1.6,0,2.4,0c0.8,0,1.6,0,2.5,0
	c0.8-0.1,1.6-0.1,2.4-0.2c0.3-0.4,0.6-0.9,0.9-1.3c0.5-0.8,1-1.6,1.5-2.4c0,0,0.1-0.1,0-0.1c0.4-0.8,0.9-1.6,1.3-2.3
	c0.4-0.8,0.8-1.5,1.1-2.3c0-0.2,0.1-0.4,0-0.5c-0.4-0.7-0.8-1.5-1.2-2.2c-0.4-0.8-0.9-1.5-1.3-2.3c0-0.1,0-0.1-0.1-0.1
	c-0.5-0.8-1-1.6-1.5-2.5c-0.3-0.4-0.6-0.8-0.9-1.3c-0.8-0.1-1.6-0.1-2.5-0.2c-0.8,0-1.6,0-2.4,0c-0.8,0-1.6,0-2.5,0
	C26.3,17.5,25.5,17.6,24.7,17.6z M22.2,37.2c-0.8-0.1-1.6-0.2-2.4-0.3c-0.8-0.1-1.6-0.2-2.4-0.4c-0.4-0.1-0.7-0.2-1.1-0.3
	c-0.2,0-0.5,0.2-0.5,0.3c-0.2,0.6-0.2,1.3-0.3,1.9c-0.1,0.8-0.2,1.6-0.3,2.5c0,0.8,0,1.6,0,2.4c0.1,0.8,0.3,1.6,0.4,2.5
	c0.3,1,0.7,2,1.8,2.3c0.8,0,1.6,0,2.5,0c0.8-0.3,1.6-0.6,2.4-0.9c0.8-0.5,1.5-0.9,2.3-1.4c0.1,0,0.1-0.1,0.2-0.1
	c1.1-0.9,2.2-1.7,3.4-2.6c-0.4-0.4-0.7-0.6-1-0.9c-0.4-0.4-0.7-0.9-1.1-1.3c-0.4-0.6-0.9-1.1-1.3-1.7c-0.2-0.3-0.4-0.5-0.6-0.8
	C23.7,37.9,23.3,37,22.2,37.2z M36.9,37.2c-1.1-0.2-1.5,0.6-1.9,1.4c-0.2,0.3-0.4,0.5-0.6,0.8c-0.4,0.6-0.9,1.1-1.3,1.7
	c-0.4,0.4-0.7,0.9-1.1,1.3c-0.3,0.2-0.6,0.4-1,0.7c1.3,1.1,2.4,1.9,3.5,2.7c0.1,0,0.1,0.1,0.2,0.1c0.8,0.5,1.5,0.9,2.3,1.4
	c0.8,0.3,1.6,0.6,2.4,0.9c0.8,0.3,1.7,0.4,2.5,0c1.1-0.4,1.4-1.3,1.8-2.3c0.2-0.8,0.3-1.6,0.5-2.4c0-0.8,0-1.7,0-2.5
	c-0.1-0.8-0.2-1.6-0.3-2.4c-0.1-0.8-0.3-1.6-0.4-2.5c-0.6,0.1-1.1,0.3-1.6,0.4c-0.8,0.1-1.6,0.3-2.5,0.4
	C38.5,37,37.7,37.1,36.9,37.2z M43.3,23.8c-0.3,0.8-0.7,1.5-1,2.3c0.4,0.9,0.8,1.9,1.1,2.8c0.3,0.7,0.6,1.4,0.8,2.1
	c0,0.1,0,0.1,0,0.2c0.2,0.7,0.4,1.3,0.7,2.1c0.6-0.2,1.2-0.4,1.7-0.6c1.6-0.8,3.3-1.6,4.9-2.4c0.6-0.5,1.1-0.9,1.7-1.4
	c0.2-0.2,0.4-0.4,0.6-0.7c1-1.3,1.1-2.2,0.2-3.4c-0.2-0.3-0.5-0.5-0.7-0.8c-0.6-0.5-1.2-1-1.8-1.5c-1.6-0.8-3.3-1.6-4.9-2.3
	c-0.6-0.2-1.2-0.4-1.9-0.7c-0.2,0.7-0.4,1.4-0.6,2C43.9,22.2,43.6,23,43.3,23.8z M22.2,15.4c1.1,0.1,1.5-0.7,1.9-1.4
	c0.2-0.3,0.4-0.5,0.5-0.8c0.5-0.6,0.9-1.1,1.4-1.7c0.3-0.4,0.7-0.8,1-1.3c0.3-0.2,0.6-0.4,1-0.7c-1.3-1-2.4-1.9-3.5-2.7
	c-0.1-0.1-0.2-0.1-0.3-0.2c-0.7-0.4-1.4-0.9-2.1-1.3c-0.8-0.3-1.6-0.6-2.5-1c-0.8,0-1.6,0-2.4,0c-1.2,0.3-1.5,1.3-1.8,2.3
	c-0.1,0.8-0.3,1.6-0.4,2.5c0,0.9,0,1.7,0,2.6c0.1,0.8,0.2,1.5,0.3,2.3c0.2,0.8,0.3,1.6,0.5,2.5c0.6-0.2,1-0.3,1.5-0.4
	c0.8-0.1,1.7-0.3,2.5-0.4C20.6,15.6,21.4,15.5,22.2,15.4z M36.9,15.5c0.8,0.1,1.6,0.2,2.4,0.3c0.8,0.1,1.6,0.3,2.4,0.4
	c0.5,0.1,0.9,0.2,1.4,0.4c0.2-0.9,0.3-1.7,0.4-2.5c0.1-0.8,0.2-1.6,0.3-2.5c0-0.8,0-1.6,0-2.4c-0.1-0.8-0.3-1.6-0.4-2.5
	c-0.3-1-0.6-1.8-1.7-2.3c-0.8,0-1.6,0-2.5,0c-0.8,0.3-1.6,0.6-2.5,0.9c-0.7,0.4-1.4,0.9-2.2,1.3c-0.1,0.1-0.2,0.1-0.3,0.2
	c-1.1,0.9-2.2,1.7-3.5,2.7c0.4,0.4,0.7,0.6,1,0.8c0.3,0.4,0.7,0.8,1,1.2c0.5,0.6,1,1.2,1.5,1.8c0.2,0.2,0.3,0.4,0.5,0.6
	C35.4,14.8,35.8,15.6,36.9,15.5z"/>
<path fill="#02D7FE" d="M24.7,27.4c0-0.1,0-0.2,0-0.3c0-0.3-0.1-0.6-0.1-0.8c0.1-1.8,0.8-3.4,2.5-4.2c0.8-0.4,1.7-0.5,2.5-0.7
	c0.1,0,0.2,0,0.3,0c0,0,0.1,0,0.1,0l0.1,0c2,0.1,3.2,1.4,4.1,3c0.3,0.5,0.3,1.3,0.4,2c-0.4,3-2.1,4.7-4.9,4.9
	c-0.8-0.2-1.6-0.3-2.3-0.5c0,0-0.1-0.1-0.1-0.1c0,0-0.1-0.1-0.1,0c-0.1,0-0.1-0.1-0.2-0.1c-0.2-0.1-0.3-0.2-0.5-0.3
	c-0.1-0.1-0.1-0.1-0.2-0.2c-0.1-0.1-0.1-0.1-0.2-0.2c-0.1-0.1-0.1-0.1-0.2-0.2c-0.1-0.1-0.2-0.2-0.3-0.3c-0.1-0.2-0.2-0.4-0.4-0.5
	c-0.1-0.3-0.2-0.6-0.4-0.9C24.8,27.6,24.7,27.5,24.7,27.4z"/>
</svg>
