<?xml version="1.0" encoding="utf-8"?>
<!-- Generator: Adobe Illustrator 26.5.0, SVG Export Plug-In . SVG Version: 6.00 Build 0)  -->
<svg version="1.0" id="Icons" xmlns="http://www.w3.org/2000/svg" xmlns:xlink="http://www.w3.org/1999/xlink" x="0px" y="0px"
	 width="3277.3px" height="3781.8px" viewBox="0 0 3277.3 3781.8" enable-background="new 0 0 3277.3 3781.8" xml:space="preserve">
<path fill="#8396AB" d="M2242.3,945.5h-172.5V787.9h-172.5V630.3h-690v157.6h-172.5v157.6H862.4V1103H690v945.5h172.5v157.6h172.5
	v157.6h172.5v787.9h690v-787.9h172.5v-157.6h172.5v-157.6h172.5V1103h-172.5V945.5z M1724.9,787.9v157.6h172.5v315.2h-172.5v157.6
	h-172.5v-157.6h-172.5V945.5h172.5V787.9H1724.9z M862.4,1575.8h172.5v-157.6h172.5v157.6h172.5v157.6h-172.5v157.6h-172.5v-157.6
	H862.4V1575.8z M1379.9,2363.6v-315.2h345v315.2H1379.9z M2242.3,1890.9h-172.5v157.6h-172.5v-157.6h-172.5v-315.2h172.5v-157.6
	h172.5v157.6h172.5V1890.9z"/>
<rect x="1379.9" y="3151.5" fill="#3E8948" width="517.5" height="157.6"/>
<rect x="1897.4" y="2363.6" fill="#3E8948" width="172.5" height="787.9"/>
<rect x="2069.9" y="2206.1" fill="#3E8948" width="172.5" height="157.6"/>
<rect x="2242.3" y="2048.5" fill="#3E8948" width="172.5" height="157.6"/>
<rect x="2414.8" y="1103" fill="#3E8948" width="172.5" height="945.5"/>
<rect x="2242.3" y="945.5" fill="#3E8948" width="172.5" height="157.6"/>
<rect x="2069.9" y="787.9" fill="#3E8948" width="172.5" height="157.6"/>
<rect x="1897.4" y="630.3" fill="#3E8948" width="172.5" height="157.6"/>
<rect x="1379.9" y="472.7" fill="#3E8948" width="517.5" height="157.6"/>
<rect x="2414.8" y="3309.1" fill="#63C74D" width="172.5" height="157.6"/>
<polygon fill="#63C74D" points="1379.9,3309.1 1379.9,3466.7 1552.4,3466.7 1552.4,3781.8 1724.9,3781.8 1724.9,3466.7 
	1897.4,3466.7 1897.4,3309.1 "/>
<rect x="690" y="3309.1" fill="#63C74D" width="172.5" height="157.6"/>
<rect x="2242.3" y="3151.5" fill="#63C74D" width="172.5" height="157.6"/>
<rect x="1897.4" y="3151.5" fill="#63C74D" width="172.5" height="157.6"/>
<rect x="1207.4" y="3151.5" fill="#63C74D" width="172.5" height="157.6"/>
<rect x="862.4" y="3151.5" fill="#63C74D" width="172.5" height="157.6"/>
<rect x="2587.3" y="2836.4" fill="#63C74D" width="172.5" height="157.6"/>
<polygon fill="#63C74D" points="1207.4,2363.6 1034.9,2363.6 1034.9,2678.8 690,2678.8 690,2836.4 1034.9,2836.4 1034.9,3151.5 
	1207.4,3151.5 "/>
<rect x="517.5" y="2836.4" fill="#63C74D" width="172.5" height="157.6"/>
<rect x="2759.8" y="2363.6" fill="#63C74D" width="172.5" height="157.6"/>
<polygon fill="#63C74D" points="2069.9,3151.5 2242.3,3151.5 2242.3,2836.4 2587.3,2836.4 2587.3,2678.8 2242.3,2678.8 
	2242.3,2363.6 2069.9,2363.6 "/>
<rect x="345" y="2363.6" fill="#63C74D" width="172.5" height="157.6"/>
<rect x="2587.3" y="2206.1" fill="#63C74D" width="172.5" height="157.6"/>
<rect x="2242.3" y="2206.1" fill="#63C74D" width="172.5" height="157.6"/>
<rect x="862.4" y="2206.1" fill="#63C74D" width="172.5" height="157.6"/>
<rect x="517.5" y="2206.1" fill="#63C74D" width="172.5" height="157.6"/>
<rect x="2414.8" y="2048.5" fill="#63C74D" width="172.5" height="157.6"/>
<rect x="1379.9" y="2048.5" fill="#63C74D" width="345" height="315.2"/>
<rect x="690" y="2048.5" fill="#63C74D" width="172.5" height="157.6"/>
<polygon fill="#63C74D" points="690,1103 517.5,1103 517.5,1260.6 172.5,1260.6 172.5,1418.2 517.5,1418.2 517.5,1575.8 0,1575.8 
	0,1733.3 517.5,1733.3 517.5,2048.5 690,2048.5 "/>
<polygon fill="#63C74D" points="2759.8,1575.8 2759.8,1418.2 3104.8,1418.2 3104.8,1260.6 2759.8,1260.6 2759.8,1103 2587.3,1103 
	2587.3,2048.5 2759.8,2048.5 2759.8,1733.3 3277.3,1733.3 3277.3,1575.8 "/>
<polygon fill="#63C74D" points="1379.9,1575.8 1207.4,1575.8 1207.4,1418.2 1034.9,1418.2 1034.9,1575.8 862.4,1575.8 862.4,1733.3 
	1034.9,1733.3 1034.9,1890.9 1207.4,1890.9 1207.4,1733.3 1379.9,1733.3 "/>
<polygon fill="#63C74D" points="2069.9,1418.2 1897.4,1418.2 1897.4,1575.8 1724.9,1575.8 1724.9,1890.9 1897.4,1890.9 
	1897.4,2048.5 2069.9,2048.5 2069.9,1890.9 2242.3,1890.9 2242.3,1575.8 2069.9,1575.8 "/>
<polygon fill="#63C74D" points="1552.4,1418.2 1724.9,1418.2 1724.9,1260.6 1897.4,1260.6 1897.4,945.5 1724.9,945.5 1724.9,787.9 
	1552.4,787.9 1552.4,945.5 1379.9,945.5 1379.9,1260.6 1552.4,1260.6 "/>
<rect x="2414.8" y="945.5" fill="#63C74D" width="172.5" height="157.6"/>
<rect x="690" y="945.5" fill="#63C74D" width="172.5" height="157.6"/>
<rect x="2587.3" y="787.9" fill="#63C74D" width="172.5" height="157.6"/>
<rect x="2242.3" y="787.9" fill="#63C74D" width="172.5" height="157.6"/>
<rect x="862.4" y="787.9" fill="#63C74D" width="172.5" height="157.6"/>
<rect x="517.5" y="787.9" fill="#63C74D" width="172.5" height="157.6"/>
<rect x="2069.9" y="630.3" fill="#63C74D" width="172.5" height="157.6"/>
<rect x="1034.9" y="630.3" fill="#63C74D" width="172.5" height="157.6"/>
<rect x="2242.3" y="472.7" fill="#63C74D" width="172.5" height="157.6"/>
<rect x="1897.4" y="472.7" fill="#63C74D" width="172.5" height="157.6"/>
<rect x="1207.4" y="472.7" fill="#63C74D" width="172.5" height="157.6"/>
<rect x="862.4" y="472.7" fill="#63C74D" width="172.5" height="157.6"/>
<rect x="2414.8" y="315.2" fill="#63C74D" width="172.5" height="157.6"/>
<polygon fill="#63C74D" points="1897.4,472.7 1897.4,315.2 1724.9,315.2 1724.9,0 1552.4,0 1552.4,315.2 1379.9,315.2 1379.9,472.7 
	"/>
<rect x="690" y="315.2" fill="#63C74D" width="172.5" height="157.6"/>
<rect x="345" y="630.3" fill="#63C74D" width="172.5" height="157.6"/>
<rect x="195.6" y="630.3" fill="#63C74D" width="172.5" height="157.6"/>
<rect x="195.6" y="472.7" fill="#63C74D" width="172.5" height="157.6"/>
<rect fill="#63C74D" width="345" height="315.2"/>
<rect x="59.3" y="315.2" fill="#63C74D" width="172.5" height="157.6"/>
<rect x="345" y="315.2" fill="#63C74D" width="172.5" height="157.6"/>
<rect fill="#3E8948" width="517.5" height="157.6"/>
<rect x="2759.8" y="630.3" fill="#63C74D" width="172.5" height="157.6"/>
<rect x="2759.8" y="0" fill="#63C74D" width="345" height="315.2"/>
<rect x="3104.8" y="315.2" fill="#63C74D" width="172.5" height="157.6"/>
<rect x="2932.3" y="472.7" fill="#63C74D" width="172.5" height="157.6"/>
<rect x="2759.8" y="0" fill="#3E8948" width="517.5" height="157.6"/>
</svg>
