<?xml version="1.0" encoding="utf-8"?>
<!-- Generator: Adobe Illustrator 26.5.0, SVG Export Plug-In . SVG Version: 6.00 Build 0)  -->
<svg version="1.0" id="Icons" xmlns="http://www.w3.org/2000/svg" xmlns:xlink="http://www.w3.org/1999/xlink" x="0px" y="0px"
	 width="3277.3px" height="4000px" viewBox="0 0 3277.3 4000" enable-background="new 0 0 3277.3 4000" xml:space="preserve">
<g>
	<path fill="#63C74D" d="M2242.3,1054.5h-172.5V897h-172.5V739.4h-690V897h-172.5v157.6H862.4v157.6H690v945.5h172.5v157.6h172.5
		v157.6h172.5v787.9h690v-787.9h172.5v-157.6h172.5v-157.6h172.5v-945.5h-172.5V1054.5z M1724.9,897v157.6h172.5v315.2h-172.5v157.6
		h-172.5v-157.6h-172.5v-315.2h172.5V897H1724.9z M862.4,1684.8h172.5v-157.6h172.5v157.6h172.5v157.6h-172.5V2000h-172.5v-157.6
		H862.4V1684.8z M1379.9,2472.7v-315.2h345v315.2H1379.9z M2242.3,2000h-172.5v157.6h-172.5V2000h-172.5v-315.2h172.5v-157.6h172.5
		v157.6h172.5V2000z"/>
	<rect x="1379.9" y="3260.6" fill="#3E8948" width="517.5" height="157.6"/>
	<rect x="1897.4" y="2472.7" fill="#3E8948" width="172.5" height="787.9"/>
	<rect x="2069.9" y="2315.2" fill="#3E8948" width="172.5" height="157.6"/>
	<rect x="2242.3" y="2157.6" fill="#3E8948" width="172.5" height="157.6"/>
	<rect x="2414.8" y="1212.1" fill="#3E8948" width="172.5" height="945.5"/>
	<rect x="2242.3" y="1054.5" fill="#3E8948" width="172.5" height="157.6"/>
	<rect x="2069.9" y="897" fill="#3E8948" width="172.5" height="157.6"/>
	<rect x="1897.4" y="739.4" fill="#3E8948" width="172.5" height="157.6"/>
	<rect x="1379.9" y="581.8" fill="#3E8948" width="517.5" height="157.6"/>
	<rect x="2414.8" y="3418.2" fill="#8396AB" width="172.5" height="157.6"/>
	<polygon fill="#8396AB" points="1379.9,3418.2 1379.9,3575.8 1552.4,3575.8 1552.4,3890.9 1724.9,3890.9 1724.9,3575.8 
		1897.4,3575.8 1897.4,3418.2 	"/>
	<rect x="690" y="3418.2" fill="#8396AB" width="172.5" height="157.6"/>
	<rect x="2242.3" y="3260.6" fill="#8396AB" width="172.5" height="157.6"/>
	<rect x="1897.4" y="3260.6" fill="#8396AB" width="172.5" height="157.6"/>
	<rect x="1207.4" y="3260.6" fill="#8396AB" width="172.5" height="157.6"/>
	<rect x="862.4" y="3260.6" fill="#8396AB" width="172.5" height="157.6"/>
	<rect x="2587.3" y="2945.5" fill="#8396AB" width="172.5" height="157.6"/>
	<polygon fill="#8396AB" points="1207.4,2472.7 1034.9,2472.7 1034.9,2787.9 690,2787.9 690,2945.5 1034.9,2945.5 1034.9,3260.6 
		1207.4,3260.6 	"/>
	<rect x="517.5" y="2945.5" fill="#8396AB" width="172.5" height="157.6"/>
	<rect x="2759.8" y="2472.7" fill="#8396AB" width="172.5" height="157.6"/>
	<polygon fill="#8396AB" points="2069.9,3260.6 2242.3,3260.6 2242.3,2945.5 2587.3,2945.5 2587.3,2787.9 2242.3,2787.9 
		2242.3,2472.7 2069.9,2472.7 	"/>
	<rect x="345" y="2472.7" fill="#8396AB" width="172.5" height="157.6"/>
	<rect x="2587.3" y="2315.2" fill="#8396AB" width="172.5" height="157.6"/>
	<rect x="2242.3" y="2315.2" fill="#8396AB" width="172.5" height="157.6"/>
	<rect x="862.4" y="2315.2" fill="#8396AB" width="172.5" height="157.6"/>
	<rect x="517.5" y="2315.2" fill="#8396AB" width="172.5" height="157.6"/>
	<rect x="2414.8" y="2157.6" fill="#8396AB" width="172.5" height="157.6"/>
	<rect x="1379.9" y="2157.6" fill="#8396AB" width="345" height="315.2"/>
	<rect x="690" y="2157.6" fill="#8396AB" width="172.5" height="157.6"/>
	<polygon fill="#8396AB" points="690,1212.1 517.5,1212.1 517.5,1369.7 172.5,1369.7 172.5,1527.3 517.5,1527.3 517.5,1684.8 
		0,1684.8 0,1842.4 517.5,1842.4 517.5,2157.6 690,2157.6 	"/>
	<polygon fill="#8396AB" points="2759.8,1684.8 2759.8,1527.3 3104.8,1527.3 3104.8,1369.7 2759.8,1369.7 2759.8,1212.1 
		2587.3,1212.1 2587.3,2157.6 2759.8,2157.6 2759.8,1842.4 3277.3,1842.4 3277.3,1684.8 	"/>
	<polygon fill="#8396AB" points="1379.9,1684.8 1207.4,1684.8 1207.4,1527.3 1034.9,1527.3 1034.9,1684.8 862.4,1684.8 
		862.4,1842.4 1034.9,1842.4 1034.9,2000 1207.4,2000 1207.4,1842.4 1379.9,1842.4 	"/>
	<polygon fill="#8396AB" points="2069.9,1527.3 1897.4,1527.3 1897.4,1684.8 1724.9,1684.8 1724.9,2000 1897.4,2000 1897.4,2157.6 
		2069.9,2157.6 2069.9,2000 2242.3,2000 2242.3,1684.8 2069.9,1684.8 	"/>
	<polygon fill="#8396AB" points="1552.4,1527.3 1724.9,1527.3 1724.9,1369.7 1897.4,1369.7 1897.4,1054.5 1724.9,1054.5 1724.9,897 
		1552.4,897 1552.4,1054.5 1379.9,1054.5 1379.9,1369.7 1552.4,1369.7 	"/>
	<rect x="2414.8" y="1054.5" fill="#8396AB" width="172.5" height="157.6"/>
	<rect x="690" y="1054.5" fill="#8396AB" width="172.5" height="157.6"/>
	<rect x="2587.3" y="897" fill="#8396AB" width="172.5" height="157.6"/>
	<rect x="2242.3" y="897" fill="#8396AB" width="172.5" height="157.6"/>
	<rect x="862.4" y="897" fill="#8396AB" width="172.5" height="157.6"/>
	<rect x="517.5" y="897" fill="#8396AB" width="172.5" height="157.6"/>
	<rect x="2069.9" y="739.4" fill="#8396AB" width="172.5" height="157.6"/>
	<rect x="1034.9" y="739.4" fill="#8396AB" width="172.5" height="157.6"/>
	<rect x="2242.3" y="581.8" fill="#8396AB" width="172.5" height="157.6"/>
	<rect x="1897.4" y="581.8" fill="#8396AB" width="172.5" height="157.6"/>
	<rect x="1207.4" y="581.8" fill="#8396AB" width="172.5" height="157.6"/>
	<rect x="862.4" y="581.8" fill="#8396AB" width="172.5" height="157.6"/>
	<rect x="2414.8" y="424.2" fill="#8396AB" width="172.5" height="157.6"/>
	<polygon fill="#8396AB" points="1897.4,581.8 1897.4,424.2 1724.9,424.2 1724.9,109.1 1552.4,109.1 1552.4,424.2 1379.9,424.2 
		1379.9,581.8 	"/>
	<rect x="690" y="424.2" fill="#8396AB" width="172.5" height="157.6"/>
</g>
</svg>
