<?xml version="1.0" encoding="utf-8"?>
<!-- Generator: Adobe Illustrator 26.5.0, SVG Export Plug-In . SVG Version: 6.00 Build 0)  -->
<svg version="1.0" id="Layer_1" xmlns="http://www.w3.org/2000/svg" xmlns:xlink="http://www.w3.org/1999/xlink" x="0px" y="0px"
	 width="51.9px" height="58.8px" viewBox="0 0 51.9 58.8" enable-background="new 0 0 51.9 58.8" xml:space="preserve">
<g>
	<path fill="#FD0000" d="M25.8,45.6c-5.1-0.3-10.4-0.5-15.6-1.1C6,44,4.5,41.8,3.9,36.2c-0.8-8.1-0.8-16.3,0-24.4
		C4.5,6.4,6,4.1,10,3.6c10.6-1.4,21.2-1.4,31.7,0c3.9,0.5,5.5,3,6,8.3c0.8,8,0.7,16,0,24.1c-0.5,5.6-2.1,8.1-6.3,8.6
		C36.2,45.1,31.1,45.2,25.8,45.6z"/>
	<path fill="#FDFAF9" d="M33,24c-3.7,2.9-7,5.4-10.2,8c-1.2,1-1.6,0.7-1.6-1.2c0.1-4.5,0-9.1,0-13.6c0-1.9,0.4-2.2,1.6-1.3
		C26.1,18.6,29.3,21.1,33,24z"/>
</g>
<g>
	<path d="M7,51.6v0.9H6.1v3.6H4.3v-3.6H3.4v-0.9H2.5V48h1.8v3.6h1.8V48H8v3.6H7z"/>
	<path d="M14.3,55.2v0.9h-3.6v-0.9H9.8v-6.3h0.9V48h3.6v0.9h0.9v6.3H14.3z M13.4,48.9h-1.8v6.3h1.8V48.9z"/>
	<path d="M21.6,55.2v0.9h-3.6v-0.9H17V48h1.8v7.3h1.8V48h1.8v7.3H21.6z"/>
	<path d="M27,48.9v7.3h-1.8v-7.3h-1.8V48h5.4v0.9H27z"/>
	<path d="M34.3,55.2v0.9h-3.6v-0.9h-0.9V48h1.8v7.3h1.8V48h1.8v7.3H34.3z"/>
	<path d="M41.5,55.2v0.9H37V48h4.5v0.9h0.9v2.7h-0.9v0.9h0.9v2.7H41.5z M40.6,48.9h-1.8v2.7h1.8V48.9z M40.6,52.5h-1.8v2.7h1.8V52.5
		z"/>
	<path d="M44.3,56.2V48h4.5v0.9h-2.7v2.7h1.8v0.9h-1.8v2.7h2.7v0.9H44.3z"/>
</g>
</svg>
