<?xml version="1.0" encoding="utf-8"?>
<!-- Generator: Adobe Illustrator 26.5.0, SVG Export Plug-In . SVG Version: 6.00 Build 0)  -->
<svg version="1.1" id="Layer_1" xmlns="http://www.w3.org/2000/svg" xmlns:xlink="http://www.w3.org/1999/xlink" x="0px" y="0px"
	 width="121px" height="241px" viewBox="0 0 121 241" enable-background="new 0 0 121 241" xml:space="preserve">
<g>
	<rect x="107.6" y="12.2" width="13.4" height="12.7"/>
	<rect x="107.6" y="-0.5" width="13.4" height="12.7"/>
	<rect x="94.1" y="202.6" width="13.4" height="12.7"/>
	<rect x="94.1" y="189.9" width="13.4" height="12.7"/>
	<rect x="94.1" y="113.7" fill="#FDDFB1" width="13.4" height="12.7"/>
	<rect x="94.1" y="63" fill="#FDDFB1" width="13.4" height="12.7"/>
	<rect x="94.1" y="50.3" fill="#FDDFB1" width="13.4" height="12.7"/>
	<rect x="94.1" y="37.6" fill="#FDDFB1" width="13.4" height="12.7"/>
	<rect x="94.1" y="24.9" fill="#FDDFB1" width="13.4" height="12.7"/>
	<rect x="94.1" y="12.2" width="13.4" height="12.7"/>
	<rect x="80.7" y="177.2" width="13.4" height="12.7"/>
	<rect x="80.7" y="164.5" width="13.4" height="12.7"/>
	<rect x="80.7" y="151.8" width="13.4" height="12.7"/>
	<rect x="80.7" y="139.1" fill="#29ABE2" width="13.4" height="12.7"/>
	<rect x="80.7" y="126.4" fill="#29ABE2" width="13.4" height="12.7"/>
	<rect x="80.7" y="113.7" fill="#29ABE2" width="13.4" height="12.7"/>
	<rect x="80.7" y="101.1" fill="#29ABE2" width="13.4" height="12.7"/>
	<rect x="80.7" y="88.4" fill="#29ABE2" width="13.4" height="12.7"/>
	<rect x="80.7" y="75.7" fill="#FDDFB1" width="13.4" height="12.7"/>
	<rect x="80.7" y="63" fill="#FDDFB1" width="13.4" height="12.7"/>
	<rect x="80.7" y="50.3" fill="#FDDFB1" width="13.4" height="12.7"/>
	<rect x="80.7" y="37.6" width="13.4" height="12.7"/>
	<rect x="80.7" y="24.9" fill="#FDDFB1" width="13.4" height="12.7"/>
	<rect x="80.7" y="12.2" width="13.4" height="12.7"/>
	<rect x="80.7" y="-0.5" width="13.4" height="12.7"/>
	<rect x="67.2" y="177.2" width="13.4" height="12.7"/>
	<rect x="67.2" y="164.5" width="13.4" height="12.7"/>
	<rect x="67.2" y="151.8" width="13.4" height="12.7"/>
	<rect x="67.2" y="139.1" fill="#29ABE2" width="13.4" height="12.7"/>
	<rect x="67.2" y="126.4" fill="#29ABE2" width="13.4" height="12.7"/>
	<rect x="67.2" y="113.7" fill="#29ABE2" width="13.4" height="12.7"/>
	<rect x="67.2" y="101.1" fill="#29ABE2" width="13.4" height="12.7"/>
	<rect x="67.2" y="88.4" fill="#29ABE2" width="13.4" height="12.7"/>
	<rect x="67.2" y="75.7" fill="#FDDFB1" width="13.4" height="12.7"/>
	<rect x="67.2" y="63" fill="#C1272D" width="13.4" height="12.7"/>
	<rect x="67.2" y="50.3" fill="#FDDFB1" width="13.4" height="12.7"/>
	<rect x="67.2" y="37.6" fill="#FDDFB1" width="13.4" height="12.7"/>
	<rect x="67.2" y="24.9" fill="#FDDFB1" width="13.4" height="12.7"/>
	<rect x="67.2" y="12.2" width="13.4" height="12.7"/>
	<rect x="67.2" y="-0.5" width="13.4" height="12.7"/>
	<rect x="53.8" y="202.6" width="13.4" height="12.7"/>
	<rect x="53.8" y="189.9" width="13.4" height="12.7"/>
	<rect x="53.8" y="177.2" width="13.4" height="12.7"/>
	<rect x="53.8" y="164.5" width="13.4" height="12.7"/>
	<rect x="53.8" y="151.8" width="13.4" height="12.7"/>
	<rect x="53.8" y="139.1" fill="#29ABE2" width="13.4" height="12.7"/>
	<rect x="53.8" y="126.4" fill="#C1272D" width="13.4" height="12.7"/>
	<rect x="53.8" y="113.7" fill="#C1272D" width="13.4" height="12.7"/>
	<rect x="53.8" y="101.1" fill="#C1272D" width="13.4" height="12.7"/>
	<rect x="53.8" y="88.4" fill="#C1272D" width="13.4" height="12.7"/>
	<rect x="53.8" y="75.7" fill="#FDDFB1" width="13.4" height="12.7"/>
	<rect x="53.8" y="63" fill="#C1272D" width="13.4" height="12.7"/>
	<rect x="53.8" y="50.3" fill="#FDDFB1" width="13.4" height="12.7"/>
	<rect x="53.8" y="37.6" fill="#FDDFB1" width="13.4" height="12.7"/>
	<rect x="53.8" y="24.9" fill="#FDDFB1" width="13.4" height="12.7"/>
	<rect x="53.8" y="12.2" fill="#FDDFB1" width="13.4" height="12.7"/>
	<rect x="53.8" y="-0.5" width="13.4" height="12.7"/>
	<rect x="40.3" y="228" width="13.4" height="12.7"/>
	<rect x="40.3" y="215.3" width="13.4" height="12.7"/>
	<rect x="40.3" y="177.2" width="13.4" height="12.7"/>
	<rect x="40.3" y="164.5" width="13.4" height="12.7"/>
	<rect x="40.3" y="151.8" width="13.4" height="12.7"/>
	<rect x="40.3" y="139.1" fill="#29ABE2" width="13.4" height="12.7"/>
	<rect x="40.3" y="126.4" fill="#29ABE2" width="13.4" height="12.7"/>
	<rect x="40.3" y="113.7" fill="#29ABE2" width="13.4" height="12.7"/>
	<rect x="40.3" y="101.1" fill="#29ABE2" width="13.4" height="12.7"/>
	<rect x="40.3" y="88.4" fill="#29ABE2" width="13.4" height="12.7"/>
	<rect x="40.3" y="75.7" fill="#FDDFB1" width="13.4" height="12.7"/>
	<rect x="40.3" y="63" fill="#FDDFB1" width="13.4" height="12.7"/>
	<rect x="40.3" y="50.3" fill="#FDDFB1" width="13.4" height="12.7"/>
	<rect x="40.3" y="37.6" width="13.4" height="12.7"/>
	<rect x="40.3" y="24.9" fill="#FDDFB1" width="13.4" height="12.7"/>
	<rect x="40.3" y="12.2" fill="#FDDFB1" width="13.4" height="12.7"/>
	<rect x="40.3" y="-0.5" width="13.4" height="12.7"/>
	<rect x="26.9" y="177.2" width="13.4" height="12.7"/>
	<rect x="26.9" y="164.5" width="13.4" height="12.7"/>
	<rect x="26.9" y="151.8" width="13.4" height="12.7"/>
	<rect x="26.9" y="139.1" fill="#29ABE2" width="13.4" height="12.7"/>
	<rect x="26.9" y="126.4" fill="#29ABE2" width="13.4" height="12.7"/>
	<rect x="26.9" y="113.7" fill="#29ABE2" width="13.4" height="12.7"/>
	<rect x="26.9" y="101.1" fill="#29ABE2" width="13.4" height="12.7"/>
	<rect x="26.9" y="88.4" fill="#29ABE2" width="13.4" height="12.7"/>
	<rect x="26.9" y="75.7" fill="#FDDFB1" width="13.4" height="12.7"/>
	<rect x="26.9" y="63" fill="#FDDFB1" width="13.4" height="12.7"/>
	<rect x="26.9" y="50.3" fill="#FDDFB1" width="13.4" height="12.7"/>
	<rect x="26.9" y="37.6" fill="#FDDFB1" width="13.4" height="12.7"/>
	<rect x="26.9" y="24.9" fill="#FDDFB1" width="13.4" height="12.7"/>
	<rect x="26.9" y="12.2" width="13.4" height="12.7"/>
	<rect x="26.9" y="-0.5" width="13.4" height="12.7"/>
	<rect x="13.4" y="126.4" fill="#FDDFB1" width="13.4" height="12.7"/>
	<rect x="13.4" y="113.7" fill="#FDDFB1" width="13.4" height="12.7"/>
	<rect x="13.4" y="63" fill="#FDDFB1" width="13.4" height="12.7"/>
	<rect x="13.4" y="50.3" fill="#FDDFB1" width="13.4" height="12.7"/>
	<rect x="13.4" y="37.6" fill="#FDDFB1" width="13.4" height="12.7"/>
	<rect x="13.4" y="24.9" width="13.4" height="12.7"/>
	<rect x="13.4" y="12.2" width="13.4" height="12.7"/>
	<rect y="50.3" fill="#FDDFB1" width="13.4" height="12.7"/>
	<rect y="37.6" width="13.4" height="12.7"/>
	<rect y="24.9" width="13.4" height="12.7"/>
</g>
</svg>
