<?xml version="1.0" encoding="utf-8"?>
<!-- Generator: Adobe Illustrator 26.5.0, SVG Export Plug-In . SVG Version: 6.00 Build 0)  -->
<svg version="1.1" id="Layer_1" xmlns="http://www.w3.org/2000/svg" xmlns:xlink="http://www.w3.org/1999/xlink" x="0px" y="0px"
	 width="121px" height="241px" viewBox="0 0 121 241" enable-background="new 0 0 121 241" xml:space="preserve">
<g>
	<rect x="13" y="101.4" fill="none" width="13.4" height="12.7"/>
	<rect x="107.1" y="12.6" width="13.4" height="12.7"/>
	<rect x="107.1" y="-0.1" width="13.4" height="12.7"/>
	<rect x="93.6" y="114.1" fill="#FDDFB1" width="13.4" height="12.7"/>
	<rect x="93.6" y="63.3" fill="#FDDFB1" width="13.4" height="12.7"/>
	<rect x="93.6" y="50.7" fill="#FDDFB1" width="13.4" height="12.7"/>
	<rect x="93.6" y="38" fill="#FDDFB1" width="13.4" height="12.7"/>
	<rect x="93.6" y="25.3" fill="#FDDFB1" width="13.4" height="12.7"/>
	<rect x="93.6" y="12.6" width="13.4" height="12.7"/>
	<rect x="80.2" y="228.3" width="13.4" height="12.7"/>
	<rect x="80.2" y="215.6" width="13.4" height="12.7"/>
	<rect x="80.2" y="202.9" width="13.4" height="12.7"/>
	<rect x="80.2" y="177.6" width="13.4" height="12.7"/>
	<rect x="80.2" y="164.9" width="13.4" height="12.7"/>
	<rect x="80.2" y="152.2" width="13.4" height="12.7"/>
	<rect x="80.2" y="139.5" fill="#29ABE2" width="13.4" height="12.7"/>
	<rect x="80.2" y="126.8" fill="#29ABE2" width="13.4" height="12.7"/>
	<rect x="80.2" y="114.1" fill="#29ABE2" width="13.4" height="12.7"/>
	<rect x="80.2" y="101.4" fill="#29ABE2" width="13.4" height="12.7"/>
	<rect x="80.2" y="88.7" fill="#29ABE2" width="13.4" height="12.7"/>
	<rect x="80.2" y="76" fill="#FDDFB1" width="13.4" height="12.7"/>
	<rect x="80.2" y="63.3" fill="#FDDFB1" width="13.4" height="12.7"/>
	<rect x="80.2" y="50.7" fill="#FDDFB1" width="13.4" height="12.7"/>
	<rect x="80.2" y="38" width="13.4" height="12.7"/>
	<rect x="80.2" y="25.3" fill="#FDDFB1" width="13.4" height="12.7"/>
	<rect x="80.2" y="12.6" width="13.4" height="12.7"/>
	<rect x="80.2" y="-0.1" width="13.4" height="12.7"/>
	<rect x="66.7" y="190.2" width="13.4" height="12.7"/>
	<rect x="66.7" y="177.6" width="13.4" height="12.7"/>
	<rect x="66.7" y="164.9" width="13.4" height="12.7"/>
	<rect x="66.7" y="152.2" width="13.4" height="12.7"/>
	<rect x="66.7" y="139.5" fill="#29ABE2" width="13.4" height="12.7"/>
	<rect x="66.7" y="126.8" fill="#29ABE2" width="13.4" height="12.7"/>
	<rect x="66.7" y="114.1" fill="#29ABE2" width="13.4" height="12.7"/>
	<rect x="66.7" y="101.4" fill="#29ABE2" width="13.4" height="12.7"/>
	<rect x="66.7" y="88.7" fill="#29ABE2" width="13.4" height="12.7"/>
	<rect x="66.7" y="76" fill="#FDDFB1" width="13.4" height="12.7"/>
	<rect x="66.7" y="63.3" fill="#C1272D" width="13.4" height="12.7"/>
	<rect x="66.7" y="50.7" fill="#FDDFB1" width="13.4" height="12.7"/>
	<rect x="66.7" y="38" fill="#FDDFB1" width="13.4" height="12.7"/>
	<rect x="66.7" y="25.3" fill="#FDDFB1" width="13.4" height="12.7"/>
	<rect x="66.7" y="12.6" width="13.4" height="12.7"/>
	<rect x="66.7" y="-0.1" width="13.4" height="12.7"/>
	<rect x="53.3" y="177.6" width="13.4" height="12.7"/>
	<rect x="53.3" y="164.9" width="13.4" height="12.7"/>
	<rect x="53.3" y="152.2" width="13.4" height="12.7"/>
	<rect x="53.3" y="139.5" fill="#29ABE2" width="13.4" height="12.7"/>
	<rect x="53.3" y="126.8" fill="#C1272D" width="13.4" height="12.7"/>
	<rect x="53.3" y="114.1" fill="#C1272D" width="13.4" height="12.7"/>
	<rect x="53.3" y="101.4" fill="#C1272D" width="13.4" height="12.7"/>
	<rect x="53.3" y="88.7" fill="#C1272D" width="13.4" height="12.7"/>
	<rect x="53.3" y="76" fill="#FDDFB1" width="13.4" height="12.7"/>
	<rect x="53.3" y="63.3" fill="#C1272D" width="13.4" height="12.7"/>
	<rect x="53.3" y="50.7" fill="#FDDFB1" width="13.4" height="12.7"/>
	<rect x="53.3" y="38" fill="#FDDFB1" width="13.4" height="12.7"/>
	<rect x="53.3" y="25.3" fill="#FDDFB1" width="13.4" height="12.7"/>
	<rect x="53.3" y="12.6" fill="#FDDFB1" width="13.4" height="12.7"/>
	<rect x="53.3" y="-0.1" width="13.4" height="12.7"/>
	<rect x="39.8" y="202.9" width="13.4" height="12.7"/>
	<rect x="39.8" y="190.2" width="13.4" height="12.7"/>
	<rect x="39.8" y="177.6" width="13.4" height="12.7"/>
	<rect x="39.8" y="164.9" width="13.4" height="12.7"/>
	<rect x="39.8" y="152.2" width="13.4" height="12.7"/>
	<rect x="39.8" y="139.5" fill="#29ABE2" width="13.4" height="12.7"/>
	<rect x="39.8" y="126.8" fill="#29ABE2" width="13.4" height="12.7"/>
	<rect x="39.8" y="114.1" fill="#29ABE2" width="13.4" height="12.7"/>
	<rect x="39.8" y="101.4" fill="#29ABE2" width="13.4" height="12.7"/>
	<rect x="39.8" y="88.7" fill="#29ABE2" width="13.4" height="12.7"/>
	<rect x="39.8" y="76" fill="#FDDFB1" width="13.4" height="12.7"/>
	<rect x="39.8" y="63.3" fill="#FDDFB1" width="13.4" height="12.7"/>
	<rect x="39.8" y="50.7" fill="#FDDFB1" width="13.4" height="12.7"/>
	<rect x="39.8" y="38" width="13.4" height="12.7"/>
	<rect x="39.8" y="25.3" fill="#FDDFB1" width="13.4" height="12.7"/>
	<rect x="39.8" y="12.6" fill="#FDDFB1" width="13.4" height="12.7"/>
	<rect x="39.8" y="-0.1" width="13.4" height="12.7"/>
	<rect x="26.4" y="215.6" width="13.4" height="12.7"/>
	<rect x="26.4" y="177.6" width="13.4" height="12.7"/>
	<rect x="26.4" y="164.9" width="13.4" height="12.7"/>
	<rect x="26.4" y="152.2" width="13.4" height="12.7"/>
	<rect x="26.4" y="139.5" fill="#29ABE2" width="13.4" height="12.7"/>
	<rect x="26.4" y="126.8" fill="#29ABE2" width="13.4" height="12.7"/>
	<rect x="26.4" y="114.1" fill="#29ABE2" width="13.4" height="12.7"/>
	<rect x="26.4" y="101.4" fill="#29ABE2" width="13.4" height="12.7"/>
	<rect x="26.4" y="88.7" fill="#29ABE2" width="13.4" height="12.7"/>
	<rect x="26.4" y="76" fill="#FDDFB1" width="13.4" height="12.7"/>
	<rect x="26.4" y="63.3" fill="#FDDFB1" width="13.4" height="12.7"/>
	<rect x="26.4" y="50.7" fill="#FDDFB1" width="13.4" height="12.7"/>
	<rect x="26.4" y="38" fill="#FDDFB1" width="13.4" height="12.7"/>
	<rect x="26.4" y="25.3" fill="#FDDFB1" width="13.4" height="12.7"/>
	<rect x="26.4" y="12.6" width="13.4" height="12.7"/>
	<rect x="26.4" y="-0.1" width="13.4" height="12.7"/>
	<rect x="13" y="215.6" width="13.4" height="12.7"/>
	<rect x="13" y="114.1" fill="#FDDFB1" width="13.4" height="12.7"/>
	<rect x="13" y="88.7" fill="#29ABE2" width="13.4" height="12.7"/>
	<rect x="13" y="63.3" fill="#FDDFB1" width="13.4" height="12.7"/>
	<rect x="13" y="50.7" fill="#FDDFB1" width="13.4" height="12.7"/>
	<rect x="13" y="38" fill="#FDDFB1" width="13.4" height="12.7"/>
	<rect x="13" y="25.3" width="13.4" height="12.7"/>
	<rect x="13" y="12.6" width="13.4" height="12.7"/>
	<rect x="-0.5" y="101.4" fill="#FDDFB1" width="13.4" height="12.7"/>
	<rect x="-0.5" y="50.7" fill="#FDDFB1" width="13.4" height="12.7"/>
	<rect x="-0.5" y="38" width="13.4" height="12.7"/>
	<rect x="-0.5" y="25.3" width="13.4" height="12.7"/>
</g>
</svg>
