<?xml version="1.0" encoding="utf-8"?>
<!-- Generator: Adobe Illustrator 26.5.0, SVG Export Plug-In . SVG Version: 6.00 Build 0)  -->
<svg version="1.0" id="Layer_1" xmlns="http://www.w3.org/2000/svg" xmlns:xlink="http://www.w3.org/1999/xlink" x="0px" y="0px"
	 width="864px" height="447.3px" viewBox="0 0 864 447.3" enable-background="new 0 0 864 447.3" xml:space="preserve">
<g>
	<path fill="#050402" d="M436.5,38.9c8.3-1.4,52.5-1.8,60.5-0.6c0,7.5,0,15.1,0,22.8c8.4,0,16.6,0,25.2,0c0,8.6,0,17,0,25.4
		c4.3,0,8.3,0,12.5,0c0-8.1,0-16.1,0-24.4c8.5,0,16.7,0,25.2,0c0-8.2,0-16.2,0-24.3c20.3,0,40.4,0,60.7,0c0.1,1.3,0.4,2.6,0.4,3.9
		c0.1,31.4,0.3,62.8,0.4,94.2c0.1,24.1,0.1,48.1,0,72.2c0,4.1-0.7,8.1-1.3,12.2c-0.1,0.6-1.2,1.6-1.9,1.6
		c-18.7,0.1-37.3,0.1-56.4,0.1c-0.4-2.9-1-5.8-1-8.7c-0.1-14.3-0.1-28.7-0.2-43c0-7.3,0-14.6,0-22.2c-4.5,0-8.9,0-13.5,0
		c0,8.1,0,16,0,24.2c-0.9,0.1-1.6,0.1-2.3,0.1c-10.5,0-21-0.1-31.5,0.1c-2.3,0-2.8-0.7-2.7-2.8c0.1-7.1,0-14.2,0-21.4
		c-4,0-8,0-12.1,0c0,24.5,0,49,0,73.6c-16.9,0-33.5,0-50.3,0c0,1,0,1.9,0,3c57,0,114,0,171.2,0c2.5,6.7,2.2,13.4,2,20.1
		c-0.1,3.9-0.3,7.8-0.4,11.7c-0.1,2.9-0.5,3.4-3.4,3.4c-38.7,0-77.3,0.1-116,0.1c-1,0-2,0-3.2,0c0,12.7,0,25.1,0,37.9
		c0.9,0,1.8,0,2.6,0c19.7,0,39.3,0.2,59-0.2c4.7-0.1,9.2,1.2,14,1.1c-1.9,12.1-0.4,24.2-1.1,36.5c-24.7,0-49.4,0-74.4,0
		c0,12.7,0,25.1,0,37.9c41.1,0,81.8,0,122.8,0c0,4,0,7.8,0,11.5c0,6.4,0,12.8,0,19.3c0,3.7-0.9,4.8-4.7,4.9
		c-6.6,0.2-13.2,0.5-19.7,0.5c-47.8,0-95.5,0-143.3,0c-5.5,0-10.9-0.5-17-0.8c-0.3-21.2-0.1-41.7-0.1-62.2c0-20.5-0.1-41,0-61.5
		c0.1-20.5,0.7-41,0.7-61.5c0-20.5-0.6-41-0.7-61.5c-0.1-20.5,0-41,0-61.5C436.5,80.2,436.5,59.6,436.5,38.9z M491.4,286.3
		c0-7,0-14,0-21c0-3.3,0-6.6,0-10.2c1.5-0.1,2.8-0.2,4-0.2c37.9,0,75.7,0,113.6,0c1.2,0,2.5,0.1,3.7-0.2c0.7-0.2,1.6-1.1,1.7-1.7
		c0.2-2.6,0.1-5.1,0.1-7.7c0-4.8,0-9.6,0-14.4c-1.2-0.1-1.8-0.1-2.4-0.1c-55.6,0-111.1,0-166.7,0c-1.4,0-2.9,0.4-4.4,0.6
		c0,1.9,0,3.6,0,5.3c0,7.2,0.1,14.5,0.1,21.7c-0.1,0.8-0.2,1.7-0.2,2.5c0,16.1,0,32.3,0,48.4c0,3.7,0.3,7.4,0.4,11.1
		c-0.1,1.1-0.4,2.1-0.4,3.2c0,25.5,0,51,0,76.5c0,4.3,0,4.3,4.2,4.3c53.6,0,107.1,0,160.7,0c2.8,0,5.6,0,8.4,0c0-8.7,0-16.7,0-25
		c-40.9,0-81.7,0-122.4,0c0-16.4,0-32.6,0-49c24.9,0,49.5,0,74.2,0c0-2.6,0-5,0-7.4c0-5.6,0.1-11.1,0-16.7c0-0.6-1-1.5-1.8-1.7
		c-1-0.3-2.1-0.1-3.2-0.1c-21.7,0-43.4,0-65.1,0c-1.5,0-2.9,0-4.4,0c-0.1-1.5-0.1-2.5-0.2-3.4C491.4,295.9,491.4,291.1,491.4,286.3z
		 M441.1,181.8c0,1.8,0,3.7,0,5.5c0,0.5,0,1,0,1.5c0,2.8,0,5.7,0,8.5c0,6.5,0,12.9,0,19.3c17,0,33.7,0,50.5,0c0-5.9,0-11.6,0-17.3
		c0.1-7,0.2-14,0.3-21c0-0.9,0.1-1.8,0.1-2.7c0-10.9,0-21.8,0-32.8c0.2,0,0.3,0,0.5-0.1c7.2,0,14.3-0.1,21.5-0.1
		c0.5,0.6,0.9,1.1,1.4,1.7c0,7.6,0,15.3,0,22.9c8.4,0,16.7,0,25,0c0-7.6,0-15,0-22.4c0.1-1,0-2.1,1.7-2.1c7.1,0.1,14.3,0,21.4-0.1
		c1.3,0,1.8,0.5,1.9,1.7c0,0.2,0,0.3,0,0.5c0,0.3,0,0.7,0,1c0,12.3,0,24.7,0,37c0,11.3,0,22.5,0,33.8c16.5,0,32.7,0,48.9,0
		c0-9.5,0-18.9,0-28.3c0.1-1.3,0.2-2.6,0.2-4c0-12.8,0-25.6,0-38.3c0-2.4-0.1-4.8-0.2-7.2c0.1-1.1,0.2-2.2,0.2-3.2
		c0-29.5,0-58.9,0-88.4c0-1.1,0-2.3,0-3.3c-17,0-33.5,0-50.2,0c0,8.1,0,16,0,24.1c-8.4,0-16.6,0-24.9,0c0,3.4,0,6.7,0,9.9
		c0,4.8-0.1,9.6-0.1,14.4c-0.7,0-1.3,0.1-2,0.1c-4.1,0.2-8.2,0.4-12.3,0.5c-0.6,0-1.1,0-1.7,0c-2.1,0-4.2,0-6.3,0
		c-0.3,0-0.6-0.1-1-0.1c-0.2-0.1-0.4-0.3-0.6-0.4c0-0.8,0-1.7-0.1-2.5c0-7.5,0-15.1,0-22.8c-8.4,0-16.6,0-25,0c0-7.9,0-15.5,0-23.3
		c-1.1-0.1-2.1-0.2-3.1-0.2c-14.1,0-28.3,0-42.4,0c-0.8,0-1.7-0.1-2.5,0.3c-0.5,0.2-0.7,1-1,1.5c-0.1,1.1-0.4,2.3-0.4,3.4
		c0,43.6,0,87.1,0,130.7C441,180.1,441,180.9,441.1,181.8z"/>
	<path fill="#050402" d="M307.1,220.6c-2.9,0.5-5.6,1.2-8.3,1.2c-16,0.1-32,0-48,0c-1.5,0-3-0.4-4.6-0.6c-0.2-2.9-0.7-5.8-0.7-8.6
		c-0.1-28.6,0-57.2,0-85.8c0-0.9,0-1.8,0-2.8c-3,0-5.9,0-9,0c-0.2,32.6,0.2,65.1-0.4,98c-45.1,0-89.6,0-134.5,0c0-7.9,0-15.4,0-23.2
		c-8.4,0-16.4,0-24.8,0c0-8.5,0-16.9,0-25.3c-7.9,0-15.6,0-23.5,0c-0.4-2-1.3-4.2-1.3-6.4c-0.1-24.5-0.2-49-0.2-73.5
		c0-2.3,0-4.6,0-7.3c7.9,0,15.4,0,23.1,0c1.4-8.1-1.2-16.4,2.4-24.5c7.4,0,14.9,0,22.8,0c0-8.1,0-15.7,0-23.7
		c3.5-0.2,6.8-0.5,10.1-0.5c37.2,0,74.3,0,111.5,0c4.5,0,9,0.3,13.6,0.5c0,11.6,0,22.4,0,33.1c-4,2.7-8.5,2-12.8,2c-27,0-54,0-81,0
		c-0.9,0-1.8,0-3,0c0,6,0,11.9,0,17.7c0,4.5-2.6,6.9-7.1,6.8c-6-0.1-12,0-18.1,0c0,20.8,0,41.5,0,62.4c7.9,0,15.8,0,23.8,0
		c0,8.6,0,17,0,25.5c12.9,0,25.6,0,38.5,0c0-12.1,0-24.1,0-36.4c-8,0-16,0-24,0c0-12.6,0-24.9,0-37.4c0.9,0,1.8,0,2.7,0
		c20.8,0,41.7,0.2,62.5-0.1c9.3-0.1,18.3,1,27.2,3.3c0.4,0.1,0.8,0.2,1.5,0.3c0-9.4,0-18.6,0-28.2c8,0,15.8,0,23.8,0
		c0-7.3,0-14.4,0-21.5c0-3.2,0-3.2,3.2-3.2c7.1,0,14.2,0,21.5,0c0-8,0-16,0-24.2c14.5-1.5,28.9-0.3,43.3-0.4
		c14.4-0.1,28.8-0.9,43.6,0.7c0,7.6,0,15,0,22.6c8.1,0,16.3,0,24.7,0c0,8.3,0,16.3,0,24.8c8.2,0,16.3,0,24.5,0
		c0.2,3.5,0.4,6.7,0.4,9.8c0,38.9,0,77.8,0,116.8c0,1.5-0.1,3-0.4,4.5c-0.5,2.8-3.2,5.3-6.1,5.4c-18.2,0-36.5,0-55,0
		c0-16.4,0-32.8,0-49.3c-20.8,0-41.2,0-61.8,0C307.1,188.7,307.1,204.4,307.1,220.6z M106.4,165.7c0-4.5,0-9,0-13.5
		c0-19.7,0-39.3-0.1-59c0.8-0.3,1.6-1,2.4-1c6.7-0.1,13.5,0,20.2-0.1c0.9,0,1.8-0.1,3-0.1c0-8.2,0-16.3,0-24.3
		c0.8-0.1,1.2-0.1,1.6-0.1c31,0,62,0,92.9,0.1c2.3,0,3.1-0.5,3.1-2.9c-0.1-6.2-0.1-12.3,0-18.5c0.1-2.4-0.6-3.1-3.1-3.1
		c-39.3,0.1-78.6,0.1-117.9,0.1c-0.5,0-1,0-1.5,0c-1.6,0-2.3,0.6-2.3,2.4c0.1,5.3,0,10.7,0,16c0,1.8,0,3.6,0,5.7c-7.7,0-15,0-22.3,0
		c-1.9,0-2.6,0.6-2.6,2.6c0.1,6.6-0.1,13.2,0,19.7c0,1.5-0.4,2.4-2,2.6c-7.2,0-14.3,0-21.5,0c0,2.1,0,3.8,0,5.6c0,1.7,0,3.3-0.1,5
		c-0.1,0.3-0.2,0.6-0.2,1c0.1,20.2,0.3,40.4,0.4,60.6c0,1.3,0,2.6,0,4.1c8.5,0,16.5,0,24.8,0c0,5,0,9.7,0,14.4c0,3.2,0,6.3,0,9.5
		c0.5,0.3,1,1,1.4,1c7,0,14.1,0,21.1,0c0.7,0.5,1.4,1.1,2.1,1.6c0,0.5,0,1,0,1.5c0,0.5,0,1,0,1.5c0,5.7,0.1,11.3,0.1,17
		c0,1.4,0.7,1.9,1.9,2c0.8,0,1.7,0,2.5,0c38.1,0,76.3,0,114.4,0c0.7,0,1.5,0,2.2,0c1.5,0,2.5-0.5,2.5-2.3
		c-0.1-5.6-0.1-11.1-0.2-16.7c0-0.7,0-1.3,0-2c0-0.2,0-0.3,0-0.5c0-5.2,0-10.3,0-15.5c0-0.3,0.1-0.7,0.1-1c-0.1-0.3-0.1-0.6-0.2-1
		c0.1-1.5,0.3-3,0.3-4.4c0-8.3,0.1-16.6,0-24.9c0-1.6-0.4-3.2-0.6-4.7c0.2-0.7,0.6-1.4,0.6-2.1c-0.1-7.6-0.2-15.3-0.3-22.9
		c-1.4-0.3-2.7-0.9-4.1-0.9c-21.5,0-43,0-64.4,0c-1.6,0-3.2,0-4.8,0c0,8.8,0,17.2,0,25.9c5,0,9.9,0,14.8,0c3.1,0,6.3,0.2,9.4,0.3
		c0,0.4,0.1,0.8,0.1,1.2c0,10.2,0,20.3,0,30.5c0,5.1,0,10.2,0,15.6c-17,0-33.4,0-50.1,0c0-8.5,0-16.8,0-25.5
		C122.2,165.8,114.3,165.8,106.4,165.7L106.4,165.7z M300.4,179.3c0.1-3.8,0.2-7.6,0.2-11.5c1-0.1,2-0.2,3-0.2
		c22.6,0,45.3-0.1,67.9-0.1c0.7,0,1.3,0.8,2,1.2c0,3.2,0,6.3,0.1,9.5c0,1.3,0,2.7,0,4c0,6.2,0,12.3,0,18.5c0,5.3,0,10.6,0,15.9
		c0.5,0.1,0.7,0.1,1,0.1c15.7,0,31.3,0,47,0.1c1.6,0,2.1-0.6,2-2.1c0-0.7,0-1.5,0-2.2c0-32.2,0-64.3,0-96.5c0-0.9-0.1-1.8-0.2-2.7
		c0-6,0-12.1,0-18.1c0-1.1,0-2.2,0-3.4c-7.6,0-15,0-22.3,0c-0.4,0-0.8,0-1.1-0.1c-0.4-0.9-1-1.8-1.1-2.7c-0.1-6.6,0-13.2-0.1-19.8
		c0-0.8,0.6-2.3-1.3-1.9c-5.9-0.1-11.7-0.1-17.6-0.2c-1.6,0-3.3-0.1-4.9-0.1c-0.3-0.6-0.9-1.3-1-1.9c-0.1-2.5,0-5-0.1-7.5
		c-0.1-4.5-0.3-9.1-0.4-13.6c-0.8-0.3-1.6-0.8-2.4-0.8c-22.9,0-45.8,0-68.7,0c-1.2,0-2.5,0.2-3.9,0.3c0,8.3,0,16.5,0,24.7
		c-7.9,0-15.7,0.1-23.6,0.1c-0.3,0.3-0.6,0.5-0.9,0.8c0,7.8,0,15.7,0,23.8c-7.8,0-15.2,0-22.6,0c-2.1-0.5-1.4,1.1-1.4,2
		c0,22.1,0,44.3,0,66.4c0,6.1,0.1,12.3,0.2,18.4c0,5.2,0,10.3,0,15.5c0,5.8-0.1,11.6-0.1,17.4c0,4,0,4.1,4.2,4.1
		c12.3,0,24.6,0,36.9,0c3,0,6.1-0.3,9.2-0.5c0-6.9,0-13.5,0-20C300.4,190.6,300.4,184.9,300.4,179.3z"/>
	<path fill="#070705" d="M689.5,147.9c0,13,0,25.6,0,38.3c40.9,0,81.7,0,122.6,0c0.1,0.7,0.2,1.2,0.2,1.8c0,10.6,0,21.2,0,31.8
		c0,1.6-0.3,2.4-2.2,2.4c-60.2,0-120.3,0-180.5,0c-0.3,0-0.7,0-1.3-0.1c-0.3-3-0.8-6.1-0.8-9.1c0-17.6,0.1-35.1,0.2-52.7
		c0-9.2-0.2-18.5-0.2-27.7c0-11.2,0.2-22.3,0.1-33.5c0-11.4-0.1-22.8-0.2-34.2c0-8.8,0-17.6,0-26.8c61.7,0,123,0,184.3,0
		c0,11.5,0,23,0,34.8c-40.8,0-81.6,0-122.5,0c0,12.7,0,25.2,0,37.9c24.7,0,49.4,0,74.3,0c0,12.5,0,24.7,0,37.2
		C739,147.9,714.4,147.9,689.5,147.9z M756.5,116.7c-0.9,0-1.8-0.1-2.7-0.1c-22.6,0-45.3,0-67.9,0c-1.1,0-2.1-0.1-3.3-0.2
		c0-16.4,0-32.5,0-48.7c1.7-0.1,3.5-0.3,5.2-0.3c38.2,0,76.5,0,114.7,0c1,0,1.9,0,2.9,0c0-8.1,0-16,0-24c-0.8,0-1.5,0-2.1,0
		c-55.9,0-111.8,0-167.7,0c-0.4,0-0.8,0-1.2,0c-1.5,0-2,0.6-1.9,2.2c0.1,3.7,0,7.3,0,11c0,11.1,0.1,22.1,0.2,33.2c0,11,0,22,0,33
		c0,12.5,0,25,0,37.5c0,9.7-0.1,19.3-0.1,29c0,9.1,0,18.2,0,27.2c57.9,0,115.5,0,173,0c0-8.3,0-16.4,0-24.8c-41,0-81.9,0-122.8,0
		c0-11.9,0-23.5,0-35.2c0-4.1-0.1-8.2-0.1-12.2c0.1-0.4,0.2-1,0.4-1c1.3-0.3,2.6-0.5,3.9-0.5c22.2,0,44.5,0,66.7,0
		c0.6,0,1.3,0.2,1.7,0c0.7-0.4,1.8-1.1,1.8-1.7c0.1-6.7,0-13.5-0.1-20.2c0-1.2,0-2.3,0-3.5C756.8,117.1,756.7,116.9,756.5,116.7z"/>
	<path fill="#050402" d="M627.9,226.5c2.9-0.4,6-1.2,9.2-1.2c47.6-0.1,95.2-0.1,142.7-0.1c2.4,0,4.8,0.4,7.4,0.6
		c0,7.6,0,15.1,0,22.9c8.4,0,16.5,0,24.9,0c0,29,0,57.6,0,86.3c-16.2,0-32.7,0-49.3,0c0,4.3,0,8.4,0,12.6c8,0,16,0,24.4,0
		c0,8.4,0,16.6,0,25c7.8,0,15.3,0,22.7,0c2.7,5.4,3.5,25.1,1.3,36.1c-4.6,0.3-9.5,0.9-14.3,0.9c-20.1,0.1-40.2,0.1-60.2,0
		c-1.5,0-3-0.1-4.5-0.3c-4.2-0.5-4.4-0.5-4.7-4.9c-0.3-5.7-0.3-11.5-0.4-17.2c0-0.4,0-0.8,0-1.3c-8.3,0-16.4,0-24.8,0
		c0-8.4,0-16.7,0-25.1c-4.5,0-8.8,0-13.3,0c0,16.2,0,32.4,0,48.6c-20.4,0-40.6,0-61.2,0C627.9,348.7,627.9,287.9,627.9,226.5z
		 M805.4,294.3c-0.2-2.2-0.3-4.4-0.5-6.5c0.2-9.7,0.3-19.3,0.5-29c0-1.3,0-2.6,0-4c-8.1,0-16,0-23.9,0c-0.3-0.3-0.5-0.7-0.8-1
		c0-1.7-0.1-3.4-0.1-5c0-0.3,0-0.6,0-0.9c0-5.5,0-10.9,0-16.6c-49.6,0-99,0-148.1,0c0,7,0,13.5,0,20.1c0,3.7,0,7.3,0,11
		c0,10,0,20,0,30c0,8.3,0,16.7,0,25c-0.1,4-0.4,8-0.4,12c0,23.6,0,47.2,0,70.7c0,1.4,0.2,2.8,0.3,4.2c16.8,0,33.3,0,50.2,0
		c0-16.3,0-32.5,0-48.6c8.2,0,16.2,0,24.4,0c0,8.5,0,16.8,0,25.3c8.4,0,16.5,0,25,0c0,7.9,0,15.6,0,23.2c24.7,0,49.1,0,73.3,0
		c0-8.8,0-17.2,0-25.8c-8.3,0-16.2,0-24.5,0c0-8.3,0-16.3,0-24.7c-8.5,0-16.5,0-24.5,0c0-8.1,0-15.9,0-24c16.5,0,32.8,0,49.2,0
		c0-4.8,0-9.3,0-13.8C805.4,308.6,805.4,301.5,805.4,294.3z"/>
	<path fill="#050402" d="M368.7,226.5c4-0.5,7.8-1.3,11.7-1.4c14.2-0.2,28.3-0.1,42.5-0.2c4.7,0,7.4,3,7.4,8.6c0,14.3,0.1,28.7,0,43
		c0,15.4-0.1,30.8-0.1,46.2c0,3.4-0.2,6.8-0.1,10.2c0,2-0.7,2.6-2.6,2.5c-7.1-0.1-14.1,0-21.5,0c0,5.1,0,10.3,0,15.5
		c0,2.7,0.1,5.4-2.3,7.3c-0.8,0.7-1.9,1.4-2.9,1.4c-5.6,0.2-11.2,0.3-16.7,0.4c-0.9,0-1.8,0-2.9,0c0,7.7,0,15.3,0,23
		c-8.2,3-16.6,1.1-25.3,1.9c0,8.2,0,16.4,0,24.7c-7.6,0-14.8,0-22,0c-3.9,0-7.8-0.1-11.7,0c-2,0.1-2.6-0.5-2.6-2.5
		c0.1-7.1,0-14.1,0-21.3c-8.4,0-16.7,0-25.1,0c0-8.3,0-16.6,0-25.3c-8.1,0-16,0-24.3,0c0-8.3,0-16.2,0-24.3c-8.3,0-16.1,0-24.3,0
		c0-37.1,0-74,0-111c19.4,0,39.1,0,59.3,0c0.3,3.2,0.9,6.4,0.9,9.5c0.1,21,0,42,0,63.2c7.7,0,15.4,0,23.1,0c3.9,8.3,1.3,17,2.3,25.6
		c4,0,8.1,0,12.5,0c0-7.9,0-15.8,0-23.9c8.4,0,16.5,0,24.8,0C368.7,275.5,368.7,251.3,368.7,226.5z M250.4,272.3c0,3.7,0,7.3,0,11
		c0,6,0,12,0,18c-0.1,8-0.2,16-0.3,24c0.1,1.8,0.2,3.6,0.3,5.7c8.1,0,16,0,24,0c0,1.2,0,2.1,0,3c0,6.1,0,12.2,0,18.3
		c0,3.1,0.3,3.4,3.4,3.5c3.6,0.1,7.2,0,10.7,0c3.4,0,6.8,0,10.4,0c0,8.5,0,16.7,0,25.1c8.5,0,16.7,0,25.3,0c0,7.9,0,15.6,0,23.3
		c8.5,0,16.7,0,25.2,0c0-8.3,0-16.4,0-24.8c1.2,0,2.1,0,3,0c6.3,0,12.7-0.1,19,0c2.2,0,3.1-0.5,3-2.9c-0.2-3.3-0.1-6.7-0.1-10
		c0-3.8,0-7.6,0-11.7c2.5,0,4.8,0,7,0c4.8,0,9.7,0,14.5,0c2.1,0,3.4-0.6,3.2-3.2c-0.2-2.6,0.1-5.3,0.1-8c0-4.5,0-9,0-13.8
		c8.2,0,16.1,0,24,0c0-2.4,0-4.5,0-6.6c0-6.3,0-12.7,0.1-19c0-5.3,0-10.7,0-16c0-1.5,0-3,0-4.5c0-2.5,0.1-5,0.1-7.6
		c0-14.2,0-28.5-0.1-42.7c0-0.8-0.3-1.6-0.5-2.4c-0.6-0.1-1.2-0.4-1.9-0.4c-14.7,0-29.4,0-44.1,0c-1,0-2.1,0.4-3.1,0.6
		c-0.2,0.8-0.5,1.7-0.5,2.5c-0.1,4.6,0,9.1,0,13.7c0,18.9,0,37.7,0.1,56.6c-0.8,0.4-1.5,1.2-2.3,1.2c-5.2,0.1-10.5,0.1-15.7,0.1
		c-2.3,0-4.6,0-7,0c0,6.3,0,12.3,0,18.2c0,1.1-0.2,2.2-0.1,3.2c0.2,2.1-0.7,2.8-2.7,2.8c-2.7-0.1-5.3,0-8,0c-4.2,0-8.4,0-12.7,0
		c-0.2-2-0.4-3.8-0.6-5.5c0-6.1,0.1-12.1,0.1-18.2c0-1.8-0.6-2.5-2.5-2.4c-3.6,0.1-7.1,0-10.7,0c-3.9,0-7.8,0-11.6,0
		c-0.2-1-0.3-1.7-0.5-2.5c0-4.4,0-8.7,0-13.1c0-0.3-0.1-0.6-0.1-0.9c0-4.7,0-9.3,0-14c0.1-2.5,0.2-5,0.2-7.5
		c0-10.9,0.1-21.8,0.1-32.7c0-1.5-0.6-2-2.1-2c-3,0.1-6,0-9,0c-12,0-24,0-35.9,0c-1.2,0-2.5-0.3-2.5,1.8c0.1,9.1,0.1,18.3,0.2,27.4
		C250.3,264.3,250.3,268.3,250.4,272.3z"/>
	<path fill="#050402" d="M52.2,250c8,0,15.4,0,23.1,0c0-3,0-5.8,0-8.6c0-4.2,0.1-8.3,0-12.5c0-1.4,0.4-2.2,1.8-2.4
		c3.2-0.4,6.4-1.2,9.6-1.2c38.8-0.1,77.6-0.1,116.6-0.1c0.1-0.6,0.2-1.1,0.3-1.5c1.9,2.7,5.3,1.2,7.9,2.6c0,7.3,0,14.7,0,22.3
		c8.2,0,16.3,0,24.5,0c0.1,0.5,0.3,0.8,0.3,1.1c0.1,25.6,0.2,51.1,0.2,76.7c0,16.3,0.1,32.7,0,49c0,1.9,0.3,4.3-0.6,5.5
		c-1.3,1.7-3.6,3.4-5.7,3.6c-5.7,0.5-11.5,0.2-17.6,0.2c0,8.4,0,16.6,0,24.8c-45.2,0-90.1,0-135.4,0c0-7.9,0-15.4,0-23.4
		c-6-0.3-11.4-0.5-16.9-0.7c-2.7-0.1-5.4,0-8.6,0C51.6,339.9,51.1,295.1,52.2,250z M56.3,324.8c0,0.7,0,1.3,0,2
		c-0.1,0.9-0.2,1.8-0.2,2.7c0,8.1,0,16.2,0,24.3c0,7.7,0,15.3,0,23c0,3.7,0.3,4,3.9,4c4.1,0,8.2,0,12.2,0c2.8,0,5.6,0,8.6,0
		c0.2,1.8,0.4,3.2,0.4,4.7c0.1,5.1,0,10.2,0.1,15.2c0,3.6,0.1,3.6,3.6,3.6c0.3,0,0.7,0,1,0c39.1,0,78.2,0,117.2,0c0.9,0,1.8,0,2.8,0
		c0-7.7,0.1-15-0.1-22.3c0-2.2,0.7-2.7,2.7-2.7c5.9,0,11.8,0,17.7-0.1c3.3,0,3.5,0,3.4-3.3c-0.1-18.1-0.2-36.2-0.4-54.2c0-3,0-6,0-9
		c0-6.3,0-12.7,0-19c0-5.7,0-11.3,0-17c0-5.5,0-11,0-16.5c0-1.8,0-3.6,0-5.5c-1,0-1.7,0-2.5,0c-6.7,0-13.3,0-20-0.1
		c-0.8,0-2.3-0.8-2.4-1.3c-0.2-2.6-0.1-5.1,0-7.7c0.2-4.8,0.4-9.5,0.6-14.5c-42,0-83.6,0-125.8,0c0,8.5,0,16.5,0,24.6
		c-6.9,0-13.8,0-20.6,0c-1.8,0-2.7,0.6-2.4,2.5c0,6.1-0.1,12.3-0.1,18.4c0,1.4,0,2.7,0,4.1c0.1,12.5,0.1,25,0.2,37.5
		c-0.1,1.7-0.1,3.3-0.2,5C56.3,323.8,56.3,324.3,56.3,324.8z"/>
	<path fill="#E63323" d="M566.1,322.8c0,2.4,0,4.8,0,7.4c-24.6,0-49.3,0-74.2,0c0,16.4,0,32.6,0,49c40.7,0,81.5,0,122.4,0
		c0,8.3,0,16.3,0,25c-2.8,0-5.6,0-8.4,0c-53.6,0-107.1,0-160.7,0c-4.2,0-4.2,0-4.2-4.3c0-25.5,0-51,0-76.5c0-1.1,0.3-2.1,0.4-3.2
		c0.2,0.5,0.6,1,0.5,1.5c-0.3,2.5,0.7,3.1,3.1,3c6.1-0.3,12.3-0.4,18.4-0.5c12.3-0.2,24.6-0.3,36.9-0.5c9.4-0.1,18.8-0.3,28.2-0.5
		C541,323.1,553.5,323,566.1,322.8z"/>
	<path fill="#FBF351" d="M516.1,92.7c0.3,0,0.6,0.1,1,0.1c2.1,0,4.2,0,6.3,0c0.6,0,1.1,0,1.7,0c4.4,0.1,8.8,0.2,13.2,0.2
		c0.4,0,0.7-0.6,1.1-0.9c0-4.8,0.1-9.6,0.1-14.4c2.3-0.7,4.4-1.1,7.1-0.9c5.4,0.4,11-0.6,16.5-1c0.6,0,1.2,0,1.7,0
		c2.4,0.1,4.9,0.4,7.3,0.4c7-0.1,14-0.3,21-0.5c1.1,0,2.1-0.2,3.2-0.4c5-0.6,10-1.4,15,0.4c1.4,0.5,2.2,1.1,2.2,2.8
		c0.1,8.1,0.3,16.3,0.4,24.4c0.1,6.2,0,12.5,0,18.7c0,0.9-0.3,1.7-0.5,2.6c-0.6-0.3-1.3-0.9-2-0.9c-2.5-0.3-5-0.5-7.4-0.5
		c-7.3,0.1-14.6,0.4-21.9,0.4c-8.7,0.1-17.3,0-26,0c-1.6,0-3.3,0-4.9,0c-2,0-4.1,0.1-6.1,0c-1.1,0-2.1-0.5-3.2-0.4
		c-4.7,0.2-9.4,0.8-14.1,0.8c-15.2,0.1-30.3,0-45.5,0.1c-6.1,0-12.2,0.4-18.3,0.5c-7.5,0.1-15,0-22.6,0c0.2-11.2,0.3-22.3,0.5-33.5
		c9.2-0.5,18.3-1,27.5-1.5c3.1-0.2,6.1-0.1,9.2-0.2c2-0.1,4-0.6,5.9-0.2c8.1,1.4,16-0.2,24-0.9c2.7-0.2,5.1-1,6.7,1.8
		c0,0.8,0,1.7,0.1,2.5C515.7,92.4,515.9,92.5,516.1,92.7z"/>
	<path fill="#F9E84E" d="M441.6,124.2c7.5,0,15,0.1,22.6,0c6.1-0.1,12.2-0.4,18.3-0.5c15.2-0.1,30.3,0,45.5-0.1
		c4.7,0,9.4-0.6,14.1-0.8c1-0.1,2.1,0.4,3.2,0.4c2,0.1,4.1,0,6.1,0c1.6,0,3.3,0,4.9,0c8.7,0,17.3,0.1,26,0
		c7.3-0.1,14.6-0.4,21.9-0.4c2.5,0,5,0.3,7.4,0.5c0.7,0.1,1.3,0.6,2,0.9c0,4.7,0,9.3,0,14c0,3.5,0,7,0,10.5c0,1.7-0.6,2.5-2.5,2.6
		c-8.8,0.1-17.6,0.3-26.4,0.5c-5.2,0.1-10.5-0.1-15.7,0.1c-1.8,0-2.5-0.5-2.4-2.4c0-1.2-0.6-2.4-1-3.7c0-0.3,0-0.7,0-1
		c0-0.2,0-0.3,0-0.5c-0.1-1.2-0.6-1.7-1.9-1.7c-7.1,0.1-14.3,0.2-21.4,0.1c-1.7,0-1.6,1-1.7,2.1c-0.3,0.9-0.8,1.8-0.9,2.8
		c-0.1,4.2-0.1,4.2-4.4,4.3c-5.2,0.1-10.4,0.3-15.6,0.5c-1.9,0.1-2.8-0.9-3-2.8c-0.2-1.7-0.7-3.4-1.1-5.2c-0.5-0.6-0.9-1.1-1.4-1.7
		c-0.5-0.3-1.1-0.7-1.6-0.7c-6.1-0.1-12.1-0.1-18.2,0c-0.6,0-1.2,0.6-1.8,0.9c-0.1,0.1-0.3,0.1-0.5,0.1c-0.3,0.6-0.9,1.2-1,1.9
		c-0.1,1.7,0.1,3.5-0.1,5.2c-0.1,0.8-0.8,2.2-1.4,2.2c-3.6,0.4-7.3,0.5-10.9,0.5c-2.5,0-5-0.4-7.4-0.4c-3.5,0-6.9,0.5-10.4,0.4
		c-6.3-0.1-12.5-0.3-18.8-0.5C441.9,142.9,441.7,133.6,441.6,124.2z"/>
	<path fill="#F0FB52" d="M515.4,89.7c-1.7-2.8-4-2-6.7-1.8c-8,0.7-15.9,2.3-24,0.9c-1.9-0.3-3.9,0.2-5.9,0.2c-3.1,0.1-6.1,0-9.2,0.2
		c-9.2,0.5-18.3,1-27.5,1.5c0-14.2,0-28.5-0.1-42.7c0-0.9-0.3-1.9-0.5-2.8c0.3-0.5,0.6-1.3,1-1.5c0.7-0.3,1.6-0.3,2.5-0.3
		c14.1,0,28.3,0,42.4,0c1,0,2,0.1,3.1,0.2c0,7.8,0,15.4,0,23.3c8.3,0,16.5,0,25,0C515.4,74.7,515.4,82.2,515.4,89.7z"/>
	<path fill="#E94826" d="M566.1,322.8c-12.5,0.2-25.1,0.3-37.6,0.5c-9.4,0.1-18.8,0.3-28.2,0.5c-12.3,0.2-24.6,0.3-36.9,0.5
		c-6.1,0.1-12.3,0.2-18.4,0.5c-2.4,0.1-3.4-0.5-3.1-3c0.1-0.5-0.3-1-0.5-1.5c-0.1-3.7-0.4-7.4-0.4-11.1c0-16.1,0-32.3,0-48.4
		c0-0.8,0.1-1.7,0.2-2.5c0,0,0.1,0,0.1,0l0.1,0c0,2.6,0,5.3,0.1,7.9c0,6.1,0,12.3,0,18.4c0,0.7,0.3,1.4,0.5,2.1c0,3.7,0,7.5,0,11.2
		c0,3.3,0,3.3,3.2,3.3c15.4-0.2,30.8-0.3,46.3-0.5c0,1,0.1,2,0.2,3.4c1.5,0,2.9,0,4.4,0c21.7,0,43.4,0,65.1,0c1.1,0,2.2-0.2,3.2,0.1
		c0.7,0.2,1.8,1.1,1.8,1.7C566.2,311.7,566.1,317.2,566.1,322.8z"/>
	<path fill="#EA9235" d="M441.4,258.3l-0.1,0c0,0-0.1,0-0.1,0c0-7.2-0.1-14.5-0.1-21.7c0-1.7,0-3.3,0-5.3c1.5-0.2,2.9-0.6,4.4-0.6
		c55.6,0,111.1,0,166.7,0c0.6,0,1.2,0.1,2.4,0.1c0,4.8,0,9.6,0,14.4c-1.6-1.6-3.6-1.6-5.7-1.5c-12.1,0.2-24.3,0.4-36.4,0.5
		c-8.9,0.1-17.7,0-26.6,0c-6,0-12.1-0.1-18.1,0c-11.9,0.3-23.7,0.7-35.6,0.9c-9.6,0.2-19.2,0-28.7,0c-2.5,0-4.9,0-7.4,0.1
		c-4.6,0.1-9.2,0.2-13.9,0.2c0,2.9,0.1,5.2,0,7.4C441.9,254.8,441.6,256.6,441.4,258.3z"/>
	<path fill="#ED8633" d="M441.4,258.3c0.2-1.8,0.4-3.6,0.5-5.3c0.1-2.2,0-4.5,0-7.4c4.7-0.1,9.3-0.2,13.9-0.2c2.5,0,4.9-0.1,7.4-0.1
		c9.6,0,19.2,0.1,28.7,0c11.9-0.2,23.7-0.7,35.6-0.9c6-0.1,12.1,0,18.1,0c8.9,0,17.7,0.1,26.6,0c12.1-0.1,24.3-0.3,36.4-0.5
		c2.1,0,4.1-0.1,5.7,1.5c0,2.6,0.1,5.2-0.1,7.7c0,0.6-1,1.5-1.7,1.7c-1.2,0.3-2.5,0.2-3.7,0.2c-37.9,0-75.7,0-113.6,0
		c-1.2,0-2.5,0.1-4,0.2c0,3.5,0,6.9,0,10.2c-1,0.2-1.9,0.4-2.9,0.5c-5,0.1-10,0-14.9,0.1c-10.7,0.1-21.4,0.3-32.1,0.5
		C441.5,263.6,441.5,261,441.4,258.3z"/>
	<path fill="#F0FB52" d="M613.5,138.3c0-4.7,0-9.3,0-14c0.2-0.9,0.5-1.7,0.5-2.6c0-6.2,0.1-12.5,0-18.7c-0.1-8.1-0.4-16.3-0.4-24.4
		c0-1.7-0.8-2.3-2.2-2.8c-5-1.8-10-1-15-0.4c-1.1,0.1-2.1,0.3-3.2,0.4c-7,0.2-14,0.4-21,0.5c-2.4,0-4.8-0.3-7.3-0.4
		c-0.6,0-1.2,0-1.7,0c-5.5,0.4-11.1,1.4-16.5,1c-2.6-0.2-4.8,0.2-7.1,0.9c0-3.2,0-6.4,0-9.9c8.4,0,16.6,0,24.9,0c0-8.1,0-16,0-24.1
		c16.7,0,33.2,0,50.2,0c0,1,0,2.1,0,3.3c0,29.5,0,58.9,0,88.4c0,1.1-0.1,2.2-0.2,3.2C614.1,138.6,613.8,138.4,613.5,138.3z"/>
	<path fill="#F7D247" d="M613.5,138.3c0.3,0.2,0.6,0.3,0.9,0.5c0.1,2.4,0.2,4.8,0.2,7.2c0,12.8,0,25.6,0,38.3c0,1.3-0.1,2.6-0.2,4
		c-3.9,0.3-7.9,0.8-11.8,1c-1.6,0.1-3.3-0.4-4.9-0.4c-8.1,0.1-16.2,0.4-24.3,0.4c-2.2,0-4.4-0.4-6.3-0.6c-0.6-2.1-1-4-1.5-5.9
		c0-12.3,0-24.7,0-37c0.3,1.2,1,2.4,1,3.7c0,1.9,0.6,2.4,2.4,2.4c5.2-0.1,10.5,0,15.7-0.1c8.8-0.1,17.6-0.4,26.4-0.5
		c1.9,0,2.5-0.9,2.5-2.6C613.5,145.2,613.5,141.7,613.5,138.3z"/>
	<path fill="#EEB43E" d="M565.5,182.8c0.5,1.9,1,3.7,1.5,5.9c1.9,0.2,4.1,0.6,6.3,0.6c8.1-0.1,16.2-0.3,24.3-0.4
		c1.6,0,3.3,0.5,4.9,0.4c3.9-0.2,7.9-0.6,11.8-1c0,9.4,0,18.8,0,28.3c-16.3,0-32.4,0-48.9,0C565.5,205.3,565.5,194,565.5,182.8z"/>
	<path fill="#F7D247" d="M442,152.2c6.3,0.2,12.5,0.4,18.8,0.5c3.5,0,6.9-0.4,10.4-0.4c2.5,0,5,0.4,7.4,0.4c3.6,0,7.3-0.2,10.9-0.5
		c0.5-0.1,1.3-1.4,1.4-2.2c0.2-1.7,0-3.5,0.1-5.2c0.1-0.7,0.6-1.3,1-1.9c0,10.9,0,21.8,0,32.8c0,0.9-0.1,1.8-0.1,2.7
		c-2.6-0.2-5.1-0.5-7.7-0.4c-3.1,0-6.1,0.3-9.2,0.4c-2.8,0.1-5.6,0-8.4,0c-8.2,0.1-16.4,0.3-24.7,0.5C442,169.9,442,161.1,442,152.2
		z"/>
	<path fill="#F1C644" d="M442,178.8c8.2-0.2,16.4-0.3,24.7-0.5c2.8,0,5.6,0.1,8.4,0c3.1-0.1,6.1-0.4,9.2-0.4c2.6,0,5.1,0.3,7.7,0.4
		c-0.1,7-0.2,14-0.3,21c-13,0.2-26,0.3-39,0.5c-0.6,0-1.2,0-1.7,0.2c-3.7,0.8-7.2,0.7-9.7-2.7c0-2.8,0-5.7,0-8.5
		c0.3-0.2,0.6-0.4,0.8-0.6c-0.3-0.3-0.6-0.6-0.8-0.9c0-1.8,0-3.7,0-5.5C441.4,180.8,441.7,179.8,442,178.8z"/>
	<path fill="#EC732E" d="M441.5,266.3c10.7-0.2,21.4-0.3,32.1-0.5c5-0.1,10,0,14.9-0.1c1,0,1.9-0.3,2.9-0.5c0,7,0,14,0,21
		c-16.5,0.2-33,0.3-49.4,0.5c-0.2-0.7-0.5-1.4-0.5-2.1C441.5,278.6,441.5,272.4,441.5,266.3z"/>
	<path fill="#EEB43E" d="M441.1,197.3c2.5,3.4,6,3.4,9.7,2.7c0.6-0.1,1.2-0.1,1.7-0.2c13-0.2,26-0.3,39-0.5c0,5.7,0,11.5,0,17.3
		c-16.7,0-33.5,0-50.5,0C441.1,210.2,441.1,203.7,441.1,197.3z"/>
	<path fill="#EA5D2A" d="M442,286.8c16.5-0.2,33-0.3,49.4-0.5c0,4.8,0,9.7,0,14.5c-15.4,0.2-30.8,0.3-46.3,0.5c-3.2,0-3.2,0-3.2-3.3
		C442,294.3,442,290.5,442,286.8z"/>
	<path fill="#F7D247" d="M515.4,144.2c0.4,1.7,0.9,3.4,1.1,5.2c0.2,1.9,1.1,2.9,3,2.8c5.2-0.2,10.4-0.4,15.6-0.5
		c4.3-0.1,4.3-0.1,4.4-4.3c0-0.9,0.6-1.8,0.9-2.8c0,7.4,0,14.8,0,22.4c-8.3,0-16.6,0-25,0C515.4,159.5,515.4,151.9,515.4,144.2z"/>
	<path fill="#EEB43E" d="M442,178.8c-0.3,1-0.6,2-0.9,3c0-0.8-0.1-1.7-0.1-2.5c0-43.6,0-87.1,0-130.7c0-1.1,0.3-2.3,0.4-3.4
		c0.2,0.9,0.5,1.9,0.5,2.8c0.1,14.2,0.1,28.5,0.1,42.7c-0.2,11.2-0.3,22.3-0.5,33.5c0.2,9.3,0.3,18.7,0.5,28
		C442,161.1,442,169.9,442,178.8z"/>
	<path fill="#F7D247" d="M492.5,142.7c0.6-0.3,1.2-0.9,1.8-0.9c6.1-0.1,12.1-0.1,18.2,0c0.5,0,1.1,0.5,1.6,0.7
		C506.8,142.6,499.6,142.6,492.5,142.7z"/>
	<path fill="#EEB43E" d="M539.4,92.1c-0.4,0.3-0.7,0.9-1.1,0.9c-4.4,0-8.8-0.1-13.2-0.2c4.1-0.2,8.2-0.3,12.3-0.5
		C538,92.2,538.7,92.2,539.4,92.1z"/>
	<path fill="#EEB43E" d="M523.4,92.8c-2.1,0-4.2,0-6.3,0C519.2,92.8,521.3,92.8,523.4,92.8z"/>
	<path fill="#EEB43E" d="M441.1,187.3c0.3,0.3,0.6,0.6,0.8,0.9c-0.3,0.2-0.6,0.4-0.8,0.6C441.1,188.3,441.1,187.8,441.1,187.3z"/>
	<path fill="#F0FB52" d="M516.1,92.7c-0.2-0.1-0.4-0.3-0.6-0.4C515.7,92.4,515.9,92.5,516.1,92.7z"/>
	<path fill="#F7D247" d="M565.4,144.2c0,0.2,0,0.3,0,0.5C565.4,144.6,565.4,144.4,565.4,144.2z"/>
	<path fill="#F0FB52" d="M78,92.2c1.5-0.2,2-1.1,2-2.6c0-6.6,0.1-13.2,0-19.7c0-2,0.7-2.6,2.6-2.6c7.3,0.1,14.6,0,22.3,0
		c0-2.1,0-3.9,0-5.7c0-5.3,0.1-10.7,0-16c0-1.8,0.7-2.4,2.3-2.4c0.5,0,1,0,1.5,0c39.3,0,78.6,0,117.9-0.1c2.5,0,3.1,0.7,3.1,3.1
		c-0.1,6.2-0.1,12.3,0,18.5c0,2.4-0.8,2.9-3.1,2.9c-31-0.1-62-0.1-92.9-0.1c-0.4,0-0.8,0.1-1.6,0.1c0,8,0,16,0,24.3
		c-1.2,0.1-2.1,0.1-3,0.1c-6.7,0-13.5,0-20.2,0.1c-0.8,0-1.6,0.6-2.4,1c-0.3,1-0.6,2-0.9,3c-2.5,0.2-4.9,0.4-7.4,0.5
		c-3.4,0.1-6.8,0-10.2,0c-3.3,0-6.6,0-9.8,0c-2.1,0-4.3-0.4-6.1,0.2c-5,1.5-9.9,1.6-14.9,0.8c0-1.6,0-3.2,0-5c6.5,0,12.5,0,18.4,0
		C76.3,92.7,77.1,92.4,78,92.2z"/>
	<path fill="#F0FB52" d="M373.5,44.1c0.2,4.5,0.3,9.1,0.4,13.6c0.1,2.5-0.1,5,0.1,7.5c0,0.7,0.6,1.3,1,1.9c1.6,0,3.3,0.1,4.9,0.1
		c5.9,0.1,11.7,0.1,17.6,0.2c0.2,1.2,0.4,2.4,0.4,3.7c0.1,6.2,0,12.5,0.1,18.7c-7.3,0.3-14.5,0.6-21.8,0.8c-0.6,0-1.1-0.3-1.7-0.4
		c-2.7-0.3-5.3-0.7-8-0.8c-0.8,0-1.6,0.7-2.5,1.1c0.1,0.3,0.1,0.5,0.2,0.8c1.9,0,3.7-0.1,5.6,0c1.2,0.1,2.5,0.6,3.7,1
		c-8.3,0-16.6,0-25.1,0c0-8.1,0-15.8,0-23.5c-8.2,0-16.2,0-24.4,0c0,8.2,0,16.3,0,24.5c-6.9,0-13.6,0-20.3,0c-1.1,0-2.2,0.6-3.4,1
		c0,0-0.1,0.1-0.1,0.1c0,0.1,0.1,0.2,0.1,0.3c0,0.5,0,1,0,1.5c-0.3,0.7-0.6,1.3-0.9,2c-4-0.2-7.9-0.5-11.9-0.5c-3,0-6.1,0.9-9.1,0.9
		c-9.1,0.1-18.3,0.1-27.4,0.1c0.1-1.9,0.3-3.9,0.4-5.8c7.4,0,14.7,0,22.6,0c0-8.1,0-16,0-23.8c0.3-0.3,0.6-0.5,0.9-0.8
		c7.9,0,15.7-0.1,23.6-0.1c0.3-0.5,0.9-1.1,0.9-1.6c0.1-6.6,0.1-13.2,0-19.7c0-2.1,0.5-2.7,2.6-2.7c9.5,0.1,19,0.1,28.5,0
		C344.9,44.2,359.2,44.2,373.5,44.1z"/>
	<path fill="#F7D247" d="M373.5,182.3c0-1.3,0-2.7,0-4c0-3.2,0-6.3-0.1-9.5c-0.7-0.4-1.3-1.2-2-1.2c-22.6,0-45.3,0-67.9,0.1
		c-1,0-2,0.2-3,0.2c-0.3,0.8-0.9,1.7-1,2.5c-0.2,3-0.1,5.9-0.2,8.9c-8.6-0.2-17.3-0.4-25.9-0.5c-6.2,0-12.4,0.3-18.7,0.5
		c-1.3,0-2.6,0.3-3.9,0.5c0-5.8,0-11.7,0-17.5c3.3-0.2,6.6-0.4,9.9-0.5c4.5-0.1,9.1,0,13.6,0c13.7-0.1,27.4-0.3,41.1-0.5
		c1.8,0,3.6,0.4,5.4,0.3c5.6-0.1,11.2-0.4,16.8-0.5c7.4-0.1,14.8,0.1,22.2,0c2.9,0,5.8-0.4,8.7-0.4c3.6,0,7.1,0.5,10.7,0.4
		c6.6-0.1,13.2-0.7,19.8-0.8c5.3-0.1,10.7,0.2,16,0.4c2.4,0.1,4.8,0.3,7.2,0.5c0,4.7,0,9.3,0,14c0.2,0.2,0.3,0.3,0.5,0.5
		c0,0.8,0,1.7,0,2.5c-0.3,0.8-0.6,1.6-1,2.7c-6.5,0.3-12.9,0.7-19.4,0.8c-4.9,0.1-9.8-0.5-14.7-0.4
		C383.1,181.4,378.3,181.9,373.5,182.3z"/>
	<path fill="#EEB43E" d="M229.5,197.8c0.1,5.6,0.1,11.1,0.2,16.7c0,1.8-0.9,2.3-2.5,2.3c-0.7,0-1.5,0-2.2,0c-38.1,0-76.3,0-114.4,0
		c-0.8,0-1.7,0-2.5,0c-1.3-0.1-1.9-0.6-1.9-2c0-5.7-0.1-11.3-0.1-17c1.1,0.3,2.3,0.9,3.4,1c2.5,0.1,5.1,0,7.6,0
		c6.5,0,12.9,0.1,19.4,0c6-0.1,12-0.4,17.9-0.4c3.8,0,7.6,0.5,11.4,0.4c5.3-0.1,10.6-0.7,15.9-0.9c2.6-0.1,5.3,0.4,7.9,0.4
		c5.6-0.1,11.2-0.4,16.8-0.4c5.6-0.1,11.2,0,16.8,0C225.3,197.8,227.4,197.8,229.5,197.8z"/>
	<path fill="#F1C644" d="M229.5,197.8c-2.1,0-4.2,0-6.3,0c-5.6,0-11.2-0.1-16.8,0c-5.6,0.1-11.2,0.4-16.8,0.4
		c-2.6,0-5.3-0.5-7.9-0.4c-5.3,0.2-10.6,0.8-15.9,0.9c-3.8,0.1-7.6-0.4-11.4-0.4c-6,0-12,0.4-17.9,0.4c-6.5,0.1-12.9,0-19.4,0
		c-2.5,0-5.1,0.1-7.6,0c-1.2-0.1-2.3-0.6-3.4-1c0-0.5,0-1,0-1.5c0-0.5,0-1,0-1.5c-0.7-0.5-1.4-1.1-2.1-1.6c-0.8-0.3-1.7-0.9-2.5-0.9
		c-6.7-0.1-13.4,0-20,0c0-3.2,0-6.3,0-9.5c1.1-0.2,2.1-0.5,3.2-0.5c6.6-0.2,13.2-0.5,19.9-0.5c7.6,0,15.1,0.2,22.7,0.5
		c1.9,0.1,2.5-0.6,2.4-2.4c-0.1-3.5-0.1-7,0-10.5c0-1.6-0.5-2.2-2.1-2.2c-6.3-0.1-12.6-0.3-18.9-0.5c-0.7,0-1.3-0.6-2-0.9
		c7.9,0,15.8,0,23.9,0c0,8.8,0,17.1,0,25.5c16.7,0,33.1,0,50.1,0c0-5.4,0-10.5,0-15.6c3.9-0.2,7.8-0.5,11.7-0.5
		c10.6,0.1,21.1,0.3,31.7,0.5c2.1,0,4.4-0.5,5.6,2c0.1,0.3,0.1,0.6,0.2,1c0,0.3-0.1,0.7-0.1,1c0,5.2,0,10.3,0,15.5
		c-0.1,0-0.2,0.1-0.2,0.1c0,0.1,0.1,0.2,0.2,0.4C229.5,196.4,229.5,197.1,229.5,197.8z"/>
	<path fill="#FBF351" d="M57,97.7c5,0.8,10,0.7,14.9-0.8c1.9-0.6,4.1-0.2,6.1-0.2c3.3,0,6.6,0,9.8,0c3.4,0,6.8,0.1,10.2,0
		c2.5-0.1,4.9-0.3,7.4-0.5c0.2,0.6,0.5,1.2,0.5,1.8c0,12.2,0,24.4,0,36.6c-1.8,0.1-3.6,0.4-5.4,0.4c-1.6,0-3.3-0.4-4.9-0.4
		c-4.9,0.1-9.9,0.4-14.8,0.5c-6.8,0.1-13.6,0-20.4,0c-3.4,0-3.4,0-3.4-3.3c0-8.8,0-17.7,0-26.5c0-0.9-0.4-1.9-0.6-2.8
		c0-1.7,0-3.3,0.1-5C56.6,97.7,56.8,97.7,57,97.7z"/>
	<path fill="#F9E84E" d="M180.4,145.3c0-0.4-0.1-0.8-0.1-1.2c-0.5-0.4-1-1.2-1.6-1.2c-3.4-0.1-6.8,0-10.2,0c-3.8,0-7.6,0-11.6,0
		c-0.6-7.4-0.7-14.3-0.1-21.3c0.2-2.7,1.3-2.8,3.4-2.8c23.1,0.1,46.2,0,69.3,0c0.1,7.6,0.2,15.3,0.3,22.9c0,0.7-0.4,1.4-0.6,2.1
		c-2.1,0.4-4.2,1-6.3,1c-7.2,0.1-14.4,0-21.6,0.1C194.3,144.9,187.4,145.1,180.4,145.3z"/>
	<path fill="#F5DE4B" d="M180.4,145.3c6.9-0.2,13.8-0.4,20.8-0.5c7.2-0.1,14.4,0.1,21.6-0.1c2.1,0,4.2-0.7,6.3-1
		c0.2,1.6,0.6,3.1,0.6,4.7c0.1,8.3,0,16.6,0,24.9c0,1.5-0.2,3-0.3,4.4c-1.2-2.5-3.5-2-5.6-2c-10.6-0.2-21.1-0.4-31.7-0.5
		c-3.9,0-7.8,0.3-11.7,0.5C180.4,165.6,180.4,155.4,180.4,145.3z"/>
	<path fill="#F5DE4B" d="M56.3,102.7c0.2,0.9,0.6,1.9,0.6,2.8c0,8.8,0,17.7,0,26.5c0,3.3,0,3.3,3.4,3.3c6.8,0,13.6,0.1,20.4,0
		c4.9-0.1,9.9-0.4,14.8-0.5c1.6,0,3.3,0.4,4.9,0.4c1.8,0,3.6-0.3,5.4-0.4c0,10,0,20,0,30c-5.1-0.2-10.3-0.5-15.4-0.5
		c-5.6,0-11.3,0.3-16.9,0.5c-2.3,0.1-4.6,0.4-6.9,0.4c-2.4,0-4.8-0.2-7.2-0.4c-1-0.1-2-0.3-2.9-0.5c-0.1-20.2-0.3-40.4-0.4-60.6
		C56.1,103.3,56.3,103,56.3,102.7z"/>
	<path fill="#FBF351" d="M373.5,92.2c-1.2-0.3-2.4-0.9-3.7-1c-1.8-0.2-3.7,0-5.6,0c-0.1-0.3-0.1-0.5-0.2-0.8
		c0.8-0.4,1.7-1.1,2.5-1.1c2.7,0.1,5.3,0.5,8,0.8c0.6,0.1,1.1,0.4,1.7,0.4c7.3-0.2,14.5-0.5,21.8-0.8c0.5,2.3,0.5,2.4,1.9,2
		c0.4,0,0.8,0,1.1,0.1c0.8,0.1,1.6,0.4,2.4,0.4c4.3,0,8.7,0.1,13,0c2.7,0,5.4-0.4,6.5,2.9c0,0.1,0.3,0.1,0.5,0.1c0,6,0,12.1,0,18.1
		c-0.1,0-0.3-0.1-0.4,0c-0.3-0.1-0.6-0.4-0.9-0.4c-2.4-0.1-4.9-0.1-7.3-0.1c-8.8-0.2-17.6-0.5-26.4-0.4c-4.6,0-9.4-0.2-13.9,1.4
		c0-2.6,0.1-5.1,0-7.7c-0.2-4.3-0.5-8.5-0.8-12.8C373.6,92.9,373.5,92.6,373.5,92.2z"/>
	<path fill="#F1C644" d="M373.5,182.3c4.8-0.3,9.6-0.8,14.4-0.9c4.9-0.1,9.8,0.5,14.7,0.4c6.5-0.1,12.9-0.5,19.4-0.8
		c0.4-1,0.7-1.8,1-2.7c0,7.1-0.1,14.3,0.1,21.4c0,2.1-0.7,2.6-2.7,2.6c-13.9-0.1-27.7-0.1-41.6,0c-2,0-3.7-0.1-5.2-1.5
		C373.5,194.6,373.5,188.4,373.5,182.3z"/>
	<path fill="#EEB43E" d="M300.4,196.3c0,6.6,0,13.1,0,20c-3.1,0.2-6.2,0.5-9.2,0.5c-12.3,0.1-24.6,0-36.9,0c-4.2,0-4.2,0-4.2-4.1
		c0-5.8,0.1-11.6,0.1-17.4c1.4,1.9,3.3,2.1,5.4,2c10.8-0.1,21.6,0,32.4-0.1C292.2,197.2,296.3,196.6,300.4,196.3z"/>
	<path fill="#F1C644" d="M300.4,196.3c-4.1,0.3-8.2,0.9-12.3,1c-10.8,0.1-21.6,0-32.4,0.1c-2.2,0-4.1-0.2-5.4-2c0-5.2,0-10.3,0-15.5
		c0.2,0,0.5,0,0.7,0c1.3-0.2,2.6-0.4,3.9-0.5c6.2-0.2,12.4-0.5,18.7-0.5c8.6,0,17.3,0.3,25.9,0.5c0.3,0,0.6,0,0.9,0
		C300.4,184.9,300.4,190.6,300.4,196.3z"/>
	<path fill="#F7D247" d="M56.5,164.3c1,0.2,2,0.4,2.9,0.5c2.4,0.2,4.8,0.4,7.2,0.4c2.3,0,4.6-0.3,6.9-0.4c5.6-0.2,11.3-0.5,16.9-0.5
		c5.1,0,10.3,0.3,15.4,0.5c0.2,0.3,0.3,0.7,0.5,1c0,0,0,0.1,0,0.1c0.7,0.3,1.3,0.9,2,0.9c6.3,0.2,12.6,0.4,18.9,0.5
		c1.7,0,2.2,0.6,2.1,2.2c-0.1,3.5-0.1,7,0,10.5c0.1,1.9-0.5,2.5-2.4,2.4c-7.6-0.3-15.1-0.5-22.7-0.5c-6.6,0-13.3,0.3-19.9,0.5
		c-1.1,0-2.1,0.3-3.2,0.5c0-4.7,0-9.5,0-14.4c-8.4,0-16.4,0-24.8,0C56.5,166.8,56.5,165.5,56.5,164.3z"/>
	<path fill="#EEB43E" d="M373.5,200.8c1.5,1.4,3.2,1.6,5.2,1.5c13.9-0.1,27.7-0.1,41.6,0c2,0,2.7-0.5,2.7-2.6
		c-0.1-7.1-0.1-14.3-0.1-21.4c0-0.8,0-1.7,0-2.5c-0.2-0.2-0.3-0.3-0.5-0.5c0-4.7,0-9.3,0-14c0.2-0.7,0.5-1.4,0.5-2.1
		c0-6.3,0-12.6,0-18.9c0-9,0-18,0-27c0.1,0,0.3,0,0.4,0c0.1,0.9,0.2,1.8,0.2,2.7c0,32.2,0,64.3,0,96.5c0,0.7-0.1,1.5,0,2.2
		c0.1,1.4-0.5,2.1-2,2.1c-15.7-0.1-31.3,0-47-0.1c-0.2,0-0.5-0.1-1-0.1C373.5,211.4,373.5,206.1,373.5,200.8z"/>
	<path fill="#F1C644" d="M229.4,118.7c-23.1,0-46.2,0-69.3,0c-2.1,0-3.2,0.1-3.4,2.8c-0.5,7-0.5,13.9,0.1,21.3c4,0,7.8,0,11.6,0
		c3.4,0,6.8-0.1,10.2,0c0.5,0,1,0.8,1.6,1.2c-3.1-0.1-6.3-0.3-9.4-0.3c-4.9-0.1-9.8,0-14.8,0c0-8.7,0-17.1,0-25.9c1.6,0,3.2,0,4.8,0
		c21.5,0,43,0,64.4,0C226.7,117.8,228.1,118.4,229.4,118.7z"/>
	<path fill="#EEB43E" d="M373.5,44.1c-14.3,0-28.6,0.1-43,0.1c-9.5,0-19,0.1-28.5,0c-2.1,0-2.7,0.6-2.6,2.7c0.1,6.6,0.1,13.2,0,19.7
		c0,0.6-0.6,1.1-0.9,1.6c0-8.2,0-16.3,0-24.7c1.4-0.1,2.6-0.3,3.9-0.3c22.9,0,45.8,0,68.7,0C371.9,43.3,372.7,43.9,373.5,44.1z"/>
	<path fill="#EEB43E" d="M251,179.8c-0.2,0-0.5,0-0.7,0c-0.1-6.1-0.2-12.3-0.2-18.4c0-22.1,0-44.3,0-66.4c0-0.9-0.6-2.5,1.4-2
		c-0.1,1.9-0.3,3.9-0.4,5.8c-0.2,0.7-0.5,1.4-0.5,2.1c0,12.3,0,24.6,0.1,36.8c0,7.5-0.1,14.9-0.1,22.4c0,0.7,0.3,1.4,0.5,2.1
		C251,168.1,251,173.9,251,179.8z"/>
	<path fill="#F1C644" d="M106.4,165.7c-0.2-0.3-0.3-0.7-0.5-1c0-10,0-20,0-30c0-12.2,0-24.4,0-36.6c0-0.6-0.3-1.2-0.5-1.8
		c0.3-1,0.6-2,0.9-3c0,19.7,0,39.3,0.1,59C106.4,156.7,106.4,161.2,106.4,165.7z"/>
	<path fill="#EEB43E" d="M399.9,91.7c-1.4,0.4-1.4,0.3-1.9-2c0-6.2,0-12.5-0.1-18.7c0-1.2-0.3-2.4-0.4-3.7c1.9-0.4,1.3,1.1,1.3,1.9
		c0,6.6,0,13.2,0.1,19.8C398.9,90,399.5,90.9,399.9,91.7z"/>
	<path fill="#F7D247" d="M81.4,192.3c6.7,0,13.4,0,20,0c0.8,0,1.7,0.6,2.5,0.9c-7,0-14.1,0.1-21.1,0
		C82.4,193.2,81.9,192.6,81.4,192.3z"/>
	<path fill="#F5DE4B" d="M57,97.7c-0.2,0-0.4,0-0.5,0c0-1.7,0-3.5,0-5.6c7.2,0,14.4,0,21.5,0c-0.9,0.2-1.7,0.5-2.6,0.5
		c-6,0-12,0-18.4,0C57,94.5,57,96.1,57,97.7z"/>
	<path fill="#EEB43E" d="M423.4,95.2c-0.2,0-0.4,0-0.5-0.1c-1.2-3.3-3.9-2.9-6.5-2.9c-4.3,0.1-8.7,0-13,0c-0.8,0-1.6-0.3-2.4-0.4
		c7.4,0,14.7,0,22.3,0C423.4,93,423.4,94.1,423.4,95.2z"/>
	<path fill="#EEB43E" d="M300.4,179.3c-0.3,0-0.6,0-0.9,0c0-3,0-5.9,0.2-8.9c0-0.9,0.6-1.7,1-2.5
		C300.5,171.6,300.4,175.5,300.4,179.3z"/>
	<path fill="#EEB43E" d="M379.9,67.2c-1.6,0-3.3-0.1-4.9-0.1C376.6,67.2,378.3,67.2,379.9,67.2z"/>
	<path fill="#EEB43E" d="M373.5,168.8c0,3.2,0,6.3,0.1,9.5C373.5,175.1,373.5,171.9,373.5,168.8z"/>
	<path fill="#EEB43E" d="M274.9,68.4c-0.3,0.3-0.6,0.5-0.9,0.8C274.3,68.9,274.6,68.7,274.9,68.4z"/>
	<path fill="#EEB43E" d="M106,194.8c0,0.5,0,1,0,1.5C106,195.8,106,195.3,106,194.8z"/>
	<path fill="#F5DE4B" d="M229.5,179.8c0-0.3,0.1-0.7,0.1-1C229.5,179.1,229.5,179.4,229.5,179.8z"/>
	<path fill="#EEB43E" d="M229.4,195.8c-0.1-0.1-0.1-0.2-0.2-0.4c0,0,0.1-0.1,0.2-0.1C229.4,195.4,229.4,195.6,229.4,195.8z"/>
	<path fill="#F0FB52" d="M632.5,89.7c-0.1-11.1-0.1-22.1-0.2-33.2c0-3.7,0.1-7.3,0-11c0-1.5,0.5-2.2,1.9-2.2c0.4,0,0.8,0,1.2,0
		c55.9,0,111.8,0,167.7,0c0.7,0,1.3,0,2.1,0c0,8,0,15.9,0,24c-1,0-1.9,0-2.9,0c-38.2,0-76.5,0-114.7,0c-1.7,0-3.5,0.2-5.2,0.3
		c-0.2,0.9-0.5,1.7-0.5,2.6c-0.1,4.6-0.1,9.2,0,13.7c0.1,2.3-0.8,3.6-3,3.7c-3.5,0.2-7.1,0.2-10.6,0.2c-3.6,0-7.3-0.8-10.7,0.1
		c-3.8,1-7.5,1.2-11.2,1.2C641.8,89.3,637.1,87.7,632.5,89.7z"/>
	<path fill="#EEB43E" d="M682.4,144.3c0.1,4.1,0.1,8.2,0.1,12.2c0,11.7,0,23.3,0,35.2c41,0,81.8,0,122.8,0c0,8.3,0,16.5,0,24.8
		c-57.5,0-115.1,0-173,0c0-9,0-18.1,0-27.2c0.9,0.6,1.8,1.8,2.8,1.9c2.6,0.2,5.3,0.1,8,0c5.7-0.1,11.4-0.3,17.1-0.4
		c3.4,0,6.8,0.4,10.2,0.4c3.2-0.1,6.4-0.7,9.6-0.8c1.6-0.1,1.9-0.7,1.9-2.1c-0.1-10.8-0.1-21.6-0.1-32.4c0-1.4,0-2.8,0.1-4.2
		C682.1,149.1,682.3,146.7,682.4,144.3z"/>
	<path fill="#F9E84E" d="M682.4,144.3c-0.2,2.4-0.3,4.8-0.5,7.2c-0.1,1.4,0,2.8-0.1,4.2c-9.2,0-18.4,0-27.6,0
		c-2.3,0-4.6,0.4-6.9,0.4c-4.1,0.1-8.2,0-12.3,0.1c-0.7,0-1.5,1.1-2,1.8c-0.4,0.6-0.4,1.4-0.6,2.1c0-12.5,0-25,0-37.5
		c16.7-0.2,33.4-0.3,50.1-0.5c5.9-0.1,11.8,0,17.7,0c10.8-0.1,21.5-0.3,32.3-0.5c0.3,0,0.7,0,1,0c5.3,0,10.6-0.2,15.8,0.2
		c2.7,0.2,5.2,0.1,7.5-1.2c0,6.7,0.1,13.5,0.1,20.2c0,0.6-1.1,1.3-1.8,1.7c-0.4,0.3-1.1,0-1.7,0c-22.2,0-44.5,0-66.7,0
		c-1.3,0-2.6,0.3-3.9,0.5C682.7,143.3,682.6,144,682.4,144.3z"/>
	<path fill="#FBF351" d="M757,120.7c-2.4,1.3-4.8,1.4-7.5,1.2c-5.2-0.4-10.5-0.2-15.8-0.2c-0.3,0-0.7,0-1,0
		c-10.8,0.2-21.5,0.4-32.3,0.5c-5.9,0.1-11.8,0-17.7,0c-16.7,0.1-33.4,0.3-50.1,0.5c0-11,0-22,0-33c4.6-2,9.3-0.5,13.9-0.5
		c3.8,0,7.5-0.2,11.2-1.2c3.3-0.9,7.1,0,10.7-0.1c3.5,0,7.1,0,10.6-0.2c2.2-0.1,3.1-1.4,3-3.7c-0.1-4.6-0.1-9.2,0-13.7
		c0-0.9,0.3-1.7,0.5-2.6c0,16.1,0,32.3,0,48.7c1.2,0.1,2.2,0.2,3.3,0.2c22.6,0,45.3,0,67.9,0c0.9,0,1.8,0.1,2.7,0.1
		c0.2,0.2,0.3,0.3,0.5,0.5C757,118.4,757,119.6,757,120.7z"/>
	<path fill="#F7D247" d="M632.5,160.2c0.2-0.7,0.2-1.5,0.6-2.1c0.5-0.7,1.3-1.8,2-1.8c4.1-0.2,8.2-0.1,12.3-0.1
		c2.3,0,4.6-0.4,6.9-0.4c9.2-0.1,18.4,0,27.6,0c0,10.8,0,21.6,0.1,32.4c0,1.4-0.3,2.1-1.9,2.1c-3.2,0.1-6.4,0.7-9.6,0.8
		c-3.4,0.1-6.8-0.4-10.2-0.4c-5.7,0-11.4,0.2-17.1,0.4c-2.7,0.1-5.4,0.2-8,0c-1-0.1-1.8-1.2-2.8-1.9
		C632.5,179.6,632.5,169.9,632.5,160.2z"/>
	<path fill="#F9E84E" d="M757,117.3c-0.2-0.2-0.3-0.3-0.5-0.5C756.7,116.9,756.8,117.1,757,117.3z"/>
	<path fill="#E63323" d="M805.4,315.8c0,4.5,0,9,0,13.8c-16.4,0-32.7,0-49.2,0c0,8.1,0,15.9,0,24c8,0,16.1,0,24.5,0
		c0,8.4,0,16.4,0,24.7c8.3,0,16.2,0,24.5,0c0,8.6,0,17,0,25.8c-24.2,0-48.6,0-73.3,0c0-7.6,0-15.3,0-23.2c-8.5,0-16.6,0-25,0
		c0-8.5,0-16.8,0-25.3c-8.2,0-16.1,0-24.4,0c0,16.1,0,32.3,0,48.6c-16.8,0-33.4,0-50.2,0c-0.1-1.4-0.3-2.8-0.3-4.2
		c0-23.6,0-47.2,0-70.7c0-4,0.3-8,0.4-12c3.1-0.2,6.3-0.4,9.4-0.5c11.4-0.2,22.9-0.4,34.3-0.4c2,0,4.4-0.3,5.8,1.9
		c0.2,3.6,0.5,7.2,0.7,10.7c16.5,0,32.8,0,49.4,0c0-4.3,0-8.2,0-12.2c10.2-0.3,20.5-0.8,30.7-1C777,315.7,791.2,315.8,805.4,315.8z"
		/>
	<path fill="#EA9235" d="M632.5,251.3c0-6.6,0-13.1,0-20.1c49.2,0,98.5,0,148.1,0c0,5.7,0,11.1,0,16.6c-1.5-0.2-3-0.5-4.4-0.5
		c-19.2,0.4-38.4-0.8-57.6,0.9c-6.1,0.5-12.3-0.3-18.5-0.4c-3.5,0-6.9,0.4-10.4,0.4c-16.6,0.1-33.1-0.1-49.7,0.1
		C637.4,248.4,633.8,247.4,632.5,251.3z"/>
	<path fill="#ED8633" d="M632.5,251.3c1.4-3.9,4.9-2.9,7.5-2.9c16.6-0.2,33.1-0.1,49.7-0.1c3.5,0,6.9-0.5,10.4-0.4
		c6.2,0,12.4,0.9,18.5,0.4c19.2-1.7,38.4-0.5,57.6-0.9c1.5,0,2.9,0.3,4.4,0.5c0,0.3,0,0.6,0,0.9c0,1.7,0.1,3.4,0.1,5
		c0.3,0.3,0.5,0.7,0.8,1c0.8,0.2,1.6,0.4,2.3,0.5c4.6,0,9.1,0,13.7,0c2.4,0,4.8,0,7.4,0c0,1.2,0,2.1,0,3
		c-15.3,0.2-30.6,0.4-45.8,0.4c-2.7,0-3.2,1.1-3.2,3.4c0,3-0.2,6.1-0.4,9.1c0-5,0-9.9,0-15c-1.4,0-2.3,0-3.2,0
		c-21.5,0-42.9,0-64.4,0c-5.7,0-5.7,0-6,5.5c-6.4,0-12.9-0.1-19.3,0c-10,0.1-20.1,0.3-30.1,0.5C632.5,258.6,632.5,254.9,632.5,251.3
		z"/>
	<path fill="#EC732E" d="M632.5,262.3c10-0.2,20.1-0.4,30.1-0.5c6.4-0.1,12.9,0,19.3,0c0,0.3,0,0.7,0,1c0,0.3,0,0.7,0,1
		c0,0.5,0,1,0,1.5c0,0.3,0,0.7,0,1c0,9.2,0,18.3,0,27.5c-0.7-1.3-1.2-2.6-3.2-2.5c-5.9,0.4-11.7,0.9-17.6,0.9
		c-9.6,0.2-19.1,0.1-28.7,0.1C632.5,282.3,632.5,272.3,632.5,262.3z"/>
	<path fill="#EC732E" d="M755.6,271.3c0.1-3,0.4-6.1,0.4-9.1c0-2.3,0.5-3.4,3.2-3.4c15.3,0,30.6-0.3,45.8-0.4
		c0.1,0.2,0.3,0.3,0.4,0.5c-0.2,9.7-0.3,19.3-0.5,29c-6,0.2-11.9,0.4-17.9,0.5c-9.3,0.1-18.6,0-28,0c-1.9,0-2.6-0.8-2.6-2.8
		c0.1-3.4,0.1-6.8,0-10.2c0-0.7-0.6-1.3-0.9-2C755.6,272.6,755.6,271.9,755.6,271.3z"/>
	<path fill="#E94826" d="M632.5,292.3c9.6,0,19.1,0.1,28.7-0.1c5.9-0.1,11.7-0.5,17.6-0.9c2-0.1,2.5,1.2,3.2,2.5
		c0,8.2,0,16.3,0,24.5c-1.4-2.2-3.8-1.9-5.8-1.9c-11.4,0-22.9,0.2-34.3,0.4c-3.1,0.1-6.3,0.3-9.4,0.5
		C632.5,309,632.5,300.6,632.5,292.3z"/>
	<path fill="#E94826" d="M805.4,315.8c-14.2,0-28.4-0.1-42.6,0c-10.3,0.1-20.5,0.6-30.7,1c0-3.2,0-6.5-0.1-9.7
		c-0.1-1.9,0.7-2.4,2.5-2.3c5.6,0.1,11.3,0,16.9,0c4.1,0,4.1,0,4.3-4c1.1-0.5,2.2-1.4,3.3-1.4c4.6-0.3,9.3-0.5,13.9-0.5
		c9.8-0.1,19.6,0,29.4,0c0.9,0,1.8-0.1,2.6-0.1c0.3-1.6,0.5-3,0.7-4.4C805.4,301.5,805.4,308.6,805.4,315.8z"/>
	<path fill="#EA5D2A" d="M805.4,294.3c-0.2,1.4-0.4,2.7-0.7,4.4c-0.8,0-1.7,0.1-2.6,0.1c-9.8,0-19.6,0-29.4,0
		c-4.6,0-9.3,0.2-13.9,0.5c-1.1,0.1-2.2,0.9-3.3,1.4c0-9.2,0-18.3,0-27.5c0.3,0.7,0.8,1.3,0.9,2c0.1,3.4,0.1,6.8,0,10.2
		c-0.1,1.9,0.7,2.8,2.6,2.8c9.3,0,18.6,0.1,28,0c6-0.1,11.9-0.3,17.9-0.5C805.1,289.9,805.3,292.1,805.4,294.3z"/>
	<path fill="#EA9235" d="M805.4,258.8c-0.1-0.2-0.3-0.3-0.4-0.5c0-0.9,0-1.8,0-3c-2.7,0-5,0-7.4,0c-4.6,0-9.1,0-13.7,0
		c-0.8,0-1.6-0.3-2.3-0.5c7.9,0,15.8,0,23.9,0C805.4,256.2,805.4,257.5,805.4,258.8z"/>
	<path fill="#EA9235" d="M780.7,253.8c0-1.7-0.1-3.4-0.1-5C780.6,250.4,780.7,252.1,780.7,253.8z"/>
	<path fill="#E63323" d="M423.4,323.3c0,2.1,0,4.1,0,6.6c-8,0-15.8,0-24,0c0,4.8,0,9.3,0,13.8c0,2.7-0.3,5.3-0.1,8
		c0.2,2.6-1.1,3.2-3.2,3.2c-4.8,0-9.7,0-14.5,0c-2.2,0-4.5,0-7,0c0,4,0,7.8,0,11.7c0,3.3-0.2,6.7,0.1,10c0.2,2.4-0.8,3-3,2.9
		c-6.3-0.1-12.7,0-19,0c-0.9,0-1.8,0-3,0c0,8.4,0,16.5,0,24.8c-8.5,0-16.7,0-25.2,0c0-7.7,0-15.4,0-23.3c-8.5,0-16.8,0-25.3,0
		c0-8.4,0-16.6,0-25.1c-3.7,0-7,0-10.4,0c-3.6,0-7.2,0.1-10.7,0c-3.1-0.1-3.4-0.4-3.4-3.5c0-6.1,0-12.2,0-18.3c0-0.9,0-1.8,0-3
		c-8,0-15.9,0-24,0c-0.1-2.1-0.2-3.9-0.3-5.7c3.9,0.2,7.8,0.4,11.7,0.5c2.1,0,4.3-0.4,6.4-0.4c7.2-0.2,14.5-0.4,21.7-0.5
		c6.5-0.1,13.1,0,19.6,0c5-0.1,9.9-0.3,14.9-0.5c0.2,1.7,0.4,3.4,0.6,5.5c4.3,0,8.5,0,12.7,0c2.7,0,5.3-0.1,8,0
		c2,0.1,2.9-0.7,2.7-2.8c-0.1-1.1,0-2.2,0.1-3.2c1.6-0.2,3.3-0.4,4.9-0.5c9.9-0.2,19.8-0.4,29.7-0.5c12.5-0.1,24.9,0,37.4,0
		C421.5,322.8,422.4,323.1,423.4,323.3z"/>
	<path fill="#E94826" d="M324.4,324.3c-5,0.2-9.9,0.4-14.9,0.5c-6.5,0.1-13.1,0-19.6,0c-7.2,0.1-14.5,0.3-21.7,0.5
		c-2.1,0.1-4.3,0.5-6.4,0.4c-3.9,0-7.8-0.3-11.7-0.5c0.1-8,0.2-16,0.3-24c8.1-0.2,16.2-0.3,24.4-0.5c2.6,0,5.2,0,7.7-0.1
		c5.6-0.3,11.2-1.2,16.7,0.6c0.1,0.7,0.3,1.5,0.5,2.5c3.9,0,7.8,0,11.6,0c3.6,0,7.1,0.1,10.7,0c1.9-0.1,2.5,0.6,2.5,2.4
		C324.5,312.2,324.5,318.2,324.4,324.3z"/>
	<path fill="#EA9235" d="M250.2,260.3c0-9.1-0.1-18.3-0.2-27.4c0-2,1.2-1.8,2.5-1.8c12,0,24,0,35.9,0c3,0,6,0,9,0
		c1.5,0,2.1,0.5,2.1,2c-0.1,10.9-0.1,21.8-0.1,32.7c-0.1-0.5-0.4-1.1-0.4-1.6c-0.2-4.8-1.2-5.9-6.2-5.8c-3.1,0-6.3,0.3-9.4,0.5
		c-3.7,0.2-7.4,0.4-11,0.5c-1.3,0-2.5-0.2-3.8-0.2c-2.1,0-4.3,0.1-6.4,0.2c-0.6,0-1.3,0.6-1.9,0.4
		C256.8,258.9,253.5,259.1,250.2,260.3z"/>
	<path fill="#E94826" d="M423.4,323.3c-1-0.2-1.9-0.5-2.9-0.5c-12.5,0-24.9-0.1-37.4,0c-9.9,0.1-19.8,0.3-29.7,0.5
		c-1.6,0-3.3,0.3-4.9,0.5c0-6,0-11.9,0-18.2c2.4,0,4.7,0,7,0c5.2,0,10.5,0.1,15.7-0.1c0.8,0,1.5-0.8,2.3-1.2
		c5.9,0.1,11.9,0.5,17.8,0.4c6.3-0.1,12.5-0.7,18.8-0.8c4.4-0.1,8.9,0.3,13.3,0.4C423.4,310.6,423.4,316.9,423.4,323.3z"/>
	<path fill="#EC732E" d="M423,231.1c0.2,0.8,0.5,1.6,0.5,2.4c0,14.2,0.1,28.5,0.1,42.7c0,2.5-0.1,5-0.1,7.6c-0.2,1-0.3,2-0.5,3
		c-7.3,0.2-14.6,0.3-22,0.5c-8.3,0.2-16.6,0.3-24.8,0.5c-1.8,0.1-2.2-0.6-2.2-2.3c0.1-6.1,0-12.1,0-18.2c16.2-0.3,32.5-0.6,49-1
		c0-4.9,0-10,0-15.1C423,244.6,423,237.9,423,231.1z"/>
	<path fill="#EA9235" d="M423,231.1c0,6.7-0.1,13.4-0.1,20.1c-1.4-0.2-2.8-0.5-4.2-0.5c-14.9,0.1-29.9,0.3-44.8,0.5
		c0-6.6-0.1-13.2-0.1-19.9c1-0.2,2.1-0.6,3.1-0.6c14.7,0,29.4,0,44.1,0C421.8,230.8,422.4,231,423,231.1z"/>
	<path fill="#EA5D2A" d="M373.9,231.4c0,6.6,0.1,13.2,0.1,19.9c0,5.3,0,10.7,0,16c0,6.1,0,12.1,0,18.2c0,1.7,0.4,2.4,2.2,2.3
		c8.3-0.2,16.6-0.4,24.8-0.5c7.3-0.2,14.6-0.3,22-0.5c0.2,0.5,0.3,1,0.5,1.5c0,5.3,0,10.7,0,16c-4.4-0.2-8.9-0.5-13.3-0.4
		c-6.3,0.1-12.6,0.7-18.8,0.8c-5.9,0.1-11.9-0.2-17.8-0.4c0-18.9,0-37.7-0.1-56.6c0-4.6,0-9.1,0-13.7
		C373.5,233.1,373.8,232.2,373.9,231.4z"/>
	<path fill="#EA5D2A" d="M299.2,301.3c-5.5-1.8-11.1-0.9-16.7-0.6c-2.6,0.1-5.2,0.1-7.7,0.1c-8.1,0.2-16.2,0.3-24.4,0.5
		c0-6,0-12,0-18c0.3,0.9,0.6,1.8,1,3c0.8,0,1.7,0.1,2.6,0c4.4-0.3,8.7-0.9,13.1-0.9c5.8-0.1,11.6,0.2,17.4,0.3c4,0.1,8,0,12,0.2
		c0.8,0,1.6,1,2.4,1.5c0.1,0.3,0.2,0.6,0.3,0.9C299.2,292.6,299.2,296.9,299.2,301.3z"/>
	<path fill="#EC732E" d="M299,287.3c-0.8-0.5-1.6-1.4-2.4-1.5c-4-0.2-8-0.2-12-0.2c-5.8-0.1-11.6-0.4-17.4-0.3
		c-4.4,0.1-8.7,0.6-13.1,0.9c-0.9,0.1-1.8,0-2.6,0c-0.4-1.2-0.7-2.1-1-3c0-3.7,0-7.3,0-11c1.1,0.1,2.1,0.3,3.2,0.3
		c7.3-0.2,14.6-0.6,21.9-0.8c6.6-0.1,13.2-0.1,19.7,0c1.3,0,2.6,0.9,3.9,1.4c0,4.7,0,9.3,0,14C299.2,287.3,299,287.3,299,287.3z"/>
	<path fill="#ED8633" d="M299.1,273.3c-1.3-0.5-2.6-1.4-3.9-1.4c-6.6-0.1-13.2-0.2-19.7,0c-7.3,0.2-14.6,0.5-21.9,0.8
		c-1.1,0-2.1-0.2-3.2-0.3c-0.1-4-0.1-8-0.2-12c3.3-1.2,6.6-1.4,10-0.6c0.6,0.1,1.2-0.4,1.9-0.4c2.1-0.1,4.3-0.2,6.4-0.2
		c1.3,0,2.5,0.3,3.8,0.2c3.7-0.1,7.4-0.3,11-0.5c3.1-0.2,6.3-0.4,9.4-0.5c5-0.1,6.1,1,6.2,5.8c0,0.6,0.2,1.1,0.4,1.6
		C299.3,268.3,299.2,270.8,299.1,273.3z"/>
	<path fill="#E94826" d="M423.5,288.3c-0.2-0.5-0.3-1-0.5-1.5c0.2-1,0.3-2,0.5-3C423.5,285.3,423.5,286.8,423.5,288.3z"/>
	<path fill="#E94826" d="M299,287.3c0,0,0.2,0,0.2,0c0,0.3,0.1,0.6,0.1,0.9C299.1,287.9,299,287.6,299,287.3z"/>
	<path fill="#E63323" d="M229.4,321.8c0.1,18.1,0.3,36.2,0.4,54.2c0,3.3-0.2,3.3-3.4,3.3c-5.9,0-11.8,0.1-17.7,0.1
		c-2,0-2.8,0.5-2.7,2.7c0.2,7.3,0.1,14.6,0.1,22.3c-1.1,0-2,0-2.8,0c-39.1,0-78.2,0-117.2,0c-0.3,0-0.7,0-1,0c-3.5,0-3.5,0-3.6-3.6
		c-0.1-5.1,0-10.2-0.1-15.2c0-1.5-0.2-3-0.4-4.7c-3,0-5.8,0-8.6,0c-4.1,0-8.2,0-12.2,0c-3.6,0-3.9-0.3-3.9-4c0-7.7,0-15.3,0-23
		c0-8.1,0-16.2,0-24.3c0-0.9,0.1-1.8,0.2-2.7c1.1,0.2,2.3,0.5,3.4,0.5c11.4-0.1,22.9-0.3,34.3-0.5c4.1-0.1,8.1,0,12.2,0
		c0.1,1.2,0.2,2.3,0.2,3.5c0,15.2,0,30.5,0,45.7c0,0.9,0,1.8,0,2.8c24.4,0,48.6,0,73,0c0-1.4,0-2.5,0-3.6
		c0.1-17.8,0.3-35.7,0.4-53.5c2.9,0.3,5.7,0.9,8.6,0.9c5.9,0,11.7-0.3,17.6-0.4C213.8,322.1,221.6,322,229.4,321.8z"/>
	<path fill="#EA9235" d="M79.4,255.8c0-8,0-16.1,0-24.6c42.1,0,83.7,0,125.8,0c-0.2,4.9-0.5,9.7-0.6,14.5c-0.1,2.6-0.2,5.2,0,7.7
		c0,0.5,1.5,1.3,2.4,1.3c6.7,0.1,13.3,0.1,20,0.1c0.7,0,1.5,0,2.5,0c0,1.9,0,3.7,0,5.5c-2-0.5-3.9-1.4-5.9-1.4
		c-6.1-0.2-12.2-0.1-18.3,0c-5.5,0.1-10.9,0.2-16.4,0.5c-3.1,0.2-6.2,0.6-9.2,1c-0.1-1.3-0.2-2.6-0.3-4c-24.4,0-48.6,0-72.8,0
		c-2.5,0.3-5,0.8-7.6,0.9c-3.8,0.2-7.7,0.1-11.5,0C84.7,257.3,81.8,257.7,79.4,255.8z"/>
	<path fill="#EA5D2A" d="M56.5,318.3c-0.1-12.5-0.1-25-0.2-37.5c0.2,0.7,0.6,1.3,0.6,2c0.1,2.1,0.2,4.2,0,6.2
		c-0.2,2.4,0.8,3.1,3,2.8c2-0.2,4.1-0.5,6.2-0.5c6.2,0.1,12.4,0.4,18.6,0.4c6.5,0,12.9-0.3,19.4-0.5c0.7,0,1.4-0.6,2.2-1
		c0,11.2,0.1,22.3,0.1,33.5c-0.1-0.7-0.3-1.4-0.3-2.2c-0.1-3.4-0.5-3.9-3.9-3.8c-4.7,0.1-9.4,0.4-14.1,0.5c-8.9,0.1-17.8,0-26.7,0
		C59.7,318.3,58.1,318.3,56.5,318.3z"/>
	<path fill="#EC732E" d="M106.2,290.3c-0.7,0.3-1.4,0.9-2.2,1c-6.5,0.2-12.9,0.5-19.4,0.5c-6.2,0-12.4-0.4-18.6-0.4
		c-2.1,0-4.1,0.2-6.2,0.5c-2.2,0.3-3.2-0.4-3-2.8c0.2-2.1,0.1-4.2,0-6.2c0-0.7-0.4-1.3-0.6-2c0-1.4,0-2.7,0-4.1
		c0.1-0.9,0.1-1.8,0.2-2.7c0.2-1.7,0.3-3.5,0.5-5.2c2.6-0.2,5.3-0.5,7.9-0.5c8.8-0.1,17.7,0,26.5,0c1.1,0,2.3-0.5,3.4-0.3
		c3.9,0.5,8.5-2.3,11.5,2.3c0,3.3,0,6.7,0,10c0,1.3,0,2.6,0,4C106.3,286.3,106.2,288.3,106.2,290.3z"/>
	<path fill="#EA5D2A" d="M229.4,293.8c0,6.3,0,12.7,0,19c-3.7-0.2-7.3-0.5-11-0.5c-6.6,0-13.2,0.4-19.9,0.5c-6.2,0.1-12.4,0-18.7,0
		c0-6.5,0-13,0-19.5c1.3-0.3,2.5-0.9,3.8-1c13.6-0.2,27.3-0.4,40.9-0.5C226.2,291.9,227.8,293.1,229.4,293.8z"/>
	<path fill="#ED8633" d="M179.6,260.3c3.1-0.3,6.1-0.8,9.2-1c5.5-0.3,10.9-0.4,16.4-0.5c6.1-0.1,12.2-0.1,18.3,0
		c2,0.1,3.9,0.9,5.9,1.4c0,5.5,0,11,0,16.5c-1.3-0.3-2.7-1-4-0.9c-14.2,0.1-28.4,0.3-42.5,0.5c-1,0-2,0.6-3,1
		C179.8,271.6,179.7,265.9,179.6,260.3z"/>
	<path fill="#EC732E" d="M179.9,277.3c1-0.3,2-0.9,3-1c14.2-0.2,28.4-0.4,42.5-0.5c1.3,0,2.7,0.6,4,0.9c0,5.7,0,11.3,0,17
		c-1.6-0.7-3.2-1.9-4.8-1.9c-13.6,0-27.3,0.2-40.9,0.5c-1.3,0-2.5,0.6-3.8,1C179.9,288,179.9,282.6,179.9,277.3z"/>
	<path fill="#ED8633" d="M106.4,270.3c-3.1-4.7-7.7-1.8-11.5-2.3c-1.1-0.2-2.3,0.3-3.4,0.3c-8.8,0-17.7,0-26.5,0
		c-2.6,0-5.3,0.3-7.9,0.5c0-1.9,0.1-3.8,0-5.6c-0.1-1.7-0.4-3.3-0.6-4.9c-0.3-1.9,0.6-2.5,2.4-2.5c6.9,0,13.8,0,20.6,0
		c2.4,2,5.3,1.5,8,1.5c3.8,0,7.7,0.1,11.5,0c2.5-0.1,5-0.6,7.6-0.9C106.5,261,106.4,265.6,106.4,270.3z"/>
	<path fill="#E94826" d="M179.9,312.8c6.2,0,12.4,0.1,18.7,0c6.6-0.1,13.2-0.4,19.9-0.5c3.7,0,7.3,0.3,11,0.5c0,3,0,6,0,9
		c-7.8,0.2-15.6,0.3-23.3,0.5c-5.9,0.1-11.7,0.5-17.6,0.4c-2.9,0-5.7-0.6-8.6-0.9C179.9,318.8,179.9,315.8,179.9,312.8z"/>
	<path fill="#E94826" d="M56.5,318.3c1.6,0,3.2,0,4.8,0c8.9,0,17.8,0.1,26.7,0c4.7,0,9.4-0.4,14.1-0.5c3.4-0.1,3.8,0.4,3.9,3.8
		c0,0.7,0.2,1.4,0.3,2.2c0,1-0.1,2-0.1,3c-4.1,0-8.1,0-12.2,0c-11.4,0.1-22.9,0.3-34.3,0.5c-1.1,0-2.3-0.3-3.4-0.5c0-0.7,0-1.3,0-2
		c0-0.5,0-1,0-1.5C56.4,321.6,56.4,320,56.5,318.3z"/>
	<path fill="#EA5D2A" d="M56.4,258.2c0.2,1.6,0.5,3.3,0.6,4.9c0.1,1.9,0,3.7,0,5.6c-0.2,1.7-0.3,3.5-0.5,5.2
		c-0.1,0.9-0.1,1.8-0.2,2.7C56.3,270.5,56.3,264.4,56.4,258.2z"/>
	<path fill="#E63323" d="M56.3,323.3c0,0.5,0,1,0,1.5C56.3,324.3,56.3,323.8,56.3,323.3z"/>
	<path fill="#F5DE4B" d="M251,162.3c-0.2-0.7-0.5-1.4-0.5-2.1c0-7.5,0-14.9,0.1-22.4c8.8-0.2,17.7-0.4,26.5-0.5
		c6.7-0.1,13.3-0.1,20,0c1.8,0,2.5-0.4,2.5-2.3c-0.1-12.2-0.1-24.5-0.1-36.7c0.3-0.7,0.6-1.3,0.9-2c0,13.5,0.1,27,0.1,40.5
		c0,1.6,0,3.1,0,4.9c24.4,0,48.7,0,73,0c0-7.8,0-15.5,0-23.1c0-8.4,0.1-16.8,0.2-25.2c0.3,4.3,0.6,8.5,0.8,12.8c0.1,2.6,0,5.1,0,7.7
		c0,9.1,0,18.2,0,27.4c3.9-0.5,7.4-1.3,10.9-1.3c12.5,0,25,0.3,37.5,0.4c0,6.3,0,12.6,0,18.9c0,0.7-0.3,1.4-0.5,2.1
		c-2.4-0.2-4.8-0.4-7.2-0.5c-5.3-0.2-10.7-0.5-16-0.4c-6.6,0.1-13.2,0.7-19.8,0.8c-3.6,0.1-7.1-0.4-10.7-0.4c-2.9,0-5.8,0.4-8.7,0.4
		c-7.4,0-14.8-0.1-22.2,0c-5.6,0.1-11.2,0.4-16.8,0.5c-1.8,0-3.6-0.4-5.4-0.3c-13.7,0.1-27.4,0.3-41.1,0.5c-4.5,0-9.1-0.1-13.6,0
		C257.6,161.8,254.3,162.1,251,162.3z"/>
	<path fill="#FBF351" d="M299.4,98.3c0,12.2,0,24.5,0.1,36.7c0,1.9-0.7,2.4-2.5,2.3c-6.7-0.1-13.3-0.1-20,0
		c-8.8,0.1-17.7,0.3-26.5,0.5c0-12.3-0.1-24.6,0-36.8c0-0.7,0.3-1.4,0.5-2.1c9.1,0,18.3,0.1,27.4-0.1c3,0,6.1-0.9,9.1-0.9
		C291.5,97.7,295.4,98.1,299.4,98.3z"/>
	<path fill="#050402" d="M373.6,93.2c-0.1,8.4-0.1,16.8-0.2,25.2c0,7.6,0,15.3,0,23.1c-24.4,0-48.6,0-73,0c0-1.8,0-3.3,0-4.9
		c0-13.5-0.1-27-0.1-40.5c0-0.5,0-1,0-1.5c0.1-0.1,0.1-0.3,0-0.4c1.1-0.3,2.2-1,3.4-1c6.7-0.1,13.3,0,20.3,0c0-8.2,0-16.3,0-24.5
		c8.2,0,16.2,0,24.4,0c0,7.7,0,15.4,0,23.5c8.6,0,16.8,0,25.1,0C373.5,92.6,373.6,92.9,373.6,93.2z M368.7,97.5
		c-8.4,0-16.5,0-24.9,0c0-8,0-15.8,0-23.6c-4.5,0-8.8,0-13.4,0c0,8.3,0,16.5,0,24.8c-7.9,0-15.6,0-23.3,0c0,12.4,0,24.7,0,37
		c20.6,0,41,0,61.5,0C368.7,123,368.7,110.5,368.7,97.5z"/>
	<path fill="#F5DE4B" d="M300.3,94.3c0.1,0.1,0.1,0.3,0,0.4c-0.1-0.1-0.1-0.2-0.1-0.3C300.1,94.4,300.2,94.3,300.3,94.3z"/>
	<path fill="#F1C644" d="M422.5,175.3c0.2,0.2,0.3,0.3,0.5,0.5C422.8,175.6,422.6,175.4,422.5,175.3z"/>
	<path fill="#F9E84E" d="M422.9,140.2c-12.5-0.2-25-0.4-37.5-0.4c-3.5,0-7,0.8-10.9,1.3c0-9.2,0-18.3,0-27.4
		c4.5-1.6,9.2-1.4,13.9-1.4c8.8-0.1,17.6,0.3,26.4,0.4c2.4,0,4.9,0,7.3,0.1c0.3,0,0.6,0.3,0.9,0.4C423,122.3,423,131.3,422.9,140.2z
		"/>
	<path fill="#070705" d="M755.6,273.3c0,9.2,0,18.3,0,27.5c-0.2,4-0.2,4-4.3,4c-5.6,0-11.3,0.1-16.9,0c-1.8,0-2.6,0.4-2.5,2.3
		c0.2,3.2,0.1,6.5,0.1,9.7c0,4,0,8,0,12.2c-16.6,0-32.9,0-49.4,0c-0.2-3.5-0.5-7.1-0.7-10.7c0-8.2,0-16.3,0-24.5
		c0-9.2,0-18.3,0-27.5c0-0.3,0-0.7,0-1c0-0.5,0-1,0-1.5c0-0.3,0-0.7,0-1c0-0.3,0-0.7,0-1c0.4-5.5,0.4-5.5,6-5.5
		c21.5,0,42.9,0,64.4,0c0.9,0,1.8,0,3.2,0c0,5.1,0,10.1,0,15C755.6,271.9,755.6,272.6,755.6,273.3z M750.9,261.7
		c-20.8,0-41.3,0-61.9,0c0,20.7,0,41.3,0,61.7c12.8,0,25.4,0,38.3,0c0-8.4,0-16.4,0-24.7c8.1,0,15.8,0,23.6,0
		C750.9,286.3,750.9,274.1,750.9,261.7z"/>
	<path fill="#ED8633" d="M682,265.3c0,0.3,0,0.7,0,1C682,265.9,682,265.6,682,265.3z"/>
	<path fill="#ED8633" d="M682,262.8c0,0.3,0,0.7,0,1C682,263.4,682,263.1,682,262.8z"/>
	<path fill="#ED8633" d="M374,267.3c0-5.3,0-10.7,0-16c14.9-0.2,29.9-0.3,44.8-0.5c1.4,0,2.8,0.3,4.2,0.5c0,5.1,0,10.1,0,15.1
		C406.4,266.6,390.2,267,374,267.3z"/>
	<path fill="#050402" d="M106.2,326.8c0-1,0.1-2,0.1-3c0-11.2-0.1-22.3-0.1-33.5c0-2,0.1-4,0.1-6c0-1.3,0-2.6,0-4c0-3.3,0-6.7,0-10
		c0-4.7,0.1-9.3,0.1-14c24.2,0,48.4,0,72.8,0c0.1,1.4,0.2,2.7,0.3,4c0.1,5.7,0.2,11.3,0.3,17c0,5.3,0,10.7,0,16c0,6.5,0,13,0,19.5
		c0,3,0,6,0,9c-0.1,17.8-0.3,35.7-0.4,53.5c0,1.1,0,2.2,0,3.6c-24.4,0-48.6,0-73,0c0-1,0-1.9,0-2.8c0-15.2,0-30.5,0-45.7
		C106.4,329.1,106.3,327.9,106.2,326.8z M174.9,373.2c0-37.3,0-74.4,0-111.4c-20.7,0-41.2,0-61.8,0c0,37.2,0,74.3,0,111.4
		C133.8,373.2,154.2,373.2,174.9,373.2z"/>
	<path fill="#ED8633" d="M106.4,280.3c0,1.3,0,2.6,0,4C106.3,282.9,106.4,281.6,106.4,280.3z"/>
</g>
</svg>
