<?xml version="1.0" encoding="utf-8"?>
<!-- Generator: Adobe Illustrator 26.5.0, SVG Export Plug-In . SVG Version: 6.00 Build 0)  -->
<svg version="1.0" id="Layer_1" xmlns="http://www.w3.org/2000/svg" xmlns:xlink="http://www.w3.org/1999/xlink" x="0px" y="0px"
	 width="982.4px" height="546.3px" viewBox="0 0 982.4 546.3" enable-background="new 0 0 982.4 546.3" xml:space="preserve">
<g>
	<path d="M-0.3-3.3c327.7,0,655.4,0,983,0c0,184.3,0,368.6,0,553c-327.7,0-655.4,0-983,0C-0.3,365.3-0.3,181-0.3-3.3z M824.6,333.7
		c0-0.9,0-1.9,0-2.8c0-1.8,0-3.6,0-5.4c0-4.7,0-9.3,0-14c0-1.4,0-2.8,0-4.3c-7.5-0.1-14.7,0.1-22-0.1c-0.2-7.2,0.1-14.2-0.2-21
		c-4.2-0.5-130.5-0.3-132.4,0.2c0,1.5,0,3.1,0,4.7c0,4.9,0.1,9.9,0.2,14.8c0,2.7,0,5.4,0,8.1c0,3.8,0,7.7,0,11.5
		c0,5.1,0,10.2,0,15.4c0,4.2,0,8.3,0,12.5c0,3.2,0,6.4,0,9.6c0,2.4,0,4.8,0,7.2c-0.1,0.7-0.2,1.4-0.2,2.1c0,21.9,0,43.8,0,65.7
		c0,0.8,0.1,1.6,0.1,2.4c14.9,0,29.5,0,44.5,0c0-7.3,0-14.5,0-21.7c0-7.3,0-14.5,0-21.9c7.4,0,14.5,0,22,0c0,7.5,0,14.9,0,22.6
		c7.5,0,14.8,0,22.3,0c0,2.6,0,4.9,0,7.2c0,2.3,0,4.6,0,7c0.1,2.3-0.2,4.6,0.2,6.8c3.8,0.5,63.6,0.3,65.4-0.2
		c0.5-3.3,0.3-20.7-0.3-22.6c-7.1,0-14.2,0-21.6,0c-0.2-7.5,0.1-14.7-0.2-22.1c-2.7,0-5.1,0-7.5,0c-2.5,0-5,0-7.4,0
		c-2.4,0-4.7,0.2-7.1-0.2c0-7.2,0-14.1,0-21.4c1.1,0,2,0,3,0c12.8,0,25.6,0,38.4,0c0.9,0,1.9-0.1,2.8-0.1c0-2.2,0-4.1,0-6
		c0-1.9,0-3.9,0-5.8c0-0.3,0-0.6,0-0.9c0-1,0-2,0-3c0-5.2,0-10.5,0-15.7c0-0.5,0-1.1,0-1.6C824.6,338.4,824.6,336,824.6,333.7z
		 M653.9,306.8c0.1,0,0.2-0.1,0.2-0.1c0-0.1,0-0.2-0.1-0.3c0-1.5,0-2.9,0-4.4c0.4-3.6,0.3-14.3-0.3-16.1c-0.7,0-1.5,0-2.3,0
		c-17.4,0-34.8,0-52.3,0c-32.4,0-64.7,0-97.1,0c-0.8,0-1.7,0.3-2.5,0.4c-0.1,0.2-0.2,0.5-0.2,0.7c0,7.7,0,15.4,0.1,23.1
		c0,0.5-0.1,1-0.1,1.4c0,17.4,0,34.8,0,52.1c0,0.6,0.1,1.1,0.1,1.7c-0.1,0.6-0.2,1.3-0.2,1.9c0,23.7,0,47.3,0,71
		c0,0.7,0.1,1.4,0.2,2c2.5,0.6,152.7,0.5,154.5-0.1c0-7.1,0-14.3,0-21.8c-1.2,0-2.3,0-3.4,0c-34.3,0-68.6,0-102.9,0
		c-1.1,0-2.2-0.1-3.4-0.1c0-9.3,0-18.7,0-28c0-5.3,0-10.5,0.1-15.8c1.4,0,2.7,0,4.1-0.1c19.8,0,39.7,0,59.5,0c0.9,0,1.9,0,3,0
		c0-2.3,0-4.2,0-6.2c0-2.4,0-4.8,0-7.2c0-2.4,0-4.8,0-7.2c0-0.7,0-1.3,0-2l0-0.2l-0.2,0c-0.9-0.1-1.9-0.3-2.8-0.3
		c-20.2,0-40.5,0-60.7,0c-0.9,0-1.8-0.1-2.8-0.1c-0.1-1.3-0.2-2.2-0.3-3.2c0-4.3,0-8.6,0-13c0-2.9,0-5.8,0-8.6c0-3.4,0-6.7,0-10.1
		c0-2.9,0-5.8,0-8.6c0.1-0.2,0.2-0.4,0.3-0.5c9.7,0,19.3,0,29,0c25.9,0,51.8,0,77.7,0C652.1,307.2,653,306.9,653.9,306.8z
		 M222,250.7c0-0.1-0.1-0.2-0.1-0.2c0.1-7.5,0.1-14.9,0.1-22.5c-7.3-0.1-14.3,0.1-21.4-0.1c-0.1-0.8-0.1-1.4-0.1-1.9
		c0-20.7,0-41.3,0-62c0-0.7,0.3-1.4,0.4-2.1c3,0,6,0,9,0c0.8,0,1.6,0,2.4,0c3.4,0,6.7,0,10.1,0c0.5,0.1,0.9,0.2,0.7-0.6
		c0-2.5,0.1-4.9,0.1-7.4c0-4.6,0.1-9.2,0.1-13.8c28.1,0,56.2,0,84.3,0c0.7,0,1.5,0.1,2.1-0.1c0.3-0.1,0.5-0.6,0.7-0.9
		c0-6.7,0-13.3,0-20c-0.3-1.3-1.4-0.7-2.1-0.7c-35.7,0-71.5,0-107.2,0c-0.6,0-1.2,0.1-2,0.2c0,7.2,0,14.2,0,21.2
		c-7.1,0-14.2,0.1-21.3,0.1c-0.3,0.2-0.8,0.3-0.8,0.6c-0.1,0.7-0.1,1.4-0.1,2.2c0,6.4-0.1,12.8-0.1,19.2c-0.2,0-0.4,0.1-0.6,0.1
		c-5.1-0.4-18.5-0.2-20.3,0.3c-0.4,3.7-0.3,65.6,0.3,67.5c7.2,0,14.4,0,21.9,0c0,2.7,0,5.1,0,7.6c0,2.5,0,5,0,7.4c0,2.4,0,4.9,0,7.3
		c7.5,0,14.6,0,21.7,0c0.1,0.8,0.4,1.5,0.4,2.3c0,2.7,0,5.4,0,8.1c0,3.4,0.1,6.8,0.2,10.3c0.8,0.1,1.6,0.4,2.4,0.4
		c15.1,0,30.2,0,45.3,0c19.9,0,39.8,0,59.7,0c0.8,0,1.6-0.3,2.4-0.4c0.1-0.8,0.2-1.6,0.2-2.3c0-3.4,0-6.8,0-10.2
		c0-2.4-0.1-4.7-0.2-7.1c0-4.2,0-8.3,0-12.5c0.1-0.5,0.2-1.1,0.2-1.6c0-9.6,0-19.2,0-28.9c0-0.5-0.1-1.1-0.2-1.6
		c0.1-0.8,0.2-1.6,0.2-2.4c0-4.9,0-9.9,0-14.8c0-2-0.1-4-0.1-5.9c-0.8-0.2-1.6-0.5-2.4-0.5c-20.2,0-40.4,0-60.6,0
		c-0.8,0-1.6,0-2.5,0c0,7.7,0,15.3,0,23c0.9,0,1.7,0,2.5,0c4.2,0,8.3,0,12.5,0c2.2,0,4.5,0.1,6.7,0.2c0,0.1,0,0.3,0.1,0.4
		c0,2.6-0.1,5.2-0.1,7.8c0,6.7,0.1,13.3,0.1,20c0,4.7,0,9.3,0,14c-0.1,0.1-0.2,0.2-0.1,0.3c-0.9,0.1-1.7,0.1-2.6,0.1
		c-7.4,0-14.8,0-22.2,0c-6.4,0-12.9,0-19.3,0.1C222.2,250.7,222.2,250.6,222,250.7z M461.5,161.3c0-7.2,0-14.3,0-21.7
		c-1.1,0-2,0-2.8,0c-6.5,0-12.9-0.1-19.4-0.1c0-6.8-0.1-13.5-0.1-20.3c-0.2-1.3-1.2-0.7-1.9-0.7c-21,0-42,0-63.1,0
		c-0.6,0-1.2,0.1-2.1,0.2c0,7.4,0,14.6,0,22.1c-7.5,0-14.7,0-22.1,0c0,7.4,0,14.6,0,22c-7.1,0-14,0-21.1,0c0,0.9,0,1.6,0,2.4
		c0,19.8,0,39.6,0,59.5c0,0.7,0.1,1.4,0.1,2.1c0,0.2-0.1,0.5-0.1,0.7c0,14.7,0,29.4,0,44.1c0,0.5,0.1,0.9,0.1,1.3
		c3.3,0.5,42.7,0.4,44.5-0.2c0-0.8,0-1.6,0-2.3c0-11.7,0-23.3,0-35c0-1.9-0.1-3.8-0.1-5.7c0.9-0.1,1.8-0.4,2.7-0.4
		c20.9,0,41.7,0,62.6,0c0.1,1,0.2,1.9,0.2,2.9c0,12.8,0,25.6,0,38.4c0,0.9,0,1.7,0,2.8c1.1,0,1.9,0,2.6,0c6.5,0,12.9,0,19.4,0
		c6.7,0,13.4,0,20.1,0c0.8,0,1.8,0.5,2.3-0.6c0-0.6,0.1-1.1,0.1-1.7c0-35.6,0-71.3,0-106.9c0-0.7-0.1-1.4-0.1-2.2
		c-0.9,0-1.7-0.1-2.5-0.1c-5.7,0-11.3,0-17,0C463.2,161.5,462.4,161.4,461.5,161.3z M310.4,359.1c0-2.3,0-4.5,0-6.8
		c0-3.2,0-6.4,0-9.6c0-5.1,0-10.2,0-15.4c0-4.2,0-8.3,0-12.5c0-2.5,0-5,0-7.7c-0.9,0-1.7,0-2.5,0c-5.7,0-11.5,0-17.2,0
		c-0.6,0-1.3,0.1-1.9-0.1c-0.2-0.1-0.4-0.6-0.6-0.9c0.1,0,0.2-0.1,0.1-0.1c0-0.1-0.1-0.2-0.1-0.4c0-0.4,0-0.8,0-1.2
		c0-0.2,0-0.5,0-0.7c0-1.2,0-2.5,0-3.7c0.3-4.7,0.2-9.4,0.1-14c-3.8-0.5-109.6-0.3-111.4,0.2c0,0.7,0,1.5,0,2.3c0,5.7,0,11.3,0,17
		c0,0.9-0.2,1.7-0.3,2.6c-6.5,0-12.9-0.1-19.4-0.1c-0.4,0-0.7,0.2-1.1,0.3c-0.1,0.7-0.2,1.4-0.2,2.1c0,16.6,0,33.1,0,49.7
		c0,0.8,0.1,1.6,0.1,2.4c0,0.3-0.1,0.6-0.1,0.9c0,18,0,36.1,0,54.1c0,0.5,0.3,1,0.4,1.5c0.3,0.1,0.7,0.1,1,0.2c6.8,0,13.7,0,20.5,0
		c0.2,0.8,0.4,1.7,0.4,2.5c0,5.2,0,10.5,0,15.7c0,0.9,0.2,1.7,0.2,2.6c0.8,0.1,1.5,0.4,2.3,0.4c35.3,0,70.7,0,106,0
		c0.8,0,1.6,0,2.6,0c0.1-1.1,0.1-2,0.1-2.8c0-5,0-10.1,0-15.1c0-1.2-0.1-2.4-0.2-3.6c0.5-0.9,1.4-0.8,2.3-0.8c2.1,0,4.1,0,6.2,0
		c4,0,8.1-0.1,12.1-0.1c0.2-0.1,0.4-0.3,0.6-0.4c0.1-0.6,0.2-1.3,0.2-1.9c0-12.4,0-24.7,0-37.1c0-0.6-0.1-1.3-0.2-1.9
		c0-3.4,0-6.7,0-10.1C310.4,364.2,310.4,361.6,310.4,359.1z M372.6,325c0-2.6,0-5.1,0-7.7c0-0.2,0.1-0.5,0.1-0.7
		c0-9.8,0-19.6,0-29.5c0-0.4-0.1-0.7-0.2-1.1c-14.6,0-29,0-43.6,0c0,1,0,1.9,0,2.8c0,10.1,0,20.1,0,30.2c0,1.2,0.1,2.4,0.1,3.6
		c0,1.2,0,2.3,0,3.5c0,4,0,8,0,12c0,7.7,0,15.3,0,23c-0.2,4.6-0.2,9.2,0.1,13.9c7.3,0.1,14.3,0,21.5,0.1c0,1.1,0,1.9,0,2.7
		c0,5.7,0,11.3,0,17c0,0.7,0.3,1.5,0.4,2.2c0.9,0.1,1.7,0.2,2.6,0.2c5.4,0,10.7,0,16.1,0c0.9,0,1.7,0,2.9,0c0,7.5,0,14.8,0,22.3
		c7.6,0,14.9,0,22.5,0c0,7.2,0,14,0,21c7.5,0,14.7,0,22.2,0c0-1,0.1-1.8,0.1-2.7c0-5.6,0-11.2,0-16.8c0-0.8,0.1-1.7,0.2-2.7
		c2.7,0,5.1,0,7.5,0c2.5,0,5,0.1,7.4,0c2.4-0.1,4.7,0.3,7.2-0.3c0.2-7.3-0.1-14.4,0.1-21.7c1.1,0,1.9,0,2.7,0c5.4,0,10.9,0,16.3,0
		c0.9,0,1.7-0.1,2.6-0.2c0.1-0.1,0.2-0.3,0.3-0.4c0-0.3,0-0.7,0-1c0-0.9,0.1-1.7,0.1-2.6c0-5,0-10.1,0-15.1c0-0.8,0.1-1.7,0.1-2.7
		c7.3-0.2,14.3,0.1,21.4-0.2c0-1.8,0-3.3,0-4.8c0.1-0.9,0.1-1.7,0.1-2.6c0-20,0-39.9,0-59.9c0-6.6-0.1-13.2-0.1-19.9
		c-0.2-1.4-1.3-0.9-2.1-0.9c-13.5,0-26.9,0-40.4,0c-0.7,0-1.3,0.3-2,0.5c-0.1,0.9-0.2,1.7-0.2,2.6c0,20.2,0,40.4,0,60.6
		c0,0.9-0.1,1.8-0.1,3c-7.5,0-14.8,0-22.2,0c-0.1,1-0.1,1.7-0.2,2.5c0,2.5,0,4.9,0,7.4c0,3.6,0.1,7.2,0.2,10.8
		c-0.1,0.2-0.3,0.5-0.4,0.7c-0.6,0.1-1.3,0.1-1.9,0.2c-4,0-8,0-11.9,0c-2.3,0-4.5,0-6.8,0c-0.1-0.8-0.3-1.7-0.4-2.5
		c-0.1-2.9-0.1-5.7-0.2-8.6c0-2,0.2-4,0.1-6c-0.1-1.9,0.4-3.9-0.4-6.1c-7.3,0-14.7,0-21.9,0c-0.1-0.8-0.2-1.3-0.3-1.9c0-4,0-8,0-12
		C372.6,333,372.6,329,372.6,325z M544.5,254.9c0-0.9,0.1-1.8,0.1-2.6c0-14.2,0-28.5,0-42.7c0-0.8,0.1-1.7,0.1-2.6c2,0,3.6,0,5.3,0
		c5,0,10.1-0.1,15.1-0.1c0.2,0.1,0.4,0.1,0.5,0.2c0,7.2,0,14.5,0,21.8c7.6,0,14.9,0,22.3,0c0-6.7,0-13.3,0-19.9
		c0.1-0.6,0.2-1.3,0.3-1.9c7.2,0,14.4-0.1,21.5-0.1c0.2,0.1,0.4,0.1,0.6,0.2c0,1.8,0,3.7,0,5.5c0,5.8,0.1,11.6,0.1,17.4
		c0,0.3-0.1,0.6-0.1,0.9c0,13.6,0,27.2,0,40.8c0,0.4,0.2,0.9,0.2,1.3c14.6,0,29,0,43.4,0c0.1-0.4,0.2-0.6,0.2-0.8c0-8,0-16,0-24
		c0-0.2-0.1-0.3-0.1-0.5c0-0.6,0.1-1.1,0.1-1.7c0-13.5,0-27.1,0-40.6c0-0.6-0.1-1.3-0.2-1.9c0.1-0.6,0.1-1.1,0.1-1.7
		c0-27.1,0-54.2,0-81.4c0-0.6-0.1-1.2-0.2-1.8c-14.8,0-29.5,0-44.4,0c0,7.2,0,14.3,0,21.7c-7.6,0-15,0-22.5,0c0,7.5,0,14.7,0,21.9
		l0-0.1c-2.6,0-5.3,0.1-7.9,0.1c-4.2,0-8.5,0.1-12.7,0.1c-0.2,0-0.4-0.1-0.5-0.1c-0.1-0.2-0.2-0.5-0.3-0.7c0-0.7,0-1.3,0-2
		c0-1.3,0-2.5,0-3.8c0-3.5,0-7.1,0-10.6c0-1.3,0-2.5,0-3.8c0-0.5,0-1.1,0-1.8c-7.5,0-14.8,0-22.4,0c0-7.1,0-14,0-21
		c-0.7-0.1-1-0.1-1.4-0.1c-13.5,0-27,0-40.5,0c-0.5,0-1.1,0.2-1.6,0.3c-0.1,0.8-0.3,1.5-0.3,2.3c0,10.4,0,20.8,0,31.2
		c0,39.3,0,78.5,0,117.8c0,0.9,0,1.9,0,2.8c15.2,0,30,0,45,0C544.5,266.8,544.5,260.9,544.5,254.9z M670.2,181L670.2,181
		c0,5.2,0,10.3,0,15.5c0,1.4,0,2.8,0,4.2c0,0.4,0,0.7,0,1.1c0,5.7,0,11.3,0,17c0,2.1,0,4.3,0,6.4c0,7.5,0,15,0,22.6
		c0,0.3-0.1,0.6-0.1,0.9c0,7.6,0,15.2,0,22.8c0,0.5,0.1,0.9,0.2,1.5c51.5,0,102.8,0,154.4,0c0-7.4,0-14.6,0-22
		c-36.8,0-73.2,0-109.7,0c-0.1-0.6-0.2-1-0.2-1.4c0-0.6,0.1-1.1,0.1-1.7c0-13,0-25.9,0-38.9c0-0.6-0.1-1.1-0.1-1.7
		c0.9-0.2,1.8-0.4,2.7-0.4c20.4,0,40.8,0,61.2,0c0.9,0,1.8,0,2.8-0.1c0-7.8,0-15.3,0-23c-22.2,0-44.4,0-66.5,0
		c-0.1-0.1-0.1-0.3-0.2-0.4c0-0.8,0.1-1.6,0.1-2.4c0-12.8,0-25.6,0-38.3c0-0.8-0.1-1.6-0.1-2.4c0-0.2,0.1-0.3,0.1-0.5
		c1,0,2.1,0,3.1,0c34.6,0,69.3,0,103.9,0c0.9,0,1.7,0,2.6,0c0-7.2,0-14.1,0-21.2c-1,0-1.9,0-2.8,0c-49.7,0-99.3,0-149,0
		c-0.6,0-1.3,0-1.9,0c-0.2,0-0.4,0.3-0.6,0.5c0,0.2,0,0.3,0,0.5c0,0-0.1,0.1-0.1,0.1c0,0.1,0.1,0.2,0.1,0.3c0,0.8,0,1.6,0,2.4
		c0,6.9,0,13.8,0,20.6c0,4.6,0,9.3,0,13.9c0,2.9,0,5.8,0,8.7c0,2.9,0,5.8,0,8.6C670.2,176.5,670.2,178.7,670.2,181z"/>
	<path fill="#FC0101" d="M824.6,367.7c0,1.9,0,3.8,0,6c-1,0-1.9,0.1-2.8,0.1c-12.8,0-25.6,0-38.4,0c-0.9,0-1.9,0-3,0
		c0,7.3,0,14.2,0,21.4c2.3,0.4,4.7,0.2,7.1,0.2c2.5,0,5,0,7.4,0c2.4,0,4.8,0,7.5,0c0.3,7.4,0,14.6,0.2,22.1c7.3,0,14.5,0,21.6,0
		c0.6,1.9,0.8,19.4,0.3,22.6c-1.7,0.5-61.5,0.6-65.4,0.2c-0.4-2.2-0.1-4.5-0.2-6.8c-0.1-2.3,0-4.6,0-7c0-2.3,0-4.6,0-7.2
		c-7.5,0-14.7,0-22.3,0c0-7.7,0-15.1,0-22.6c-7.5,0-14.6,0-22,0c0,7.4,0,14.7,0,21.9c0,7.2,0,14.3,0,21.7c-15,0-29.6,0-44.5,0
		c-0.1-0.8-0.1-1.6-0.1-2.4c0-21.9,0-43.8,0-65.7c0-0.7,0.1-1.4,0.2-2.1c3.4,0.2,6.8-0.4,10.2-0.1c2.3,0.2,4.7-0.4,7.1-0.4
		c7.4-0.1,14.8,0,22.2,0c1.7,0,3.3,0,5,0c0,1.3,0.1,2.5,0.2,4c5,0,9.9,0,14.7,0c4.9,0,9.9,0,14.8,0c4.8-0.1,9.6,0.2,14.7-0.2
		c0-1.9,0-3.6,0-5.2c14.6-0.2,29.2-0.3,43.8-0.5c1.7,0,3.4,0,5,0c0.7,0,1.4-0.1,2.1-0.1C814.9,367.1,819.8,366.9,824.6,367.7z"/>
	<path fill="#FC0101" d="M178.4,440.2c-0.1-0.9-0.2-1.7-0.2-2.6c0-5.2,0-10.5,0-15.7c0-0.8-0.3-1.7-0.4-2.5
		c-0.6-0.1-1.2-0.3-1.9-0.3c-5.6,0-11.2,0-16.8,0c-0.6,0-1.2,0.2-1.9,0.3c-0.3-0.1-0.7-0.1-1-0.2c0-8.5,0-16.9,0-25.4
		c0-4.2,0-8.5,0-12.7c0-2.4,0.4-2.7,2.8-2.8c3.9-0.1,7.8-0.4,11.7-0.5c8.5-0.2,17.1-0.4,25.6-0.5c3.3,0,3.5,0.2,3.5,3.5
		c0,11.5,0,23,0,34.5c0,0.9,0.4,1.8,0.6,2.7c0.5,0,1,0.1,1.4,0.1c20.8,0,41.5,0,62.3,0c0.5,0,1-0.2,1.7-0.3c0-1,0-1.9,0-2.7
		c0-11.6,0-23.2,0-34.8c0-0.9,0.1-1.8,0.1-2.6c1-2,3.1-1.9,4.8-1.9c12.1-0.2,24.2,0.3,36.3-0.5c1.4-0.1,2.5,0.3,3.2,1.5
		c0.1,0.6,0.2,1.3,0.2,1.9c0,12.4,0,24.7,0,37.1c0,0.6-0.1,1.3-0.2,1.9c-0.2,0.1-0.4,0.3-0.6,0.4c-4,0-8.1,0.1-12.1,0.1
		c-2.1,0-4.1,0-6.2,0c-0.9,0-1.8-0.1-2.3,0.8c-0.2,0.8-0.5,1.7-0.5,2.5c0,5.3,0,10.6,0,15.8c0,0.8-0.1,1.7-0.2,2.8
		C251.6,440.2,215,440.2,178.4,440.2z"/>
	<path fill="#FE0000" d="M544.5,374.4c0,5.3-0.1,10.5-0.1,15.8c0,9.3,0,18.7,0,28c0.7,1.3,2,0.8,3,0.8c34.1,0,68.3,0,102.4,0
		c1.1,0,2.2,0.1,3.2,0.2c0.6,3,0.5,19.1-0.2,20.9c-0.9,0-1.8,0-2.8,0c-48.9,0-97.9,0-146.8,0c-0.6,0-1.3,0-1.9,0
		c-1-0.1-1.4-0.6-1.4-1.5c0-1.7-0.1-3.5-0.1-5.2c0-17.7,0-35.3,0-53c0-2,0.4-4.1,0.6-6.3c1.8-0.2,3.5-0.5,5.1-0.6
		c7.6-0.3,15.2,0.3,22.7-0.4c4.6-0.4,9.3-0.1,13.9-0.1C543.4,373,544.1,373.4,544.5,374.4z"/>
	<path fill="#FC0101" d="M461.5,396c-0.9,0.1-1.7,0.2-2.6,0.2c-5.4,0-10.9,0-16.3,0c-0.8,0-1.6,0-2.7,0c-0.2,7.3,0,14.5-0.1,21.7
		c-2.5,0.6-4.9,0.2-7.2,0.3c-2.5,0.1-5,0-7.4,0c-2.4,0-4.8,0-7.5,0c-0.1,1-0.2,1.8-0.2,2.7c0,5.6,0,11.2,0,16.8
		c0,0.9-0.1,1.7-0.1,2.7c-7.4,0-14.7,0-22.2,0c0-7,0-13.8,0-21c-7.6,0-14.9,0-22.5,0c0-7.6,0-14.8,0-22.3c-1.2,0-2,0-2.9,0
		c-5.4,0-10.7,0-16.1,0c-0.9,0-1.7-0.1-2.6-0.2c0-6.3,0-12.6,0-19c0-2.4,0.5-3,3-3c3.4,0,6.7,0,10.1,0c9.9-0.1,19.8-0.3,29.7-0.5
		c0.6,0,1.2-0.2,1.8-0.4c2.3,0,4.5,0,6.8,0c3.4,0.1,6.7,0.2,10.1,0.3c0.6,0,1.2-0.2,1.8-0.3c0.6-0.1,1.3-0.1,1.9-0.2
		c0.8,0.2,1.7,0.5,2.5,0.5c3.9-0.1,7.8-0.4,11.7-0.4c9.3-0.1,18.7,0,28,0c0.9,0,1.7,0.1,2.7,0.2c0.1,1.1,0.2,1.9,0.2,2.8
		c0,5,0,10.1,0,15.1c0,0.9,0.2,1.7,0.3,2.6c0,0.3,0,0.7,0,1C461.7,395.7,461.6,395.9,461.5,396z"/>
	<path fill="#F0FD01" d="M670.2,157c0-4.6,0-9.3,0-13.9c0-6.9,0-13.8,0-20.6c0-0.8,0-1.6,0-2.4c0-0.2,0-0.3,0-0.5c0-0.2,0-0.3,0-0.5
		c51,0,102.1,0,153.1,0.1c0.2,0,0.4,0.2,0.6,0.3c0.6,2.2,0.5,17.7-0.2,19.8c-0.8,0-1.8,0-2.7,0c-9.3,0-18.6,0-27.8,0
		c-25.1,0-50.2,0-75.3,0c-1,0-2,0.3-3,0.5c0,0.2-0.1,0.3-0.1,0.5c-0.1,0.8-0.4,1.7-0.4,2.5c0,4.9,0,9.8-0.1,14.7
		c-1.9,0.3-3.8,1.2-5.8,1c-1.3-0.2-2.6,0-3.8,0c-3.4-0.1-6.8-0.3-10.2-0.4c-0.7,0-1.6-0.2-2.1,0.1c-2,1.4-4.3,1.2-6.4,1.2
		c-4,0-8-0.2-11.9-0.3c-1.4-0.1-2.7,0.1-3.6,1.4C670.4,159.2,670.3,158.1,670.2,157z"/>
	<path fill="#EEFE01" d="M310.5,119.2c0,6.7,0,13.3,0,20c-1.2,0.2-2.3,0.5-3.5,0.5c-26.9,0-53.8,0-80.7,0c-1,0-2,0.3-3,0.5
		c0,4.6-0.1,9.2-0.1,13.8c0,2.5-0.1,4.9-0.1,7.4c-0.2,0.2-0.5,0.4-0.7,0.6c-3.4,0-6.7,0-10.1,0c-0.8,0-1.6,0-2.4,0c-3,0-6,0-9,0
		c-0.3,0.4-0.8,0.7-0.9,1.1c-0.1,0.9-0.1,1.8-0.1,2.7c-1.3,0.1-2.5,0.3-3.8,0.3c-1.7,0.1-3.3,0-5,0c-1.8,0-3.6-0.1-5.4,0
		c-1.4,0.1-2.8,0.5-4.3,0.5c-3.5,0-7-0.3-10.5-0.4c-0.5,0-1,0-1.4,0.2c-3.3,1.2-6.7,1.3-10.1,1.3c-1.4,0-2.5-0.5-3.1-1.8
		c0-1.1,0-2.1,0-3.5c1.2,0,2.1,0,2.9,0c4.8,0,9.7,0,14.5,0c0.9,0,1.7-0.2,2.6-0.3c0.2,0,0.4-0.1,0.6-0.1c0.2-0.8,0.5-1.6,0.5-2.4
		c0-5.3,0-10.6,0-16c0-1.2,0.3-2.3,0.4-3.5c7.1,0,14.2-0.1,21.3-0.1c0.2-0.8,0.6-1.6,0.6-2.4c0.1-5,0-9.9,0-14.9
		c0-3.5,0-3.5,3.5-3.5c34.8,0,69.5,0,104.3,0C308.6,119,309.5,119.1,310.5,119.2z"/>
	<path fill="#F0FD01" d="M439.1,119.2c0,6.8,0.1,13.5,0.1,20.3c0.8,0.2,1.6,0.6,2.4,0.6c5.5,0.1,11,0,16.5,0c0.8,0,1.7,0.1,2.8,0.2
		c0,6.7,0,13.1,0,19.6c-1.2,0-2.4-0.1-3.6,0.1c-1.4,0.2-2.8,0.4-4.2,0c-0.7-0.2-1.6,0.1-2.4,0.2c-0.9,0-1.7,0.1-2.6,0
		c-2.1-0.3-4.2-0.6-6.3,0.3c-0.4,0.2-1.2,0.2-1.6,0c-2.5-1.8-5.2-0.9-7.9-0.9c-0.9,0-2.2,0.2-2.2,1.7c-1.1,0-2.2,0-3.4,0
		c-0.4-1.5-1.6-1.7-2.9-1.7c-2.2,0.1-4.5,0.4-6.6-0.6c0-5.3,0-10.5-0.1-15.8c0-0.8-0.4-1.6-0.6-2.4c-7.2,0-14.5,0-22,0
		c0,7.5,0,14.7,0,22c-1.1,0-1.9,0-2.7,0c-5.4,0-10.9,0-16.3,0c-0.7,0-1.5,0.3-2.2,0.5c-0.1,1.4-0.3,2.9-0.4,4.3
		c-1.3-0.2-2.7-0.4-4-0.5c-1.7-0.1-3.5-0.1-5.2-0.2c-0.9,0-1.7-0.1-2.6,0c-2.4,0.3-4.8,1-7.3,1c-8.2,0.1-16.4,0-24.6,0
		c0-1.6-0.3-3.3,0.3-5.1c6.8,0,13.6,0,20.6,0c0.1-1.1,0.2-1.9,0.2-2.8c0-5.4,0-10.9,0-16.3c0-0.8,0.1-1.7,0.2-2.7c1.2,0,2,0,2.9,0
		c5.4,0,10.7,0,16.1,0c0.9,0,1.8-0.1,3-0.3c0-7.3,0-14.4,0-21.7c1.2-0.1,2.1-0.1,3.1-0.1c20.1,0,40.1,0,60.2,0
		C437.1,119,438.1,119.1,439.1,119.2z"/>
	<path fill="#FCB303" d="M714.8,249.6c0.1,0.4,0.1,0.8,0.2,1.4c36.4,0,72.9,0,109.7,0c0,7.4,0,14.6,0,22c-51.6,0-103,0-154.4,0
		c-0.1-0.6-0.2-1-0.2-1.5c0-7.6,0-15.2,0-22.8c0-0.3,0.1-0.6,0.1-0.9c0.3,0.7,0.6,1.4,0.9,2.2c0.4,0.1,0.8,0.1,1.1,0.2
		c6.5,0.4,13-0.7,19.5,0c0.5,0.1,1.1-0.2,1.6-0.3c0.5-0.1,0.9-0.2,1.4-0.1c2.9,0.1,5.8,0.3,8.7,0.4c0.7,0,1.4,0,2.1-0.1
		c2.9-0.3,5.8-0.6,8.7-0.9C714.6,249.3,714.7,249.4,714.8,249.6z"/>
	<path fill="#FDE602" d="M715,183.8c22.1,0,44.2,0,66.5,0c0,7.8,0,15.2,0,23c-0.9,0-1.8,0.1-2.8,0.1c-20.4,0-40.8,0-61.2,0
		c-0.9,0-1.8,0.3-2.7,0.4c-0.1,0.8-0.4,1.7-0.4,2.5c-0.1,3,0,6-0.1,9c-8.1,0-16.3,0-24.4,0c-1.3,0-2.7,0.2-4,0.2
		c-2.9,0-5.7-0.1-8.6-0.2c-1.1,0-2.2,0.3-3.3,0.2c-2.2-0.2-3.2,0.6-3.4,2.8c-0.1,1.1-0.3,2.2-0.5,3.2c0-2.1,0-4.3,0-6.4
		c0-5.7,0-11.3,0-17c0-0.4,0-0.7,0-1.1c0-1.4,0-2.8,0-4.2c0-5.1,0-10.3,0-15.4c0.2,1.4,0.4,2.8,0.5,4.2c0.1,1.2,0.1,2.5,0.2,4.1
		c5.9-0.1,11.4-0.1,17-0.2c3,0,6-0.2,9-0.2c1.9,0,3.8,0.1,5.7,0.1c2.2,0,4.4,0,6.7-0.1c2.7,0,5.4-0.1,8.1-0.2c1.5-0.1,3-0.5,4.5-0.5
		c2.8,0,5.7,0.3,8.5,0.4c3.2,0.1,6.4,0.1,9.5,0c2.8-0.1,5.6-0.4,8.4-0.4c3.6-0.1,7.1,0,10.7,0c0.9,0,1.7-0.2,2.6-0.2
		c2.1-0.1,4.3-0.2,6.4,0c3.3,0.2,6.7,0.6,10,0.7c2.8,0.1,3.6-1.1,2.7-4.3c-0.9,0-1.9,0-3,0c-19.9,0-39.8,0-59.7,0
		C716.9,184.3,716,184,715,183.8z"/>
	<path fill="#FAF800" d="M566,162.3c0.2,0,0.4,0.1,0.5,0.1c0.4,0.1,0.8,0.3,1.1,0.3c6,0,12,0,18,0c0.5,0,1-0.4,1.5-0.6
		c0,0,0,0.1,0,0.1c0.2-0.7,0.5-1.5,0.5-2.2c0.1-1.8,0-3.7,0-5.5c0-1.9,0-3.8,0-5.9c1.8-0.1,3.1-1.7,4.9-0.4c0.4,0.3,1.3,0.1,1.9,0
		c2.7-0.5,5.4-0.5,8.1,0c0.8,0.1,1.6,0,2.4-0.1c2.3-0.4,4.5-1.7,6.9-0.3c0.2,0.1,0.6,0,0.9,0c3.2,0.4,6.4-1.3,9.6,0
		c0.4,0.2,0.9-0.1,1.4-0.2c2.4-0.2,4.7-0.5,7.1-0.6c1.9-0.1,3.7,0.2,5.6,0.2c0.3,0,0.6-0.2,0.9-0.3c0.9-0.2,1.8-0.4,2.8-0.5
		c1.3-0.1,2.6,0.2,3.8-0.1c3.4-0.7,6.4,0.3,9.6,1.5c0,7.1,0,14.1,0,21.1c-0.9-0.2-1.9-0.5-2.8-0.4c-4.9,0.1-9.9,0.3-14.8,0.4
		c-0.6,0-1.3-0.1-1.9-0.1c-0.8-0.1-1.6-0.3-2.4-0.3c-3.8,0.1-7.6,0.3-11.4,0.4c-1,0-2.1-0.1-3.1-0.2c-0.7-0.1-1.4-0.2-2.1-0.2
		c-3.6,0.1-7.3,0.5-10.9,0.3c-2.8-0.2-5.5,0.2-8.3,0.5c-2.5,0.3-5.1,0.5-7.6,0.5c-2.1,0-4.3-0.4-6.4-0.4c-2,0-4,0.6-5.9,0.3
		c-1.8-0.3-3.5,0-5.2,0.1c-2.1,0.2-4.3,0.4-6.4,0.4c-4.4,0.1-8.8,0.1-13.1,0c-2.7,0-5.4-0.3-8.1-0.3c-1.7,0-3.5,0.3-5.2,0.4
		c-2.9,0.2-5.9-0.5-8.7,0.9c-0.4,0.2-0.9,0.1-1.4,0.1c-7.6,0-15.2,0-22.8,0c-1.2,0-2.4-0.2-3.5,0.1c-1.4,0.5-0.5,2.2-1.3,3.1
		c0-7,0-14,0-21c0.1,1.5,0.2,3,0.4,4.5c0.1,0.8,0.1,1.7,0.2,2.7c1.1-0.4,1.9-0.8,2.8-0.9c2.8-0.2,5.6-0.4,8.3-0.5
		c2.2-0.1,4.5-0.1,6.7-0.2c1.7-0.1,3.3-0.2,5-0.2c2,0,4,0.5,5.9,0.3c4.3-0.5,8.6-0.6,12.8,0c0.9,0.1,1.9,0,2.9,0c1.6,0,3.1,0,4.7,0
		c0.6,0,1.4,0.2,1.9-0.1c3.4-1.7,7.2-0.2,10.7-1.6c0.3-0.1,0.6,0,0.9,0.1c1.6,0.3,1.9,0.7,2,2.4c0.1,0.8,0.2,1.6,0.3,2.3
		C565.7,162.3,565.8,162.3,566,162.3z"/>
	<path fill="#F0FD01" d="M565.5,162.3c-0.1-0.8-0.3-1.6-0.3-2.3c-0.1-1.7-0.4-2.1-2-2.4c-0.3-0.1-0.7-0.2-0.9-0.1
		c-3.4,1.4-7.3,0-10.7,1.6c-0.5,0.3-1.2,0.1-1.9,0.1c-1.6,0-3.1,0-4.7,0c-1,0-1.9,0.2-2.9,0c-4.3-0.6-8.5-0.5-12.8,0
		c-1.9,0.2-3.9-0.2-5.9-0.3c-1.7,0-3.3,0.1-5,0.2c-2.2,0.1-4.5,0.1-6.7,0.2c-2.8,0.1-5.6,0.3-8.3,0.5c-0.8,0.1-1.6,0.5-2.8,0.9
		c-0.1-1-0.2-1.9-0.2-2.7c-0.1-1.5-0.2-3-0.4-4.5c0-1-0.1-1.9-0.1-2.9c0-9.8,0-19.6,0-29.4c0-0.9-0.1-1.7-0.1-2.6
		c0.5-0.1,1.1-0.3,1.6-0.3c13.5,0,27,0,40.5,0c0.4,0,0.8,0.1,1.4,0.1c0,6.9,0,13.8,0,21c7.6,0,14.9,0,22.4,0c0,0.7,0,1.3,0,1.8
		c0,1.3,0,2.5,0,3.8c0,3.5,0,7.1,0,10.6c0,1.3,0,2.5,0,3.8c0,0.7,0,1.3,0,2C565.6,161.8,565.5,162.1,565.5,162.3z"/>
	<path fill="#FB8E01" d="M670.2,305.8c-0.1-4.9-0.1-9.9-0.2-14.8c0-1.6,0-3.2,0-4.7c1.8-0.5,128.2-0.7,132.4-0.2
		c0.3,6.9,0,13.8,0.2,21c7.3,0.2,14.6,0,22,0.1c0,1.5,0,2.9,0,4.3c-0.1-0.3-0.2-0.6-0.3-0.9c0-0.8-0.1-1.7-0.1-2.9
		c-1.6,0-2.9,0-4.2,0c-5.1,0-10.2,0-15.4,0c-2.1,0-2.5-0.3-2.8-2.4c-0.1-0.7,0-1.4,0-2.2c0-0.8-0.1-1.5-0.2-2.5
		c-1-0.1-1.8-0.1-2.6-0.1c-3.3,0-6.5,0-9.8,0c-10.2,0-20.3,0-30.5,0c-2,0-3.9,0.2-5.9,0.3c-3.3,0.2-6.7,0.6-10,0.5
		c-2.9,0-5.8-0.8-8.8,0c-0.4,0.1-0.8-0.1-1.2-0.1c-1-0.1-2.1-0.3-3.1-0.3c-6.2,0.1-12.4,0.4-18.7,0.4c-11.7,0.1-23.4,0-35,0
		c-1.7,0-3.4,0.4-5,0.6C670.7,303.6,670.5,304.7,670.2,305.8z"/>
	<path fill="#FA9202" d="M499.6,286.3c0.8-0.1,1.7-0.4,2.5-0.4c32.4,0,64.7,0,97.1,0c17.4,0,34.8,0,52.3,0c0.8,0,1.6,0,2.3,0
		c0.5,1.8,0.7,12.5,0.3,16.1c-0.2-0.9-0.5-1.8-0.5-2.7c0-1.3-0.7-1.9-1.9-2c-0.8-0.1-1.6,0.1-2.4,0.1c-2.8,0-5.7,0.1-8.5,0.1
		c-2,0-4-0.2-6-0.2c-0.7,0-1.4,0.3-2.1,0.3c-2.6-0.1-5.2-0.2-7.8-0.3c-0.2,0-0.3,0-0.5,0c-2.7,0.2-5.5,0.5-8.2,0.4
		c-4.8-0.2-9.5,0.8-14.3,0.1c-0.8-0.1-1.7,0.2-2.6,0.2c-1.5,0.1-3,0.3-4.5,0.1c-3.7-0.5-7.5-0.6-11.2,0c-0.9,0.2-1.9,0-2.9,0
		c-4.7-0.1-9.4-0.4-14.1-0.3c-4.9,0.1-9.8,0.8-14.8,0.8c-10.1,0.1-20.3,0-30.4,0.1c-2.1,0-4.3,0.3-6.4,0.4c-0.6,0-1.3-0.1-1.9-0.1
		c-0.9-0.1-1.9-0.3-2.8-0.3c-3.4,0.1-6.8,0.3-10.3,0.4c0-1.7-0.1-3.3-0.1-5C499.7,291.5,499.7,288.9,499.6,286.3z"/>
	<path fill="#FDE602" d="M565.6,207c-0.2-0.1-0.4-0.1-0.5-0.2c-0.3-0.1-0.6-0.3-0.9-0.3c-6.2,0-12.3,0-18.5,0
		c-1.2,0-1.7,0.7-1.7,1.8c0,1.8,0,3.5,0,5.3c0,1.9-0.8,2.5-2.7,2.3c-0.5-0.1-1.1-0.2-1.6-0.1c-3.3,0.5-6.5,0.5-9.7,0
		c-0.9-0.2-1.9,0-2.9,0.1c-1.1,0.1-2.2,0.3-3.3,0.3c-2.5,0-5,0-7.4,0c-1.4,0-2.8,0.4-4.3,0.4c-3-0.1-6-0.3-9.1-0.4
		c-0.8,0-1.5-0.1-2.6-0.2c0-1.4,0-2.5,0-3.7c-0.1-1.3-0.2-2.5-0.3-3.8c0-2.4,0-4.8,0-7.2c0.7,0.1,1.4,0.4,2.1,0.4
		c1.8-0.1,3.7-0.4,5.5-0.4c5.6,0.2,11.3-0.5,16.9-0.1c0.2,0,0.5,0,0.7-0.1c1.6-0.1,3.2-0.4,4.8-0.4c2.6,0.1,5.2,0.4,7.9,0.4
		c2.9,0,5.9-0.3,8.8-0.4c3.9-0.1,7.8,0.6,11.7,0c0.6-0.1,1.3-0.1,1.9,0c2.8,0.7,5.5,0,8.3,0c4.6,0,9.3-0.3,13.9,0.1
		c3.4,0.3,6.6-0.3,10-0.5c0.8,0,1.6,0,2.4,0c1,0.1,2.1,0.3,3.1,0.3c2.7,0,5.5-0.5,8.1-0.1c4,0.5,7.9-1,11.9,0.1c0.1,0,0.2,0,0.2,0
		c2.2-0.3,4.4-0.1,6.6-0.8c1-0.4,2.4,0.1,3.5,0.1c1,0.1,1.9,0.2,2.9,0.2c3-0.1,6-0.3,9-0.4c0.5,0,1.1,0.2,1.6,0.2
		c0.5,0.1,1,0.1,1.4,0.1c3.5-0.6,7-0.5,10.5,0.1c0,1.1,0,2.2,0,3.3c0,3,0,5.9,0,8.8c0,2.1-0.9,2.8-3,2.6c-1.1-0.1-2.2-0.2-3.3-0.2
		c-1.2,0-2.4,0.4-3.5,0.3c-2.9-0.3-5.8,0-8.8,0c-1.2,0-2.4-0.5-3.5-0.3c-2.8,0.5-5.5,0.4-8.3,0.3c-3.8-0.1-7.6,0-11.7,0.1
		c0-1.4,0-2.9-0.1-4.4c-0.2-1.3-0.6-2.6-0.9-3.9c-0.2-0.1-0.4-0.1-0.6-0.2c-0.6-0.1-1.2-0.4-1.8-0.4c-5.9,0-11.8,0-17.7,0
		c-0.7,0-1.4,0.3-2,0.5c-0.1,0.6-0.2,1.3-0.3,1.9c-1,0.5-0.7,1.3-0.7,2.1c0,1.3,0,2.5,0,3.9c-1.9,0.2-3.4,0.5-5,0.5
		c-2.8,0-5.5-0.2-8.3-0.2c-0.3,0-0.6,0.1-0.9,0.1c-1.3,0.1-2.5,0.3-3.8,0.3c-2.2,0-2.5-0.5-2.7-2.7
		C566.4,210.9,565.9,208.9,565.6,207z"/>
	<path fill="#FED301" d="M438.8,229.1c-20.9,0-41.7,0-62.6,0c-0.9,0-1.8,0.3-2.7,0.4c-0.1,0.8-0.3,1.5-0.4,2.3
		c-0.1,2.6,0,5.2-0.1,7.8c-14.5,0.2-29.1-0.4-43.6,0.5c0-4.5,0-9-0.1-13.4c0-0.8,0-1.6,0-2.4c5,0,9.9-0.1,14.9,0
		c5,0.1,10-0.4,15-0.1c2.9,0.2,5.8-0.3,8.8-0.3c3.4,0,6.7,0.2,10.1,0.3c0.7,0,1.4-0.3,2.1-0.4c1.1-0.1,2.2-0.3,3.3-0.3
		c0.9,0,1.9,0.2,2.8,0.2c3,0,5.9,0.1,8.9,0c2.8-0.1,5.6-0.4,8.3-0.4c3.2,0,6.3,0.4,9.5,0.4c4.4,0,8.9-0.1,13.3-0.2
		c2.8-0.1,5.5-1.1,8.3-0.3c0.4,0.1,0.9-0.2,1.4-0.2c0.5-0.1,1.1-0.2,1.7-0.1c4.1,0.6,8.3,0.6,12.4,0c0.6-0.1,1.3,0.2,1.9,0.2
		c1.7,0.1,3.3,0.1,5,0.1c1.7-0.1,3.5-0.3,5.2-0.3c0.8,0,1.6,0.4,2.4,0.3c3.4-0.5,6.8,0,10.2,0c2.8,0,5.5,0.1,8.2,0.6
		c0,3.8,0,7.7,0,11.5c0,1.9-0.1,3.9-0.1,5.8c-4.5,0.3-9,0.9-13.6,0.8c-2.9-0.1-5.9,0.2-8.8,0.1c-1.3-0.1-2.7-0.2-4-0.4
		c-0.6,0-1.1-0.1-1.7,0c-2.2,0.1-4.4,0.3-6.7,0.4c-2.9,0.2-5.9,0.3-8.8,0.5c0-3.7,0-7.3-0.1-11C439.4,230.7,439,229.9,438.8,229.1z"
		/>
	<path fill="#FCB303" d="M200.5,272.7c-0.1-3.4-0.1-6.8-0.2-10.3c0-2.7,0-5.4,0-8.1c0-0.8-0.3-1.5-0.4-2.3c0.1,0,0.2-0.1,0.3-0.1
		c0.2,0.9,0.5,1.8,0.6,2.7c0.1,0.8,0.1,1.7,0.2,2.5c2.3-0.1,4.3-0.2,6.2-0.2c10.4,0,20.8,0,31.2,0c1.7,0,3.5-0.3,5.2-0.4
		c1.8,0,3.6,0.1,5.4,0.2c1.3,0.1,2.6,0.2,3.8,0.1c3.1-0.1,6.2-0.3,9.3-0.4c2.1-0.1,4.3-0.4,6.4-0.3c4.7,0.3,9.4,0.6,14.1-0.1
		c0.6-0.1,1.3,0.1,1.9,0.1c0.9,0.1,1.9,0.3,2.8,0.3c3.6-0.1,7.2-0.4,10.7-0.4c3.7,0,7.5-0.5,11.4,0.8c0.1-0.9,0.1-1.6,0.2-2.2
		c0.1-0.5,0.4-1,0.6-1.5c0.1,2.4,0.1,4.7,0.2,7.1c0,3.4,0,6.8,0,10.2c0,0.8-0.2,1.6-0.2,2.3C273.7,272.7,237.1,272.7,200.5,272.7z"
		/>
	<path fill="#FEC601" d="M310.4,253c-0.2,0.5-0.5,0.9-0.6,1.5c-0.1,0.7-0.1,1.4-0.2,2.2c-3.9-1.3-7.6-0.8-11.4-0.8
		c-3.6,0-7.2,0.3-10.7,0.4c-0.9,0-1.9-0.2-2.8-0.3c-0.6-0.1-1.3-0.2-1.9-0.1c-4.7,0.7-9.4,0.5-14.1,0.1c-2.1-0.2-4.3,0.2-6.4,0.3
		c-3.1,0.2-6.2,0.3-9.3,0.4c-1.3,0-2.5-0.1-3.8-0.1c-1.8-0.1-3.6-0.2-5.4-0.2c-1.7,0-3.5,0.4-5.2,0.4c-10.4,0-20.8,0-31.2,0
		c-2,0-4,0.2-6.2,0.2c-0.1-0.8-0.1-1.7-0.2-2.5c-0.2-0.9-0.4-1.8-0.6-2.7c-0.8-0.1-1.7-0.3-2.6-0.3c-5.3,0-10.6,0-15.8,0
		c-0.6,0-1.1,0-1.7,0c-0.9,0-1.3-0.5-1.3-1.3c0-2.5,0-4.9,0-7.6c1.5-0.3,2.7-0.6,4-0.6c2.8,0,5.6,0.3,8.4,0.4c0.4,0,0.8,0,1.2-0.1
		c1.3-0.1,2.5-0.3,3.8-0.3c6.2,0,12.3-0.1,18.5,0c2.3,0,4.6,0.3,6.9,0.4c0,1.7,0,3.4,0.1,5c0,1,0.2,2,0.4,3c0.1,0,0.1,0.1,0.2,0.2
		c0.1,0,0.2,0.1,0.3,0.1c6.4,0,12.9-0.1,19.3-0.1c7.4,0,14.8,0,22.2,0c0.9,0,1.7-0.1,2.6-0.1c0.1-0.1,0.2-0.2,0.1-0.3
		c0-4.7,0-9.3,0-14c1.4,0,2.8,0,4.2,0c9.9,0,19.8,0,29.7,0c3,0,6,0.2,9.1,0.3c0,1,0,1.8,0.1,2.6c0.1,0.5,0.4,1,0.6,1.5
		C310.4,244.7,310.4,248.8,310.4,253z"/>
	<path fill="#FEF400" d="M715,183.8c1,0.2,2,0.5,3,0.5c19.9,0,39.8,0,59.7,0c1,0,2,0,3,0c0.9,3.1,0.1,4.4-2.7,4.3
		c-3.3-0.1-6.7-0.6-10-0.7c-2.1-0.1-4.2,0-6.4,0c-0.9,0-1.7,0.2-2.6,0.2c-3.6,0-7.2,0-10.7,0c-2.8,0.1-5.6,0.4-8.4,0.4
		c-3.2,0.1-6.4,0.1-9.5,0c-2.8-0.1-5.7-0.3-8.5-0.4c-1.5,0-3,0.4-4.5,0.5c-2.7,0.1-5.4,0.1-8.1,0.2c-2.2,0-4.4,0.1-6.7,0.1
		c-1.9,0-3.8-0.2-5.7-0.1c-3,0-6,0.2-9,0.2c-5.6,0.1-11.1,0.1-17,0.2c-0.1-1.6-0.1-2.8-0.2-4.1c-0.1-1.4-0.3-2.8-0.5-4.2
		c0,0,0-0.1,0-0.1c0-2.2,0-4.4,0-6.7c0-2.9,0-5.8,0-8.6c0.1-1.8,0.1-3.5,0.2-5.3c0.9-1.3,2.2-1.4,3.6-1.4c4,0.2,8,0.4,11.9,0.3
		c2.2,0,4.4,0.2,6.4-1.2c0.5-0.4,1.4-0.2,2.1-0.1c3.4,0.1,6.8,0.3,10.2,0.4c1.3,0,2.6-0.1,3.8,0c2.1,0.3,3.9-0.7,5.8-1
		c0,7.7,0,15.4,0,23.1c0,0.9,0.2,1.8,0.4,2.8C714.9,183.5,714.9,183.7,715,183.8z"/>
	<path fill="#FFEB01" d="M266.6,208.4c-0.1-0.1-0.1-0.2-0.1-0.4c0-0.2,0-0.4,0.1-0.6c-0.5,0-0.9-0.1-1.4-0.1c-3.3,0-6.6,0.1-9.8,0.1
		c-3.3,0-6.7,0.1-9.9-0.1c-0.6-2.7-0.5-19.9,0.1-22c21.6,0,43.2,0,64.9,0c0.1,2,0.1,4,0.1,5.9c0,4.9,0,9.9,0,14.8
		c0,0.8-0.1,1.6-0.2,2.4c-1.5,0.2-3,0.4-4.5,0.5c-4.6,0.2-9.2-0.4-13.8,0.5c-1,0.2-2.1,0.1-3.1,0c-3.1-0.6-6.2-0.6-9.3,0
		c-0.8,0.1-1.6,0-2.4-0.1c-0.9-0.1-1.9-0.3-2.8-0.3c-2.4,0.2-4.7,0.4-7.1,0.7C267.1,209.2,266.9,208.8,266.6,208.4z"/>
	<path fill="#F0FD01" d="M653.5,203.5c0-1.1,0-2.2,0-3.3c0-3.5,0-7,0-10.6c0-3,0-6.1,0-9.1c0-3.8,0-7.7,0-11.5c0-7,0-14,0-21.1
		c-3.2-1.2-6.2-2.3-9.6-1.5c-1.2,0.3-2.5,0-3.8,0.1c-0.9,0.1-1.8,0.3-2.8,0.5c-0.3,0.1-0.6,0.3-0.9,0.3c-1.9-0.1-3.8-0.3-5.6-0.2
		c-2.4,0.1-4.7,0.4-7.1,0.6c-0.5,0-1,0.3-1.4,0.2c-3.2-1.2-6.4,0.4-9.6,0c-0.3,0-0.7,0.1-0.9,0c-2.4-1.4-4.6-0.1-6.9,0.3
		c-0.8,0.1-1.6,0.2-2.4,0.1c-2.7-0.5-5.4-0.5-8.1,0c-0.6,0.1-1.5,0.3-1.9,0c-1.8-1.3-3.1,0.2-4.9,0.4c0,2.1,0,4,0,5.9
		c0,1.8,0,3.7,0,5.5c0,0.8-0.3,1.5-0.5,2.2c0-7.2,0-14.4,0-21.9c7.5,0,14.9,0,22.5,0c0-7.4,0-14.5,0-21.7c14.9,0,29.5,0,44.4,0
		c0.1,0.6,0.2,1.2,0.2,1.8c0,27.1,0,54.2,0,81.4c0,0.6-0.1,1.1-0.1,1.7C653.8,203.5,653.7,203.5,653.5,203.5z"/>
	<path fill="#FA9202" d="M176.5,308.2c0.1-0.9,0.3-1.7,0.3-2.6c0-5.7,0-11.3,0-17c0-0.8,0-1.6,0-2.3c1.8-0.6,107.7-0.8,111.4-0.2
		c0.1,4.6,0.2,9.3-0.1,14c-0.8-1.5-2-2.2-3.7-2c-0.6,0.1-1.1,0-1.7,0c-12.1,0.2-24.3,0.3-36.4,0.5c-1.5,0-3,0.1-4.5,0.2
		c-3.4,0.1-6.8,0.2-10.2,0.2c-0.2,0-0.3-0.1-0.5-0.1c-0.9-0.1-1.9-0.3-2.8-0.3c-2.7,0.1-5.4,0.4-8.1,0.4c-4.1,0.1-8.2,0.2-12.2,0
		c-4.1-0.2-8.3,0.1-12.4,0c-4.2,0-8.3-0.1-12.5,0c-1.7,0-3.4,0.3-5.1,0.5c-0.2,0.6-0.4,0.9-0.4,1.2c-0.2,2.5-0.3,4.9-0.5,7.4
		C177,308.2,176.8,308.2,176.5,308.2z"/>
	<path fill="#FD8701" d="M499.9,299.1c3.4-0.1,6.8-0.3,10.3-0.4c0.9,0,1.9,0.2,2.8,0.3c0.6,0.1,1.3,0.2,1.9,0.1
		c2.1-0.1,4.3-0.4,6.4-0.4c10.1,0,20.3,0.1,30.4-0.1c4.9-0.1,9.8-0.7,14.8-0.8c4.7-0.1,9.4,0.2,14.1,0.3c1,0,1.9,0.2,2.9,0
		c3.7-0.6,7.4-0.6,11.2,0c1.5,0.2,3-0.1,4.5-0.1c0.9,0,1.8-0.3,2.6-0.2c4.8,0.7,9.5-0.3,14.3-0.1c2.7,0.1,5.5-0.3,8.2-0.4
		c0.2,0,0.3,0,0.5,0c2.6,0.1,5.2,0.2,7.8,0.3c0.7,0,1.4-0.3,2.1-0.3c2,0,4,0.2,6,0.2c2.8,0,5.7,0,8.5-0.1c0.8,0,1.6-0.2,2.4-0.1
		c1.2,0.1,1.8,0.7,1.9,2c0,0.9,0.4,1.8,0.5,2.7c0,1.5,0,2.9,0,4.4c0,0-0.2,0.1-0.2,0.1c-0.2,0-0.3,0.1-0.4,0.2
		c-1.1,0-2.2,0.1-3.4,0.1c-34.2,0-68.4,0-102.6,0c-1,0-2,0.3-3,0.4c-0.1,0.2-0.2,0.4-0.3,0.5c-2.2-0.1-4.4-0.3-6.6-0.3
		c-1.3,0-2.5,0.3-3.8,0.3c-7.7,0-15.4,0-23,0c-3.7,0-7.3,0.3-11,0.4C499.9,305.1,499.9,302.1,499.9,299.1z"/>
	<path fill="#FFD001" d="M670.2,225.2c0.2-1.1,0.4-2.1,0.5-3.2c0.1-2.2,1.1-3,3.4-2.8c1.1,0.1,2.2-0.2,3.3-0.2
		c2.9,0,5.7,0.1,8.6,0.2c1.3,0,2.7-0.2,4-0.2c8.1,0,16.3,0,24.4,0c0,10.1,0,20.1,0,30.2c-2.9,0.3-5.8,0.6-8.7,0.9
		c-0.7,0.1-1.4,0.1-2.1,0.1c-2.9-0.1-5.8-0.3-8.7-0.4c-0.5,0-0.9,0.1-1.4,0.1c-0.5,0.1-1.1,0.3-1.6,0.3c-6.5-0.7-13,0.4-19.5,0
		c-0.4,0-0.8-0.1-1.1-0.2c-0.3-0.8-0.6-1.5-0.9-2.2C670.2,240.2,670.2,232.7,670.2,225.2z"/>
	<path fill="#FE7F01" d="M670.2,305.8c0.3-1.1,0.5-2.3,0.9-3.8c1.6-0.2,3.3-0.5,5-0.6c11.7-0.1,23.4,0,35,0c6.2,0,12.4-0.3,18.7-0.4
		c1,0,2.1,0.2,3.1,0.3c0.4,0,0.8,0.2,1.2,0.1c2.9-0.8,5.9,0,8.8,0c3.3,0,6.7-0.3,10-0.5c2-0.1,3.9-0.3,5.9-0.3c10.2,0,20.3,0,30.5,0
		c3.3,0,6.5,0,9.8,0c0.8,0,1.6,0.1,2.6,0.1c0.1,0.9,0.2,1.7,0.2,2.5c0,0.7,0,1.4,0,2.2c0.2,2.1,0.6,2.4,2.8,2.4c5.1,0,10.2,0,15.4,0
		c1.3,0,2.7,0,4.2,0c0,1.2,0.1,2,0.1,2.9c-1.3-0.1-2.7-0.4-4-0.4c-2.8-0.1-5.5,0-8.3,0c-3.5,0-7-0.1-10.5,0
		c-6.3,0.1-12.6,0.3-18.9,0.5c-1.8,0.1-2,0.2-2,2.2c0,3.1,0,6.2,0,9.3c-0.1,0-0.3,0-0.4,0c0-4.6-0.1-9.2-0.1-13.7
		c-0.8-1-1.9-0.6-2.9-0.6c-19.9,0-39.8,0-59.8,0c-0.6,0-1.3-0.1-1.9,0.1c-0.4,0.1-0.7,0.7-1.1,1c0,4.1,0,8.2,0,12.4
		c-0.2-1.1-0.4-2.1-0.5-3.2c-0.2-1.5,0.3-3.2-0.3-4.6c-1.5,0-2.8,0-4.1,0c-1.7-0.1-3.5-0.3-5.2-0.3c-4.2,0.1-8.4,0.4-12.5,0.4
		c-4.8,0.1-9.6,0-14.4,0c-2.4,0-4.8,0.3-7.1,0.5C670.2,311.3,670.2,308.5,670.2,305.8z"/>
	<path fill="#FD8701" d="M177.3,308.2c0.2-2.5,0.3-4.9,0.5-7.4c0-0.3,0.2-0.6,0.4-1.2c1.6-0.2,3.4-0.5,5.1-0.5c4.2-0.1,8.3,0,12.5,0
		c4.1,0,8.2-0.2,12.4,0c4.1,0.2,8.2,0.1,12.2,0c2.7-0.1,5.4-0.3,8.1-0.4c0.9,0,1.9,0.2,2.8,0.3c0.2,0,0.3,0.1,0.5,0.1
		c3.4-0.1,6.8-0.1,10.2-0.2c1.5,0,3-0.1,4.5-0.2c12.1-0.2,24.3-0.3,36.4-0.5c0.6,0,1.1,0.1,1.7,0c1.7-0.2,2.9,0.5,3.7,2
		c0,1.2,0,2.5,0,3.7c0,0.2,0,0.5,0,0.7c0,0.4,0,0.8,0,1.2c0,0.2,0,0.3-0.1,0.5c0.2,0.3,0.3,0.8,0.6,0.9c0.6,0.1,1.3,0.1,1.9,0.1
		c5.7,0,11.5,0,17.2,0c0.8,0,1.6,0,2.5,0c0,2.7,0,5.2,0,7.7c-0.3-1.2-0.7-2.3-1.1-3.8c-1.6-0.2-3.4-0.3-5.1-0.5c-4.7-0.5-9.3,1-14,0
		c-0.3-0.1-0.6,0-0.9,0.1c-1.5,0.1-3,0.4-4.5,0.4c-4.8,0-9.6,0-14.4,0c-0.6,0-1.3,0-1.9,0c-1,0.1-1.8,0.5-1.9,1.8
		c0,0.4-0.3,0.7-0.4,1.1c-0.1-1.9-0.2-3.7-0.3-5.7c-1.1,0-2,0-2.9,0c-14.7,0-29.4,0-44.1,0c-6.1,0-12.3,0-18.4,0
		c-0.6,0.4-1.1,1-1.7,1c-4.1,0-8.1-0.1-12.2-0.1c-2.2,0-4.4,0.3-6.6,0.4C178.9,309.6,177.8,309.5,177.3,308.2z"/>
	<path fill="#FEDF01" d="M266.6,208.4c0.3,0.4,0.5,0.8,0.8,1.2c2.4-0.2,4.7-0.5,7.1-0.7c0.9-0.1,1.9,0.2,2.8,0.3
		c0.8,0.1,1.6,0.2,2.4,0.1c3.1-0.6,6.2-0.6,9.3,0c1,0.2,2.1,0.2,3.1,0c4.6-0.8,9.2-0.2,13.8-0.5c1.5-0.1,3-0.3,4.5-0.5
		c0.1,0.5,0.2,1.1,0.2,1.6c0,9.6,0,19.2,0,28.9c0,0.5-0.1,1.1-0.2,1.6c-0.2-0.5-0.5-1-0.6-1.5c-0.1-0.8-0.1-1.6-0.1-2.6
		c-3.1-0.1-6.1-0.2-9.1-0.3c-9.9,0-19.8,0-29.7,0c-1.4,0-2.8,0-4.2,0c0-6.7-0.1-13.3-0.1-20C266.5,213.6,266.6,211,266.6,208.4z"/>
	<path fill="#F4B105" d="M654.1,247.7c0.1,0.2,0.1,0.3,0.1,0.5c0,8,0,16,0,24c0,0.2-0.1,0.4-0.2,0.8c-14.4,0-28.8,0-43.4,0
		c-0.1-0.4-0.2-0.9-0.2-1.3c0-13.6,0-27.2,0-40.8c0-0.3,0.1-0.6,0.1-0.9c0.1,0,0.2,0,0.3,0c0,6-0.3,12.1,0.7,18.1
		c2.6,0.2,5.1,0.6,7.5,0.6c6.1-0.1,12.3,0.2,18.4-0.3c3.8-0.4,7.8,0.3,11.7,0.3c1.4,0,2.9-0.6,4.3-0.9
		C653.7,247.7,653.9,247.7,654.1,247.7z"/>
	<path fill="#FED301" d="M500,208.4c0.1,1.3,0.3,2.5,0.3,3.8c0.1,1.2,0,2.3,0,3.7c1.1,0.1,1.9,0.2,2.6,0.2c3,0.2,6,0.4,9.1,0.4
		c1.4,0,2.8-0.4,4.3-0.4c2.5-0.1,5,0,7.4,0c1.1,0,2.2-0.2,3.3-0.3c1-0.1,1.9-0.2,2.9-0.1c3.3,0.5,6.5,0.6,9.7,0
		c0.5-0.1,1.1,0.1,1.6,0.1c1.9,0.2,2.7-0.4,2.7-2.3c0-1.8,0-3.5,0-5.3c0-1.1,0.5-1.8,1.7-1.8c6.2,0,12.3,0,18.5,0
		c0.3,0,0.6,0.2,0.9,0.3c-5,0-10.1,0.1-15.1,0.1c-1.7,0-3.4,0-5.3,0c0,0.9-0.1,1.8-0.1,2.6c0,14.2,0,28.5,0,42.7
		c0,0.9-0.1,1.8-0.1,2.6c-0.1,0-0.3,0-0.4,0c0-2.6,0-5.3,0-7.9c0-2.7-0.1-5.4-0.1-8.3c-2.3,0-4.3,0-6.2,0c-2,0-3.9,0.2-5.9,0.2
		c-2.2,0-4.4-0.2-6.6-0.2c-3.9,0.1-7.8,0.3-11.7,0.4c-4.3,0.1-8.5,0.1-12.8,0.2c-0.3,1.1-0.5,2.1-0.7,3.1c0-7.6-0.1-15.2-0.1-22.7
		C499.9,215.9,499.9,212.1,500,208.4z"/>
	<path fill="#FE2600" d="M611,361c0,2.4,0,4.8,0,7.2c-2-0.2-4.1-0.1-6.1,0c-9.6,0.3-19.1-0.1-28.7,0.4c-9.3,0.5-18.6,0-27.9,0.5
		c-10.7,0.5-21.4-0.3-32.1,0.5c-4.5,0.4-9.1,0.1-13.7,0.1c-0.8,0-1.5-0.1-2.5-0.2c-0.1-1.5-0.2-2.9-0.2-4.2c0.1-0.9,0.1-1.9,0.2-2.8
		c3.3-0.2,6.7-0.4,10-0.5c11.7-0.2,23.3-0.4,35-0.5c5.1-0.1,10.2,0,15.3,0c11.8-0.1,23.6-0.3,35.4-0.5c0.6,0,1.1-0.1,1.7-0.1
		C601.9,360.3,606.4,360.2,611,361z"/>
	<path fill="#E81005" d="M499.8,365.2c0.1,1.3,0.2,2.7,0.2,4.2c0.9,0.1,1.7,0.2,2.5,0.2c4.6,0,9.1,0.3,13.7-0.1
		c10.7-0.8,21.4,0.1,32.1-0.5c9.3-0.5,18.6,0,27.9-0.5c9.6-0.6,19.2-0.1,28.7-0.4c2.1-0.1,4.1-0.2,6.1,0c0,2,0,3.9,0,6.2
		c-1.1,0-2,0-3,0c-19.8,0-39.7,0-59.5,0c-1.4,0-2.7,0-4.1,0.1c-0.4-1-1.1-1.5-2.2-1.5c-4.6,0-9.3-0.3-13.9,0.1
		c-7.6,0.7-15.2,0.1-22.7,0.4c-1.7,0.1-3.3,0.4-5.1,0.6c-0.2,2.2-0.6,4.3-0.6,6.3c0,17.7,0,35.3,0,53c0,1.7,0.1,3.5,0.1,5.2
		c0,1,0.5,1.5,1.4,1.5c0.6,0,1.3,0,1.9,0c48.9,0,97.9,0,146.8,0c0.9,0,1.9,0,2.8,0c0.7-1.8,0.9-17.9,0.2-20.9
		c-1-0.1-2.1-0.2-3.2-0.2c-34.1,0-68.3,0-102.4,0c-1,0-2.3,0.5-3-0.8c1.1,0,2.2,0.1,3.4,0.1c34.3,0,68.6,0,102.9,0
		c1.1,0,2.2,0,3.4,0c0,7.5,0,14.6,0,21.8c-1.8,0.6-152,0.6-154.5,0.1c-0.1-0.6-0.2-1.3-0.2-2c0-23.7,0-47.3,0-71
		c0-0.6,0.1-1.3,0.2-1.9L499.8,365.2z"/>
	<path fill="#FCB303" d="M329.4,226.6c0,4.5,0,9,0.1,13.4c0,4.4,0,8.8,0,13.2c0,2.2,0.4,2.7,2.7,2.6c3.7-0.1,7.5-0.3,11.2-0.4
		c1,0,1.9,0,2.9,0.1c1.3,0.1,2.5,0.4,3.8,0.3c7.1-0.1,14.2-0.3,21.3-0.5c0.5,0,1-0.2,1.7-0.4c0-5.2,0-10.3,0-15.4
		c0-2.6,0-5.2,0.1-7.8c0-0.8,0.2-1.5,0.4-2.3c0,1.9,0.1,3.8,0.1,5.7c0,11.7,0,23.3,0,35c0,0.8,0,1.6,0,2.3
		c-1.8,0.5-41.2,0.7-44.5,0.2c0-0.4-0.1-0.9-0.1-1.3c0-14.7,0-29.4,0-44.1c0-0.2,0-0.5,0.1-0.7C329.2,226.6,329.3,226.6,329.4,226.6
		z"/>
	<path fill="#FA9202" d="M439.2,286.4c0.7-0.2,1.3-0.5,2-0.5c13.5,0,26.9,0,40.4,0c0.8,0,1.9-0.5,2.1,0.9c0,0.9-0.1,1.7-0.1,2.6
		c0,11.3-0.1,22.6-0.1,34c-0.1-1.9-0.2-3.7-0.4-5.6c0-4.5,0-9.1,0-13.8c-1.6-0.2-3-0.6-4.3-0.6c-2.6,0.1-5.2,0.1-7.8,0
		c-2.1-0.1-4.1,0.4-6.2,0.4c-1.8,0-3.6-0.4-5.5-0.4c-1.7,0-3.3,0.4-5,0.4c-3.2,0-6.5-0.3-9.7-0.4c-0.9,0-1.7,0.1-2.6,0.3
		c-0.9,0.2-1.7,0.4-2.5,0.6c0-1.7-0.1-3.3-0.1-5C439.3,295.1,439.2,290.7,439.2,286.4z"/>
	<path fill="#FE3300" d="M611,361c-4.5-0.8-9-0.7-13.6-0.1c-0.6,0.1-1.1,0.1-1.7,0.1c-11.8,0.2-23.6,0.3-35.4,0.5
		c-5.1,0.1-10.2,0-15.3,0c-11.7,0.1-23.3,0.3-35,0.5c-3.3,0.1-6.7,0.3-10,0.5c0-1.7-0.1-3.4,0-5c0.1-1.7,0.7-2.1,2.2-2.2
		c4.2-0.2,8.4-0.4,12.7-0.5c15.6-0.2,31.3,0.3,46.9-0.5c4.6-0.2,9.2,0,13.8,0c4.9,0,9.8-0.1,14.6,0c4.9,0.2,9.7-0.7,14.5-0.1
		c0.3,0,0.6,0,1-0.1c1.7-0.1,3.5-0.3,5.2-0.4C611,356.2,611,358.6,611,361z"/>
	<path fill="#F4B105" d="M500,208.4c0,3.7-0.1,7.5-0.1,11.2c0,7.6,0,15.2,0.1,22.7c0,4.1-0.1,8.1,0,12.2c0.1,3.3,0.8,3.2,3.5,3.7
		c0.5,0.1,1.1,0,1.7-0.1c3.5-0.1,7-0.1,10.5-0.3c3.2-0.2,6.4-0.5,9.6-0.3c3.5,0.2,7-0.1,10.5-0.1c2.7,0,5.3-0.1,8.1-0.1
		c0.1-1,0.2-1.7,0.2-2.4c0.1,0,0.3,0,0.4,0c0,6,0,11.9,0,18.1c-15,0-29.8,0-45,0c0-1,0-1.9,0-2.8c0-39.3,0-78.5,0-117.8
		c0-10.4,0-20.8,0-31.2c0-0.8,0.2-1.5,0.3-2.3c0,0.9,0.1,1.7,0.1,2.6c0,9.8,0,19.6,0,29.4c0,1,0.1,1.9,0.1,2.9c0,7,0,14,0,21
		c0,1.8,0,3.6,0,5.4c0,3.5,0,7,0,10.5c0,3.5,0,7.1,0,10.6C500,203.6,500,206,500,208.4z"/>
	<path fill="#FFD001" d="M221.4,242.4c-2.3-0.2-4.6-0.4-6.9-0.4c-6.2-0.1-12.3,0-18.5,0c-1.3,0-2.5,0.2-3.8,0.3
		c-0.4,0-0.8,0.1-1.2,0.1c-2.8-0.1-5.6-0.4-8.4-0.4c-1.2,0-2.5,0.4-4,0.6c0,2.7,0,5.1,0,7.6c0,0.9,0.5,1.3,1.3,1.3
		c0.6,0,1.1,0,1.7,0c5.3,0,10.6,0,15.8,0c0.9,0,1.7,0.2,2.6,0.3c-0.1,0-0.2,0.1-0.3,0.1c-7.1,0-14.2,0-21.7,0c0-2.4,0-4.9,0-7.3
		c0-2.5,0-5,0-7.4c0-2.5,0-4.9,0-7.6c-7.5,0-14.7,0-21.9,0c-0.5-1.9-0.7-63.8-0.3-67.5c1.8-0.5,15.2-0.6,20.3-0.3
		c-0.9,0.1-1.7,0.3-2.6,0.3c-4.8,0-9.7,0-14.5,0c-0.9,0-1.7,0-2.9,0c0,1.3,0,2.4,0,3.5c0,11.2,0,22.4,0,33.5c0,8-0.1,16,0,24
		c0,1.2,0.4,2.4,0.7,3.7c3-0.5,5.7-0.5,8.4,0c1,0.2,2.1,0,3.1-0.1c1-0.1,2.1-0.3,3.1-0.3c2.4,0,4.8,0,7.1,0
		c4.1-0.1,8.3-0.3,12.4-0.4c0.5,0,0.9,0.2,1.4,0.2c2.4,0.3,4.7,0.3,7.3-0.1c0.1-2.6,0.1-5.1,0.2-7.5c0.1,0.8,0.2,1.6,0.3,2.3
		c0,1.7,0,3.5,0,5.3c0,1.6,0.3,1.9,2,2c0.6,0,1.3,0,1.9,0c4.9,0,9.7,0,14.6,0c0.8,0,1.7,0.1,2.8,0.2
		C221.4,233.4,221.4,237.9,221.4,242.4z"/>
	<path fill="#FD4101" d="M483.4,323.4c0-11.3,0.1-22.6,0.1-34c0-0.9,0-1.8,0.1-2.6c0,6.6,0.1,13.3,0.1,19.9c0,20,0,39.9,0,59.9
		c0,0.9-0.1,1.7-0.1,2.6c-0.1-0.5-0.3-1-0.4-1.4c-0.1-2.1,0.3-4.3-0.3-6.6c-1,0-1.9-0.1-2.9-0.1c-8.3,0-16.6,0.1-24.9,0.4
		c-9.9,0.4-19.8,0.1-29.7,0.1c-1.5,0-3,0.4-4.5,0.2c-1.3-0.1-2.3,0.1-3.6,0.8c-0.1,2-0.2,4.1-0.3,6.1c-0.1,1.5-0.1,3-0.2,4.6
		c-0.1-3.6-0.1-7.2-0.2-10.8c0-2.5,0-4.9,0-7.4c0-0.8,0.1-1.5,0.2-2.5c7.4,0,14.7,0,22.2,0c0-1.1,0.1-2,0.1-3c0-20.2,0-40.4,0-60.6
		c0-0.9,0.1-1.7,0.2-2.6c0.1,4.4,0.1,8.7,0.2,13.1c0,1.7,0.1,3.3,0.1,5c0,4.6,0,9.3,0,13.9c0,3.4,0,6.7,0,10.1c0,2.7,0,5.4,0,8.2
		c0,2.6-0.1,5.1-0.1,7.7c0.1,2.5-0.3,5,0.2,7.3c1.6,0,2.8,0,4.1,0c1.3,0.1,2.7,0.4,4,0.3c2.2-0.1,4.4-0.4,6.6-0.4
		c8.3-0.2,16.6-0.4,24.8-0.5c1.2,0,2.3,0.2,3.9,0.3c0-5.3,0-10.5,0-15.6c0.1-2.4,0.2-4.9,0.3-7.3C483.4,326.6,483.4,325,483.4,323.4
		z"/>
	<path fill="#FF7000" d="M780.6,322.1c0-3.1,0-6.2,0-9.3c0-2,0.2-2.1,2-2.2c6.3-0.2,12.6-0.4,18.9-0.5c3.5-0.1,7,0,10.5,0
		c2.8,0,5.5,0,8.3,0c1.3,0,2.7,0.3,4,0.4c0.1,0.3,0.2,0.6,0.3,0.9c0,4.7,0,9.3,0,14c-7.7,0.2-15.4-0.2-23.2,0.4
		c-6.9,0.6-13.8,0.4-20.8,0.6c0-1,0-1.9,0-2.9C780.6,323.1,780.6,322.6,780.6,322.1z"/>
	<path fill="#FA9202" d="M329.1,322.6c0-1.2-0.1-2.4-0.1-3.6c0-10.1,0-20.1,0-30.2c0-0.9,0-1.7,0-2.8c14.6,0,29,0,43.6,0
		c0.1,0.4,0.2,0.7,0.2,1.1c0,9.8,0,19.6,0,29.5c0,0.2-0.1,0.5-0.1,0.7c-0.2-1.9-0.3-3.8-0.5-5.7c0-2.8,0-5.6,0-8.4
		c0-1.7-0.2-1.9-1.9-2.2c-1.3-0.2-2.7-0.4-4-0.5c-3.9-0.1-7.8,0.1-11.7-0.1c-4.1-0.2-8.2,0.6-12.4,0c-0.3,0-0.6,0-1,0
		c-3,0.2-6,0.3-9.1,0.5c-0.8,0-1.7,0.1-2.7,0.2c0,3.8,0,7.3,0,10.8c0,3.5,0,7-0.1,10.5C329.3,322.5,329.2,322.6,329.1,322.6z"/>
	<path fill="#FE7F01" d="M266.1,314c0.2-0.4,0.4-0.7,0.4-1.1c0.1-1.2,0.9-1.6,1.9-1.8c0.6-0.1,1.3,0,1.9,0c4.8,0,9.6,0,14.4,0
		c1.5,0,3-0.2,4.5-0.4c0.3,0,0.7-0.1,0.9-0.1c4.7,1,9.4-0.5,14,0c1.7,0.2,3.4,0.3,5.1,0.5c0.4,1.4,0.7,2.6,1.1,3.8
		c0,4.2,0,8.3,0,12.5c-0.7-1.3-1.9-1.4-3.2-1.4c-4.5,0.1-9.1,0.1-13.6,0c-4.6-0.1-9.2,0.2-13.8,0.1c-3.8-0.1-7.6,0.3-11.4,0.4
		c-1.2,0-1.7,0.7-2.2,1.5C266.1,323.2,266.1,318.6,266.1,314z"/>
	<path fill="#FD4101" d="M372.6,349c0.1,0.5,0.2,1.1,0.3,1.9c7.3,0,14.6,0,21.9,0c0.8,2.1,0.3,4.1,0.4,6.1c0.1,2-0.1,4-0.1,6
		c-0.1,0-0.3,0-0.4,0c0-1.3-0.1-2.7-0.1-4.1c-0.7-0.1-1.2-0.3-1.6-0.3c-3.6,0-7.2,0-10.8,0c-16.1,0.1-32.2,0.3-48.3,0.5
		c-1.2,0-2.4,0.2-3.5,0.6c-0.4,0.1-0.7,0.9-1,1.4c-0.1,0-0.2,0-0.4,0c0-7.7,0-15.3,0-23c0.1,0.8,0.4,1.5,0.4,2.3
		c0.1,2.1,0,4.1,0,6.2c0,0.6,0.2,1.2,0.3,2c1,0,1.7,0,2.5,0c3.1-0.1,6.2-0.4,9.3-0.5c5-0.1,10,0,15.1,0c1.4,0,2.8-0.2,4.2-0.3
		c1.5-0.1,3,0,4.5-0.1C367.9,347.7,370.5,346.9,372.6,349z"/>
	<path fill="#FE6301" d="M670.2,340.9c0-5.1,0-10.2,0-15.4c4,0.7,7.9,0.5,11.9,0.3c2-0.1,4-0.1,5.9,0c2.4,0,4.9,0.1,7.3,0.1
		c1.1,0,2.2-0.3,3.3-0.3c4.1,0,8.1,0,12.2,0c0.9,0,1.7,0,2.5,0c0.4,1,0.7,1.7,1,2.4c0,5,0,9.9,0,14.9c-0.3-0.9-0.6-1.7-0.9-2.7
		c-0.6,0-1.1-0.1-1.7-0.1c-2,0.1-4,0.4-6,0.4C694,340.5,682.1,340.7,670.2,340.9z"/>
	<path fill="#FE6301" d="M266.1,327.9c0.5-0.8,1-1.5,2.2-1.5c3.8-0.1,7.6-0.5,11.4-0.4c4.6,0.1,9.2-0.1,13.8-0.1
		c4.5,0.1,9.1,0.1,13.6,0c1.4,0,2.5,0.2,3.2,1.4c0,5.1,0,10.2,0,15.4c-0.3-0.7-0.7-1.4-1.1-2.2c-0.6,0-1.4-0.1-2.2-0.1
		c-3.7,0-7.3-0.1-11,0c-9.2,0.1-18.3,0.3-27.5,0.4c-1.2,0-1.9,0.5-2.5,1.5C266.1,337.5,266.1,332.7,266.1,327.9z"/>
	<path fill="#F4B105" d="M438.8,229.1c0.2,0.8,0.6,1.6,0.6,2.4c0.1,3.6,0.1,7.3,0.1,11c0,4.9-0.1,9.9-0.1,14.8
		c0,2.6,0.4,2.9,2.9,2.9c11.5,0,23,0,34.5,0c1.9,0,3.9-0.1,6.1-0.2c0.2-6.2,0.1-12.6,0.1-19c0-1.9,0.1-3.9,0.1-5.8
		c0.1,0.9,0.3,1.9,0.3,2.8c0,11.5,0.1,23,0.1,34.4c-0.5,1.1-1.5,0.6-2.3,0.6c-6.7,0.1-13.4,0-20.1,0c-6.5,0-12.9,0-19.4,0
		c-0.8,0-1.6,0-2.6,0c0-1.1,0-1.9,0-2.8c0-12.8,0-25.6,0-38.4C439,231,438.9,230,438.8,229.1z"/>
	<path fill="#FE5100" d="M544.3,335.1c0,4.3,0,8.6,0,13c-1.7,0.2-3.3,0.5-5,0.5c-13,0.1-25.9-0.1-38.9,0.3c-0.2-0.4-0.4-0.7-0.5-1
		c0-4.1,0-8.1,0-12.2c13.6-0.2,27.2-0.3,40.8-0.5C541.9,335.1,543.1,335.1,544.3,335.1z"/>
	<path fill="#FE5100" d="M372.6,349c-2.1-2.1-4.7-1.3-7.2-1.3c-1.5,0-3,0-4.5,0.1c-1.4,0.1-2.8,0.3-4.2,0.3c-5,0-10,0-15.1,0
		c-3.1,0-6.2,0.3-9.3,0.5c-0.8,0-1.6,0-2.5,0c-0.1-0.8-0.3-1.4-0.3-2c0-2.1,0-4.1,0-6.2c0-0.8-0.2-1.5-0.4-2.3c0-4,0-8,0-12
		c0.1,2,0.3,4.1,0.4,6.1c0.1,0.9,0.2,1.8,0.2,2.9c1.5,0,2.7,0.1,3.8,0c1.7-0.1,3.3-0.3,5-0.4c2.6-0.2,5.2-0.3,7.8-0.4
		c0.8,0,1.6-0.1,2.4,0c5.7,1,11.4,0.1,17.1,0.2c2,0,4.1,0.2,5.9,0.3c0.4,1,0.6,1.6,0.8,2.3C372.6,341,372.6,345,372.6,349z"/>
	<path fill="#FD4101" d="M670.2,340.9c11.9-0.2,23.8-0.3,35.7-0.5c2,0,4-0.3,6-0.4c0.5,0,1.1,0.1,1.7,0.1c0.3,1,0.6,1.8,0.9,2.7
		c0,4.2,0,8.3,0,12.5c-0.3-0.7-0.6-1.4-1-2.4c-0.8,0-1.6,0-2.5,0c-10.9,0.3-21.9-0.5-32.8,0.4c-2.6,0.2-5.2,0-7.9,0
		C670.2,349.2,670.2,345,670.2,340.9z"/>
	<path fill="#FF7000" d="M714.4,327.9c-0.3-0.7-0.6-1.4-1-2.4c-0.8,0-1.6,0-2.5,0c-4.1,0-8.1,0-12.2,0c-1.1,0-2.2,0.3-3.3,0.3
		c-2.4,0-4.9,0-7.3-0.1c-2,0-4-0.1-5.9,0c-4,0.2-8,0.4-11.9-0.3c0-3.8,0-7.7,0-11.5c2.4-0.2,4.8-0.4,7.1-0.5c4.8-0.1,9.6,0,14.4,0
		c4.2-0.1,8.4-0.3,12.5-0.4c1.7,0,3.5,0.2,5.2,0.3c1.3,0.1,2.7,0,4.1,0c0.7,1.4,0.2,3,0.3,4.6c0.1,1.1,0.3,2.1,0.5,3.2
		C714.4,323.4,714.4,325.6,714.4,327.9z"/>
	<path fill="#FF7000" d="M372.6,337c-0.2-0.7-0.5-1.3-0.8-2.3c-1.9-0.1-3.9-0.3-5.9-0.3c-5.7-0.1-11.4,0.8-17.1-0.2
		c-0.8-0.1-1.6-0.1-2.4,0c-2.6,0.1-5.2,0.3-7.8,0.4c-1.7,0.1-3.3,0.3-5,0.4c-1.2,0.1-2.4,0-3.8,0c-0.1-1-0.2-2-0.2-2.9
		c-0.1-2-0.3-4.1-0.4-6.1c0-1.1,0-2.3,0-3.5c0.1,0,0.2,0,0.3,0c0.7,0.1,1.5,0.3,2.2,0.3c0.6,0,1.3-0.3,1.9-0.3
		c10.8-0.2,21.7-0.3,32.5-0.5c1.9,0,3.9,0.1,5.8,0.2c0.3,1,0.6,1.8,0.8,2.7C372.6,329,372.6,333,372.6,337z"/>
	<path fill="#FED301" d="M654.1,247.7c-0.2,0-0.4,0-0.6,0c0-3.6,0-7.2,0-10.8c0-3.6,0.1-7.3,0-10.9c-0.6-0.2-0.9-0.3-1.2-0.3
		c-5-0.4-10,0.4-15,0c-0.3,0-0.6,0.2-0.9,0.2c-0.9,0-1.7,0-2.6,0c-1.2,0-2.4,0-3.6,0c-0.5,0-0.9,0.1-1.4,0.1
		c-3.2-0.1-6.3-0.2-9.5-0.3c-0.1,0-0.2,0-0.2,0c-1.5,0.4-2.9,0.4-4.5,0.2c-1.9-0.3-3.1,0.9-3.3,2.8c-0.1,0.5-0.3,0.9-0.4,1.3
		c-0.1,0-0.2,0-0.3,0c0-5.8-0.1-11.6-0.1-17.4c0-1.8,0-3.7,0-5.5c0.3,1.3,0.7,2.6,0.9,3.9c0.2,1.5,0.1,3,0.1,4.4
		c4.1,0,8-0.2,11.7-0.1c2.8,0.1,5.5,0.2,8.3-0.3c1.1-0.2,2.4,0.3,3.5,0.3c2.9,0,5.8-0.3,8.8,0c1.2,0.1,2.4-0.3,3.5-0.3
		c1.1,0,2.2,0.1,3.3,0.2c2,0.2,3-0.5,3-2.6c0-2.9,0-5.9,0-8.8c0.2,0,0.4,0,0.6,0c0.1,0.6,0.2,1.3,0.2,1.9c0,13.5,0,27.1,0,40.6
		C654.2,246.6,654.1,247.1,654.1,247.7z"/>
	<path fill="#FD4101" d="M499.9,335.6c0,4.1,0,8.1,0,12.2c0,0.3,0.2,0.6,0.5,1c13-0.4,25.9-0.2,38.9-0.3c1.7,0,3.3-0.3,5-0.5
		c0.1,0.9,0.2,1.9,0.3,3.2c0.9,0,1.8,0.1,2.8,0.1c20.2,0,40.5,0,60.7,0c0.9,0,1.9,0.2,2.8,0.3c0,0.1,0,0.2,0.1,0.2c0,0.7,0,1.3,0,2
		c-1.7,0.1-3.5,0.3-5.2,0.4c-0.3,0-0.6,0.1-1,0.1c-4.8-0.6-9.7,0.2-14.5,0.1c-4.9-0.2-9.8,0-14.6,0c-4.6,0-9.2-0.2-13.8,0
		c-15.6,0.8-31.3,0.3-46.9,0.5c-4.2,0.1-8.4,0.3-12.7,0.5c-1.6,0.1-2.1,0.5-2.2,2.2c-0.1,1.7,0,3.4,0,5c-0.1,0.9-0.1,1.9-0.2,2.8
		c0,0-0.2,0.1-0.2,0.1c0-0.6-0.1-1.1-0.1-1.7c0-17.4,0-34.8,0-52.1c0-0.5,0.1-1,0.1-1.4c0.1,0,0.2,0,0.3,0c0,2.4,0,4.8,0.1,7.3
		c0,3.2,0,6.4,0,9.6C499.9,329.8,499.9,332.7,499.9,335.6z"/>
	<path fill="#FE6301" d="M780.7,326.4c6.9-0.2,13.9,0,20.8-0.6c7.7-0.6,15.5-0.2,23.2-0.4c0,1.8,0,3.6,0,5.4
		c-0.1,0.9-0.1,1.9-0.2,2.8c0,1-0.1,1.9-0.1,2.9c-4.9,0.1-9.7,0.1-14.6,0.4c-9.1,0.4-18.2,0.1-27.3,0.1c-0.5,0-1-0.2-1.7-0.4
		C780.7,333.1,780.7,329.8,780.7,326.4z"/>
	<path fill="#FE7F01" d="M372.6,325c-0.2-0.8-0.5-1.6-0.8-2.7c-1.9-0.1-3.8-0.2-5.8-0.2c-10.8,0.1-21.7,0.3-32.5,0.5
		c-0.6,0-1.3,0.3-1.9,0.3c-0.7,0-1.5-0.2-2.2-0.3c0-3.5,0-7,0.1-10.5c2.5,0,5,0.2,7.4-0.1c3.7-0.4,7.4-0.7,11.2,0
		c0.5,0.1,1.1-0.1,1.6-0.2c2.8-0.1,5.6-1.2,8.5-0.3c1.1,0.3,2.4-0.1,3.5-0.2c3.5-0.3,7-0.5,10.4,0.3c0.2,1.9,0.3,3.8,0.5,5.7
		C372.6,319.8,372.6,322.4,372.6,325z"/>
	<path fill="#FE7F01" d="M177.3,308.2c0.5,1.3,1.7,1.4,2.8,1.4c2.2-0.1,4.4-0.3,6.6-0.4c4.1,0,8.1,0.2,12.2,0.1c0.6,0,1.1-0.7,1.7-1
		c0,7.7,0,15.3-0.1,23c0,2.7-0.1,5.4-0.1,8.1c-0.1,0-0.3,0-0.4,0c0-3.2,0-6.4,0-9.6c0-2.7,0-5.4,0-8.1c0-2.7-0.2-2.9-2.8-2.9
		c-4.1,0.1-8.3,0.3-12.4,0.5c-9.5,0.2-18.9-0.5-28.4,0.5c0-3.2,0-6.4,0-9.6c2.1-0.2,4.1-0.4,6.2-0.5c1.4-0.1,2.9,0,4.3,0
		c0.4,0,0.7-0.3,1.1-0.4c0-0.2-0.1-0.3-0.1-0.5c-3.8,0-7.6,0-11.4,0c-0.1-0.1-0.1-0.2-0.2-0.2c0.4-0.1,0.7-0.3,1.1-0.3
		c6.5,0,12.9,0,19.4,0.1C176.8,308.2,177,308.2,177.3,308.2z"/>
	<path fill="#FE5100" d="M780.7,326.4c0,3.3,0,6.7,0,10.1c0.7,0.2,1.2,0.4,1.7,0.4c9.1,0,18.2,0.3,27.3-0.1
		c4.9-0.2,9.7-0.2,14.6-0.4c0.1,1.4,0.2,2.8,0.3,4.2c0,0.5,0,1.1,0,1.6c-0.1,1.4-0.2,2.8-0.3,4.2c-10.3,0-20.6,0-30.9,0
		c-3.8,0-7.6,0.3-11.5,0.5c-0.3,0-0.6,0.2-0.9,0.3c-0.2,1.2-0.5,2.4-0.7,3.5c0-3.6-0.1-7.2-0.1-10.8c0-5.5,0.1-11,0.1-16.5l0.2,0
		l0.2,0C780.6,324.5,780.7,325.5,780.7,326.4z"/>
	<path fill="#FE5100" d="M266.1,342.3c0.5-1,1.2-1.5,2.5-1.5c9.2-0.1,18.3-0.3,27.5-0.4c3.7-0.1,7.3,0,11,0c0.8,0,1.6,0.1,2.2,0.1
		c0.4,0.9,0.8,1.6,1.1,2.2c0,3.2,0,6.4,0,9.6c-0.3-0.7-0.7-1.4-1.1-2.2c-0.6,0-1.4-0.1-2.2-0.1c-1.7,0.1-3.5,0.4-5.2,0.4
		c-9.1,0.3-18.2-0.5-27.3,0.5c-0.3,0-0.6,0-0.9-0.1c-2.6-0.7-5-0.1-7.5,0.6C266.1,348.4,266.1,345.3,266.1,342.3z"/>
	<path fill="#FF7000" d="M499.9,326.9c0-3.2,0-6.4,0-9.6c2.5-0.2,4.9-0.4,7.4-0.5c2.7-0.1,5.4,0,8.1,0c5.9-0.2,11.8,0.4,17.7-0.4
		c1.3-0.2,2.7,0.2,4,0.3c1.6,0,3.2,0,4.8,0c0.8,0,1.6-0.2,2.4-0.3c0,3.4,0,6.7,0,10.1c-3.7,0-7.5,0-11.2,0
		C522,326.6,511,326.8,499.9,326.9z"/>
	<path fill="#FD4101" d="M156.2,310.1c0,3.2,0,6.4,0,9.6c0,3.5,0,7,0,10.6c0,3.4,0,6.7,0,10.1c0,2.4-0.1,4.8-0.1,7.2
		c0,2.4,0,4.9,0.1,7.5c1.2,0.1,2.2,0.2,3.1,0.2c10-0.1,20.1-0.3,30.1-0.5c3.4-0.1,6.8-0.2,10.4-0.3c0-5,0-9.8,0-14.6
		c0-0.2,0-0.3,0-0.5c0.1,0,0.3,0,0.4,0c0,0.8,0.1,1.6,0.1,2.4c0,8.6,0,17.1,0,25.7c0,0.9-0.1,1.8-0.1,2.6c-0.1-0.7-0.4-1.4-0.4-2.1
		c-0.1-0.9,0-1.8,0-2.6c-0.1-1.6-0.4-1.9-2-2c-0.5,0-1,0-1.4,0c-4.5,0.2-8.9,0.4-13.4,0.5c-4.7,0.1-9.4,0-14.1,0
		c-4.2,0.1-8.5-0.4-12.6,0.5c-0.1-0.6-0.2-1.2-0.3-1.8c0-0.8-0.1-1.6-0.1-2.4c0-16.6,0-33.1,0-49.7c0-0.7,0.2-1.4,0.2-2.1
		c0.1,0,0.2,0.1,0.2,0.2C156.2,309.2,156.2,309.6,156.2,310.1z"/>
	<path fill="#FE3300" d="M670.2,353.3c2.6,0,5.3,0.2,7.9,0c10.9-1,21.9-0.2,32.8-0.4c0.9,0,1.7,0,2.5,0c0.4,1,0.7,1.7,1,2.4
		c0,3,0,6.1,0,9.1c-0.7-0.7-0.6-1.9-2.1-2c-3.4,0-6.8-0.4-10.2-0.4c-1.5,0-3,0.4-4.5,0.4c-9.1,0.2-18.3,0.3-27.4,0.5
		C670.2,359.7,670.2,356.5,670.2,353.3z"/>
	<path fill="#F91802" d="M483.1,367.7c0.1,0.5,0.3,1,0.4,1.4c0,1.5,0,3,0,4.8c-7.1,0.3-14.1,0-21.4,0.2c-0.1,1-0.1,1.9-0.1,2.7
		c0,5,0,10.1,0,15.1c0,0.9-0.1,1.7-0.1,2.6c-0.1-0.9-0.3-1.7-0.3-2.6c0-5,0-10.1,0-15.1c0-0.9-0.1-1.7-0.2-2.8
		c-1-0.1-1.9-0.2-2.7-0.2c-9.3,0-18.7-0.1-28,0c-3.9,0-7.8,0.3-11.7,0.4c-0.8,0-1.7-0.3-2.5-0.5c0.1-0.2,0.3-0.5,0.4-0.7
		c0.1-1.5,0.1-3,0.2-4.6c1-0.1,2-0.4,3.1-0.4c8.6-0.1,17.2-0.1,25.8-0.4C458.2,367.4,470.6,367.7,483.1,367.7z"/>
	<path fill="#F91802" d="M824.6,367.7c-4.8-0.8-9.7-0.7-14.5-0.2c-0.7,0.1-1.4,0.1-2.1,0.1c-1.7,0-3.4,0-5,0
		c-14.6,0.2-29.2,0.3-43.8,0.5c0-1.9,0-3.8,0-5.8c1.2-0.2,2.4-0.4,3.5-0.5c7.4-0.2,14.8-0.4,22.2-0.5c11.3-0.1,22.7,0,34,0
		c0.8,0,1.6-0.1,2.4-0.1c1,0,2,0,3,0c0.1,0.2,0.2,0.3,0.3,0.5C824.6,363.9,824.6,365.8,824.6,367.7z"/>
	<path fill="#FE7F01" d="M544.3,316.4c-0.8,0.1-1.6,0.3-2.4,0.3c-1.6,0.1-3.2,0.1-4.8,0c-1.3,0-2.7-0.5-4-0.3
		c-5.9,0.9-11.8,0.3-17.7,0.4c-2.7,0.1-5.4-0.1-8.1,0c-2.5,0.1-4.9,0.3-7.4,0.5c0-2.4,0-4.8-0.1-7.3c0-0.6,0-1.3,0-1.9
		c3.7-0.1,7.3-0.4,11-0.4c7.7-0.1,15.4,0,23,0c1.3,0,2.5-0.3,3.8-0.3c2.2,0,4.4,0.2,6.6,0.3C544.3,310.6,544.3,313.5,544.3,316.4z"
		/>
	<path fill="#FE3300" d="M310.4,359.1c0,2.6,0,5.1,0,7.7c-1.1,0.2-2.2,0.4-3.3,0.5c-5.7,0.2-11.4,0-17.2,0.4
		c-7.1,0.5-14.3,0.1-21.5,0.1c-0.8,0-1.6-0.6-2.3-0.9c0-2.6,0-5.1,0-7.7c9.5-0.2,19-0.3,28.4-0.5c1.4,0,2.9,0,4.3,0
		c0.6,0,1.3,0,1.9-0.1C304,357.7,307.2,358.3,310.4,359.1z"/>
	<path fill="#FE6301" d="M499.9,326.9c11-0.2,22.1-0.3,33.1-0.5c3.7,0,7.5,0,11.2,0c0,2.9,0,5.8,0,8.6c-1.2,0-2.4,0-3.6,0
		c-13.6,0.2-27.2,0.3-40.8,0.5C499.9,332.7,499.9,329.8,499.9,326.9z"/>
	<path fill="#F91802" d="M266.1,366.8c0.8,0.3,1.6,0.9,2.3,0.9c7.2,0.1,14.4,0.4,21.5-0.1c5.7-0.4,11.5-0.1,17.2-0.4
		c1.1,0,2.2-0.3,3.3-0.5c0,3.4,0,6.7,0,10.1c-0.8-1.2-1.8-1.6-3.2-1.5c-12.1,0.9-24.2,0.3-36.3,0.5c-1.7,0-3.8-0.1-4.8,1.9
		C266.1,374.1,266.1,370.5,266.1,366.8z"/>
	<path fill="#FD4101" d="M310.4,359.1c-3.2-0.8-6.4-1.4-9.7-0.6c-0.6,0.1-1.3,0.1-1.9,0.1c-1.4,0-2.9,0-4.3,0
		c-9.5,0.2-19,0.3-28.4,0.5c0-2.6,0-5.1,0-7.7c2.5-0.8,4.9-1.4,7.5-0.6c0.3,0.1,0.6,0.1,0.9,0.1c9.1-1,18.2-0.2,27.3-0.5
		c1.7-0.1,3.5-0.3,5.2-0.4c0.8,0,1.6,0.1,2.2,0.1c0.4,0.9,0.8,1.6,1.1,2.2C310.4,354.6,310.4,356.8,310.4,359.1z"/>
	<path fill="#F91802" d="M329.1,361c0.1,0,0.2,0,0.4,0c0,1.6,0,3.2,0,4.8c0,1.3,0.1,2.7,0.1,4.2c1.1,0.1,2,0.2,2.9,0.1
		c5.5-0.2,11,0.2,16.5-0.4c3.7-0.4,7.5,0,11.3-0.1c10.9-0.1,21.7-0.3,32.6-0.5c0.6,0,1.2-0.2,2-0.3c0-1.4,0-2.7,0-4
		c0-0.6,0-1.3,0-1.9c0.1,0,0.3,0,0.4,0c0,2.9,0.1,5.7,0.2,8.6c0,0.8,0.2,1.7,0.4,2.5c-0.6,0.1-1.2,0.3-1.8,0.4
		c-9.9,0.2-19.8,0.3-29.7,0.5c-3.4,0-6.7,0-10.1,0c-2.4,0-3,0.5-3,3c0,6.3,0,12.6,0,19c-0.1-0.7-0.4-1.5-0.4-2.2c0-5.7,0-11.3,0-17
		c0-0.8,0-1.6,0-2.7c-7.2-0.1-14.2,0-21.5-0.1C328.8,370.2,328.9,365.6,329.1,361z"/>
	<path fill="#F91802" d="M155.9,362.6c0.1,0.6,0.2,1.2,0.3,1.8c0,2.3-0.3,4.6,0.2,7c1.1,0,2,0.1,2.9,0.1c9-0.2,18,0.4,27-0.4
		c4.6-0.4,9.3-0.1,13.9-0.1c0,0.9,0.1,1.7,0.1,2.6c0,14.8,0,29.6,0,44.4c-0.2-0.9-0.6-1.8-0.6-2.7c0-11.5,0-23,0-34.5
		c0-3.3-0.2-3.6-3.5-3.5c-8.5,0.1-17.1,0.3-25.6,0.5c-3.9,0.1-7.8,0.3-11.7,0.5c-2.4,0.1-2.8,0.4-2.8,2.8c0,4.2,0,8.5,0,12.7
		c0,8.5,0,16.9,0,25.4c-0.1-0.5-0.4-1-0.4-1.5c0-18,0-36.1,0-54.1C155.8,363.3,155.9,362.9,155.9,362.6z"/>
	<path fill="#F91802" d="M670.2,362.9c9.2-0.2,18.3-0.3,27.4-0.5c1.5,0,3-0.5,4.5-0.4c3.4,0.1,6.8,0.4,10.2,0.4c1.5,0,1.4,1.3,2.1,2
		c0.1,1.8,0.1,3.5,0.2,5.3c-1.7,0-3.3,0-5,0c-7.4,0-14.8,0-22.2,0c-2.4,0-4.8,0.6-7.1,0.4c-3.4-0.3-6.8,0.3-10.2,0.1
		C670.2,367.7,670.2,365.3,670.2,362.9z"/>
	<path fill="#FED301" d="M565.6,207c0.3,1.9,0.7,3.9,0.9,5.8c0.2,2.3,0.4,2.7,2.7,2.7c1.3,0,2.5-0.2,3.8-0.3c0.3,0,0.6-0.2,0.9-0.1
		c2.8,0.1,5.5,0.3,8.3,0.2c1.6,0,3.1-0.3,5-0.5c0-1.4,0-2.7,0-3.9c0-0.8-0.2-1.6,0.7-2.1c0,6.6,0,13.2,0,19.9c-7.4,0-14.7,0-22.3,0
		C565.6,221.5,565.6,214.2,565.6,207z"/>
	<path fill="#FE2600" d="M824.3,361.5c-1,0-2,0-3,0c-0.8,0-1.6,0.1-2.4,0.1c-11.3,0-22.7-0.1-34,0c-7.4,0.1-14.8,0.3-22.2,0.5
		c-1.2,0-2.4,0.3-3.5,0.5c0-1.4,0-2.9,0-4.3c7.3-0.2,14.5-0.3,21.8-0.5c2.5-0.1,4.9-0.3,7.4-0.4c0.7,0,1.4,0.2,2.1,0.2
		c1.2,0,2.4,0,3.6,0c0.7,0,1.4-0.3,2.1-0.3c8.6,0,17.3,0,25.9,0c0.9,0,1.7,0.6,2.6,0.9c0,1,0,2,0,3
		C824.5,361.2,824.4,361.3,824.3,361.5z"/>
	<path fill="#FE3300" d="M824.6,358.1c-0.9-0.3-1.7-0.9-2.6-0.9c-8.6-0.1-17.3,0-25.9,0c-0.7,0-1.4,0.2-2.1,0.3c-1.2,0-2.4,0-3.6,0
		c-0.7,0-1.4-0.2-2.1-0.2c-2.5,0.1-4.9,0.3-7.4,0.4c-7.3,0.2-14.5,0.3-21.8,0.5c0-1.3,0-2.6,0-3.8c3,0,6.1-0.1,9.1,0
		c3.1,0.2,6.2-0.8,9.2-0.1c0.2,0.1,0.5,0,0.7-0.1c1.6-0.1,3.2-0.4,4.7-0.4c6.5,0,13.1,0,19.6,0c6.7-0.1,13.4-0.3,20.1-0.5
		c0.5,0,1-0.2,1.7-0.4c0-2.2,0-4.3,0-6.3c0.1-1.4,0.2-2.8,0.3-4.2C824.6,347.6,824.6,352.8,824.6,358.1z"/>
	<path fill="#B7C42C" d="M329.4,226.6c-0.1,0-0.3,0-0.4,0c0-0.7-0.1-1.4-0.1-2.1c0-19.8,0-39.6,0-59.5c0-0.7,0-1.4,0-2.4
		c7.1,0,14,0,21.1,0c0-7.4,0-14.6,0-22c7.4,0,14.7,0,22.1,0c0-7.5,0-14.7,0-22.1c0.9-0.1,1.5-0.2,2.1-0.2c21,0,42,0,63.1,0
		c0.6,0,1.7-0.6,1.9,0.7c-1-0.1-2.1-0.2-3.1-0.2c-20.1,0-40.1,0-60.2,0c-0.9,0-1.9,0.1-3.1,0.1c0,7.3,0,14.4,0,21.7
		c-1.2,0.1-2.1,0.2-3,0.3c-5.4,0-10.7,0-16.1,0c-0.9,0-1.7,0-2.9,0c-0.1,1-0.2,1.9-0.2,2.7c0,5.4,0,10.9,0,16.3
		c0,0.8-0.1,1.7-0.2,2.8c-7,0-13.8,0-20.6,0c-0.7,1.8-0.3,3.5-0.3,5.1c0,11.5,0,23,0,34.6c0,7.2,0,14.4,0,21.6
		C329.4,225,329.4,225.8,329.4,226.6z"/>
	<path fill="#EEFE01" d="M714.9,139.8c1-0.2,2-0.5,3-0.5c25.1,0,50.2,0,75.3,0c9.3,0,18.6,0,27.8,0c0.9,0,1.9,0,2.7,0
		c0.7-2.1,0.7-17.6,0.2-19.8c-0.2-0.1-0.4-0.3-0.6-0.3c-51,0-102.1-0.1-153.1-0.1c0.2-0.2,0.4-0.5,0.6-0.5c0.6-0.1,1.3,0,1.9,0
		c49.7,0,99.3,0,149,0c0.9,0,1.7,0,2.8,0c0,7.1,0,14,0,21.2c-0.9,0-1.8,0-2.6,0c-34.6,0-69.3,0-103.9,0
		C717,139.7,716,139.8,714.9,139.8z"/>
	<path fill="#B7C42C" d="M310.5,119.2c-1-0.1-1.9-0.2-2.9-0.2c-34.8,0-69.5,0-104.3,0c-3.5,0-3.5,0-3.5,3.5c0,5,0,9.9,0,14.9
		c0,0.8-0.4,1.6-0.6,2.4c0-7,0-14,0-21.2c0.8-0.1,1.4-0.2,2-0.2c35.7,0,71.5,0,107.2,0C309.1,118.5,310.2,117.8,310.5,119.2z"/>
	<path fill="#B7C42C" d="M483.5,272.5c0-11.5,0-23-0.1-34.4c0-0.9-0.2-1.9-0.3-2.8c0-3.8,0-7.7,0-11.5c0-6.4,0-12.8,0-19.2
		c0-7.8,0-15.7,0-23.5c0-4.6,0-9.2,0-13.9c0-1.1,0-2.2,0-3.3c0-1.1-0.4-1.7-1.6-1.6c-0.6,0-1.1,0-1.7,0c-5.3,0-10.7,0-16,0
		c-0.9,0-2,0.3-2.6-0.7c0.1-0.1,0.1-0.1,0.2-0.2c0.9,0.1,1.7,0.2,2.6,0.2c5.7,0,11.3,0,17,0c0.8,0,1.6,0.1,2.5,0.1
		c0,0.8,0.1,1.5,0.1,2.2c0,35.6,0,71.3,0,106.9C483.7,271.4,483.6,271.9,483.5,272.5z"/>
	<path fill="#B7C42C" d="M221.4,242.4c0-4.5,0-9,0-13.8c-1.1-0.1-1.9-0.2-2.8-0.2c-4.9,0-9.7,0-14.6,0c-0.6,0-1.3,0-1.9,0
		c-1.7-0.1-1.9-0.4-2-2c0-1.7,0-3.5,0-5.3c0-0.8-0.2-1.6-0.3-2.3c0-6.2,0-12.4,0-18.6c0-11.5,0-23.1,0-34.6c0-0.9,0-1.8,0.1-2.7
		c0.1-0.4,0.6-0.7,0.9-1.1c-0.1,0.7-0.4,1.4-0.4,2.1c0,20.7,0,41.3,0,62c0,0.5,0.1,1.1,0.1,1.9c7.1,0.2,14,0,21.4,0.1
		c0,7.6,0.1,15-0.1,22.5c-0.1-1-0.3-2-0.4-3C221.4,245.8,221.4,244.1,221.4,242.4z"/>
	<path fill="#F91802" d="M178.4,440.2c36.6,0,73.2,0,110,0c0.1-1.1,0.2-1.9,0.2-2.8c0-5.3,0-10.6,0-15.8c0-0.8,0.3-1.7,0.5-2.5
		c0.1,1.2,0.2,2.4,0.2,3.6c0,5,0,10.1,0,15.1c0,0.9-0.1,1.7-0.1,2.8c-1,0-1.8,0-2.6,0c-35.3,0-70.7,0-106,0
		C179.9,440.6,179.2,440.3,178.4,440.2z"/>
	<path fill="#B7C42C" d="M266.6,207.4c0,0.2,0,0.4-0.1,0.6c-2.2-0.1-4.5-0.1-6.7-0.2c-4.2,0-8.3,0-12.5,0c-0.8,0-1.6,0-2.5,0
		c0-7.8,0-15.3,0-23c0.9,0,1.7,0,2.5,0c20.2,0,40.4,0,60.6,0c0.8,0,1.6,0.3,2.4,0.5c-21.6,0-43.3,0-64.9,0c-0.6,2-0.6,19.3-0.1,22
		c3.2,0.1,6.6,0.1,9.9,0.1c3.3,0,6.6,0,9.8-0.1C265.6,207.3,266.1,207.3,266.6,207.4z"/>
	<path fill="#B7C42C" d="M200.5,272.7c36.6,0,73.2,0,109.9,0c-0.8,0.1-1.6,0.4-2.4,0.4c-19.9,0-39.8,0-59.7,0c-15.1,0-30.2,0-45.3,0
		C202.1,273.1,201.3,272.8,200.5,272.7z"/>
	<path fill="#FE6301" d="M544.5,307.2c1-0.1,2-0.4,3-0.4c34.2,0,68.4,0,102.6,0c1.1,0,2.2-0.1,3.4-0.1c0,0,0.2,0,0.2,0l0.2,0
		l0.1,0.1c-0.9,0.1-1.8,0.4-2.7,0.4c-25.9,0-51.8,0-77.7,0C563.9,307.2,554.2,307.2,544.5,307.2z"/>
	<path fill="#B7C42C" d="M223.3,140.1c1-0.2,2-0.5,3-0.5c26.9,0,53.8,0,80.7,0c1.2,0,2.3-0.3,3.5-0.5c-0.2,0.3-0.4,0.8-0.7,0.9
		c-0.7,0.1-1.4,0.1-2.1,0.1C279.5,140.1,251.4,140.1,223.3,140.1z"/>
	<path fill="#B7C42C" d="M461,159.9c0-6.4,0-12.9,0-19.6c-1.1-0.1-1.9-0.2-2.8-0.2c-5.5,0-11,0-16.5,0c-0.8,0-1.6-0.4-2.4-0.6
		c6.5,0,12.9,0.1,19.4,0.1c0.9,0,1.7,0,2.8,0c0,7.4,0,14.5,0,21.7c-0.1,0.1-0.1,0.1-0.2,0.2C461.2,160.9,461.1,160.4,461,159.9z"/>
	<path fill="#FDE602" d="M714.8,183.4c-0.1-0.9-0.4-1.8-0.4-2.8c0-7.7,0-15.4,0-23.1c0-4.9,0-9.8,0.1-14.7c0-0.8,0.2-1.7,0.4-2.5
		c0,0.8,0.1,1.6,0.1,2.4c0,12.8,0,25.6,0,38.3C714.9,181.8,714.8,182.6,714.8,183.4z"/>
	<path fill="#B7C42C" d="M714.4,249.1c0-10.1,0-20.1,0-30.2c0-3,0-6,0.1-9c0-0.8,0.2-1.7,0.4-2.5c0,0.6,0.1,1.1,0.1,1.7
		c0,13,0,25.9,0,38.9c0,0.6-0.1,1.1-0.1,1.7C714.7,249.4,714.6,249.3,714.4,249.1z"/>
	<path fill="#B7C42C" d="M499.9,308.2c0,0.6,0,1.3,0,1.9c-0.1,0-0.2,0-0.3,0c0-7.7-0.1-15.4-0.1-23.1c0-0.2,0.1-0.5,0.1-0.7
		c0.1,2.6,0.1,5.2,0.2,7.8c0,1.7,0.1,3.3,0.1,5C499.9,302.1,499.9,305.1,499.9,308.2z"/>
	<path fill="#B7C42C" d="M177.8,139.9c-0.2,1.2-0.4,2.3-0.4,3.5c0,5.3,0,10.6,0,16c0,0.8-0.3,1.6-0.5,2.4c0-6.4,0.1-12.8,0.1-19.2
		c0-0.7,0-1.5,0.1-2.2C177.1,140.3,177.6,140.1,177.8,139.9z"/>
	<path fill="#FED301" d="M588.2,206.9c0.7-0.2,1.3-0.5,2-0.5c5.9,0,11.8,0,17.7,0c0.6,0,1.2,0.2,1.8,0.4
		C602.6,206.9,595.4,206.9,588.2,206.9z"/>
	<path fill="#F91802" d="M157.2,419.4c0.6-0.1,1.2-0.3,1.9-0.3c5.6,0,11.2,0,16.8,0c0.6,0,1.2,0.2,1.9,0.3
		C170.9,419.4,164,419.4,157.2,419.4z"/>
	<path fill="#B7C42C" d="M587.1,162.2c-0.5,0.2-1,0.6-1.5,0.6c-6,0-12,0-18,0c-0.4,0-0.8-0.2-1.1-0.3c4.2,0,8.5-0.1,12.7-0.1
		C581.9,162.3,584.5,162.2,587.1,162.2z"/>
	<path fill="#EEFE01" d="M670.2,122.4c0,6.9,0,13.8,0,20.6C670.2,136.2,670.2,129.3,670.2,122.4z"/>
	<path fill="#EEFE01" d="M670.2,201.7c0,5.7,0,11.3,0,17C670.2,213.1,670.2,207.4,670.2,201.7z"/>
	<path fill="#F91802" d="M414.4,374.1c-0.6,0.1-1.2,0.3-1.8,0.3c-3.4-0.1-6.7-0.2-10.1-0.3C406.4,374.1,410.4,374.1,414.4,374.1z"/>
	<path fill="#EEFE01" d="M670.4,160.4c-0.1,1.8-0.1,3.5-0.2,5.3c0-2.9,0-5.8,0-8.7C670.3,158.1,670.4,159.2,670.4,160.4z"/>
	<path fill="#FE3300" d="M824.6,340.8c-0.1-1.4-0.2-2.8-0.3-4.2c0-1,0.1-1.9,0.1-2.9c0,0,0.2,0,0.2,0
		C824.6,336,824.6,338.4,824.6,340.8z"/>
	<path fill="#EEFE01" d="M670.2,174.3c0,2.2,0,4.4,0,6.7C670.2,178.7,670.2,176.5,670.2,174.3z"/>
	<path fill="#B7C42C" d="M209.9,161.8c0.8,0,1.6,0,2.4,0C211.5,161.8,210.7,161.8,209.9,161.8z"/>
	<path fill="#EEFE01" d="M670.2,196.4c0,1.4,0,2.8,0,4.2C670.2,199.2,670.2,197.8,670.2,196.4z"/>
	<path fill="#B7C42C" d="M565.7,159.6c0-1.3,0-2.5,0-3.8C565.7,157.1,565.7,158.4,565.7,159.6z"/>
	<path fill="#B7C42C" d="M565.7,145.2c0-1.3,0-2.5,0-3.8C565.7,142.7,565.7,144,565.7,145.2z"/>
	<path fill="#FE5100" d="M824.6,333.7c0,0-0.2,0-0.2,0c0.1-0.9,0.1-1.9,0.2-2.8C824.6,331.8,824.6,332.7,824.6,333.7z"/>
	<path fill="#B7C42C" d="M222.4,161.8c0.2-0.2,0.5-0.4,0.7-0.6C223.3,162,222.9,161.9,222.4,161.8z"/>
	<path fill="#FE3300" d="M824.3,361.5c0.1-0.1,0.2-0.3,0.3-0.4c0,0.3,0,0.6,0,0.9C824.5,361.8,824.4,361.6,824.3,361.5z"/>
	<path fill="#FA9202" d="M288.2,306.2c0-0.2,0-0.3,0.1-0.5c0,0.1,0.1,0.2,0.1,0.4C288.3,306.1,288.2,306.2,288.2,306.2z"/>
	<path fill="#FE6301" d="M653.8,306.4c0,0,0.2-0.1,0.2-0.1c0,0.1,0.1,0.2,0.1,0.3c0,0-0.1,0.1-0.2,0.1c0,0-0.1-0.1-0.1-0.1
		C653.8,306.7,653.8,306.4,653.8,306.4z"/>
	<path fill="#FA9202" d="M288.2,304.5c0-0.2,0-0.5,0-0.7C288.2,304,288.2,304.2,288.2,304.5z"/>
	<path fill="#EEFE01" d="M670.2,119.6c0,0.2,0,0.3,0,0.5c0-0.1-0.1-0.2-0.1-0.3C670.1,119.7,670.2,119.6,670.2,119.6z"/>
	<path fill="#B7C42C" d="M266.6,250.2c0.1,0.1,0,0.3-0.1,0.3C266.4,250.4,266.4,250.3,266.6,250.2z"/>
	<path fill="#F91802" d="M461.5,396c0.1-0.1,0.2-0.3,0.3-0.4C461.7,395.7,461.6,395.9,461.5,396z"/>
	<path fill="#B7C42C" d="M222.3,250.8c-0.1,0-0.2-0.1-0.3-0.1C222.2,250.6,222.2,250.7,222.3,250.8z"/>
	<path fill="#F91802" d="M309.8,418.1c0.2-0.1,0.4-0.3,0.6-0.4C310.2,417.8,310,418,309.8,418.1z"/>
	<path fill="#E81005" d="M611,351.8c-0.1,0-0.1-0.1-0.1-0.2c0,0,0.2,0,0.2,0L611,351.8z"/>
	<path fill="#B7C42C" d="M565.5,162.3c0.1-0.2,0.1-0.5,0.2-0.7c0.1,0.2,0.2,0.5,0.3,0.7C565.8,162.3,565.7,162.3,565.5,162.3z"/>
	<path fill="#020000" d="M759.1,354.3c0,1.3,0,2.6,0,3.8c0,1.4,0,2.9,0,4.3c0,1.9,0,3.8,0,5.8c0,1.7,0,3.3,0,5.2
		c-5.1,0.4-9.9,0.1-14.7,0.2c-4.9,0.1-9.9,0-14.8,0c-4.8,0-9.7,0-14.7,0c-0.1-1.5-0.1-2.8-0.2-4c-0.1-1.8-0.1-3.5-0.2-5.3
		c0-3,0-6.1,0-9.1c0-4.2,0-8.3,0-12.5c0-5,0-9.9,0-14.9c0-2.2,0-4.5,0-6.7c0-4.1,0-8.2,0-12.4c0.9-0.2,1.8-0.5,2.7-0.5
		c20.2,0,40.4,0,60.6,0c0.8,0,1.6,0.1,2.4,0.1c0,4.6,0.1,9.2,0.1,13.7c0,0.5,0,1,0,1.4c0,5.5-0.1,11-0.1,16.5
		c0,3.6,0.1,7.2,0.1,10.8c-0.6,1.1-1.6,0.9-2.5,0.9c-5,0-10.1,0-15.1,0c-0.9,0-1.8,0-2.6,0c-0.7,0-1,0.3-0.9,1c0,0.2,0,0.3,0,0.5
		C759.1,353.6,759.1,354,759.1,354.3z"/>
	<path fill="#020000" d="M200.5,418.1c0-14.8,0-29.6,0-44.4c0-0.9-0.1-1.7-0.1-2.6c0-0.3,0-0.7,0-1c0-0.9,0.1-1.8,0.1-2.6
		c0-8.6,0-17.1,0-25.7c0-0.8-0.1-1.6-0.1-2.4c0-2.7,0.1-5.4,0.1-8.1c0-7.7,0-15.3,0.1-23c6.1,0,12.3,0,18.4,0c14.7,0,29.4,0,44.1,0
		c0.9,0,1.7,0,2.9,0c0.1,2,0.2,3.9,0.3,5.7c0,4.6,0,9.3,0,13.9c0,4.8,0,9.6,0,14.4c0,3,0,6.1,0,9.1c0,2.6,0,5.1,0,7.7
		c0,2.6,0,5.1,0,7.7c0,3.7,0,7.4,0,11c0,0.9-0.1,1.8-0.1,2.6c0,11.6,0,23.2,0,34.8c0,0.9,0,1.7,0,2.7c-0.7,0.1-1.2,0.3-1.7,0.3
		c-20.8,0-41.5,0-62.3,0C201.4,418.2,200.9,418.1,200.5,418.1z"/>
	<path fill="#FDF000" d="M199.9,165.6c0,11.5,0,23.1,0,34.6c-2-0.1-4.1,0.9-6-0.4c-0.3-0.2-0.9,0.2-1.4,0.2c-3-0.1-5.9,1.4-8.9-0.1
		c-0.5-0.2-1.2,0.1-1.8,0.2c-1.3,0.2-2.7,0.5-4,0.5c-2.4,0-4.7-0.3-7.1-0.3c-4.1,0.1-8.1,0.2-12.1,0.4c-1.1,0.1-1.8-0.4-2.2-1.4
		c0-11.2,0-22.4,0-33.5c0.6,1.3,1.6,1.8,3.1,1.8c3.4,0,6.9,0,10.1-1.3c0.4-0.2,0.9-0.2,1.4-0.2c3.5,0.1,7,0.3,10.5,0.4
		c1.4,0,2.8-0.4,4.3-0.5c1.8-0.1,3.6,0,5.4,0c1.7,0,3.3,0.1,5,0C197.4,165.9,198.6,165.8,199.9,165.6z"/>
	<path fill="#020000" d="M373.5,163.2c0.7-0.2,1.5-0.4,2.2-0.5c5.4,0,10.9,0,16.3,0c0.8,0,1.6,0,2.7,0c0-7.3,0-14.5,0-22
		c7.5,0,14.8,0,22,0c0.1,7,0.1,13.9,0.2,21.1c7.6,0,14.8,0,22.1,0c0.1,0.1,0.1,0.3,0.2,0.4c-0.1,1-0.1,1.9-0.1,2.9
		c0,12.7,0,25.4,0,38.1c0,0.9,0,1.9,0,3.1c-1.1,0-1.9,0-2.8,0c-20,0-40,0-60,0c-0.9,0-1.7-0.1-2.6-0.2c0-0.2,0-0.4-0.1-0.6
		c0-0.6,0.1-1.1,0.1-1.7c0-13,0-26,0-38.9C373.6,164.3,373.6,163.8,373.5,163.2z"/>
	<path fill="#FDF000" d="M329.5,202.6c0-11.5,0-23,0-34.6c8.2,0,16.4,0.1,24.6,0c2.4,0,4.8-0.7,7.3-1c0.8-0.1,1.7,0,2.6,0
		c1.7,0,3.5,0.1,5.2,0.2c1.3,0.1,2.7,0.3,4,0.5c0,11.5,0,23,0,34.5c-1.9,0.4-3.7,0.8-5.6-0.2c-0.5-0.3-1.4,0-2.1,0
		c-2,0.2-4,0.9-5.9,0.6c-2.7-0.4-5.2-0.5-7.9,0c-2.1,0.4-4.4-0.2-6.6-0.3c-0.9,0-1.8,0-2.6,0.1c-1.2,0.1-2.4,0.3-3.6,0.3
		C335.7,202.6,332.6,202.6,329.5,202.6z"/>
	<path fill="#FAF800" d="M439.1,162.2c-0.1-0.1-0.1-0.3-0.2-0.4c-0.7-0.2-1.5-0.5-2.2-0.5c-2.1-0.1-4.3-0.1-6.4-0.1
		c0-1.5,1.2-1.7,2.2-1.7c2.6,0,5.4-0.8,7.9,0.9c0.4,0.3,1.1,0.2,1.6,0c2.1-0.9,4.2-0.7,6.3-0.3c0.8,0.1,1.7,0,2.6,0
		c0.8,0,1.6-0.4,2.4-0.2c1.4,0.3,2.8,0.2,4.2,0c1.2-0.2,2.4,0,3.6-0.1c0.1,0.5,0.2,1,0.3,1.6c0.7,1,1.7,0.7,2.6,0.7
		c5.3,0,10.7,0,16,0c0.6,0,1.1,0,1.7,0c1.1,0,1.6,0.6,1.6,1.6c0,1.1,0,2.2,0,3.3c0,4.6,0,9.2,0,13.9c-1.4-1-3-1.2-4.5-0.9
		c-3.5,0.7-6.9,0.6-10.4,0.5c-2.4-0.1-4.9,0-7.3,0c-3.6-0.1-7.3-0.3-10.9-0.4c-0.6,0-1.3,0.2-1.9,0.2c-0.7,0.1-1.5,0.4-2.1,0.1
		c-1.7-0.6-3.2-0.2-4.6,0.6c-0.8,0.4-1.3,0.2-1.8-0.5c0-5.3,0-10.5-0.1-15.8C439.4,163.9,439.2,163,439.1,162.2z"/>
	<path fill="#B7C42C" d="M430.2,161.2c2.1,0,4.3,0,6.4,0.1c0.7,0,1.5,0.3,2.2,0.5c-7.2,0-14.5,0-22.1,0c-0.1-7.1-0.1-14.1-0.2-21.1
		c0.2,0.8,0.6,1.6,0.6,2.4c0.1,5.3,0.1,10.5,0.1,15.8c0,0.7,0,1.4,0,2.3c3.4,0,6.5,0,9.6,0C428,161.2,429.1,161.2,430.2,161.2z"/>
	<path fill="#B7C42C" d="M373.1,202.1c0-11.5,0-23,0-34.5c0.1-1.4,0.3-2.9,0.4-4.3c0,0.6,0.1,1.1,0.1,1.7c0,13,0,26,0,38.9
		c0,0.6-0.1,1.1-0.1,1.7C373.4,204.4,373.2,203.2,373.1,202.1z"/>
	<path fill="#FAF800" d="M426.9,161.2c-3.1,0-6.2,0-9.6,0c0-0.9,0-1.6,0-2.3c2.1,1,4.4,0.6,6.6,0.6
		C425.3,159.5,426.4,159.7,426.9,161.2z"/>
	<path fill="#FEF400" d="M500,180.1c0-1.8,0-3.6,0-5.4c0.8-0.9-0.2-2.7,1.3-3.1c1.1-0.3,2.3-0.1,3.5-0.1c7.6,0,15.2,0,22.8,0
		c0.5,0,1,0.1,1.4-0.1c2.8-1.3,5.8-0.7,8.7-0.9c1.7-0.1,3.5-0.4,5.2-0.4c2.7,0,5.4,0.3,8.1,0.3c4.4,0.1,8.8,0.1,13.1,0
		c2.1,0,4.3-0.3,6.4-0.4c1.7-0.2,3.4-0.4,5.2-0.1c1.9,0.3,4-0.3,5.9-0.3c2.1,0,4.3,0.4,6.4,0.4c2.5,0,5.1-0.2,7.6-0.5
		c2.8-0.3,5.5-0.6,8.3-0.5c3.6,0.2,7.3-0.2,10.9-0.3c0.7,0,1.4,0.1,2.1,0.2c1,0.1,2.1,0.2,3.1,0.2c3.8-0.1,7.6-0.3,11.4-0.4
		c0.8,0,1.6,0.2,2.4,0.3c0.6,0.1,1.3,0.2,1.9,0.1c4.9-0.1,9.9-0.3,14.8-0.4c0.9,0,1.9,0.3,2.8,0.4c0,3.8,0,7.7,0,11.5
		c-1.3-0.2-2.7-0.4-4-0.5c-5.6-0.3-11.2,0.6-16.7-0.7c-0.2-0.1-0.5,0-0.7,0c-3.3,0.2-6.6,1-10,0.3c-0.5-0.1-1,0-1.4,0
		c-1.7,0.1-3.5,0.4-5.2,0.4c-4.1,0.1-8.3,0-12.4,0c-0.9,0-1.7,0.2-2.6,0.2c-2.9,0.1-5.8,0.4-8.6,0.1c-2.9-0.3-5.7-0.5-8.6,0
		c-0.9,0.2-2,0-2.8-0.3c-1.1-0.5-2.1-0.4-3.2-0.2c-1.5,0.3-3.1,0.9-4.5,0.5c-3-0.8-5.9,0.1-8.8,0c-2.2-0.1-4.2-0.6-6.4-0.6
		c-2.2-0.1-4.4,0.5-6.6,0.7c-0.2,0-0.5,0-0.7,0c-2-0.5-3.9-0.7-5.8,0.4c-0.3,0.2-0.9-0.1-1.4-0.1c-0.9-0.1-1.7-0.2-2.6-0.2
		c-2.8-0.1-5.5,0.6-8.3,0c-0.7-0.1-1.4,0.2-2.1,0.2c-4.1,0-8.1,0-12.2,0c-2.5,0-5.1-0.1-7.6,0c-2.3,0.1-4.6,0.5-6.8-0.4
		c-0.5-0.2-1.3-0.1-1.8,0.1C500.8,181,500.4,180.6,500,180.1z"/>
	<path fill="#FFEB01" d="M500,201.2c0-3.5,0-7.1,0-10.6c1-0.1,2.1-0.2,3.1-0.2c4.1-0.1,8.1-0.2,12.2-0.1c1.8,0,3.7,0.5,5.5,0.3
		c3.3-0.4,6.6-0.6,10-0.4c2.1,0.1,4.3-0.5,6.4-0.3c3,0.2,6,0.2,9,0.1c1.1,0,2.2,0.3,3.3,0.3c2.1-0.1,4.1-0.4,6.2-0.4
		c2.4,0,4.9,0.3,7.3,0.4c0.6,0,1.3,0,1.9,0c3.1-0.1,6.2-0.1,9.3-0.2c2,0,4.1,0,6.1-0.1c2.3-0.1,4.6-0.7,6.9-0.4
		c5.1,0.5,10.2,0.6,15.3,0c0.5-0.1,1.1,0,1.7,0.1c1.2,0.1,2.4,0.4,3.6,0.3c6.5-0.1,12.9-0.3,19.4-0.4c3.7-0.1,7.5,0,11.2,0
		c1.2,0,2.4-0.2,3.6-0.3c0.7,0,1.4-0.1,2.1,0c3.2,0.3,6.3,0.5,9.5,0.8c0,3.5,0,7,0,10.6c-3.5-0.6-7-0.7-10.5-0.1
		c-0.5,0.1-0.9,0-1.4-0.1c-0.6-0.1-1.1-0.3-1.6-0.2c-3,0.1-6,0.3-9,0.4c-0.9,0-1.9-0.1-2.9-0.2c-1.2-0.1-2.5-0.5-3.5-0.1
		c-2.2,0.7-4.4,0.5-6.6,0.8c-0.1,0-0.2,0-0.2,0c-3.9-1.1-7.9,0.4-11.9-0.1c-2.7-0.3-5.4,0.1-8.1,0.1c-1,0-2.1-0.2-3.1-0.3
		c-0.8-0.1-1.6-0.1-2.4,0c-3.3,0.2-6.5,0.8-10,0.5c-4.6-0.5-9.3-0.1-13.9-0.1c-2.8,0-5.5,0.8-8.3,0c-0.6-0.2-1.3-0.1-1.9,0
		c-3.9,0.6-7.8-0.1-11.7,0c-2.9,0.1-5.9,0.4-8.8,0.4c-2.6,0-5.2-0.4-7.9-0.4c-1.6,0-3.2,0.2-4.8,0.4c-0.2,0-0.5,0.1-0.7,0.1
		c-5.6-0.4-11.3,0.3-16.9,0.1c-1.8-0.1-3.6,0.3-5.5,0.4C501.4,201.6,500.7,201.3,500,201.2z"/>
	<path fill="#FEDF01" d="M373.1,202.1c0.1,1.1,0.3,2.2,0.4,3.4c0,0.2,0,0.4,0.1,0.6c0.7,1.3,2,0.8,3,0.8c19.1,0,38.2,0,57.3,0
		c1.2,0,2.4,0,3.6,0c0.8,0,1.6,0,2-0.9c1.2-0.3,2.4-0.7,3.6-0.9c0.8-0.1,1.6,0,2.4-0.1c2.8-0.5,5.5-0.5,8.3,0c1,0.2,2.1,0,3.1-0.1
		c0.9-0.1,1.9-0.3,2.8-0.3c5.8,0,11.7,0,17.5,0c0.6,0,1.5-0.2,1.9,0.2c1.4,1.2,2.7,0.3,4-0.2c0,6.4,0,12.8,0,19.2
		c-2.7-0.5-5.4-0.6-8.2-0.6c-3.4,0-6.8-0.6-10.2,0c-0.7,0.1-1.6-0.3-2.4-0.3c-1.7,0-3.5,0.3-5.2,0.3c-1.7,0-3.3,0-5-0.1
		c-0.6,0-1.3-0.3-1.9-0.2c-4.1,0.6-8.3,0.6-12.4,0c-0.5-0.1-1.1,0-1.7,0.1c-0.5,0.1-1,0.3-1.4,0.2c-2.8-0.8-5.5,0.2-8.3,0.3
		c-4.4,0.1-8.9,0.3-13.3,0.2c-3.2,0-6.3-0.4-9.5-0.4c-2.8,0-5.6,0.3-8.3,0.4c-3,0.1-5.9,0-8.9,0c-0.9,0-1.9-0.3-2.8-0.2
		c-1.1,0-2.2,0.2-3.3,0.3c-0.7,0.1-1.4,0.4-2.1,0.4c-3.4-0.1-6.7-0.3-10.1-0.3c-2.9,0-5.9,0.5-8.8,0.3c-5-0.3-10,0.2-15,0.1
		c-5-0.1-9.9,0-14.9,0c0-7.2,0-14.4,0-21.6c3.1,0,6.2,0,9.3,0c1.2,0,2.4-0.2,3.6-0.3c0.9-0.1,1.8-0.1,2.6-0.1
		c2.2,0.1,4.5,0.7,6.6,0.3c2.7-0.5,5.2-0.4,7.9,0c1.9,0.3,3.9-0.4,5.9-0.6c0.7-0.1,1.6-0.3,2.1,0
		C369.4,202.9,371.2,202.5,373.1,202.1z"/>
	<path fill="#FEC601" d="M483,241c0,6.4,0.1,12.9-0.1,19c-2.2,0.1-4.1,0.2-6.1,0.2c-11.5,0-23,0-34.5,0c-2.5,0-2.9-0.4-2.9-2.9
		c0-4.9,0-9.9,0.1-14.8c2.9-0.2,5.9-0.3,8.8-0.5c2.2-0.1,4.4-0.3,6.7-0.4c0.6,0,1.1,0,1.7,0c1.3,0.1,2.7,0.3,4,0.4
		c2.9,0.1,5.8-0.2,8.8-0.1C474,242,478.5,241.3,483,241z"/>
	<path fill="#FEC601" d="M373.1,239.6c0,5.1,0,10.2,0,15.4c-0.7,0.2-1.2,0.4-1.7,0.4c-7.1,0.2-14.2,0.4-21.3,0.5
		c-1.3,0-2.5-0.2-3.8-0.3c-1-0.1-1.9-0.1-2.9-0.1c-3.7,0.1-7.5,0.3-11.2,0.4c-2.3,0-2.7-0.5-2.7-2.6c0-4.4,0-8.8,0-13.2
		C344,239.1,358.5,239.8,373.1,239.6z"/>
	<path fill="#FEDF01" d="M266.6,207.4c-0.5,0-0.9-0.1-1.4-0.1C265.6,207.3,266.1,207.3,266.6,207.4z"/>
	<path fill="#FDF000" d="M653.4,189.6c-3.2-0.3-6.3-0.6-9.5-0.8c-0.7-0.1-1.4,0-2.1,0c-1.2,0.1-2.4,0.3-3.6,0.3c-3.7,0-7.5,0-11.2,0
		c-6.5,0.1-12.9,0.3-19.4,0.4c-1.2,0-2.4-0.2-3.6-0.3c-0.6,0-1.1-0.1-1.7-0.1c-5.1,0.7-10.2,0.5-15.3,0c-2.3-0.2-4.6,0.3-6.9,0.4
		c-2,0.1-4.1,0.1-6.1,0.1c-3.1,0.1-6.2,0.1-9.3,0.2c-0.6,0-1.3,0.1-1.9,0c-2.4-0.1-4.9-0.4-7.3-0.4c-2.1,0-4.1,0.3-6.2,0.4
		c-1.1,0-2.2-0.3-3.3-0.3c-3,0.1-6,0.2-9-0.1c-2.1-0.2-4.3,0.4-6.4,0.3c-3.3-0.1-6.6,0-10,0.4c-1.8,0.2-3.6-0.3-5.5-0.3
		c-4.1,0-8.1,0.1-12.2,0.1c-1,0-2.1,0.1-3.1,0.2c0-3.5,0-7,0-10.5c0.4,0.5,0.8,0.9,1.6,0.4c0.5-0.3,1.3-0.3,1.8-0.1
		c2.3,1,4.5,0.5,6.8,0.4c2.5-0.1,5.1,0,7.6,0c4.1,0,8.1,0,12.2,0c0.7,0,1.5-0.4,2.1-0.2c2.8,0.5,5.5-0.1,8.3,0
		c0.9,0,1.7,0.2,2.6,0.2c0.5,0,1,0.3,1.4,0.1c1.9-1,3.8-0.8,5.8-0.4c0.2,0.1,0.5,0,0.7,0c2.2-0.3,4.4-0.8,6.6-0.7
		c2.1,0.1,4.2,0.6,6.4,0.6c2.9,0.1,5.8-0.8,8.8,0c1.3,0.4,3-0.2,4.5-0.5c1.1-0.2,2.1-0.4,3.2,0.2c0.8,0.4,1.9,0.5,2.8,0.3
		c2.9-0.5,5.7-0.3,8.6,0c2.8,0.3,5.7-0.1,8.6-0.1c0.9,0,1.7-0.2,2.6-0.2c4.1,0,8.3,0,12.4,0c1.7,0,3.5-0.3,5.2-0.4
		c0.5,0,1-0.1,1.4,0c3.3,0.8,6.6-0.1,10-0.3c0.2,0,0.5,0,0.7,0c5.5,1.3,11.1,0.5,16.7,0.7c1.3,0.1,2.7,0.3,4,0.5
		C653.4,183.6,653.4,186.6,653.4,189.6z"/>
	<path fill="#FA9202" d="M653.8,306.4c0,0,0,0.2,0,0.2c0,0-0.2,0-0.2,0s-0.2,0-0.2,0C653.6,306.5,653.7,306.5,653.8,306.4z"/>
	<path fill="#FF7000" d="M780.1,308.4c-0.8,0-1.6-0.1-2.4-0.1c-20.2,0-40.4,0-60.6,0c-0.9,0-1.8,0.4-2.7,0.5c0.4-0.3,0.7-0.9,1.1-1
		c0.6-0.2,1.3-0.1,1.9-0.1c19.9,0,39.8,0,59.8,0C778.2,307.7,779.3,307.3,780.1,308.4z"/>
	<path fill="#FE6301" d="M780.2,323.6c0-0.5,0-1,0-1.4c0.1,0,0.3,0,0.4,0c0,0.5,0,1,0,1.5c0,0-0.2,0-0.2,0L780.2,323.6z"/>
	<path fill="#FFD001" d="M610.8,229.9c0.1-0.4,0.3-0.9,0.4-1.3c0.2-1.9,1.4-3.1,3.3-2.8c1.6,0.3,3,0.2,4.5-0.2c0.1,0,0.2,0,0.2,0
		c3.2,0.1,6.3,0.2,9.5,0.3c0.5,0,0.9-0.1,1.4-0.1c1.2,0,2.4,0,3.6,0c0.9,0,1.7,0,2.6,0c0.3,0,0.6-0.2,0.9-0.2c5,0.4,10-0.4,15,0
		c0.3,0,0.6,0.2,1.2,0.3c0.1,3.6,0,7.3,0,10.9c0,3.6,0,7.2,0,10.8c-1.4,0.3-2.9,0.9-4.3,0.9c-3.9,0-7.8-0.7-11.7-0.3
		c-6.1,0.6-12.3,0.3-18.4,0.3c-2.4,0-4.9-0.4-7.5-0.6C610.5,242,610.8,236,610.8,229.9z"/>
	<path fill="#FEC601" d="M544,254.9c-0.1,0.7-0.1,1.4-0.2,2.4c-2.8,0-5.4,0.1-8.1,0.1c-3.5,0.1-7,0.3-10.5,0.1
		c-3.2-0.2-6.4,0.1-9.6,0.3c-3.5,0.2-7,0.2-10.5,0.3c-0.6,0-1.1,0.2-1.7,0.1c-2.7-0.5-3.4-0.4-3.5-3.7c-0.1-4.1,0-8.1,0-12.2
		c0.2-1,0.5-2,0.7-3.1c4.3,0,8.6,0,12.8-0.2c3.9-0.1,7.8-0.4,11.7-0.4c2.2,0,4.4,0.2,6.6,0.2c2,0,3.9-0.1,5.9-0.2c2,0,3.9,0,6.2,0
		c0,3,0.1,5.7,0.1,8.3C544,249.6,544,252.2,544,254.9z"/>
	<path fill="#FE7F01" d="M439.4,318.3c0-4.6,0-9.3,0-13.9c0.8-0.2,1.7-0.5,2.5-0.6c0.9-0.2,1.7-0.3,2.6-0.3c3.2,0.1,6.5,0.4,9.7,0.4
		c1.7,0,3.3-0.4,5-0.4c1.8,0,3.6,0.4,5.5,0.4c2.1,0,4.1-0.5,6.2-0.4c2.6,0.1,5.2,0.1,7.8,0c1.3-0.1,2.6,0.3,4.3,0.6
		c0,4.7,0,9.3,0,13.8c-2.6-0.5-5.2-0.7-7.8,0c-0.3,0.1-0.6,0-1,0C462.7,318,451,317.3,439.4,318.3z"/>
	<path fill="#FF7000" d="M439.4,318.3c11.6-1,23.2-0.3,34.9-0.5c0.3,0,0.7,0,1,0c2.6-0.7,5.2-0.5,7.8,0c0.1,1.9,0.2,3.7,0.4,5.6
		c0,1.6,0,3.3,0,4.9c-0.9-0.8-2-0.9-3.1-0.9c-3.8,0.2-7.6,0.3-11.5,0.5c-3.3,0.1-6.7,0.3-10,0.4c-1,0-2.1,0-3.1-0.1
		c-1.3-0.1-2.5-0.4-3.8-0.3c-4.1,0.1-8.3,0.3-12.4,0.5C439.4,325,439.4,321.7,439.4,318.3z"/>
	<path fill="#FEDF01" d="M156.3,199.3c0.4,1,1.1,1.4,2.2,1.4c4-0.2,8.1-0.4,12.1-0.4c2.4,0,4.7,0.3,7.1,0.3c1.3,0,2.7-0.3,4-0.5
		c0.6-0.1,1.4-0.4,1.8-0.2c3,1.5,5.9,0,8.9,0.1c0.5,0,1.1-0.4,1.4-0.2c2,1.2,4,0.3,6,0.4c0,6.2,0,12.4,0,18.6c0,2.5-0.1,4.9-0.2,7.5
		c-2.6,0.4-5,0.3-7.3,0.1c-0.5-0.1-0.9-0.2-1.4-0.2c-4.1,0.1-8.3,0.3-12.4,0.4c-2.4,0.1-4.8,0-7.1,0c-1,0-2.1,0.2-3.1,0.3
		c-1,0.1-2.1,0.3-3.1,0.1c-2.7-0.6-5.4-0.5-8.4,0c-0.2-1.3-0.7-2.5-0.7-3.7C156.2,215.3,156.2,207.3,156.3,199.3z"/>
	<path fill="#FE5100" d="M483,335.6c0,5.2,0,10.3,0,15.6c-1.5-0.1-2.7-0.3-3.9-0.3c-8.3,0.1-16.6,0.3-24.8,0.5
		c-2.2,0.1-4.4,0.4-6.6,0.4c-1.3,0-2.7-0.3-4-0.3c-1.3-0.1-2.5,0-4.1,0c-0.5-2.3-0.2-4.8-0.2-7.3c-0.1-2.5,0-5.1,0.1-7.7
		c3.9-0.2,7.8-0.3,11.7-0.5c5.4-0.2,10.8,0.5,16.2-0.4c0.5-0.1,0.9,0,1.4,0.1c1.2,0.1,2.4,0.3,3.5,0.3
		C475.9,335.9,479.5,335.7,483,335.6z"/>
	<path fill="#FE2600" d="M483.1,367.7c-12.4,0-24.9-0.3-37.3,0.1c-8.6,0.3-17.2,0.3-25.8,0.4c-1,0-2,0.3-3.1,0.4
		c0.1-2.1,0.2-4.1,0.3-6.1c1.3-0.7,2.3-0.9,3.6-0.8c1.5,0.1,3-0.2,4.5-0.2c9.9,0,19.8,0.3,29.7-0.1c8.3-0.3,16.6-0.3,24.9-0.4
		c0.9,0,1.9,0.1,2.9,0.1C483.3,363.4,483,365.6,483.1,367.7z"/>
	<path fill="#FE6301" d="M483,335.6c-3.6,0.2-7.1,0.3-10.7,0.4c-1.2,0-2.4-0.2-3.5-0.3c-0.5,0-1-0.2-1.4-0.1
		c-5.4,0.9-10.8,0.2-16.2,0.4c-3.9,0.2-7.8,0.3-11.7,0.5c0-2.7,0-5.4,0-8.2c4.1-0.2,8.3-0.4,12.4-0.5c1.3,0,2.5,0.2,3.8,0.3
		c1,0.1,2.1,0.1,3.1,0.1c3.3-0.1,6.7-0.3,10-0.4c3.8-0.2,7.6-0.3,11.5-0.5c1.2-0.1,2.2,0.1,3.1,0.9
		C483.3,330.7,483.2,333.1,483,335.6z"/>
	<path fill="#FD8701" d="M372.2,311.6c-3.5-0.8-7-0.5-10.4-0.3c-1.2,0.1-2.5,0.5-3.5,0.2c-2.9-0.8-5.7,0.2-8.5,0.3
		c-0.6,0-1.1,0.3-1.6,0.2c-3.7-0.7-7.4-0.4-11.2,0c-2.4,0.3-4.9,0.1-7.4,0.1c0-3.5,0-7,0-10.8c1-0.1,1.9-0.2,2.7-0.2
		c3-0.2,6-0.3,9.1-0.5c0.3,0,0.6-0.1,1,0c4.1,0.6,8.2-0.2,12.4,0c3.9,0.2,7.8,0,11.7,0.1c1.3,0,2.7,0.2,4,0.5
		c1.7,0.3,1.8,0.5,1.9,2.2C372.2,306,372.2,308.8,372.2,311.6z"/>
	<path fill="#FE3300" d="M329.5,365.8c0-1.6,0-3.2,0-4.8c0.3-0.5,0.6-1.2,1-1.4c1.1-0.3,2.3-0.5,3.5-0.6c16.1-0.2,32.2-0.3,48.3-0.5
		c3.6,0,7.2,0,10.8,0c0.5,0,0.9,0.1,1.6,0.3c0.1,1.4,0.1,2.7,0.1,4.1c0,0.6,0,1.3,0,1.9c-1.1-0.1-2.2-0.3-3.3-0.4
		c-0.9-0.1-1.8-0.1-2.6-0.1c-1.8,0.1-3.6,0.4-5.5,0.4c-6.2,0.1-12.4,0-18.7,0c-0.8,0-1.6,0-2.4,0.1c-3.3,0.6-6.6,0.6-10,0
		c-0.5-0.1-1.1,0-1.7,0c-1.5,0.1-3,0.3-4.5,0.4c-4.3,0.1-8.6,0-12.9,0C332,365.4,330.7,365.6,329.5,365.8z"/>
	<path fill="#FF7000" d="M156.2,330.3c0-3.5,0-7,0-10.6c9.5-1,18.9-0.3,28.4-0.5c4.1-0.1,8.3-0.4,12.4-0.5c2.6-0.1,2.8,0.2,2.8,2.9
		c0,2.7,0,5.4,0,8.1C185.3,330,170.8,330.1,156.2,330.3z"/>
	<path fill="#FE6301" d="M156.2,330.3c14.5-0.2,29.1-0.3,43.6-0.5c0,3.2,0,6.4,0,9.6c0,0.2,0,0.3,0,0.5c-0.9-0.1-1.7-0.3-2.6-0.3
		c-2.7,0-5.4,0.1-8,0.3c-2,0.1-4,0.3-5.9,0.4c-0.6,0-1.3-0.1-1.9-0.1c-1-0.1-2.1-0.3-3.1-0.3c-7.3,0.1-14.7-0.3-22,0.5
		C156.2,337,156.2,333.6,156.2,330.3z"/>
	<path fill="#FD8701" d="M156.2,310.1c0-0.5,0-1,0-1.5c3.8,0,7.6,0,11.4,0c0,0.2,0.1,0.3,0.1,0.5c-0.4,0.2-0.7,0.4-1.1,0.4
		c-1.4,0.1-2.9,0-4.3,0C160.3,309.8,158.3,310,156.2,310.1z"/>
	<path fill="#FD4101" d="M759.1,354.3c0-0.3,0-0.6,0-1c0,0,0.1-0.1,0.1-0.1c0-0.1-0.1-0.2-0.1-0.3c-0.1-0.7,0.2-1,0.9-1
		c0.9,0,1.8,0,2.6,0c5,0,10.1,0,15.1,0c0.9,0,2,0.2,2.5-0.9c0.2-1.1,0.5-2.3,0.7-3.5c0.3-0.1,0.6-0.3,0.9-0.3
		c3.8-0.2,7.6-0.5,11.5-0.5c10.3-0.1,20.6,0,30.9,0c0,2.1,0,4.1,0,6.3c-0.6,0.2-1.2,0.4-1.7,0.4c-6.7,0.2-13.4,0.4-20.1,0.5
		c-6.5,0.1-13.1,0-19.6,0c-1.6,0-3.2,0.2-4.7,0.4c-0.2,0-0.5,0.1-0.7,0.1c-3.1-0.8-6.2,0.2-9.2,0.1
		C765.2,354.2,762.1,354.3,759.1,354.3z"/>
	<path fill="#FE5100" d="M156.2,340.4c7.3-0.8,14.7-0.4,22-0.5c1,0,2.1,0.2,3.1,0.3c0.6,0.1,1.3,0.1,1.9,0.1c2-0.1,4-0.3,5.9-0.4
		c2.7-0.1,5.4-0.2,8-0.3c0.9,0,1.7,0.2,2.6,0.3c0,4.8,0,9.5,0,14.6c-3.6,0.1-7,0.2-10.4,0.3c-10,0.2-20.1,0.3-30.1,0.5
		c-0.9,0-1.9-0.1-3.1-0.2c0-2.6-0.1-5.1-0.1-7.5C156.2,345.2,156.2,342.8,156.2,340.4z"/>
	<path fill="#FE2600" d="M200.3,370.1c0,0.3,0,0.7,0,1c-4.6,0-9.3-0.3-13.9,0.1c-9,0.8-18,0.2-27,0.4c-0.9,0-1.9-0.1-2.9-0.1
		c-0.5-2.5-0.3-4.8-0.2-7c4.2-0.9,8.4-0.4,12.6-0.5c4.7-0.1,9.4,0,14.1,0c4.5-0.1,8.9-0.3,13.4-0.5c0.5,0,1,0,1.4,0
		c1.6,0.1,1.9,0.4,2,2c0.1,0.9,0,1.8,0,2.6C199.9,368.7,200.1,369.4,200.3,370.1z"/>
	<path fill="#FE2600" d="M329.5,365.8c1.3-0.2,2.5-0.4,3.8-0.5c4.3-0.1,8.6,0,12.9,0c1.5,0,3-0.2,4.5-0.4c0.6,0,1.1-0.1,1.7,0
		c3.3,0.6,6.6,0.6,10,0c0.8-0.1,1.6-0.1,2.4-0.1c6.2,0,12.4,0,18.7,0c1.8,0,3.6-0.3,5.5-0.4c0.9,0,1.8,0,2.6,0.1
		c1.1,0.1,2.2,0.2,3.3,0.4c0,1.3,0,2.5,0,4c-0.8,0.1-1.4,0.3-2,0.3c-10.9,0.2-21.7,0.3-32.6,0.5c-3.8,0-7.5-0.3-11.3,0.1
		c-5.5,0.6-11,0.2-16.5,0.4c-0.9,0-1.7-0.1-2.9-0.1C329.5,368.5,329.5,367.1,329.5,365.8z"/>
	<path fill="#FFEB01" d="M483.1,204.5c-1.3,0.5-2.5,1.3-4,0.2c-0.4-0.3-1.2-0.1-1.9-0.2c-5.8,0-11.7,0-17.5,0
		c-0.9,0-1.9,0.2-2.8,0.3c-1,0.1-2.1,0.2-3.1,0.1c-2.8-0.5-5.5-0.5-8.3,0c-0.8,0.2-1.6,0-2.4,0.1c-1.2,0.2-2.4,0.6-3.6,0.9
		c0-8.5,0-17,0-25.4c0.4,0.7,1,0.9,1.8,0.5c1.4-0.7,2.9-1.1,4.6-0.6c0.6,0.2,1.4-0.1,2.1-0.1c0.6-0.1,1.3-0.2,1.9-0.2
		c3.6,0.1,7.3,0.3,10.9,0.4c2.4,0.1,4.9-0.1,7.3,0c3.5,0.2,7,0.2,10.4-0.5c1.6-0.3,3.2,0,4.5,0.9
		C483.1,188.9,483.1,196.7,483.1,204.5z"/>
	<path fill="#FE3300" d="M759.1,352.9c0,0.1,0.1,0.2,0.1,0.3c0,0-0.1,0.1-0.1,0.1C759.1,353.2,759.1,353,759.1,352.9z"/>
	<path fill="#B7C42C" d="M439.5,180.5c0,8.5,0,17,0,25.4c-0.4,0.9-1.2,0.9-2,0.9c-1.2,0-2.4,0-3.6,0c-19.1,0-38.2,0-57.3,0
		c-1,0-2.3,0.6-3-0.8c0.9,0.1,1.7,0.2,2.6,0.2c20,0,40,0,60,0c0.9,0,1.7,0,2.8,0c0-1.2,0-2.1,0-3.1c0-12.7,0-25.4,0-38.1
		c0-1,0.1-1.9,0.1-2.9c0.1,0.8,0.3,1.7,0.3,2.5C439.5,170,439.5,175.3,439.5,180.5z"/>
</g>
</svg>
