<?xml version="1.0" encoding="utf-8"?>
<!-- Generator: Adobe Illustrator 26.5.0, SVG Export Plug-In . SVG Version: 6.00 Build 0)  -->
<svg version="1.0" id="_x2014_ÎÓÈ_x5F_1" xmlns="http://www.w3.org/2000/svg" xmlns:xlink="http://www.w3.org/1999/xlink"
	 x="0px" y="0px" width="7457.8px" height="1535.2px" viewBox="0 0 7457.8 1535.2" enable-background="new 0 0 7457.8 1535.2"
	 xml:space="preserve">
<g>
	<g>
		<rect x="4145.9" y="506.5" fill="#FFFFFF" width="84.6" height="84.7"/>
	</g>
	<g>
		<rect x="4145.9" y="421.8" fill="#FFFFFF" width="84.6" height="84.7"/>
	</g>
	<g>
		<rect x="4061.3" y="591.2" fill="#FFFFFF" width="84.7" height="84.6"/>
	</g>
	<g>
		<rect x="4061.3" y="506.5" fill="#FFFFFF" width="84.7" height="84.7"/>
	</g>
	<g>
		<rect x="3976.7" y="591.2" fill="#FFFFFF" width="84.6" height="84.6"/>
	</g>
	<g>
		<polygon fill="#F01449" points="7023.4,845 7023.4,929.7 6938.8,929.7 6938.8,1014.3 6854.1,1014.3 6854.1,1098.9 6769.6,1098.9 
			6684.9,1098.9 6600.3,1098.9 6515.6,1098.9 6431,1098.9 6346.4,1098.9 6261.8,1098.9 6177.1,1098.9 6092.5,1098.9 6007.8,1098.9 
			5923.2,1098.9 5838.6,1098.9 5753.9,1098.9 5669.3,1098.9 5584.6,1098.9 5500,1098.9 5415.4,1098.9 5330.8,1098.9 5246.1,1098.9 
			5161.5,1098.9 5076.8,1098.9 4992.3,1098.9 4907.6,1098.9 4823,1098.9 4738.3,1098.9 4653.7,1098.9 4569.1,1098.9 4484.5,1098.9 
			4399.8,1098.9 4315.2,1098.9 4230.5,1098.9 4145.9,1098.9 4145.9,1014.3 4061.3,1014.3 4061.3,929.7 3976.7,929.7 3892,929.7 
			3892,1014.3 3976.7,1014.3 3976.7,1098.9 4061.3,1098.9 4061.3,1183.5 4145.9,1183.5 4230.5,1183.5 4315.2,1183.5 4399.8,1183.5 
			4484.5,1183.5 4569.1,1183.5 4653.7,1183.5 4738.3,1183.5 4823,1183.5 4907.6,1183.5 4992.3,1183.5 5076.8,1183.5 5161.5,1183.5 
			5246.1,1183.5 5330.8,1183.5 5415.4,1183.5 5500,1183.5 5584.6,1183.5 5669.3,1183.5 5753.9,1183.5 5838.6,1183.5 5923.2,1183.5 
			6007.8,1183.5 6092.5,1183.5 6177.1,1183.5 6261.8,1183.5 6346.4,1183.5 6431,1183.5 6515.6,1183.5 6600.3,1183.5 6684.9,1183.5 
			6769.6,1183.5 6854.1,1183.5 6938.8,1183.5 6938.8,1098.9 7023.4,1098.9 7023.4,1014.3 7108.1,1014.3 7108.1,929.7 7108.1,845 		
			"/>
	</g>
	<g>
		<polygon fill="#FF356F" points="7023.4,506.5 7023.4,421.8 6938.8,421.8 6854.1,421.8 6769.6,421.8 6684.9,421.8 6600.3,421.8 
			6515.6,421.8 6431,421.8 6346.4,421.8 6261.8,421.8 6177.1,421.8 6092.5,421.8 6007.8,421.8 5923.2,421.8 5838.6,421.8 
			5753.9,421.8 5669.3,421.8 5584.6,421.8 5500,421.8 5415.4,421.8 5330.8,421.8 5246.1,421.8 5161.5,421.8 5076.8,421.8 
			4992.3,421.8 4907.6,421.8 4823,421.8 4738.3,421.8 4653.7,421.8 4569.1,421.8 4484.5,421.8 4399.8,421.8 4315.2,421.8 
			4230.5,421.8 4230.5,506.5 4230.5,591.2 4145.9,591.2 4145.9,675.7 4061.3,675.7 3976.7,675.7 3976.7,591.2 3892,591.2 
			3892,675.7 3892,760.4 3892,845 3892,929.7 3976.7,929.7 4061.3,929.7 4061.3,1014.3 4145.9,1014.3 4145.9,1098.9 4230.5,1098.9 
			4315.2,1098.9 4399.8,1098.9 4484.5,1098.9 4569.1,1098.9 4653.7,1098.9 4738.3,1098.9 4823,1098.9 4907.6,1098.9 4992.3,1098.9 
			5076.8,1098.9 5161.5,1098.9 5246.1,1098.9 5330.8,1098.9 5415.4,1098.9 5500,1098.9 5584.6,1098.9 5669.3,1098.9 5753.9,1098.9 
			5838.6,1098.9 5923.2,1098.9 6007.8,1098.9 6092.5,1098.9 6177.1,1098.9 6261.8,1098.9 6346.4,1098.9 6431,1098.9 6515.6,1098.9 
			6600.3,1098.9 6684.9,1098.9 6769.6,1098.9 6854.1,1098.9 6854.1,1014.3 6938.8,1014.3 6938.8,929.7 7023.4,929.7 7023.4,845 
			7108.1,845 7108.1,760.4 7108.1,675.7 7108.1,591.2 7108.1,506.5 		"/>
	</g>
	<g>
		<polygon fill="#FF6B9A" points="6854.1,337.2 6769.6,337.2 6684.9,337.2 6600.3,337.2 6515.6,337.2 6431,337.2 6346.4,337.2 
			6261.8,337.2 6177.1,337.2 6092.5,337.2 6007.8,337.2 5923.2,337.2 5838.6,337.2 5753.9,337.2 5669.3,337.2 5584.6,337.2 
			5500,337.2 5415.4,337.2 5330.8,337.2 5246.1,337.2 5161.5,337.2 5076.8,337.2 4992.3,337.2 4907.6,337.2 4823,337.2 
			4738.3,337.2 4653.7,337.2 4569.1,337.2 4484.5,337.2 4399.8,337.2 4315.2,337.2 4230.5,337.2 4145.9,337.2 4061.3,337.2 
			4061.3,421.8 3976.7,421.8 3976.7,506.5 3892,506.5 3892,591.2 3976.7,591.2 4061.3,591.2 4061.3,506.5 4145.9,506.5 
			4145.9,421.8 4230.5,421.8 4315.2,421.8 4399.8,421.8 4484.5,421.8 4569.1,421.8 4653.7,421.8 4738.3,421.8 4823,421.8 
			4907.6,421.8 4992.3,421.8 5076.8,421.8 5161.5,421.8 5246.1,421.8 5330.8,421.8 5415.4,421.8 5500,421.8 5584.6,421.8 
			5669.3,421.8 5753.9,421.8 5838.6,421.8 5923.2,421.8 6007.8,421.8 6092.5,421.8 6177.1,421.8 6261.8,421.8 6346.4,421.8 
			6431,421.8 6515.6,421.8 6600.3,421.8 6684.9,421.8 6769.6,421.8 6854.1,421.8 6938.8,421.8 6938.8,337.2 		"/>
	</g>
	<g>
		<g>
			<polygon fill="#61284E" points="7108.1,506.5 7108.1,591.2 7108.1,675.7 7108.1,760.4 7108.1,845 7108.1,929.7 7108.1,1014.3 
				7192.7,1014.3 7192.7,929.7 7192.7,845 7192.7,760.4 7192.7,675.7 7192.7,591.2 7192.7,506.5 			"/>
		</g>
		<g>
			<rect x="7023.4" y="1014.3" fill="#61284E" width="84.7" height="84.7"/>
		</g>
		<g>
			<rect x="7023.4" y="421.8" fill="#61284E" width="84.7" height="84.7"/>
		</g>
		<g>
			<rect x="6938.8" y="1098.9" fill="#61284E" width="84.6" height="84.6"/>
		</g>
		<g>
			<rect x="6938.8" y="337.2" fill="#61284E" width="84.6" height="84.6"/>
		</g>
		<g>
			<polygon fill="#61284E" points="6769.6,1183.5 6684.9,1183.5 6600.3,1183.5 6515.6,1183.5 6431,1183.5 6346.4,1183.5 
				6261.8,1183.5 6177.1,1183.5 6092.5,1183.5 6007.8,1183.5 5923.2,1183.5 5838.6,1183.5 5753.9,1183.5 5669.3,1183.5 
				5584.6,1183.5 5500,1183.5 5415.4,1183.5 5330.8,1183.5 5246.1,1183.5 5161.5,1183.5 5076.8,1183.5 4992.3,1183.5 4907.6,1183.5 
				4823,1183.5 4738.3,1183.5 4653.7,1183.5 4569.1,1183.5 4484.5,1183.5 4399.8,1183.5 4315.2,1183.5 4230.5,1183.5 4145.9,1183.5 
				4061.3,1183.5 4061.3,1268.2 4145.9,1268.2 4230.5,1268.2 4315.2,1268.2 4399.8,1268.2 4484.5,1268.2 4569.1,1268.2 
				4653.7,1268.2 4738.3,1268.2 4823,1268.2 4907.6,1268.2 4992.3,1268.2 5076.8,1268.2 5161.5,1268.2 5246.1,1268.2 5330.8,1268.2 
				5415.4,1268.2 5500,1268.2 5584.6,1268.2 5669.3,1268.2 5753.9,1268.2 5838.6,1268.2 5923.2,1268.2 6007.8,1268.2 6092.5,1268.2 
				6177.1,1268.2 6261.8,1268.2 6346.4,1268.2 6431,1268.2 6515.6,1268.2 6600.3,1268.2 6684.9,1268.2 6769.6,1268.2 6854.1,1268.2 
				6938.8,1268.2 6938.8,1183.5 6854.1,1183.5 			"/>
		</g>
		<g>
			<polygon fill="#61284E" points="4230.5,337.2 4315.2,337.2 4399.8,337.2 4484.5,337.2 4569.1,337.2 4653.7,337.2 4738.3,337.2 
				4823,337.2 4907.6,337.2 4992.3,337.2 5076.8,337.2 5161.5,337.2 5246.1,337.2 5330.8,337.2 5415.4,337.2 5500,337.2 
				5584.6,337.2 5669.3,337.2 5753.9,337.2 5838.6,337.2 5923.2,337.2 6007.8,337.2 6092.5,337.2 6177.1,337.2 6261.8,337.2 
				6346.4,337.2 6431,337.2 6515.6,337.2 6600.3,337.2 6684.9,337.2 6769.6,337.2 6854.1,337.2 6938.8,337.2 6938.8,252.6 
				6854.1,252.6 6769.6,252.6 6684.9,252.6 6600.3,252.6 6515.6,252.6 6431,252.6 6346.4,252.6 6261.8,252.6 6177.1,252.6 
				6092.5,252.6 6007.8,252.6 5923.2,252.6 5838.6,252.6 5753.9,252.6 5669.3,252.6 5584.6,252.6 5500,252.6 5415.4,252.6 
				5330.8,252.6 5246.1,252.6 5161.5,252.6 5076.8,252.6 4992.3,252.6 4907.6,252.6 4823,252.6 4738.3,252.6 4653.7,252.6 
				4569.1,252.6 4484.5,252.6 4399.8,252.6 4315.2,252.6 4230.5,252.6 4145.9,252.6 4061.3,252.6 4061.3,337.2 4145.9,337.2 			"/>
		</g>
		<g>
			<rect x="3976.7" y="1098.9" fill="#61284E" width="84.6" height="84.6"/>
		</g>
		<g>
			<rect x="3976.7" y="337.2" fill="#61284E" width="84.6" height="84.6"/>
		</g>
		<g>
			<rect x="3892" y="1014.3" fill="#61284E" width="84.7" height="84.7"/>
		</g>
		<g>
			<rect x="3892" y="421.8" fill="#61284E" width="84.7" height="84.7"/>
		</g>
		<g>
			<polygon fill="#61284E" points="3892,845 3892,760.4 3892,675.7 3892,591.2 3892,506.5 3807.3,506.5 3807.3,591.2 3807.3,675.7 
				3807.3,760.4 3807.3,845 3807.3,929.7 3807.3,1014.3 3892,1014.3 3892,929.7 			"/>
		</g>
	</g>
</g>
<g>
	<g>
		<rect x="585.2" y="503.7" fill="#FFFFFF" width="84.6" height="84.7"/>
	</g>
	<g>
		<rect x="585.2" y="419" fill="#FFFFFF" width="84.6" height="84.7"/>
	</g>
	<g>
		<rect x="500.6" y="588.4" fill="#FFFFFF" width="84.7" height="84.6"/>
	</g>
	<g>
		<rect x="500.6" y="503.7" fill="#FFFFFF" width="84.7" height="84.7"/>
	</g>
	<g>
		<rect x="416" y="588.4" fill="#FFFFFF" width="84.6" height="84.6"/>
	</g>
	<g>
		<polygon fill="#F01449" points="3462.7,842.2 3462.7,926.9 3378.1,926.9 3378.1,1011.5 3293.4,1011.5 3293.4,1096.1 
			3208.9,1096.1 3124.2,1096.1 3039.6,1096.1 2954.9,1096.1 2870.3,1096.1 2785.7,1096.1 2701.1,1096.1 2616.4,1096.1 
			2531.8,1096.1 2447.1,1096.1 2362.5,1096.1 2277.9,1096.1 2193.2,1096.1 2108.6,1096.1 2023.9,1096.1 1939.3,1096.1 
			1854.7,1096.1 1770.1,1096.1 1685.4,1096.1 1600.8,1096.1 1516.1,1096.1 1431.6,1096.1 1346.9,1096.1 1262.3,1096.1 
			1177.6,1096.1 1093,1096.1 1008.4,1096.1 923.8,1096.1 839.1,1096.1 754.5,1096.1 669.8,1096.1 585.2,1096.1 585.2,1011.5 
			500.6,1011.5 500.6,926.9 416,926.9 331.3,926.9 331.3,1011.5 416,1011.5 416,1096.1 500.6,1096.1 500.6,1180.7 585.2,1180.7 
			669.8,1180.7 754.5,1180.7 839.1,1180.7 923.8,1180.7 1008.4,1180.7 1093,1180.7 1177.6,1180.7 1262.3,1180.7 1346.9,1180.7 
			1431.6,1180.7 1516.1,1180.7 1600.8,1180.7 1685.4,1180.7 1770.1,1180.7 1854.7,1180.7 1939.3,1180.7 2023.9,1180.7 
			2108.6,1180.7 2193.2,1180.7 2277.9,1180.7 2362.5,1180.7 2447.1,1180.7 2531.8,1180.7 2616.4,1180.7 2701.1,1180.7 
			2785.7,1180.7 2870.3,1180.7 2954.9,1180.7 3039.6,1180.7 3124.2,1180.7 3208.9,1180.7 3293.4,1180.7 3378.1,1180.7 
			3378.1,1096.1 3462.7,1096.1 3462.7,1011.5 3547.4,1011.5 3547.4,926.9 3547.4,842.2 		"/>
	</g>
	<g>
		<polygon fill="#FF356F" points="3462.7,503.7 3462.7,419 3378.1,419 3293.4,419 3208.9,419 3124.2,419 3039.6,419 2954.9,419 
			2870.3,419 2785.7,419 2701.1,419 2616.4,419 2531.8,419 2447.1,419 2362.5,419 2277.9,419 2193.2,419 2108.6,419 2023.9,419 
			1939.3,419 1854.7,419 1770.1,419 1685.4,419 1600.8,419 1516.1,419 1431.6,419 1346.9,419 1262.3,419 1177.6,419 1093,419 
			1008.4,419 923.8,419 839.1,419 754.5,419 669.8,419 669.8,503.7 669.8,588.4 585.2,588.4 585.2,672.9 500.6,672.9 416,672.9 
			416,588.4 331.3,588.4 331.3,672.9 331.3,757.6 331.3,842.2 331.3,926.9 416,926.9 500.6,926.9 500.6,1011.5 585.2,1011.5 
			585.2,1096.1 669.8,1096.1 754.5,1096.1 839.1,1096.1 923.8,1096.1 1008.4,1096.1 1093,1096.1 1177.6,1096.1 1262.3,1096.1 
			1346.9,1096.1 1431.6,1096.1 1516.1,1096.1 1600.8,1096.1 1685.4,1096.1 1770.1,1096.1 1854.7,1096.1 1939.3,1096.1 
			2023.9,1096.1 2108.6,1096.1 2193.2,1096.1 2277.9,1096.1 2362.5,1096.1 2447.1,1096.1 2531.8,1096.1 2616.4,1096.1 
			2701.1,1096.1 2785.7,1096.1 2870.3,1096.1 2954.9,1096.1 3039.6,1096.1 3124.2,1096.1 3208.9,1096.1 3293.4,1096.1 
			3293.4,1011.5 3378.1,1011.5 3378.1,926.9 3462.7,926.9 3462.7,842.2 3547.4,842.2 3547.4,757.6 3547.4,672.9 3547.4,588.4 
			3547.4,503.7 		"/>
	</g>
	<g>
		<polygon fill="#FF6B9A" points="3293.4,334.4 3208.9,334.4 3124.2,334.4 3039.6,334.4 2954.9,334.4 2870.3,334.4 2785.7,334.4 
			2701.1,334.4 2616.4,334.4 2531.8,334.4 2447.1,334.4 2362.5,334.4 2277.9,334.4 2193.2,334.4 2108.6,334.4 2023.9,334.4 
			1939.3,334.4 1854.7,334.4 1770.1,334.4 1685.4,334.4 1600.8,334.4 1516.1,334.4 1431.6,334.4 1346.9,334.4 1262.3,334.4 
			1177.6,334.4 1093,334.4 1008.4,334.4 923.8,334.4 839.1,334.4 754.5,334.4 669.8,334.4 585.2,334.4 500.6,334.4 500.6,419 
			416,419 416,503.7 331.3,503.7 331.3,588.4 416,588.4 500.6,588.4 500.6,503.7 585.2,503.7 585.2,419 669.8,419 754.5,419 
			839.1,419 923.8,419 1008.4,419 1093,419 1177.6,419 1262.3,419 1346.9,419 1431.6,419 1516.1,419 1600.8,419 1685.4,419 
			1770.1,419 1854.7,419 1939.3,419 2023.9,419 2108.6,419 2193.2,419 2277.9,419 2362.5,419 2447.1,419 2531.8,419 2616.4,419 
			2701.1,419 2785.7,419 2870.3,419 2954.9,419 3039.6,419 3124.2,419 3208.9,419 3293.4,419 3378.1,419 3378.1,334.4 		"/>
	</g>
	<g>
		<g>
			<polygon fill="#61284E" points="3547.4,503.7 3547.4,588.4 3547.4,672.9 3547.4,757.6 3547.4,842.2 3547.4,926.9 3547.4,1011.5 
				3632,1011.5 3632,926.9 3632,842.2 3632,757.6 3632,672.9 3632,588.4 3632,503.7 			"/>
		</g>
		<g>
			<rect x="3462.7" y="1011.5" fill="#61284E" width="84.7" height="84.7"/>
		</g>
		<g>
			<rect x="3462.7" y="419" fill="#61284E" width="84.7" height="84.7"/>
		</g>
		<g>
			<rect x="3378.1" y="1096.1" fill="#61284E" width="84.6" height="84.6"/>
		</g>
		<g>
			<rect x="3378.1" y="334.4" fill="#61284E" width="84.6" height="84.6"/>
		</g>
		<g>
			<polygon fill="#61284E" points="3208.9,1180.7 3124.2,1180.7 3039.6,1180.7 2954.9,1180.7 2870.3,1180.7 2785.7,1180.7 
				2701.1,1180.7 2616.4,1180.7 2531.8,1180.7 2447.1,1180.7 2362.5,1180.7 2277.9,1180.7 2193.2,1180.7 2108.6,1180.7 
				2023.9,1180.7 1939.3,1180.7 1854.7,1180.7 1770.1,1180.7 1685.4,1180.7 1600.8,1180.7 1516.1,1180.7 1431.6,1180.7 
				1346.9,1180.7 1262.3,1180.7 1177.6,1180.7 1093,1180.7 1008.4,1180.7 923.8,1180.7 839.1,1180.7 754.5,1180.7 669.8,1180.7 
				585.2,1180.7 500.6,1180.7 500.6,1265.4 585.2,1265.4 669.8,1265.4 754.5,1265.4 839.1,1265.4 923.8,1265.4 1008.4,1265.4 
				1093,1265.4 1177.6,1265.4 1262.3,1265.4 1346.9,1265.4 1431.6,1265.4 1516.1,1265.4 1600.8,1265.4 1685.4,1265.4 1770.1,1265.4 
				1854.7,1265.4 1939.3,1265.4 2023.9,1265.4 2108.6,1265.4 2193.2,1265.4 2277.9,1265.4 2362.5,1265.4 2447.1,1265.4 
				2531.8,1265.4 2616.4,1265.4 2701.1,1265.4 2785.7,1265.4 2870.3,1265.4 2954.9,1265.4 3039.6,1265.4 3124.2,1265.4 
				3208.9,1265.4 3293.4,1265.4 3378.1,1265.4 3378.1,1180.7 3293.4,1180.7 			"/>
		</g>
		<g>
			<polygon fill="#61284E" points="669.8,334.4 754.5,334.4 839.1,334.4 923.8,334.4 1008.4,334.4 1093,334.4 1177.6,334.4 
				1262.3,334.4 1346.9,334.4 1431.6,334.4 1516.1,334.4 1600.8,334.4 1685.4,334.4 1770.1,334.4 1854.7,334.4 1939.3,334.4 
				2023.9,334.4 2108.6,334.4 2193.2,334.4 2277.9,334.4 2362.5,334.4 2447.1,334.4 2531.8,334.4 2616.4,334.4 2701.1,334.4 
				2785.7,334.4 2870.3,334.4 2954.9,334.4 3039.6,334.4 3124.2,334.4 3208.9,334.4 3293.4,334.4 3378.1,334.4 3378.1,249.8 
				3293.4,249.8 3208.9,249.8 3124.2,249.8 3039.6,249.8 2954.9,249.8 2870.3,249.8 2785.7,249.8 2701.1,249.8 2616.4,249.8 
				2531.8,249.8 2447.1,249.8 2362.5,249.8 2277.9,249.8 2193.2,249.8 2108.6,249.8 2023.9,249.8 1939.3,249.8 1854.7,249.8 
				1770.1,249.8 1685.4,249.8 1600.8,249.8 1516.1,249.8 1431.6,249.8 1346.9,249.8 1262.3,249.8 1177.6,249.8 1093,249.8 
				1008.4,249.8 923.8,249.8 839.1,249.8 754.5,249.8 669.8,249.8 585.2,249.8 500.6,249.8 500.6,334.4 585.2,334.4 			"/>
		</g>
		<g>
			<rect x="416" y="1096.1" fill="#61284E" width="84.6" height="84.6"/>
		</g>
		<g>
			<rect x="416" y="334.4" fill="#61284E" width="84.6" height="84.6"/>
		</g>
		<g>
			<rect x="331.3" y="1011.5" fill="#61284E" width="84.7" height="84.7"/>
		</g>
		<g>
			<rect x="331.3" y="419" fill="#61284E" width="84.7" height="84.7"/>
		</g>
		<g>
			<polygon fill="#61284E" points="331.3,842.2 331.3,757.6 331.3,672.9 331.3,588.4 331.3,503.7 246.6,503.7 246.6,588.4 
				246.6,672.9 246.6,757.6 246.6,842.2 246.6,926.9 246.6,1011.5 331.3,1011.5 331.3,926.9 			"/>
		</g>
	</g>
</g>
<path fill="#FD346F" d="M2029.3,1093.6c0-222.5,0-445,0-667.6c1579.3,0,3158.6,0,4737.9,0c0,222.5,0,445,0,667.6
	C5187.9,1093.6,3608.6,1093.6,2029.3,1093.6z"/>
<path fill="#61284E" d="M6767.2,1269.8c-1579.3,0-3158.6,0-4737.9,0c0-29.4,0-58.7,0-88.1c1579.3,0,3158.6,0,4737.9,0
	C6767.2,1211.1,6767.2,1240.5,6767.2,1269.8z"/>
<path fill="#61284E" d="M2029.3,249.8c22.4,0.5,44.8,1.3,67.1,1.3c1501.6,0.1,3003.1,0,4504.7,0.1c55.4,0,110.7,1.3,166.1,1.9
	c0,28.2,0,56.5,0,84.7c-1579.3,0-3158.6,0-4737.9,0C2029.3,308.6,2029.3,279.2,2029.3,249.8z"/>
<path fill="#FD6B98" d="M2029.3,337.9c1579.3,0,3158.6,0,4737.9,0c0,27.1,0,54.2,0,81.3c-1579.3,0-3158.6,0-4737.9,0
	C2029.3,392.2,2029.3,365.1,2029.3,337.9z"/>
<path fill="#EE1549" d="M6767.2,1181.7c-1579.3,0-3158.6,0-4737.9,0c0-27.1,0-54.2,0-81.3c1579.3,0,3158.6,0,4737.9,0
	C6767.2,1127.5,6767.2,1154.6,6767.2,1181.7z"/>
<path fill="#FF356F" d="M6767.2,419.3c0,2.3,0,4.5,0,6.8c-1579.3,0-3158.6,0-4737.9,0c0-2.3,0-4.5,0-6.8"/>
<path fill="#FD346F" d="M6767.2,1100.4c-1579.3,0-3158.6,0-4737.9,0c0-2.3,0-4.5,0-6.8c1579.3,0,3158.6,0,4737.9,0
	C6767.2,1095.9,6767.2,1098.1,6767.2,1100.4z"/>
<g>
	<path fill="#61284E" d="M834.1,969.8v-62.5h125V594.8h-125v-62.5h375v62.5h-125v312.5h125v62.5H834.1z"/>
	<path fill="#61284E" d="M1271.6,969.8V532.3h125v62.5h62.5v62.5h62.5v62.5h62.5V532.3h125v437.5h-125v-125h-62.5v-62.5h-62.5v-62.5
		h-62.5v250H1271.6z"/>
	<path fill="#61284E" d="M1834.1,969.8v-62.5h-62.5v-62.5h125v62.5h187.5v-125h-250v-62.5h-62.5v-125h62.5v-62.5h312.5v62.5h62.5
		v62.5h-125v-62.5h-187.5v125h250v62.5h62.5v125h-62.5v62.5H1834.1z"/>
	<path fill="#61284E" d="M2459.1,969.8v-375h-125v-62.5h375v62.5h-125v375H2459.1z"/>
	<path fill="#61284E" d="M2771.6,969.8V532.3h375v62.5h62.5v187.5h-125v62.5h62.5v62.5h62.5v62.5h-187.5v-62.5h-62.5v-62.5h-62.5
		v125H2771.6z M2896.6,782.3h125v-62.5h62.5v-125h-187.5V782.3z"/>
	<path fill="#61284E" d="M3334.1,969.8v-62.5h-62.5v-375h125v375h187.5v-375h125v375h-62.5v62.5H3334.1z"/>
	<path fill="#61284E" d="M3896.6,969.8v-62.5h-62.5v-62.5h-62.5V657.3h62.5v-62.5h62.5v-62.5h250v62.5h62.5v62.5h-125v-62.5h-125
		v62.5h-62.5v187.5h62.5v62.5h125v-62.5h125v62.5h-62.5v62.5H3896.6z"/>
	<path fill="#61284E" d="M4459.1,969.8v-375h-125v-62.5h375v62.5h-125v375H4459.1z"/>
	<path fill="#61284E" d="M4834.1,969.8v-62.5h125V594.8h-125v-62.5h375v62.5h-125v312.5h125v62.5H4834.1z"/>
	<path fill="#61284E" d="M5334.1,969.8v-62.5h-62.5V594.8h62.5v-62.5h312.5v62.5h62.5v312.5h-62.5v62.5H5334.1z M5396.6,907.3h187.5
		V594.8h-187.5V907.3z"/>
	<path fill="#61284E" d="M5771.6,969.8V532.3h125v62.5h62.5v62.5h62.5v62.5h62.5V532.3h125v437.5h-125v-125h-62.5v-62.5h-62.5v-62.5
		h-62.5v250H5771.6z"/>
	<path fill="#61284E" d="M6334.1,969.8v-62.5h-62.5v-62.5h125v62.5h187.5v-125h-250v-62.5h-62.5v-125h62.5v-62.5h312.5v62.5h62.5
		v62.5h-125v-62.5h-187.5v125h250v62.5h62.5v125h-62.5v62.5H6334.1z"/>
</g>
</svg>
