<?xml version="1.0" encoding="utf-8"?>
<!-- Generator: Adobe Illustrator 26.5.0, SVG Export Plug-In . SVG Version: 6.00 Build 0)  -->
<svg version="1.0" id="Layer_1" xmlns="http://www.w3.org/2000/svg" xmlns:xlink="http://www.w3.org/1999/xlink" x="0px" y="0px"
	 width="59px" height="41px" viewBox="0 0 59 41" enable-background="new 0 0 59 41" xml:space="preserve">
<polygon fill="#777677" points="37.5,35.5 41.6,35.5 45.6,35.5 49.6,35.5 53.6,35.5 53.6,31.2 53.6,26.9 53.6,22.6 53.6,18.4 
	53.6,14.1 53.6,9.8 53.6,5.5 49.6,5.5 45.6,5.5 41.6,5.5 37.5,5.5 33.5,5.5 29.5,5.5 25.5,5.5 21.5,5.5 17.4,5.5 17.4,9.8 13.4,9.8 
	13.4,14.1 9.4,14.1 9.4,18.4 5.4,18.4 5.4,22.6 9.4,22.6 9.4,26.9 13.4,26.9 13.4,31.2 17.4,31.2 17.4,35.5 21.5,35.5 25.5,35.5 
	29.5,35.5 33.5,35.5 "/>
</svg>
