<?xml version="1.0" encoding="utf-8"?>
<!-- Generator: Adobe Illustrator 26.5.0, SVG Export Plug-In . SVG Version: 6.00 Build 0)  -->
<svg version="1.0" id="_x2014_ÎÓÈ_x5F_1" xmlns="http://www.w3.org/2000/svg" xmlns:xlink="http://www.w3.org/1999/xlink"
	 x="0px" y="0px" width="8180.6px" height="1535.2px" viewBox="0 0 8180.6 1535.2" enable-background="new 0 0 8180.6 1535.2"
	 xml:space="preserve">
<g>
	<g>
		<g>
			<rect x="4866.6" y="506.5" fill="#FFFFFF" width="84.6" height="84.7"/>
		</g>
		<g>
			<rect x="4866.6" y="421.8" fill="#FFFFFF" width="84.6" height="84.7"/>
		</g>
		<g>
			<rect x="4782" y="591.2" fill="#FFFFFF" width="84.7" height="84.6"/>
		</g>
		<g>
			<rect x="4782" y="506.5" fill="#FFFFFF" width="84.7" height="84.7"/>
		</g>
		<g>
			<rect x="4697.4" y="591.2" fill="#FFFFFF" width="84.6" height="84.6"/>
		</g>
		<g>
			<polygon fill="#F01449" points="7744.1,845 7744.1,929.7 7659.5,929.7 7659.5,1014.3 7574.8,1014.3 7574.8,1098.9 7490.3,1098.9 
				7405.6,1098.9 7321,1098.9 7236.3,1098.9 7151.7,1098.9 7067.1,1098.9 6982.5,1098.9 6897.8,1098.9 6813.2,1098.9 6728.5,1098.9 
				6643.9,1098.9 6559.3,1098.9 6474.6,1098.9 6390,1098.9 6305.3,1098.9 6220.7,1098.9 6136.1,1098.9 6051.5,1098.9 5966.8,1098.9 
				5882.2,1098.9 5797.5,1098.9 5713,1098.9 5628.3,1098.9 5543.7,1098.9 5459,1098.9 5374.4,1098.9 5289.8,1098.9 5205.2,1098.9 
				5120.5,1098.9 5035.9,1098.9 4951.2,1098.9 4866.6,1098.9 4866.6,1014.3 4782,1014.3 4782,929.7 4697.4,929.7 4612.7,929.7 
				4612.7,1014.3 4697.4,1014.3 4697.4,1098.9 4782,1098.9 4782,1183.5 4866.6,1183.5 4951.2,1183.5 5035.9,1183.5 5120.5,1183.5 
				5205.2,1183.5 5289.8,1183.5 5374.4,1183.5 5459,1183.5 5543.7,1183.5 5628.3,1183.5 5713,1183.5 5797.5,1183.5 5882.2,1183.5 
				5966.8,1183.5 6051.5,1183.5 6136.1,1183.5 6220.7,1183.5 6305.3,1183.5 6390,1183.5 6474.6,1183.5 6559.3,1183.5 6643.9,1183.5 
				6728.5,1183.5 6813.2,1183.5 6897.8,1183.5 6982.5,1183.5 7067.1,1183.5 7151.7,1183.5 7236.3,1183.5 7321,1183.5 7405.6,1183.5 
				7490.3,1183.5 7574.8,1183.5 7659.5,1183.5 7659.5,1098.9 7744.1,1098.9 7744.1,1014.3 7828.8,1014.3 7828.8,929.7 7828.8,845 
							"/>
		</g>
		<g>
			<polygon fill="#FF356F" points="7744.1,506.5 7744.1,421.8 7659.5,421.8 7574.8,421.8 7490.3,421.8 7405.6,421.8 7321,421.8 
				7236.3,421.8 7151.7,421.8 7067.1,421.8 6982.5,421.8 6897.8,421.8 6813.2,421.8 6728.5,421.8 6643.9,421.8 6559.3,421.8 
				6474.6,421.8 6390,421.8 6305.3,421.8 6220.7,421.8 6136.1,421.8 6051.5,421.8 5966.8,421.8 5882.2,421.8 5797.5,421.8 
				5713,421.8 5628.3,421.8 5543.7,421.8 5459,421.8 5374.4,421.8 5289.8,421.8 5205.2,421.8 5120.5,421.8 5035.9,421.8 
				4951.2,421.8 4951.2,506.5 4951.2,591.2 4866.6,591.2 4866.6,675.7 4782,675.7 4697.4,675.7 4697.4,591.2 4612.7,591.2 
				4612.7,675.7 4612.7,760.4 4612.7,845 4612.7,929.7 4697.4,929.7 4782,929.7 4782,1014.3 4866.6,1014.3 4866.6,1098.9 
				4951.2,1098.9 5035.9,1098.9 5120.5,1098.9 5205.2,1098.9 5289.8,1098.9 5374.4,1098.9 5459,1098.9 5543.7,1098.9 5628.3,1098.9 
				5713,1098.9 5797.5,1098.9 5882.2,1098.9 5966.8,1098.9 6051.5,1098.9 6136.1,1098.9 6220.7,1098.9 6305.3,1098.9 6390,1098.9 
				6474.6,1098.9 6559.3,1098.9 6643.9,1098.9 6728.5,1098.9 6813.2,1098.9 6897.8,1098.9 6982.5,1098.9 7067.1,1098.9 
				7151.7,1098.9 7236.3,1098.9 7321,1098.9 7405.6,1098.9 7490.3,1098.9 7574.8,1098.9 7574.8,1014.3 7659.5,1014.3 7659.5,929.7 
				7744.1,929.7 7744.1,845 7828.8,845 7828.8,760.4 7828.8,675.7 7828.8,591.2 7828.8,506.5 			"/>
		</g>
		<g>
			<polygon fill="#FF6B9A" points="7574.8,337.2 7490.3,337.2 7405.6,337.2 7321,337.2 7236.3,337.2 7151.7,337.2 7067.1,337.2 
				6982.5,337.2 6897.8,337.2 6813.2,337.2 6728.5,337.2 6643.9,337.2 6559.3,337.2 6474.6,337.2 6390,337.2 6305.3,337.2 
				6220.7,337.2 6136.1,337.2 6051.5,337.2 5966.8,337.2 5882.2,337.2 5797.5,337.2 5713,337.2 5628.3,337.2 5543.7,337.2 
				5459,337.2 5374.4,337.2 5289.8,337.2 5205.2,337.2 5120.5,337.2 5035.9,337.2 4951.2,337.2 4866.6,337.2 4782,337.2 4782,421.8 
				4697.4,421.8 4697.4,506.5 4612.7,506.5 4612.7,591.2 4697.4,591.2 4782,591.2 4782,506.5 4866.6,506.5 4866.6,421.8 
				4951.2,421.8 5035.9,421.8 5120.5,421.8 5205.2,421.8 5289.8,421.8 5374.4,421.8 5459,421.8 5543.7,421.8 5628.3,421.8 
				5713,421.8 5797.5,421.8 5882.2,421.8 5966.8,421.8 6051.5,421.8 6136.1,421.8 6220.7,421.8 6305.3,421.8 6390,421.8 
				6474.6,421.8 6559.3,421.8 6643.9,421.8 6728.5,421.8 6813.2,421.8 6897.8,421.8 6982.5,421.8 7067.1,421.8 7151.7,421.8 
				7236.3,421.8 7321,421.8 7405.6,421.8 7490.3,421.8 7574.8,421.8 7659.5,421.8 7659.5,337.2 			"/>
		</g>
		<g>
			<g>
				<polygon fill="#61284E" points="7828.8,506.5 7828.8,591.2 7828.8,675.7 7828.8,760.4 7828.8,845 7828.8,929.7 7828.8,1014.3 
					7913.4,1014.3 7913.4,929.7 7913.4,845 7913.4,760.4 7913.4,675.7 7913.4,591.2 7913.4,506.5 				"/>
			</g>
			<g>
				<rect x="7744.1" y="1014.3" fill="#61284E" width="84.7" height="84.7"/>
			</g>
			<g>
				<rect x="7744.1" y="421.8" fill="#61284E" width="84.7" height="84.7"/>
			</g>
			<g>
				<rect x="7659.5" y="1098.9" fill="#61284E" width="84.6" height="84.6"/>
			</g>
			<g>
				<rect x="7659.5" y="337.2" fill="#61284E" width="84.6" height="84.6"/>
			</g>
			<g>
				<polygon fill="#61284E" points="7490.3,1183.5 7405.6,1183.5 7321,1183.5 7236.3,1183.5 7151.7,1183.5 7067.1,1183.5 
					6982.5,1183.5 6897.8,1183.5 6813.2,1183.5 6728.5,1183.5 6643.9,1183.5 6559.3,1183.5 6474.6,1183.5 6390,1183.5 
					6305.3,1183.5 6220.7,1183.5 6136.1,1183.5 6051.5,1183.5 5966.8,1183.5 5882.2,1183.5 5797.5,1183.5 5713,1183.5 
					5628.3,1183.5 5543.7,1183.5 5459,1183.5 5374.4,1183.5 5289.8,1183.5 5205.2,1183.5 5120.5,1183.5 5035.9,1183.5 
					4951.2,1183.5 4866.6,1183.5 4782,1183.5 4782,1268.2 4866.6,1268.2 4951.2,1268.2 5035.9,1268.2 5120.5,1268.2 5205.2,1268.2 
					5289.8,1268.2 5374.4,1268.2 5459,1268.2 5543.7,1268.2 5628.3,1268.2 5713,1268.2 5797.5,1268.2 5882.2,1268.2 5966.8,1268.2 
					6051.5,1268.2 6136.1,1268.2 6220.7,1268.2 6305.3,1268.2 6390,1268.2 6474.6,1268.2 6559.3,1268.2 6643.9,1268.2 
					6728.5,1268.2 6813.2,1268.2 6897.8,1268.2 6982.5,1268.2 7067.1,1268.2 7151.7,1268.2 7236.3,1268.2 7321,1268.2 
					7405.6,1268.2 7490.3,1268.2 7574.8,1268.2 7659.5,1268.2 7659.5,1183.5 7574.8,1183.5 				"/>
			</g>
			<g>
				<polygon fill="#61284E" points="4951.2,337.2 5035.9,337.2 5120.5,337.2 5205.2,337.2 5289.8,337.2 5374.4,337.2 5459,337.2 
					5543.7,337.2 5628.3,337.2 5713,337.2 5797.5,337.2 5882.2,337.2 5966.8,337.2 6051.5,337.2 6136.1,337.2 6220.7,337.2 
					6305.3,337.2 6390,337.2 6474.6,337.2 6559.3,337.2 6643.9,337.2 6728.5,337.2 6813.2,337.2 6897.8,337.2 6982.5,337.2 
					7067.1,337.2 7151.7,337.2 7236.3,337.2 7321,337.2 7405.6,337.2 7490.3,337.2 7574.8,337.2 7659.5,337.2 7659.5,252.6 
					7574.8,252.6 7490.3,252.6 7405.6,252.6 7321,252.6 7236.3,252.6 7151.7,252.6 7067.1,252.6 6982.5,252.6 6897.8,252.6 
					6813.2,252.6 6728.5,252.6 6643.9,252.6 6559.3,252.6 6474.6,252.6 6390,252.6 6305.3,252.6 6220.7,252.6 6136.1,252.6 
					6051.5,252.6 5966.8,252.6 5882.2,252.6 5797.5,252.6 5713,252.6 5628.3,252.6 5543.7,252.6 5459,252.6 5374.4,252.6 
					5289.8,252.6 5205.2,252.6 5120.5,252.6 5035.9,252.6 4951.2,252.6 4866.6,252.6 4782,252.6 4782,337.2 4866.6,337.2 				"/>
			</g>
			<g>
				<rect x="4697.4" y="1098.9" fill="#61284E" width="84.6" height="84.6"/>
			</g>
			<g>
				<rect x="4697.4" y="337.2" fill="#61284E" width="84.6" height="84.6"/>
			</g>
			<g>
				<rect x="4612.7" y="1014.3" fill="#61284E" width="84.7" height="84.7"/>
			</g>
			<g>
				<rect x="4612.7" y="421.8" fill="#61284E" width="84.7" height="84.7"/>
			</g>
			<g>
				<polygon fill="#61284E" points="4612.7,845 4612.7,760.4 4612.7,675.7 4612.7,591.2 4612.7,506.5 4528,506.5 4528,591.2 
					4528,675.7 4528,760.4 4528,845 4528,929.7 4528,1014.3 4612.7,1014.3 4612.7,929.7 				"/>
			</g>
		</g>
	</g>
	<g>
		<g>
			<rect x="605.9" y="503.7" fill="#FFFFFF" width="84.6" height="84.7"/>
		</g>
		<g>
			<rect x="605.9" y="419" fill="#FFFFFF" width="84.6" height="84.7"/>
		</g>
		<g>
			<rect x="521.3" y="588.4" fill="#FFFFFF" width="84.7" height="84.6"/>
		</g>
		<g>
			<rect x="521.3" y="503.7" fill="#FFFFFF" width="84.7" height="84.7"/>
		</g>
		<g>
			<rect x="436.7" y="588.4" fill="#FFFFFF" width="84.6" height="84.6"/>
		</g>
		<g>
			<polygon fill="#F01449" points="3483.4,842.2 3483.4,926.9 3398.8,926.9 3398.8,1011.5 3314.1,1011.5 3314.1,1096.1 
				3229.6,1096.1 3144.9,1096.1 3060.3,1096.1 2975.6,1096.1 2891,1096.1 2806.4,1096.1 2721.8,1096.1 2637.1,1096.1 2552.5,1096.1 
				2467.8,1096.1 2383.2,1096.1 2298.6,1096.1 2213.9,1096.1 2129.3,1096.1 2044.6,1096.1 1960,1096.1 1875.4,1096.1 1790.8,1096.1 
				1706.1,1096.1 1621.5,1096.1 1536.8,1096.1 1452.3,1096.1 1367.6,1096.1 1283,1096.1 1198.3,1096.1 1113.7,1096.1 1029.1,1096.1 
				944.5,1096.1 859.8,1096.1 775.2,1096.1 690.5,1096.1 605.9,1096.1 605.9,1011.5 521.3,1011.5 521.3,926.9 436.7,926.9 
				352,926.9 352,1011.5 436.7,1011.5 436.7,1096.1 521.3,1096.1 521.3,1180.7 605.9,1180.7 690.5,1180.7 775.2,1180.7 
				859.8,1180.7 944.5,1180.7 1029.1,1180.7 1113.7,1180.7 1198.3,1180.7 1283,1180.7 1367.6,1180.7 1452.3,1180.7 1536.8,1180.7 
				1621.5,1180.7 1706.1,1180.7 1790.8,1180.7 1875.4,1180.7 1960,1180.7 2044.6,1180.7 2129.3,1180.7 2213.9,1180.7 2298.6,1180.7 
				2383.2,1180.7 2467.8,1180.7 2552.5,1180.7 2637.1,1180.7 2721.8,1180.7 2806.4,1180.7 2891,1180.7 2975.6,1180.7 3060.3,1180.7 
				3144.9,1180.7 3229.6,1180.7 3314.1,1180.7 3398.8,1180.7 3398.8,1096.1 3483.4,1096.1 3483.4,1011.5 3568.1,1011.5 
				3568.1,926.9 3568.1,842.2 			"/>
		</g>
		<g>
			<polygon fill="#FF356F" points="3483.4,503.7 3483.4,419 3398.8,419 3314.1,419 3229.6,419 3144.9,419 3060.3,419 2975.6,419 
				2891,419 2806.4,419 2721.8,419 2637.1,419 2552.5,419 2467.8,419 2383.2,419 2298.6,419 2213.9,419 2129.3,419 2044.6,419 
				1960,419 1875.4,419 1790.8,419 1706.1,419 1621.5,419 1536.8,419 1452.3,419 1367.6,419 1283,419 1198.3,419 1113.7,419 
				1029.1,419 944.5,419 859.8,419 775.2,419 690.5,419 690.5,503.7 690.5,588.4 605.9,588.4 605.9,672.9 521.3,672.9 436.7,672.9 
				436.7,588.4 352,588.4 352,672.9 352,757.6 352,842.2 352,926.9 436.7,926.9 521.3,926.9 521.3,1011.5 605.9,1011.5 
				605.9,1096.1 690.5,1096.1 775.2,1096.1 859.8,1096.1 944.5,1096.1 1029.1,1096.1 1113.7,1096.1 1198.3,1096.1 1283,1096.1 
				1367.6,1096.1 1452.3,1096.1 1536.8,1096.1 1621.5,1096.1 1706.1,1096.1 1790.8,1096.1 1875.4,1096.1 1960,1096.1 2044.6,1096.1 
				2129.3,1096.1 2213.9,1096.1 2298.6,1096.1 2383.2,1096.1 2467.8,1096.1 2552.5,1096.1 2637.1,1096.1 2721.8,1096.1 
				2806.4,1096.1 2891,1096.1 2975.6,1096.1 3060.3,1096.1 3144.9,1096.1 3229.6,1096.1 3314.1,1096.1 3314.1,1011.5 3398.8,1011.5 
				3398.8,926.9 3483.4,926.9 3483.4,842.2 3568.1,842.2 3568.1,757.6 3568.1,672.9 3568.1,588.4 3568.1,503.7 			"/>
		</g>
		<g>
			<polygon fill="#FF6B9A" points="3314.1,334.4 3229.6,334.4 3144.9,334.4 3060.3,334.4 2975.6,334.4 2891,334.4 2806.4,334.4 
				2721.8,334.4 2637.1,334.4 2552.5,334.4 2467.8,334.4 2383.2,334.4 2298.6,334.4 2213.9,334.4 2129.3,334.4 2044.6,334.4 
				1960,334.4 1875.4,334.4 1790.8,334.4 1706.1,334.4 1621.5,334.4 1536.8,334.4 1452.3,334.4 1367.6,334.4 1283,334.4 
				1198.3,334.4 1113.7,334.4 1029.1,334.4 944.5,334.4 859.8,334.4 775.2,334.4 690.5,334.4 605.9,334.4 521.3,334.4 521.3,419 
				436.7,419 436.7,503.7 352,503.7 352,588.4 436.7,588.4 521.3,588.4 521.3,503.7 605.9,503.7 605.9,419 690.5,419 775.2,419 
				859.8,419 944.5,419 1029.1,419 1113.7,419 1198.3,419 1283,419 1367.6,419 1452.3,419 1536.8,419 1621.5,419 1706.1,419 
				1790.8,419 1875.4,419 1960,419 2044.6,419 2129.3,419 2213.9,419 2298.6,419 2383.2,419 2467.8,419 2552.5,419 2637.1,419 
				2721.8,419 2806.4,419 2891,419 2975.6,419 3060.3,419 3144.9,419 3229.6,419 3314.1,419 3398.8,419 3398.8,334.4 			"/>
		</g>
		<g>
			<g>
				<polygon fill="#61284E" points="3568.1,503.7 3568.1,588.4 3568.1,672.9 3568.1,757.6 3568.1,842.2 3568.1,926.9 3568.1,1011.5 
					3652.7,1011.5 3652.7,926.9 3652.7,842.2 3652.7,757.6 3652.7,672.9 3652.7,588.4 3652.7,503.7 				"/>
			</g>
			<g>
				<rect x="3483.4" y="1011.5" fill="#61284E" width="84.7" height="84.7"/>
			</g>
			<g>
				<rect x="3483.4" y="419" fill="#61284E" width="84.7" height="84.7"/>
			</g>
			<g>
				<rect x="3398.8" y="1096.1" fill="#61284E" width="84.6" height="84.6"/>
			</g>
			<g>
				<rect x="3398.8" y="334.4" fill="#61284E" width="84.6" height="84.6"/>
			</g>
			<g>
				<polygon fill="#61284E" points="3229.6,1180.7 3144.9,1180.7 3060.3,1180.7 2975.6,1180.7 2891,1180.7 2806.4,1180.7 
					2721.8,1180.7 2637.1,1180.7 2552.5,1180.7 2467.8,1180.7 2383.2,1180.7 2298.6,1180.7 2213.9,1180.7 2129.3,1180.7 
					2044.6,1180.7 1960,1180.7 1875.4,1180.7 1790.8,1180.7 1706.1,1180.7 1621.5,1180.7 1536.8,1180.7 1452.3,1180.7 
					1367.6,1180.7 1283,1180.7 1198.3,1180.7 1113.7,1180.7 1029.1,1180.7 944.5,1180.7 859.8,1180.7 775.2,1180.7 690.5,1180.7 
					605.9,1180.7 521.3,1180.7 521.3,1265.4 605.9,1265.4 690.5,1265.4 775.2,1265.4 859.8,1265.4 944.5,1265.4 1029.1,1265.4 
					1113.7,1265.4 1198.3,1265.4 1283,1265.4 1367.6,1265.4 1452.3,1265.4 1536.8,1265.4 1621.5,1265.4 1706.1,1265.4 
					1790.8,1265.4 1875.4,1265.4 1960,1265.4 2044.6,1265.4 2129.3,1265.4 2213.9,1265.4 2298.6,1265.4 2383.2,1265.4 
					2467.8,1265.4 2552.5,1265.4 2637.1,1265.4 2721.8,1265.4 2806.4,1265.4 2891,1265.4 2975.6,1265.4 3060.3,1265.4 
					3144.9,1265.4 3229.6,1265.4 3314.1,1265.4 3398.8,1265.4 3398.8,1180.7 3314.1,1180.7 				"/>
			</g>
			<g>
				<polygon fill="#61284E" points="690.5,334.4 775.2,334.4 859.8,334.4 944.5,334.4 1029.1,334.4 1113.7,334.4 1198.3,334.4 
					1283,334.4 1367.6,334.4 1452.3,334.4 1536.8,334.4 1621.5,334.4 1706.1,334.4 1790.8,334.4 1875.4,334.4 1960,334.4 
					2044.6,334.4 2129.3,334.4 2213.9,334.4 2298.6,334.4 2383.2,334.4 2467.8,334.4 2552.5,334.4 2637.1,334.4 2721.8,334.4 
					2806.4,334.4 2891,334.4 2975.6,334.4 3060.3,334.4 3144.9,334.4 3229.6,334.4 3314.1,334.4 3398.8,334.4 3398.8,249.8 
					3314.1,249.8 3229.6,249.8 3144.9,249.8 3060.3,249.8 2975.6,249.8 2891,249.8 2806.4,249.8 2721.8,249.8 2637.1,249.8 
					2552.5,249.8 2467.8,249.8 2383.2,249.8 2298.6,249.8 2213.9,249.8 2129.3,249.8 2044.6,249.8 1960,249.8 1875.4,249.8 
					1790.8,249.8 1706.1,249.8 1621.5,249.8 1536.8,249.8 1452.3,249.8 1367.6,249.8 1283,249.8 1198.3,249.8 1113.7,249.8 
					1029.1,249.8 944.5,249.8 859.8,249.8 775.2,249.8 690.5,249.8 605.9,249.8 521.3,249.8 521.3,334.4 605.9,334.4 				"/>
			</g>
			<g>
				<rect x="436.7" y="1096.1" fill="#61284E" width="84.6" height="84.6"/>
			</g>
			<g>
				<rect x="436.7" y="334.4" fill="#61284E" width="84.6" height="84.6"/>
			</g>
			<g>
				<rect x="352" y="1011.5" fill="#61284E" width="84.7" height="84.7"/>
			</g>
			<g>
				<rect x="352" y="419" fill="#61284E" width="84.7" height="84.7"/>
			</g>
			<g>
				<polygon fill="#61284E" points="352,842.2 352,757.6 352,672.9 352,588.4 352,503.7 267.3,503.7 267.3,588.4 267.3,672.9 
					267.3,757.6 267.3,842.2 267.3,926.9 267.3,1011.5 352,1011.5 352,926.9 				"/>
			</g>
		</g>
	</g>
	<path fill="#FD346F" d="M2050,1093.6c0-222.5,0-445,0-667.6c1579.3,0,3158.6,0,4737.9,0c0,222.5,0,445,0,667.6
		C5208.6,1093.6,3629.3,1093.6,2050,1093.6z"/>
	<path fill="#61284E" d="M6787.9,1269.8c-1579.3,0-3158.6,0-4737.9,0c0-29.4,0-58.7,0-88.1c1579.3,0,3158.6,0,4737.9,0
		C6787.9,1211.1,6787.9,1240.5,6787.9,1269.8z"/>
	<path fill="#61284E" d="M2050,249.8c22.4,0.5,44.8,1.3,67.1,1.3c1501.6,0.1,3003.1,0,4504.7,0.1c55.4,0,110.7,1.3,166.1,1.9
		c0,28.2,0,56.5,0,84.7c-1579.3,0-3158.6,0-4737.9,0C2050,308.6,2050,279.2,2050,249.8z"/>
	<path fill="#FD6B98" d="M2050,337.9c1579.3,0,3158.6,0,4737.9,0c0,27.1,0,54.2,0,81.3c-1579.3,0-3158.6,0-4737.9,0
		C2050,392.2,2050,365.1,2050,337.9z"/>
	<path fill="#EE1549" d="M6787.9,1181.7c-1579.3,0-3158.6,0-4737.9,0c0-27.1,0-54.2,0-81.3c1579.3,0,3158.6,0,4737.9,0
		C6787.9,1127.5,6787.9,1154.6,6787.9,1181.7z"/>
	<path fill="#FF356F" d="M6787.9,419.3c0,2.3,0,4.5,0,6.8c-1579.3,0-3158.6,0-4737.9,0c0-2.3,0-4.5,0-6.8"/>
	<path fill="#FD346F" d="M6787.9,1100.4c-1579.3,0-3158.6,0-4737.9,0c0-2.3,0-4.5,0-6.8c1579.3,0,3158.6,0,4737.9,0
		C6787.9,1095.9,6787.9,1098.1,6787.9,1100.4z"/>
	<g>
		<path fill="#61284E" d="M858.9,997.2V515.9h412.5v68.8h68.8v206.3h-137.5v68.8h68.8v68.8h68.8v68.8h-206.2v-68.8h-68.8v-68.8
			h-68.8v137.5H858.9z M996.4,790.9h137.5v-68.8h68.8V584.7H996.4V790.9z"/>
		<path fill="#61284E" d="M1408.9,997.2V515.9h481.2v68.8h-343.8v137.5h275v68.8h-275v137.5h343.8v68.8H1408.9z"/>
		<path fill="#61284E" d="M2027.6,997.2v-68.8h-68.8v-68.8h137.5v68.8h206.2V790.9h-275v-68.8h-68.8V584.7h68.8v-68.8h343.8v68.8
			h68.8v68.8h-137.5v-68.8h-206.2v137.5h275v68.8h68.8v137.5h-68.8v68.8H2027.6z"/>
		<path fill="#61284E" d="M2715.1,997.2V584.7h-137.5v-68.8h412.5v68.8h-137.5v412.5H2715.1z"/>
		<path fill="#61284E" d="M3058.9,997.2V653.4h68.8v-68.8h68.8v-68.8h206.2v68.8h68.8v68.8h68.8v343.8h-137.5V859.7h-206.2v137.5
			H3058.9z M3196.4,790.9h206.2V653.4h-68.8v-68.8h-68.8v68.8h-68.8V790.9z"/>
		<path fill="#61284E" d="M3608.9,997.2V515.9h412.5v68.8h68.8v206.3h-137.5v68.8h68.8v68.8h68.8v68.8h-206.2v-68.8h-68.8v-68.8
			h-68.8v137.5H3608.9z M3746.4,790.9h137.5v-68.8h68.8V584.7h-206.2V790.9z"/>
		<path fill="#61284E" d="M4365.1,997.2V584.7h-137.5v-68.8h412.5v68.8h-137.5v412.5H4365.1z"/>
		<path fill="#61284E" d="M5396.4,997.2v-68.8h-68.8v-68.8h-68.8V653.4h68.8v-68.8h68.8v-68.8h343.8v68.8h-275v68.8h-68.8v206.3
			h68.8v68.8h137.5V790.9h-68.8v-68.8h206.2v275H5396.4z"/>
		<path fill="#61284E" d="M5808.9,997.2V653.4h68.8v-68.8h68.8v-68.8h206.2v68.8h68.8v68.8h68.8v343.8h-137.5V859.7h-206.2v137.5
			H5808.9z M5946.4,790.9h206.2V653.4h-68.8v-68.8h-68.8v68.8h-68.8V790.9z"/>
		<path fill="#61284E" d="M6358.9,997.2V515.9h137.5v68.8h68.8v68.8h68.8v-68.8h68.8v-68.8h137.5v481.3h-137.5v-275h-68.8v137.5
			h-68.8V722.2h-68.8v275H6358.9z"/>
		<path fill="#61284E" d="M6908.9,997.2V515.9h481.2v68.8h-343.8v137.5h275v68.8h-275v137.5h343.8v68.8H6908.9z"/>
	</g>
</g>
</svg>
