<?xml version="1.0" encoding="utf-8"?>
<!-- Generator: Adobe Illustrator 26.5.0, SVG Export Plug-In . SVG Version: 6.00 Build 0)  -->
<svg version="1.0" id="Layer_1" xmlns="http://www.w3.org/2000/svg" xmlns:xlink="http://www.w3.org/1999/xlink" x="0px" y="0px"
	 width="59px" height="41px" viewBox="0 0 59 41" enable-background="new 0 0 59 41" xml:space="preserve">
<polygon fill="#FD346F" points="21.5,5.5 17.4,5.5 13.4,5.5 9.4,5.5 5.4,5.5 5.4,9.8 5.4,14.1 5.4,18.4 5.4,22.6 5.4,26.9 5.4,31.2 
	5.4,35.5 9.4,35.5 13.4,35.5 17.4,35.5 21.5,35.5 25.5,35.5 29.5,35.5 33.5,35.5 37.5,35.5 41.6,35.5 41.6,31.2 45.6,31.2 
	45.6,26.9 49.6,26.9 49.6,22.6 53.6,22.6 53.6,18.4 49.6,18.4 49.6,14.1 45.6,14.1 45.6,9.8 41.6,9.8 41.6,5.5 37.5,5.5 33.5,5.5 
	29.5,5.5 25.5,5.5 "/>
<g>
</g>
<g>
</g>
<g>
</g>
<g>
</g>
<g>
</g>
<g>
</g>
<g>
</g>
<g>
</g>
<g>
</g>
<g>
</g>
<g>
</g>
<g>
</g>
<g>
</g>
<g>
</g>
<g>
</g>
</svg>
