<?xml version="1.0" encoding="utf-8"?>
<!-- Generator: Adobe Illustrator 26.5.0, SVG Export Plug-In . SVG Version: 6.00 Build 0)  -->
<svg version="1.0" id="_x2014_ÎÓÈ_x5F_1" xmlns="http://www.w3.org/2000/svg" xmlns:xlink="http://www.w3.org/1999/xlink"
	 x="0px" y="0px" width="6024.4px" height="2056.8px" viewBox="0 0 6024.4 2056.8" enable-background="new 0 0 6024.4 2056.8"
	 xml:space="preserve">
<g>
	<g>
		<rect x="796.5" y="624.1" fill="#FFFFFF" width="139.7" height="139.8"/>
	</g>
	<g>
		<rect x="796.5" y="484.2" fill="#FFFFFF" width="139.7" height="139.8"/>
	</g>
	<g>
		<rect x="656.6" y="763.9" fill="#FFFFFF" width="139.8" height="139.7"/>
	</g>
	<g>
		<rect x="656.6" y="624.1" fill="#FFFFFF" width="139.8" height="139.8"/>
	</g>
	<g>
		<rect x="516.9" y="763.9" fill="#FFFFFF" width="139.7" height="139.7"/>
	</g>
	<g>
		<polygon fill="#F01449" points="5548.7,1183.1 5548.7,1323 5409,1323 5409,1462.7 5269.1,1462.7 5269.1,1602.5 5129.4,1602.5 
			4989.6,1602.5 4849.9,1602.5 4710,1602.5 4570.3,1602.5 4430.5,1602.5 4290.8,1602.5 4151,1602.5 4011.3,1602.5 3871.4,1602.5 
			3731.7,1602.5 3591.9,1602.5 3452,1602.5 3312.3,1602.5 3172.5,1602.5 3032.8,1602.5 2892.9,1602.5 2753.2,1602.5 2613.4,1602.5 
			2473.7,1602.5 2333.9,1602.5 2194.2,1602.5 2054.3,1602.5 1914.6,1602.5 1774.8,1602.5 1635.1,1602.5 1495.2,1602.5 
			1355.5,1602.5 1215.7,1602.5 1076,1602.5 936.2,1602.5 796.5,1602.5 796.5,1462.7 656.6,1462.7 656.6,1323 516.9,1323 377.1,1323 
			377.1,1462.7 516.9,1462.7 516.9,1602.5 656.6,1602.5 656.6,1742.2 796.5,1742.2 936.2,1742.2 1076,1742.2 1215.7,1742.2 
			1355.5,1742.2 1495.2,1742.2 1635.1,1742.2 1774.8,1742.2 1914.6,1742.2 2054.3,1742.2 2194.2,1742.2 2333.9,1742.2 
			2473.7,1742.2 2613.4,1742.2 2753.2,1742.2 2892.9,1742.2 3032.8,1742.2 3172.5,1742.2 3312.3,1742.2 3452,1742.2 3591.9,1742.2 
			3731.7,1742.2 3871.4,1742.2 4011.3,1742.2 4151,1742.2 4290.8,1742.2 4430.5,1742.2 4570.3,1742.2 4710,1742.2 4849.9,1742.2 
			4989.6,1742.2 5129.4,1742.2 5269.1,1742.2 5409,1742.2 5409,1602.5 5548.7,1602.5 5548.7,1462.7 5688.5,1462.7 5688.5,1323 
			5688.5,1183.1 		"/>
	</g>
	<g>
		<polygon fill="#FF356F" points="5548.7,624.1 5548.7,484.2 5409,484.2 5269.1,484.2 5129.4,484.2 4989.6,484.2 4849.9,484.2 
			4710,484.2 4570.3,484.2 4430.5,484.2 4290.8,484.2 4151,484.2 4011.3,484.2 3871.4,484.2 3731.7,484.2 3591.9,484.2 3452,484.2 
			3312.3,484.2 3172.5,484.2 3032.8,484.2 2892.9,484.2 2753.2,484.2 2613.4,484.2 2473.7,484.2 2333.9,484.2 2194.2,484.2 
			2054.3,484.2 1914.6,484.2 1774.8,484.2 1635.1,484.2 1495.2,484.2 1355.5,484.2 1215.7,484.2 1076,484.2 936.2,484.2 
			936.2,624.1 936.2,763.9 796.5,763.9 796.5,903.6 656.6,903.6 516.9,903.6 516.9,763.9 377.1,763.9 377.1,903.6 377.1,1043.4 
			377.1,1183.1 377.1,1323 516.9,1323 656.6,1323 656.6,1462.7 796.5,1462.7 796.5,1602.5 936.2,1602.5 1076,1602.5 1215.7,1602.5 
			1355.5,1602.5 1495.2,1602.5 1635.1,1602.5 1774.8,1602.5 1914.6,1602.5 2054.3,1602.5 2194.2,1602.5 2333.9,1602.5 
			2473.7,1602.5 2613.4,1602.5 2753.2,1602.5 2892.9,1602.5 3032.8,1602.5 3172.5,1602.5 3312.3,1602.5 3452,1602.5 3591.9,1602.5 
			3731.7,1602.5 3871.4,1602.5 4011.3,1602.5 4151,1602.5 4290.8,1602.5 4430.5,1602.5 4570.3,1602.5 4710,1602.5 4849.9,1602.5 
			4989.6,1602.5 5129.4,1602.5 5269.1,1602.5 5269.1,1462.7 5409,1462.7 5409,1323 5548.7,1323 5548.7,1183.1 5688.5,1183.1 
			5688.5,1043.4 5688.5,903.6 5688.5,763.9 5688.5,624.1 		"/>
	</g>
	<g>
		<polygon fill="#FF6B9A" points="5269.1,344.5 5129.4,344.5 4989.6,344.5 4849.9,344.5 4710,344.5 4570.3,344.5 4430.5,344.5 
			4290.8,344.5 4151,344.5 4011.3,344.5 3871.4,344.5 3731.7,344.5 3591.9,344.5 3452,344.5 3312.3,344.5 3172.5,344.5 
			3032.8,344.5 2892.9,344.5 2753.2,344.5 2613.4,344.5 2473.7,344.5 2333.9,344.5 2194.2,344.5 2054.3,344.5 1914.6,344.5 
			1774.8,344.5 1635.1,344.5 1495.2,344.5 1355.5,344.5 1215.7,344.5 1076,344.5 936.2,344.5 796.5,344.5 656.6,344.5 656.6,484.2 
			516.9,484.2 516.9,624.1 377.1,624.1 377.1,763.9 516.9,763.9 656.6,763.9 656.6,624.1 796.5,624.1 796.5,484.2 936.2,484.2 
			1076,484.2 1215.7,484.2 1355.5,484.2 1495.2,484.2 1635.1,484.2 1774.8,484.2 1914.6,484.2 2054.3,484.2 2194.2,484.2 
			2333.9,484.2 2473.7,484.2 2613.4,484.2 2753.2,484.2 2892.9,484.2 3032.8,484.2 3172.5,484.2 3312.3,484.2 3452,484.2 
			3591.9,484.2 3731.7,484.2 3871.4,484.2 4011.3,484.2 4151,484.2 4290.8,484.2 4430.5,484.2 4570.3,484.2 4710,484.2 
			4849.9,484.2 4989.6,484.2 5129.4,484.2 5269.1,484.2 5409,484.2 5409,344.5 		"/>
	</g>
	<g>
		<g>
			<polygon fill="#61284E" points="5688.5,624.1 5688.5,763.9 5688.5,903.6 5688.5,1043.4 5688.5,1183.1 5688.5,1323 5688.5,1462.7 
				5828.2,1462.7 5828.2,1323 5828.2,1183.1 5828.2,1043.4 5828.2,903.6 5828.2,763.9 5828.2,624.1 			"/>
		</g>
		<g>
			<rect x="5548.7" y="1462.7" fill="#61284E" width="139.8" height="139.8"/>
		</g>
		<g>
			<rect x="5548.7" y="484.2" fill="#61284E" width="139.8" height="139.8"/>
		</g>
		<g>
			<rect x="5409" y="1602.5" fill="#61284E" width="139.7" height="139.7"/>
		</g>
		<g>
			<rect x="5409" y="344.5" fill="#61284E" width="139.7" height="139.7"/>
		</g>
		<g>
			<polygon fill="#61284E" points="5129.4,1742.2 4989.6,1742.2 4849.9,1742.2 4710,1742.2 4570.3,1742.2 4430.5,1742.2 
				4290.8,1742.2 4151,1742.2 4011.3,1742.2 3871.4,1742.2 3731.7,1742.2 3591.9,1742.2 3452,1742.2 3312.3,1742.2 3172.5,1742.2 
				3032.8,1742.2 2892.9,1742.2 2753.2,1742.2 2613.4,1742.2 2473.7,1742.2 2333.9,1742.2 2194.2,1742.2 2054.3,1742.2 
				1914.6,1742.2 1774.8,1742.2 1635.1,1742.2 1495.2,1742.2 1355.5,1742.2 1215.7,1742.2 1076,1742.2 936.2,1742.2 796.5,1742.2 
				656.6,1742.2 656.6,1882.1 796.5,1882.1 936.2,1882.1 1076,1882.1 1215.7,1882.1 1355.5,1882.1 1495.2,1882.1 1635.1,1882.1 
				1774.8,1882.1 1914.6,1882.1 2054.3,1882.1 2194.2,1882.1 2333.9,1882.1 2473.7,1882.1 2613.4,1882.1 2753.2,1882.1 
				2892.9,1882.1 3032.8,1882.1 3172.5,1882.1 3312.3,1882.1 3452,1882.1 3591.9,1882.1 3731.7,1882.1 3871.4,1882.1 4011.3,1882.1 
				4151,1882.1 4290.8,1882.1 4430.5,1882.1 4570.3,1882.1 4710,1882.1 4849.9,1882.1 4989.6,1882.1 5129.4,1882.1 5269.1,1882.1 
				5409,1882.1 5409,1742.2 5269.1,1742.2 			"/>
		</g>
		<g>
			<polygon fill="#61284E" points="936.2,344.5 1076,344.5 1215.7,344.5 1355.5,344.5 1495.2,344.5 1635.1,344.5 1774.8,344.5 
				1914.6,344.5 2054.3,344.5 2194.2,344.5 2333.9,344.5 2473.7,344.5 2613.4,344.5 2753.2,344.5 2892.9,344.5 3032.8,344.5 
				3172.5,344.5 3312.3,344.5 3452,344.5 3591.9,344.5 3731.7,344.5 3871.4,344.5 4011.3,344.5 4151,344.5 4290.8,344.5 
				4430.5,344.5 4570.3,344.5 4710,344.5 4849.9,344.5 4989.6,344.5 5129.4,344.5 5269.1,344.5 5409,344.5 5409,204.7 5269.1,204.7 
				5129.4,204.7 4989.6,204.7 4849.9,204.7 4710,204.7 4570.3,204.7 4430.5,204.7 4290.8,204.7 4151,204.7 4011.3,204.7 
				3871.4,204.7 3731.7,204.7 3591.9,204.7 3452,204.7 3312.3,204.7 3172.5,204.7 3032.8,204.7 2892.9,204.7 2753.2,204.7 
				2613.4,204.7 2473.7,204.7 2333.9,204.7 2194.2,204.7 2054.3,204.7 1914.6,204.7 1774.8,204.7 1635.1,204.7 1495.2,204.7 
				1355.5,204.7 1215.7,204.7 1076,204.7 936.2,204.7 796.5,204.7 656.6,204.7 656.6,344.5 796.5,344.5 			"/>
		</g>
		<g>
			<rect x="516.9" y="1602.5" fill="#61284E" width="139.7" height="139.7"/>
		</g>
		<g>
			<rect x="516.9" y="344.5" fill="#61284E" width="139.7" height="139.7"/>
		</g>
		<g>
			<rect x="377.1" y="1462.7" fill="#61284E" width="139.8" height="139.8"/>
		</g>
		<g>
			<rect x="377.1" y="484.2" fill="#61284E" width="139.8" height="139.8"/>
		</g>
		<g>
			<polygon fill="#61284E" points="377.1,1183.1 377.1,1043.4 377.1,903.6 377.1,763.9 377.1,624.1 237.2,624.1 237.2,763.9 
				237.2,903.6 237.2,1043.4 237.2,1183.1 237.2,1323 237.2,1462.7 377.1,1462.7 377.1,1323 			"/>
		</g>
	</g>
</g>
<g>
	<path fill="#61284E" d="M1152.4,1203.8v-56.2h-56.2v-56.2h112.5v56.2h168.8v-112.5h-225v-56.3h-56.2V866.3h56.2v-56.2h281.2v56.2
		h56.2v56.2h-112.5v-56.2h-168.8v112.5h225v56.3h56.2v112.5h-56.2v56.2H1152.4z"/>
	<path fill="#61284E" d="M1546.1,1203.8V810.1h337.5v56.2h56.2v168.8h-56.2v56.2h-225v112.5H1546.1z M1658.6,1035.1h168.8V866.3
		h-168.8V1035.1z"/>
	<path fill="#61284E" d="M1996.1,1203.8V922.6h56.2v-56.2h56.2v-56.2h168.8v56.2h56.2v56.2h56.2v281.2h-112.5v-112.5h-168.8v112.5
		H1996.1z M2108.6,1035.1h168.8V922.6h-56.2v-56.2h-56.2v56.2h-56.2V1035.1z"/>
	<path fill="#61284E" d="M2558.6,1203.8v-56.2h-56.2v-56.2h-56.2V922.6h56.2v-56.2h56.2v-56.2h225v56.2h56.2v56.2h-112.5v-56.2
		h-112.5v56.2h-56.2v168.7h56.2v56.2h112.5v-56.2h112.5v56.2h-56.2v56.2H2558.6z"/>
	<path fill="#61284E" d="M2896.1,1203.8V810.1h393.8v56.2h-281.2v112.5h225v56.3h-225v112.5h281.2v56.2H2896.1z"/>
	<path fill="#61284E" d="M3796.1,1203.8V810.1h337.5v56.2h56.2v112.5h-56.2v56.3h56.2v112.5h-56.2v56.2H3796.1z M3908.6,978.8h168.8
		V866.3h-168.8V978.8z M3908.6,1147.6h168.8v-112.5h-168.8V1147.6z"/>
	<path fill="#61284E" d="M4246.1,1203.8V922.6h56.2v-56.2h56.2v-56.2h168.8v56.2h56.2v56.2h56.2v281.2h-112.5v-112.5h-168.8v112.5
		H4246.1z M4358.6,1035.1h168.8V922.6h-56.2v-56.2h-56.2v56.2h-56.2V1035.1z"/>
	<path fill="#61284E" d="M4696.1,1203.8V810.1h337.5v56.2h56.2v168.8h-112.5v56.2h56.2v56.2h56.2v56.2h-168.8v-56.2h-56.2v-56.2
		h-56.2v112.5H4696.1z M4808.6,1035.1h112.5v-56.3h56.2V866.3h-168.8V1035.1z"/>
</g>
<g>
</g>
<g>
</g>
<g>
</g>
<g>
</g>
<g>
</g>
<g>
</g>
</svg>
