<?xml version="1.0" encoding="utf-8"?>
<!-- Generator: Adobe Illustrator 26.5.0, SVG Export Plug-In . SVG Version: 6.00 Build 0)  -->
<svg version="1.0" id="_x2014_ÎÓÈ_x5F_1" xmlns="http://www.w3.org/2000/svg" xmlns:xlink="http://www.w3.org/1999/xlink"
	 x="0px" y="0px" width="3859.8px" height="1535.2px" viewBox="0 0 3859.8 1535.2" enable-background="new 0 0 3859.8 1535.2"
	 xml:space="preserve">
<g>
	<g>
		<g>
			<rect x="575.8" y="513.4" fill="#FFFFFF" width="84.6" height="84.7"/>
		</g>
		<g>
			<rect x="575.8" y="428.7" fill="#FFFFFF" width="84.6" height="84.7"/>
		</g>
		<g>
			<rect x="491.2" y="598.1" fill="#FFFFFF" width="84.7" height="84.6"/>
		</g>
		<g>
			<rect x="491.2" y="513.4" fill="#FFFFFF" width="84.7" height="84.7"/>
		</g>
		<g>
			<rect x="406.6" y="598.1" fill="#FFFFFF" width="84.6" height="84.6"/>
		</g>
		<g>
			<polygon fill="#F01449" points="3453.3,851.9 3453.3,936.6 3368.7,936.6 3368.7,1021.2 3284,1021.2 3284,1105.8 3199.5,1105.8 
				3114.8,1105.8 3030.2,1105.8 2945.5,1105.8 2860.9,1105.8 2776.3,1105.8 2691.7,1105.8 2607,1105.8 2522.4,1105.8 2437.7,1105.8 
				2353.1,1105.8 2268.5,1105.8 2183.8,1105.8 2099.2,1105.8 2014.5,1105.8 1929.9,1105.8 1845.3,1105.8 1760.7,1105.8 1676,1105.8 
				1591.4,1105.8 1506.7,1105.8 1422.2,1105.8 1337.5,1105.8 1252.9,1105.8 1168.2,1105.8 1083.6,1105.8 999,1105.8 914.4,1105.8 
				829.7,1105.8 745.1,1105.8 660.4,1105.8 575.8,1105.8 575.8,1021.2 491.2,1021.2 491.2,936.6 406.6,936.6 321.9,936.6 
				321.9,1021.2 406.6,1021.2 406.6,1105.8 491.2,1105.8 491.2,1190.4 575.8,1190.4 660.4,1190.4 745.1,1190.4 829.7,1190.4 
				914.4,1190.4 999,1190.4 1083.6,1190.4 1168.2,1190.4 1252.9,1190.4 1337.5,1190.4 1422.2,1190.4 1506.7,1190.4 1591.4,1190.4 
				1676,1190.4 1760.7,1190.4 1845.3,1190.4 1929.9,1190.4 2014.5,1190.4 2099.2,1190.4 2183.8,1190.4 2268.5,1190.4 2353.1,1190.4 
				2437.7,1190.4 2522.4,1190.4 2607,1190.4 2691.7,1190.4 2776.3,1190.4 2860.9,1190.4 2945.5,1190.4 3030.2,1190.4 3114.8,1190.4 
				3199.5,1190.4 3284,1190.4 3368.7,1190.4 3368.7,1105.8 3453.3,1105.8 3453.3,1021.2 3538,1021.2 3538,936.6 3538,851.9 			"/>
		</g>
		<g>
			<polygon fill="#FF356F" points="3453.3,513.4 3453.3,428.7 3368.7,428.7 3284,428.7 3199.5,428.7 3114.8,428.7 3030.2,428.7 
				2945.5,428.7 2860.9,428.7 2776.3,428.7 2691.7,428.7 2607,428.7 2522.4,428.7 2437.7,428.7 2353.1,428.7 2268.5,428.7 
				2183.8,428.7 2099.2,428.7 2014.5,428.7 1929.9,428.7 1845.3,428.7 1760.7,428.7 1676,428.7 1591.4,428.7 1506.7,428.7 
				1422.2,428.7 1337.5,428.7 1252.9,428.7 1168.2,428.7 1083.6,428.7 999,428.7 914.4,428.7 829.7,428.7 745.1,428.7 660.4,428.7 
				660.4,513.4 660.4,598.1 575.8,598.1 575.8,682.6 491.2,682.6 406.6,682.6 406.6,598.1 321.9,598.1 321.9,682.6 321.9,767.3 
				321.9,851.9 321.9,936.6 406.6,936.6 491.2,936.6 491.2,1021.2 575.8,1021.2 575.8,1105.8 660.4,1105.8 745.1,1105.8 
				829.7,1105.8 914.4,1105.8 999,1105.8 1083.6,1105.8 1168.2,1105.8 1252.9,1105.8 1337.5,1105.8 1422.2,1105.8 1506.7,1105.8 
				1591.4,1105.8 1676,1105.8 1760.7,1105.8 1845.3,1105.8 1929.9,1105.8 2014.5,1105.8 2099.2,1105.8 2183.8,1105.8 2268.5,1105.8 
				2353.1,1105.8 2437.7,1105.8 2522.4,1105.8 2607,1105.8 2691.7,1105.8 2776.3,1105.8 2860.9,1105.8 2945.5,1105.8 3030.2,1105.8 
				3114.8,1105.8 3199.5,1105.8 3284,1105.8 3284,1021.2 3368.7,1021.2 3368.7,936.6 3453.3,936.6 3453.3,851.9 3538,851.9 
				3538,767.3 3538,682.6 3538,598.1 3538,513.4 			"/>
		</g>
		<g>
			<polygon fill="#FF6B9A" points="3284,344.1 3199.5,344.1 3114.8,344.1 3030.2,344.1 2945.5,344.1 2860.9,344.1 2776.3,344.1 
				2691.7,344.1 2607,344.1 2522.4,344.1 2437.7,344.1 2353.1,344.1 2268.5,344.1 2183.8,344.1 2099.2,344.1 2014.5,344.1 
				1929.9,344.1 1845.3,344.1 1760.7,344.1 1676,344.1 1591.4,344.1 1506.7,344.1 1422.2,344.1 1337.5,344.1 1252.9,344.1 
				1168.2,344.1 1083.6,344.1 999,344.1 914.4,344.1 829.7,344.1 745.1,344.1 660.4,344.1 575.8,344.1 491.2,344.1 491.2,428.7 
				406.6,428.7 406.6,513.4 321.9,513.4 321.9,598.1 406.6,598.1 491.2,598.1 491.2,513.4 575.8,513.4 575.8,428.7 660.4,428.7 
				745.1,428.7 829.7,428.7 914.4,428.7 999,428.7 1083.6,428.7 1168.2,428.7 1252.9,428.7 1337.5,428.7 1422.2,428.7 1506.7,428.7 
				1591.4,428.7 1676,428.7 1760.7,428.7 1845.3,428.7 1929.9,428.7 2014.5,428.7 2099.2,428.7 2183.8,428.7 2268.5,428.7 
				2353.1,428.7 2437.7,428.7 2522.4,428.7 2607,428.7 2691.7,428.7 2776.3,428.7 2860.9,428.7 2945.5,428.7 3030.2,428.7 
				3114.8,428.7 3199.5,428.7 3284,428.7 3368.7,428.7 3368.7,344.1 			"/>
		</g>
		<g>
			<g>
				<polygon fill="#61284E" points="3538,513.4 3538,598.1 3538,682.6 3538,767.3 3538,851.9 3538,936.6 3538,1021.2 3622.6,1021.2 
					3622.6,936.6 3622.6,851.9 3622.6,767.3 3622.6,682.6 3622.6,598.1 3622.6,513.4 				"/>
			</g>
			<g>
				<rect x="3453.3" y="1021.2" fill="#61284E" width="84.7" height="84.7"/>
			</g>
			<g>
				<rect x="3453.3" y="428.7" fill="#61284E" width="84.7" height="84.7"/>
			</g>
			<g>
				<rect x="3368.7" y="1105.8" fill="#61284E" width="84.6" height="84.6"/>
			</g>
			<g>
				<rect x="3368.7" y="344.1" fill="#61284E" width="84.6" height="84.6"/>
			</g>
			<g>
				<polygon fill="#61284E" points="3199.5,1190.4 3114.8,1190.4 3030.2,1190.4 2945.5,1190.4 2860.9,1190.4 2776.3,1190.4 
					2691.7,1190.4 2607,1190.4 2522.4,1190.4 2437.7,1190.4 2353.1,1190.4 2268.5,1190.4 2183.8,1190.4 2099.2,1190.4 
					2014.5,1190.4 1929.9,1190.4 1845.3,1190.4 1760.7,1190.4 1676,1190.4 1591.4,1190.4 1506.7,1190.4 1422.2,1190.4 
					1337.5,1190.4 1252.9,1190.4 1168.2,1190.4 1083.6,1190.4 999,1190.4 914.4,1190.4 829.7,1190.4 745.1,1190.4 660.4,1190.4 
					575.8,1190.4 491.2,1190.4 491.2,1275.1 575.8,1275.1 660.4,1275.1 745.1,1275.1 829.7,1275.1 914.4,1275.1 999,1275.1 
					1083.6,1275.1 1168.2,1275.1 1252.9,1275.1 1337.5,1275.1 1422.2,1275.1 1506.7,1275.1 1591.4,1275.1 1676,1275.1 
					1760.7,1275.1 1845.3,1275.1 1929.9,1275.1 2014.5,1275.1 2099.2,1275.1 2183.8,1275.1 2268.5,1275.1 2353.1,1275.1 
					2437.7,1275.1 2522.4,1275.1 2607,1275.1 2691.7,1275.1 2776.3,1275.1 2860.9,1275.1 2945.5,1275.1 3030.2,1275.1 
					3114.8,1275.1 3199.5,1275.1 3284,1275.1 3368.7,1275.1 3368.7,1190.4 3284,1190.4 				"/>
			</g>
			<g>
				<polygon fill="#61284E" points="660.4,344.1 745.1,344.1 829.7,344.1 914.4,344.1 999,344.1 1083.6,344.1 1168.2,344.1 
					1252.9,344.1 1337.5,344.1 1422.2,344.1 1506.7,344.1 1591.4,344.1 1676,344.1 1760.7,344.1 1845.3,344.1 1929.9,344.1 
					2014.5,344.1 2099.2,344.1 2183.8,344.1 2268.5,344.1 2353.1,344.1 2437.7,344.1 2522.4,344.1 2607,344.1 2691.7,344.1 
					2776.3,344.1 2860.9,344.1 2945.5,344.1 3030.2,344.1 3114.8,344.1 3199.5,344.1 3284,344.1 3368.7,344.1 3368.7,259.5 
					3284,259.5 3199.5,259.5 3114.8,259.5 3030.2,259.5 2945.5,259.5 2860.9,259.5 2776.3,259.5 2691.7,259.5 2607,259.5 
					2522.4,259.5 2437.7,259.5 2353.1,259.5 2268.5,259.5 2183.8,259.5 2099.2,259.5 2014.5,259.5 1929.9,259.5 1845.3,259.5 
					1760.7,259.5 1676,259.5 1591.4,259.5 1506.7,259.5 1422.2,259.5 1337.5,259.5 1252.9,259.5 1168.2,259.5 1083.6,259.5 
					999,259.5 914.4,259.5 829.7,259.5 745.1,259.5 660.4,259.5 575.8,259.5 491.2,259.5 491.2,344.1 575.8,344.1 				"/>
			</g>
			<g>
				<rect x="406.6" y="1105.8" fill="#61284E" width="84.6" height="84.6"/>
			</g>
			<g>
				<rect x="406.6" y="344.1" fill="#61284E" width="84.6" height="84.6"/>
			</g>
			<g>
				<rect x="321.9" y="1021.2" fill="#61284E" width="84.7" height="84.7"/>
			</g>
			<g>
				<rect x="321.9" y="428.7" fill="#61284E" width="84.7" height="84.7"/>
			</g>
			<g>
				<polygon fill="#61284E" points="321.9,851.9 321.9,767.3 321.9,682.6 321.9,598.1 321.9,513.4 237.2,513.4 237.2,598.1 
					237.2,682.6 237.2,767.3 237.2,851.9 237.2,936.6 237.2,1021.2 321.9,1021.2 321.9,936.6 				"/>
			</g>
		</g>
	</g>
	<g>
		<g>
			<path fill="#61284E" d="M863.8,706.1h242.3v80.8h80.8v165.6h-80.8v80.8H779v-84.8h323.1V791H859.8v-80.8H779V544.6h80.8v-80.8
				h327.2v84.8H863.8V706.1z"/>
		</g>
		<g>
			<path fill="#61284E" d="M1263.7,463.8h407.9v84.8h-161.6v484.7h-84.8V548.6h-161.5V463.8z"/>
		</g>
		<g>
			<path fill="#61284E" d="M1833.2,1033.3h-84.8V544.6h80.8v-80.8h246.4v80.8h80.8v488.7h-84.8V871.7h-238.3V1033.3z M1833.2,786.9
				h238.3V548.6h-238.3V786.9z"/>
		</g>
		<g>
			<path fill="#61284E" d="M2475.4,791h-157.5v242.3H2233V463.8h327.1v80.8h80.8v165.6h-80.8v157.5h80.8v165.6h-84.8V871.7h-80.8
				V791z M2317.9,706.1h238.3V548.6h-238.3V706.1z"/>
		</g>
		<g>
			<path fill="#61284E" d="M2717.7,463.8h407.9v84.8h-161.6v484.7h-84.8V548.6h-161.5V463.8z"/>
		</g>
	</g>
</g>
<g>
</g>
<g>
</g>
<g>
</g>
<g>
</g>
<g>
</g>
<g>
</g>
</svg>
