<?xml version="1.0" encoding="utf-8"?>
<!-- Generator: Adobe Illustrator 26.5.0, SVG Export Plug-In . SVG Version: 6.00 Build 0)  -->
<svg version="1.0" id="_x2014_ÎÓÈ_x5F_1" xmlns="http://www.w3.org/2000/svg" xmlns:xlink="http://www.w3.org/1999/xlink"
	 x="0px" y="0px" width="3859.8px" height="1535.2px" viewBox="0 0 3859.8 1535.2" enable-background="new 0 0 3859.8 1535.2"
	 xml:space="preserve">
<g>
	<g>
		<rect x="575.8" y="513.4" fill="#FFFFFF" width="84.6" height="84.7"/>
	</g>
	<g>
		<rect x="575.8" y="428.7" fill="#FFFFFF" width="84.6" height="84.7"/>
	</g>
	<g>
		<rect x="491.2" y="598.1" fill="#FFFFFF" width="84.7" height="84.6"/>
	</g>
	<g>
		<rect x="491.2" y="513.4" fill="#FFFFFF" width="84.7" height="84.7"/>
	</g>
	<g>
		<rect x="406.6" y="598.1" fill="#FFFFFF" width="84.6" height="84.6"/>
	</g>
	<g>
		<polygon fill="#F01449" points="3453.3,851.9 3453.3,936.6 3368.7,936.6 3368.7,1021.2 3284,1021.2 3284,1105.8 3199.5,1105.8 
			3114.8,1105.8 3030.2,1105.8 2945.5,1105.8 2860.9,1105.8 2776.3,1105.8 2691.7,1105.8 2607,1105.8 2522.4,1105.8 2437.7,1105.8 
			2353.1,1105.8 2268.5,1105.8 2183.8,1105.8 2099.2,1105.8 2014.5,1105.8 1929.9,1105.8 1845.3,1105.8 1760.7,1105.8 1676,1105.8 
			1591.4,1105.8 1506.7,1105.8 1422.2,1105.8 1337.5,1105.8 1252.9,1105.8 1168.2,1105.8 1083.6,1105.8 999,1105.8 914.4,1105.8 
			829.7,1105.8 745.1,1105.8 660.4,1105.8 575.8,1105.8 575.8,1021.2 491.2,1021.2 491.2,936.6 406.6,936.6 321.9,936.6 
			321.9,1021.2 406.6,1021.2 406.6,1105.8 491.2,1105.8 491.2,1190.4 575.8,1190.4 660.4,1190.4 745.1,1190.4 829.7,1190.4 
			914.4,1190.4 999,1190.4 1083.6,1190.4 1168.2,1190.4 1252.9,1190.4 1337.5,1190.4 1422.2,1190.4 1506.7,1190.4 1591.4,1190.4 
			1676,1190.4 1760.7,1190.4 1845.3,1190.4 1929.9,1190.4 2014.5,1190.4 2099.2,1190.4 2183.8,1190.4 2268.5,1190.4 2353.1,1190.4 
			2437.7,1190.4 2522.4,1190.4 2607,1190.4 2691.7,1190.4 2776.3,1190.4 2860.9,1190.4 2945.5,1190.4 3030.2,1190.4 3114.8,1190.4 
			3199.5,1190.4 3284,1190.4 3368.7,1190.4 3368.7,1105.8 3453.3,1105.8 3453.3,1021.2 3538,1021.2 3538,936.6 3538,851.9 		"/>
	</g>
	<g>
		<polygon fill="#FF356F" points="3453.3,513.4 3453.3,428.7 3368.7,428.7 3284,428.7 3199.5,428.7 3114.8,428.7 3030.2,428.7 
			2945.5,428.7 2860.9,428.7 2776.3,428.7 2691.7,428.7 2607,428.7 2522.4,428.7 2437.7,428.7 2353.1,428.7 2268.5,428.7 
			2183.8,428.7 2099.2,428.7 2014.5,428.7 1929.9,428.7 1845.3,428.7 1760.7,428.7 1676,428.7 1591.4,428.7 1506.7,428.7 
			1422.2,428.7 1337.5,428.7 1252.9,428.7 1168.2,428.7 1083.6,428.7 999,428.7 914.4,428.7 829.7,428.7 745.1,428.7 660.4,428.7 
			660.4,513.4 660.4,598.1 575.8,598.1 575.8,682.6 491.2,682.6 406.6,682.6 406.6,598.1 321.9,598.1 321.9,682.6 321.9,767.3 
			321.9,851.9 321.9,936.6 406.6,936.6 491.2,936.6 491.2,1021.2 575.8,1021.2 575.8,1105.8 660.4,1105.8 745.1,1105.8 
			829.7,1105.8 914.4,1105.8 999,1105.8 1083.6,1105.8 1168.2,1105.8 1252.9,1105.8 1337.5,1105.8 1422.2,1105.8 1506.7,1105.8 
			1591.4,1105.8 1676,1105.8 1760.7,1105.8 1845.3,1105.8 1929.9,1105.8 2014.5,1105.8 2099.2,1105.8 2183.8,1105.8 2268.5,1105.8 
			2353.1,1105.8 2437.7,1105.8 2522.4,1105.8 2607,1105.8 2691.7,1105.8 2776.3,1105.8 2860.9,1105.8 2945.5,1105.8 3030.2,1105.8 
			3114.8,1105.8 3199.5,1105.8 3284,1105.8 3284,1021.2 3368.7,1021.2 3368.7,936.6 3453.3,936.6 3453.3,851.9 3538,851.9 
			3538,767.3 3538,682.6 3538,598.1 3538,513.4 		"/>
	</g>
	<g>
		<polygon fill="#FF6B9A" points="3284,344.1 3199.5,344.1 3114.8,344.1 3030.2,344.1 2945.5,344.1 2860.9,344.1 2776.3,344.1 
			2691.7,344.1 2607,344.1 2522.4,344.1 2437.7,344.1 2353.1,344.1 2268.5,344.1 2183.8,344.1 2099.2,344.1 2014.5,344.1 
			1929.9,344.1 1845.3,344.1 1760.7,344.1 1676,344.1 1591.4,344.1 1506.7,344.1 1422.2,344.1 1337.5,344.1 1252.9,344.1 
			1168.2,344.1 1083.6,344.1 999,344.1 914.4,344.1 829.7,344.1 745.1,344.1 660.4,344.1 575.8,344.1 491.2,344.1 491.2,428.7 
			406.6,428.7 406.6,513.4 321.9,513.4 321.9,598.1 406.6,598.1 491.2,598.1 491.2,513.4 575.8,513.4 575.8,428.7 660.4,428.7 
			745.1,428.7 829.7,428.7 914.4,428.7 999,428.7 1083.6,428.7 1168.2,428.7 1252.9,428.7 1337.5,428.7 1422.2,428.7 1506.7,428.7 
			1591.4,428.7 1676,428.7 1760.7,428.7 1845.3,428.7 1929.9,428.7 2014.5,428.7 2099.2,428.7 2183.8,428.7 2268.5,428.7 
			2353.1,428.7 2437.7,428.7 2522.4,428.7 2607,428.7 2691.7,428.7 2776.3,428.7 2860.9,428.7 2945.5,428.7 3030.2,428.7 
			3114.8,428.7 3199.5,428.7 3284,428.7 3368.7,428.7 3368.7,344.1 		"/>
	</g>
	<g>
		<g>
			<polygon fill="#61284E" points="3538,513.4 3538,598.1 3538,682.6 3538,767.3 3538,851.9 3538,936.6 3538,1021.2 3622.6,1021.2 
				3622.6,936.6 3622.6,851.9 3622.6,767.3 3622.6,682.6 3622.6,598.1 3622.6,513.4 			"/>
		</g>
		<g>
			<rect x="3453.3" y="1021.2" fill="#61284E" width="84.7" height="84.7"/>
		</g>
		<g>
			<rect x="3453.3" y="428.7" fill="#61284E" width="84.7" height="84.7"/>
		</g>
		<g>
			<rect x="3368.7" y="1105.8" fill="#61284E" width="84.6" height="84.6"/>
		</g>
		<g>
			<rect x="3368.7" y="344.1" fill="#61284E" width="84.6" height="84.6"/>
		</g>
		<g>
			<polygon fill="#61284E" points="3199.5,1190.4 3114.8,1190.4 3030.2,1190.4 2945.5,1190.4 2860.9,1190.4 2776.3,1190.4 
				2691.7,1190.4 2607,1190.4 2522.4,1190.4 2437.7,1190.4 2353.1,1190.4 2268.5,1190.4 2183.8,1190.4 2099.2,1190.4 2014.5,1190.4 
				1929.9,1190.4 1845.3,1190.4 1760.7,1190.4 1676,1190.4 1591.4,1190.4 1506.7,1190.4 1422.2,1190.4 1337.5,1190.4 1252.9,1190.4 
				1168.2,1190.4 1083.6,1190.4 999,1190.4 914.4,1190.4 829.7,1190.4 745.1,1190.4 660.4,1190.4 575.8,1190.4 491.2,1190.4 
				491.2,1275.1 575.8,1275.1 660.4,1275.1 745.1,1275.1 829.7,1275.1 914.4,1275.1 999,1275.1 1083.6,1275.1 1168.2,1275.1 
				1252.9,1275.1 1337.5,1275.1 1422.2,1275.1 1506.7,1275.1 1591.4,1275.1 1676,1275.1 1760.7,1275.1 1845.3,1275.1 1929.9,1275.1 
				2014.5,1275.1 2099.2,1275.1 2183.8,1275.1 2268.5,1275.1 2353.1,1275.1 2437.7,1275.1 2522.4,1275.1 2607,1275.1 2691.7,1275.1 
				2776.3,1275.1 2860.9,1275.1 2945.5,1275.1 3030.2,1275.1 3114.8,1275.1 3199.5,1275.1 3284,1275.1 3368.7,1275.1 3368.7,1190.4 
				3284,1190.4 			"/>
		</g>
		<g>
			<polygon fill="#61284E" points="660.4,344.1 745.1,344.1 829.7,344.1 914.4,344.1 999,344.1 1083.6,344.1 1168.2,344.1 
				1252.9,344.1 1337.5,344.1 1422.2,344.1 1506.7,344.1 1591.4,344.1 1676,344.1 1760.7,344.1 1845.3,344.1 1929.9,344.1 
				2014.5,344.1 2099.2,344.1 2183.8,344.1 2268.5,344.1 2353.1,344.1 2437.7,344.1 2522.4,344.1 2607,344.1 2691.7,344.1 
				2776.3,344.1 2860.9,344.1 2945.5,344.1 3030.2,344.1 3114.8,344.1 3199.5,344.1 3284,344.1 3368.7,344.1 3368.7,259.5 
				3284,259.5 3199.5,259.5 3114.8,259.5 3030.2,259.5 2945.5,259.5 2860.9,259.5 2776.3,259.5 2691.7,259.5 2607,259.5 
				2522.4,259.5 2437.7,259.5 2353.1,259.5 2268.5,259.5 2183.8,259.5 2099.2,259.5 2014.5,259.5 1929.9,259.5 1845.3,259.5 
				1760.7,259.5 1676,259.5 1591.4,259.5 1506.7,259.5 1422.2,259.5 1337.5,259.5 1252.9,259.5 1168.2,259.5 1083.6,259.5 
				999,259.5 914.4,259.5 829.7,259.5 745.1,259.5 660.4,259.5 575.8,259.5 491.2,259.5 491.2,344.1 575.8,344.1 			"/>
		</g>
		<g>
			<rect x="406.6" y="1105.8" fill="#61284E" width="84.6" height="84.6"/>
		</g>
		<g>
			<rect x="406.6" y="344.1" fill="#61284E" width="84.6" height="84.6"/>
		</g>
		<g>
			<rect x="321.9" y="1021.2" fill="#61284E" width="84.7" height="84.7"/>
		</g>
		<g>
			<rect x="321.9" y="428.7" fill="#61284E" width="84.7" height="84.7"/>
		</g>
		<g>
			<polygon fill="#61284E" points="321.9,851.9 321.9,767.3 321.9,682.6 321.9,598.1 321.9,513.4 237.2,513.4 237.2,598.1 
				237.2,682.6 237.2,767.3 237.2,851.9 237.2,936.6 237.2,1021.2 321.9,1021.2 321.9,936.6 			"/>
		</g>
	</g>
</g>
<g>
	<path fill="#61284E" d="M834.5,981.6v-62.5H772v-62.5h125v62.5h187.5v-125h-250v-62.5H772v-125h62.5v-62.5H1147v62.5h62.5v62.5
		h-125v-62.5H897v125h250v62.5h62.5v125H1147v62.5H834.5z"/>
	<path fill="#61284E" d="M1459.5,981.6v-375h-125v-62.5h375v62.5h-125v375H1459.5z"/>
	<path fill="#61284E" d="M1772,981.6V669.1h62.5v-62.5h62.5v-62.5h187.5v62.5h62.5v62.5h62.5v312.5h-125v-125H1897v125H1772z
		 M1897,794.1h187.5v-125H2022v-62.5h-62.5v62.5H1897V794.1z"/>
	<path fill="#61284E" d="M2272,981.6V544.1h375v62.5h62.5v187.5h-125v62.5h62.5v62.5h62.5v62.5H2522v-62.5h-62.5v-62.5H2397v125
		H2272z M2397,794.1h125v-62.5h62.5v-125H2397V794.1z"/>
	<path fill="#61284E" d="M2959.5,981.6v-375h-125v-62.5h375v62.5h-125v375H2959.5z"/>
</g>
</svg>
